<?xml version="1.0" encoding="UTF-8" standalone="no"?>
<!DOCTYPE svg PUBLIC "-//W3C//DTD SVG 1.1//EN"
 "http://www.w3.org/Graphics/SVG/1.1/DTD/svg11.dtd">
<!-- Generated by graphviz version 2.49.3 (20211027.1534)
 -->
<!-- Title: vs2::UniqueTarget&lt; derived &gt; Pages: 1 -->
<svg width="218pt" height="106pt"
 viewBox="0.00 0.00 217.50 106.00" xmlns="http://www.w3.org/2000/svg" xmlns:xlink="http://www.w3.org/1999/xlink">
<g id="graph0" class="graph" transform="scale(1 1) rotate(0) translate(4 102)">
<title>vs2::UniqueTarget&lt; derived &gt;</title>
<polygon fill="white" stroke="transparent" points="-4,4 -4,-102 213.5,-102 213.5,4 -4,4"/>
<!-- Node1 -->
<g id="node1" class="node">
<title>Node1</title>
<g id="a_node1"><a xlink:title=" ">
<polygon fill="#bfbfbf" stroke="black" points="69.5,-0.5 69.5,-30.5 170.5,-30.5 170.5,-0.5 69.5,-0.5"/>
<text text-anchor="start" x="77.5" y="-18.5" font-family="Helvetica,sans-Serif" font-size="10.00">vs2::UniqueTarget&lt;</text>
<text text-anchor="middle" x="120" y="-7.5" font-family="Helvetica,sans-Serif" font-size="10.00"> derived &gt;</text>
</a>
</g>
</g>
<!-- Node2 -->
<g id="node2" class="node">
<title>Node2</title>
<g id="a_node2"><a xlink:title=" ">
<polygon fill="white" stroke="#bfbfbf" points="0,-67.5 0,-97.5 126,-97.5 126,-67.5 0,-67.5"/>
<text text-anchor="start" x="8" y="-85.5" font-family="Helvetica,sans-Serif" font-size="10.00">Instanced&lt; UniqueTarget</text>
<text text-anchor="middle" x="63" y="-74.5" font-family="Helvetica,sans-Serif" font-size="10.00">&lt; void &gt; &gt;</text>
</a>
</g>
</g>
<!-- Node2&#45;&gt;Node1 -->
<g id="edge1" class="edge">
<title>Node2&#45;&gt;Node1</title>
<path fill="none" stroke="midnightblue" d="M82.09,-59.74C90.52,-50.12 100.19,-39.09 107.66,-30.58"/>
<polygon fill="midnightblue" stroke="midnightblue" points="79.33,-57.57 75.37,-67.4 84.59,-62.18 79.33,-57.57"/>
</g>
<!-- Node3 -->
<g id="node3" class="node">
<title>Node3</title>
<g id="a_node3"><a xlink:href="classvs2_1_1Target.html" target="_top" xlink:title=" ">
<polygon fill="white" stroke="black" points="144.5,-73 144.5,-92 209.5,-92 209.5,-73 144.5,-73"/>
<text text-anchor="middle" x="177" y="-80" font-family="Helvetica,sans-Serif" font-size="10.00">vs2::Target</text>
</a>
</g>
</g>
<!-- Node3&#45;&gt;Node1 -->
<g id="edge2" class="edge">
<title>Node3&#45;&gt;Node1</title>
<path fill="none" stroke="midnightblue" d="M162.52,-64.99C153.2,-54.36 141.22,-40.7 132.35,-30.59"/>
<polygon fill="midnightblue" stroke="midnightblue" points="160.09,-67.52 169.31,-72.73 165.35,-62.91 160.09,-67.52"/>
</g>
</g>
</svg>
