<?xml version="1.0" encoding="UTF-8" standalone="no"?>
<!DOCTYPE svg PUBLIC "-//W3C//DTD SVG 1.1//EN"
 "http://www.w3.org/Graphics/SVG/1.1/DTD/svg11.dtd">
<!-- Generated by graphviz version 2.49.3 (20211027.1534)
 -->
<!-- Title: MoveNet_&lt; derived_t &gt; Pages: 1 -->
<!--zoomable 160 -->
<svg id="main" version="1.1" xmlns="http://www.w3.org/2000/svg" xmlns:xlink="http://www.w3.org/1999/xlink" xml:space="preserve" onload="init(evt)">
<style type="text/css"><![CDATA[
.edge:hover path { stroke: red; }
.edge:hover polygon { stroke: red; fill: red; }
]]></style>
<script type="text/javascript"><![CDATA[
var edges = document.getElementsByTagName('g');
if (edges && edges.length) {
  for (var i=0;i<edges.length;i++) {
    if (edges[i].id.substr(0,4)=='edge') {
      edges[i].setAttribute('class','edge');
    }
  }
}
]]></script>
        <defs>
                <circle id="rim" cx="0" cy="0" r="7"/>
                <circle id="rim2" cx="0" cy="0" r="3.5"/>
                <g id="zoomPlus">
                        <use xlink:href="#rim" fill="#404040">
                                <set attributeName="fill" to="#808080" begin="zoomplus.mouseover" end="zoomplus.mouseout"/>
                        </use>
                        <path d="M-4,0h8M0,-4v8" fill="none" stroke="white" stroke-width="1.5" pointer-events="none"/>
                </g>
                <g id="zoomMin">
                        <use xlink:href="#rim" fill="#404040">
                                <set attributeName="fill" to="#808080" begin="zoomminus.mouseover" end="zoomminus.mouseout"/>
                        </use>
                        <path d="M-4,0h8" fill="none" stroke="white" stroke-width="1.5" pointer-events="none"/>
                </g>
                <g id="dirArrow">
                        <path fill="none" stroke="white" stroke-width="1.5" d="M0,-3.0v7 M-2.5,-0.5L0,-3.0L2.5,-0.5"/>
                </g>
               <g id="resetDef">
                       <use xlink:href="#rim2" fill="#404040">
                               <set attributeName="fill" to="#808080" begin="reset.mouseover" end="reset.mouseout"/>
                       </use>
               </g>
        </defs>

<script type="text/javascript">
var viewWidth = 963;
var viewHeight = 160;
var sectionId = 'dynsection-1';
</script>
<script xlink:href="svgpan.js"/>
<svg id="graph" class="graph">
<g id="viewport">
<title>MoveNet_&lt; derived_t &gt;</title>
<!-- Node1 -->
<g id="node1" class="node">
<title>Node1</title>
<g id="a_node1"><a xlink:title=" ">
<polygon fill="#bfbfbf" stroke="black" points="837,-38.5 837,-57.5 955,-57.5 955,-38.5 837,-38.5"/>
<text text-anchor="middle" x="896" y="-45.5" font-family="Helvetica,sans-Serif" font-size="10.00">MoveNet_&lt; derived_t &gt;</text>
</a>
</g>
</g>
<!-- Node2 -->
<g id="node2" class="node">
<title>Node2</title>
<g id="a_node2"><a xlink:href="classvs2_1_1VPipeline.html" target="_top" xlink:title=" ">
<polygon fill="none" stroke="black" points="674,-77 674,-107 800,-107 800,-77 674,-77"/>
<text text-anchor="start" x="682" y="-95" font-family="Helvetica,sans-Serif" font-size="10.00">vs2::VPipeline&lt; MoveNet</text>
<text text-anchor="middle" x="737" y="-84" font-family="Helvetica,sans-Serif" font-size="10.00">_&lt; void &gt; &gt;</text>
</a>
</g>
</g>
<!-- Node2&#45;&gt;Node1 -->
<g id="edge1" class="edge">
<title>Node2&#45;&gt;Node1</title>
<path fill="none" stroke="midnightblue" d="M801.42,-74.23C821.73,-68.53 843.43,-62.45 860.82,-57.58"/>
<polygon fill="midnightblue" stroke="midnightblue" points="800.28,-70.91 791.59,-76.98 802.16,-77.65 800.28,-70.91"/>
</g>
<!-- Node3 -->
<g id="node3" class="node">
<title>Node3</title>
<g id="a_node3"><a xlink:title=" ">
<polygon fill="none" stroke="#bfbfbf" points="415.5,-121 415.5,-151 536.5,-151 536.5,-121 415.5,-121"/>
<text text-anchor="start" x="423.5" y="-139" font-family="Helvetica,sans-Serif" font-size="10.00">Instanced&lt; VPipeline</text>
<text text-anchor="middle" x="476" y="-128" font-family="Helvetica,sans-Serif" font-size="10.00">&lt; MoveNet_&lt; void &gt; &gt; &gt;</text>
</a>
</g>
</g>
<!-- Node3&#45;&gt;Node2 -->
<g id="edge2" class="edge">
<title>Node3&#45;&gt;Node2</title>
<path fill="none" stroke="midnightblue" d="M546.77,-125.11C579.9,-119.83 620.03,-113.29 656,-107 661.71,-106 667.64,-104.94 673.58,-103.86"/>
<polygon fill="midnightblue" stroke="midnightblue" points="546.06,-121.68 536.73,-126.7 547.15,-128.59 546.06,-121.68"/>
</g>
<!-- Node4 -->
<g id="node4" class="node">
<title>Node4</title>
<g id="a_node4"><a xlink:href="classvs2_1_1VisionServer_1_1BasePipe.html" target="_top" xlink:title=" ">
<polygon fill="none" stroke="black" points="273,-40 273,-70 370,-70 370,-40 273,-40"/>
<text text-anchor="start" x="281" y="-58" font-family="Helvetica,sans-Serif" font-size="10.00">vs2::VisionServer::</text>
<text text-anchor="middle" x="321.5" y="-47" font-family="Helvetica,sans-Serif" font-size="10.00">BasePipe</text>
</a>
</g>
</g>
<!-- Node4&#45;&gt;Node2 -->
<g id="edge3" class="edge">
<title>Node4&#45;&gt;Node2</title>
<path fill="none" stroke="midnightblue" d="M380.38,-59.6C423.99,-63.12 485.27,-68.18 539,-73 584.17,-77.06 635.14,-81.98 673.91,-85.8"/>
<polygon fill="midnightblue" stroke="midnightblue" points="380.49,-56.1 370.24,-58.79 379.93,-63.08 380.49,-56.1"/>
</g>
<!-- Node8 -->
<g id="node8" class="node">
<title>Node8</title>
<g id="a_node8"><a xlink:href="classvs2_1_1VPipeline.html" target="_top" xlink:title=" ">
<polygon fill="none" stroke="black" points="413,-82.5 413,-101.5 539,-101.5 539,-82.5 413,-82.5"/>
<text text-anchor="middle" x="476" y="-89.5" font-family="Helvetica,sans-Serif" font-size="10.00">vs2::VPipeline&lt; derived &gt;</text>
</a>
</g>
</g>
<!-- Node4&#45;&gt;Node8 -->
<g id="edge9" class="edge">
<title>Node4&#45;&gt;Node8</title>
<path fill="none" stroke="midnightblue" d="M380.12,-68.98C398.6,-73.46 418.64,-78.33 435.52,-82.42"/>
<polygon fill="midnightblue" stroke="midnightblue" points="380.88,-65.56 370.33,-66.61 379.23,-72.36 380.88,-65.56"/>
</g>
<!-- Node5 -->
<g id="node5" class="node">
<title>Node5</title>
<g id="a_node5"><a xlink:title=" ">
<polygon fill="none" stroke="#bfbfbf" points="130,-64.5 130,-83.5 204,-83.5 204,-64.5 130,-64.5"/>
<text text-anchor="middle" x="167" y="-71.5" font-family="Helvetica,sans-Serif" font-size="10.00">cs::CvSource</text>
</a>
</g>
</g>
<!-- Node5&#45;&gt;Node4 -->
<g id="edge4" class="edge">
<title>Node5&#45;&gt;Node4</title>
<path fill="none" stroke="midnightblue" d="M214.12,-68.25C232.68,-65.94 254.07,-63.28 272.78,-60.95"/>
<polygon fill="midnightblue" stroke="midnightblue" points="213.63,-64.79 204.14,-69.5 214.5,-71.73 213.63,-64.79"/>
</g>
<!-- Node6 -->
<g id="node6" class="node">
<title>Node6</title>
<g id="a_node6"><a xlink:title=" ">
<polygon fill="none" stroke="#bfbfbf" points="137.5,-26.5 137.5,-45.5 196.5,-45.5 196.5,-26.5 137.5,-26.5"/>
<text text-anchor="middle" x="167" y="-33.5" font-family="Helvetica,sans-Serif" font-size="10.00">std::string</text>
</a>
</g>
</g>
<!-- Node6&#45;&gt;Node4 -->
<g id="edge5" class="edge">
<title>Node6&#45;&gt;Node4</title>
<path fill="none" stroke="#9a32cd" stroke-dasharray="5,2" d="M206.72,-40.82C226.8,-43.33 251.5,-46.4 272.76,-49.05"/>
<polygon fill="#9a32cd" stroke="#9a32cd" points="207.04,-37.34 196.68,-39.57 206.17,-44.28 207.04,-37.34"/>
<text text-anchor="middle" x="235.5" y="-49" font-family="Helvetica,sans-Serif" font-size="10.00"> name</text>
</g>
<!-- Node7 -->
<g id="node7" class="node">
<title>Node7</title>
<g id="a_node7"><a xlink:title=" ">
<polygon fill="none" stroke="#bfbfbf" points="0,-21 0,-51 93,-51 93,-21 0,-21"/>
<text text-anchor="start" x="8" y="-39" font-family="Helvetica,sans-Serif" font-size="10.00">std::basic_string&lt;</text>
<text text-anchor="middle" x="46.5" y="-28" font-family="Helvetica,sans-Serif" font-size="10.00"> Char &gt;</text>
</a>
</g>
</g>
<!-- Node7&#45;&gt;Node6 -->
<g id="edge6" class="edge">
<title>Node7&#45;&gt;Node6</title>
<path fill="none" stroke="midnightblue" d="M103.54,-36C115.29,-36 127.2,-36 137.43,-36"/>
<polygon fill="midnightblue" stroke="midnightblue" points="103.32,-32.5 93.32,-36 103.32,-39.5 103.32,-32.5"/>
</g>
<!-- Node8&#45;&gt;Node2 -->
<g id="edge7" class="edge">
<title>Node8&#45;&gt;Node2</title>
<path fill="none" stroke="orange" stroke-dasharray="5,2" d="M549.29,-92C588.36,-92 636.13,-92 673.57,-92"/>
<polygon fill="orange" stroke="orange" points="549.04,-88.5 539.04,-92 549.04,-95.5 549.04,-88.5"/>
<text text-anchor="middle" x="606.5" y="-95" font-family="Helvetica,sans-Serif" font-size="10.00"> &lt; MoveNet_&lt; void &gt; &gt;</text>
</g>
<!-- Node9 -->
<g id="node9" class="node">
<title>Node9</title>
<g id="a_node9"><a xlink:title=" ">
<polygon fill="none" stroke="#bfbfbf" points="267,-89 267,-119 376,-119 376,-89 267,-89"/>
<text text-anchor="start" x="275" y="-107" font-family="Helvetica,sans-Serif" font-size="10.00">Instanced&lt; VPipeline</text>
<text text-anchor="middle" x="321.5" y="-96" font-family="Helvetica,sans-Serif" font-size="10.00">&lt; derived &gt; &gt;</text>
</a>
</g>
</g>
<!-- Node9&#45;&gt;Node8 -->
<g id="edge8" class="edge">
<title>Node9&#45;&gt;Node8</title>
<path fill="none" stroke="midnightblue" d="M386.41,-98.97C395.16,-98.28 404.14,-97.58 412.86,-96.89"/>
<polygon fill="midnightblue" stroke="midnightblue" points="385.96,-95.5 376.27,-99.77 386.51,-102.47 385.96,-95.5"/>
</g>
<!-- Node10 -->
<g id="node10" class="node">
<title>Node10</title>
<g id="a_node10"><a xlink:href="classTfModel.html" target="_top" xlink:title=" ">
<polygon fill="none" stroke="black" points="711,-38.5 711,-57.5 763,-57.5 763,-38.5 711,-38.5"/>
<text text-anchor="middle" x="737" y="-45.5" font-family="Helvetica,sans-Serif" font-size="10.00">TfModel</text>
</a>
</g>
</g>
<!-- Node10&#45;&gt;Node1 -->
<g id="edge10" class="edge">
<title>Node10&#45;&gt;Node1</title>
<path fill="none" stroke="midnightblue" d="M773.38,-48C792.11,-48 815.6,-48 836.92,-48"/>
<polygon fill="midnightblue" stroke="midnightblue" points="773.22,-44.5 763.22,-48 773.22,-51.5 773.22,-44.5"/>
</g>
<!-- Node11 -->
<g id="node11" class="node">
<title>Node11</title>
<g id="a_node11"><a xlink:href="structMoveNet__B.html" target="_top" xlink:title=" ">
<polygon fill="none" stroke="black" points="703,-0.5 703,-19.5 771,-19.5 771,-0.5 703,-0.5"/>
<text text-anchor="middle" x="737" y="-7.5" font-family="Helvetica,sans-Serif" font-size="10.00">MoveNet_B</text>
</a>
</g>
</g>
<!-- Node11&#45;&gt;Node1 -->
<g id="edge11" class="edge">
<title>Node11&#45;&gt;Node1</title>
<path fill="none" stroke="midnightblue" d="M781.25,-20.47C804.52,-26.1 833,-32.99 855.65,-38.48"/>
<polygon fill="midnightblue" stroke="midnightblue" points="781.84,-17.01 771.3,-18.06 780.19,-23.81 781.84,-17.01"/>
</g>
</g>
</svg>
        <g id="navigator" transform="translate(0 0)" fill="#404254">
                <rect fill="#f2f5e9" fill-opacity="0.5" stroke="#606060" stroke-width=".5" x="0" y="0" width="60" height="60"/>
                <use id="zoomplus" xlink:href="#zoomPlus" x="17" y="9" onmousedown="handleZoom(evt,'in')"/>
                <use id="zoomminus" xlink:href="#zoomMin" x="42" y="9" onmousedown="handleZoom(evt,'out')"/>
                <use id="reset" xlink:href="#resetDef" x="30" y="36" onmousedown="handleReset()"/>
                <g id="arrowUp" xlink:href="#dirArrow" transform="translate(30 24)" onmousedown="handlePan(0,-1)">
                  <use xlink:href="#rim" fill="#404040">
                        <set attributeName="fill" to="#808080" begin="arrowUp.mouseover" end="arrowUp.mouseout"/>
                  </use>
                  <path fill="none" stroke="white" stroke-width="1.5" d="M0,-3.0v7 M-2.5,-0.5L0,-3.0L2.5,-0.5"/>
                </g>
                <g id="arrowRight" xlink:href="#dirArrow" transform="rotate(90) translate(36 -43)" onmousedown="handlePan(1,0)">
                  <use xlink:href="#rim" fill="#404040">
                        <set attributeName="fill" to="#808080" begin="arrowRight.mouseover" end="arrowRight.mouseout"/>
                  </use>
                  <path fill="none" stroke="white" stroke-width="1.5" d="M0,-3.0v7 M-2.5,-0.5L0,-3.0L2.5,-0.5"/>
                </g>
                <g id="arrowDown" xlink:href="#dirArrow" transform="rotate(180) translate(-30 -48)" onmousedown="handlePan(0,1)">
                  <use xlink:href="#rim" fill="#404040">
                        <set attributeName="fill" to="#808080" begin="arrowDown.mouseover" end="arrowDown.mouseout"/>
                  </use>
                  <path fill="none" stroke="white" stroke-width="1.5" d="M0,-3.0v7 M-2.5,-0.5L0,-3.0L2.5,-0.5"/>
                </g>
                <g id="arrowLeft" xlink:href="#dirArrow" transform="rotate(270) translate(-36 17)" onmousedown="handlePan(-1,0)">
                  <use xlink:href="#rim" fill="#404040">
                        <set attributeName="fill" to="#808080" begin="arrowLeft.mouseover" end="arrowLeft.mouseout"/>
                  </use>
                  <path fill="none" stroke="white" stroke-width="1.5" d="M0,-3.0v7 M-2.5,-0.5L0,-3.0L2.5,-0.5"/>
                </g>
        </g>
        <svg viewBox="0 0 15 15" width="100%" height="30px" preserveAspectRatio="xMaxYMin meet">
         <g id="arrow_out" transform="scale(0.3 0.3)">
          <a xlink:href="classMoveNet____coll__graph_org.svg" target="_base">
           <rect id="button" ry="5" rx="5" y="6" x="6" height="38" width="38"
                fill="#f2f5e9" fill-opacity="0.5" stroke="#606060" stroke-width="1.0"/>
           <path id="arrow"
             d="M 11.500037,31.436501 C 11.940474,20.09759 22.043105,11.32322 32.158766,21.979434 L 37.068811,17.246167 C 37.068811,17.246167 37.088388,32 37.088388,32 L 22.160133,31.978069 C 22.160133,31.978069 26.997745,27.140456 26.997745,27.140456 C 18.528582,18.264221 13.291696,25.230495 11.500037,31.436501 z"
             style="fill:#404040;"/>
          </a>
         </g>
        </svg>
</svg>
