<?xml version="1.0" encoding="UTF-8" standalone="no"?>
<!DOCTYPE svg PUBLIC "-//W3C//DTD SVG 1.1//EN"
 "http://www.w3.org/Graphics/SVG/1.1/DTD/svg11.dtd">
<!-- Generated by graphviz version 2.49.3 (20211027.1534)
 -->
<!-- Title: MoveNet_&lt; derived_t &gt; Pages: 1 -->
<svg width="807pt" height="160pt"
 viewBox="0.00 0.00 807.00 159.50" xmlns="http://www.w3.org/2000/svg" xmlns:xlink="http://www.w3.org/1999/xlink">
<g id="graph0" class="graph" transform="scale(1 1) rotate(0) translate(4 155.5)">
<title>MoveNet_&lt; derived_t &gt;</title>
<polygon fill="white" stroke="transparent" points="-4,4 -4,-155.5 803,-155.5 803,4 -4,4"/>
<!-- Node1 -->
<g id="node1" class="node">
<title>Node1</title>
<g id="a_node1"><a xlink:title=" ">
<polygon fill="#bfbfbf" stroke="black" points="681,-38.5 681,-57.5 799,-57.5 799,-38.5 681,-38.5"/>
<text text-anchor="middle" x="740" y="-45.5" font-family="Helvetica,sans-Serif" font-size="10.00">MoveNet_&lt; derived_t &gt;</text>
</a>
</g>
</g>
<!-- Node2 -->
<g id="node2" class="node">
<title>Node2</title>
<g id="a_node2"><a xlink:href="classvs2_1_1VPipeline.html" target="_top" xlink:title=" ">
<polygon fill="white" stroke="black" points="518,-77 518,-107 644,-107 644,-77 518,-77"/>
<text text-anchor="start" x="526" y="-95" font-family="Helvetica,sans-Serif" font-size="10.00">vs2::VPipeline&lt; MoveNet</text>
<text text-anchor="middle" x="581" y="-84" font-family="Helvetica,sans-Serif" font-size="10.00">_&lt; void &gt; &gt;</text>
</a>
</g>
</g>
<!-- Node2&#45;&gt;Node1 -->
<g id="edge1" class="edge">
<title>Node2&#45;&gt;Node1</title>
<path fill="none" stroke="midnightblue" d="M645.42,-74.23C665.73,-68.53 687.43,-62.45 704.82,-57.58"/>
<polygon fill="midnightblue" stroke="midnightblue" points="644.28,-70.91 635.59,-76.98 646.16,-77.65 644.28,-70.91"/>
</g>
<!-- Node3 -->
<g id="node3" class="node">
<title>Node3</title>
<g id="a_node3"><a xlink:title=" ">
<polygon fill="white" stroke="#bfbfbf" points="259.5,-121 259.5,-151 380.5,-151 380.5,-121 259.5,-121"/>
<text text-anchor="start" x="267.5" y="-139" font-family="Helvetica,sans-Serif" font-size="10.00">Instanced&lt; VPipeline</text>
<text text-anchor="middle" x="320" y="-128" font-family="Helvetica,sans-Serif" font-size="10.00">&lt; MoveNet_&lt; void &gt; &gt; &gt;</text>
</a>
</g>
</g>
<!-- Node3&#45;&gt;Node2 -->
<g id="edge2" class="edge">
<title>Node3&#45;&gt;Node2</title>
<path fill="none" stroke="midnightblue" d="M390.77,-125.11C423.9,-119.83 464.03,-113.29 500,-107 505.71,-106 511.64,-104.94 517.58,-103.86"/>
<polygon fill="midnightblue" stroke="midnightblue" points="390.06,-121.68 380.73,-126.7 391.15,-128.59 390.06,-121.68"/>
</g>
<!-- Node4 -->
<g id="node4" class="node">
<title>Node4</title>
<g id="a_node4"><a xlink:href="classvs2_1_1VisionServer_1_1BasePipe.html" target="_top" xlink:title=" ">
<polygon fill="white" stroke="black" points="117,-40 117,-70 214,-70 214,-40 117,-40"/>
<text text-anchor="start" x="125" y="-58" font-family="Helvetica,sans-Serif" font-size="10.00">vs2::VisionServer::</text>
<text text-anchor="middle" x="165.5" y="-47" font-family="Helvetica,sans-Serif" font-size="10.00">BasePipe</text>
</a>
</g>
</g>
<!-- Node4&#45;&gt;Node2 -->
<g id="edge3" class="edge">
<title>Node4&#45;&gt;Node2</title>
<path fill="none" stroke="midnightblue" d="M224.38,-59.6C267.99,-63.12 329.27,-68.18 383,-73 428.17,-77.06 479.14,-81.98 517.91,-85.8"/>
<polygon fill="midnightblue" stroke="midnightblue" points="224.49,-56.1 214.24,-58.79 223.93,-63.08 224.49,-56.1"/>
</g>
<!-- Node6 -->
<g id="node6" class="node">
<title>Node6</title>
<g id="a_node6"><a xlink:href="classvs2_1_1VPipeline.html" target="_top" xlink:title=" ">
<polygon fill="white" stroke="black" points="257,-82.5 257,-101.5 383,-101.5 383,-82.5 257,-82.5"/>
<text text-anchor="middle" x="320" y="-89.5" font-family="Helvetica,sans-Serif" font-size="10.00">vs2::VPipeline&lt; derived &gt;</text>
</a>
</g>
</g>
<!-- Node4&#45;&gt;Node6 -->
<g id="edge7" class="edge">
<title>Node4&#45;&gt;Node6</title>
<path fill="none" stroke="midnightblue" d="M224.12,-68.98C242.6,-73.46 262.64,-78.33 279.52,-82.42"/>
<polygon fill="midnightblue" stroke="midnightblue" points="224.88,-65.56 214.33,-66.61 223.23,-72.36 224.88,-65.56"/>
</g>
<!-- Node5 -->
<g id="node5" class="node">
<title>Node5</title>
<g id="a_node5"><a xlink:title=" ">
<polygon fill="white" stroke="#bfbfbf" points="0,-45.5 0,-64.5 74,-64.5 74,-45.5 0,-45.5"/>
<text text-anchor="middle" x="37" y="-52.5" font-family="Helvetica,sans-Serif" font-size="10.00">cs::CvSource</text>
</a>
</g>
</g>
<!-- Node5&#45;&gt;Node4 -->
<g id="edge4" class="edge">
<title>Node5&#45;&gt;Node4</title>
<path fill="none" stroke="midnightblue" d="M84.53,-55C95.09,-55 106.32,-55 116.91,-55"/>
<polygon fill="midnightblue" stroke="midnightblue" points="84.25,-51.5 74.25,-55 84.25,-58.5 84.25,-51.5"/>
</g>
<!-- Node6&#45;&gt;Node2 -->
<g id="edge5" class="edge">
<title>Node6&#45;&gt;Node2</title>
<path fill="none" stroke="orange" stroke-dasharray="5,2" d="M393.29,-92C432.36,-92 480.13,-92 517.57,-92"/>
<polygon fill="orange" stroke="orange" points="393.04,-88.5 383.04,-92 393.04,-95.5 393.04,-88.5"/>
<text text-anchor="middle" x="450.5" y="-95" font-family="Helvetica,sans-Serif" font-size="10.00"> &lt; MoveNet_&lt; void &gt; &gt;</text>
</g>
<!-- Node7 -->
<g id="node7" class="node">
<title>Node7</title>
<g id="a_node7"><a xlink:title=" ">
<polygon fill="white" stroke="#bfbfbf" points="111,-89 111,-119 220,-119 220,-89 111,-89"/>
<text text-anchor="start" x="119" y="-107" font-family="Helvetica,sans-Serif" font-size="10.00">Instanced&lt; VPipeline</text>
<text text-anchor="middle" x="165.5" y="-96" font-family="Helvetica,sans-Serif" font-size="10.00">&lt; derived &gt; &gt;</text>
</a>
</g>
</g>
<!-- Node7&#45;&gt;Node6 -->
<g id="edge6" class="edge">
<title>Node7&#45;&gt;Node6</title>
<path fill="none" stroke="midnightblue" d="M230.41,-98.97C239.16,-98.28 248.14,-97.58 256.86,-96.89"/>
<polygon fill="midnightblue" stroke="midnightblue" points="229.96,-95.5 220.27,-99.77 230.51,-102.47 229.96,-95.5"/>
</g>
<!-- Node8 -->
<g id="node8" class="node">
<title>Node8</title>
<g id="a_node8"><a xlink:href="classTfModel.html" target="_top" xlink:title=" ">
<polygon fill="white" stroke="black" points="555,-38.5 555,-57.5 607,-57.5 607,-38.5 555,-38.5"/>
<text text-anchor="middle" x="581" y="-45.5" font-family="Helvetica,sans-Serif" font-size="10.00">TfModel</text>
</a>
</g>
</g>
<!-- Node8&#45;&gt;Node1 -->
<g id="edge8" class="edge">
<title>Node8&#45;&gt;Node1</title>
<path fill="none" stroke="midnightblue" d="M617.38,-48C636.11,-48 659.6,-48 680.92,-48"/>
<polygon fill="midnightblue" stroke="midnightblue" points="617.22,-44.5 607.22,-48 617.22,-51.5 617.22,-44.5"/>
</g>
<!-- Node9 -->
<g id="node9" class="node">
<title>Node9</title>
<g id="a_node9"><a xlink:href="structMoveNet__B.html" target="_top" xlink:title=" ">
<polygon fill="white" stroke="black" points="547,-0.5 547,-19.5 615,-19.5 615,-0.5 547,-0.5"/>
<text text-anchor="middle" x="581" y="-7.5" font-family="Helvetica,sans-Serif" font-size="10.00">MoveNet_B</text>
</a>
</g>
</g>
<!-- Node9&#45;&gt;Node1 -->
<g id="edge9" class="edge">
<title>Node9&#45;&gt;Node1</title>
<path fill="none" stroke="midnightblue" d="M625.25,-20.47C648.52,-26.1 677,-32.99 699.65,-38.48"/>
<polygon fill="midnightblue" stroke="midnightblue" points="625.84,-17.01 615.3,-18.06 624.19,-23.81 625.84,-17.01"/>
</g>
</g>
</svg>
