<?xml version="1.0" encoding="UTF-8" standalone="no"?>
<!DOCTYPE svg PUBLIC "-//W3C//DTD SVG 1.1//EN"
 "http://www.w3.org/Graphics/SVG/1.1/DTD/svg11.dtd">
<!-- Generated by graphviz version 2.49.3 (20211027.1534)
 -->
<!-- Title: vs2::UniqueTarget&lt; derived &gt; Pages: 1 -->
<svg width="232pt" height="242pt"
 viewBox="0.00 0.00 231.50 242.00" xmlns="http://www.w3.org/2000/svg" xmlns:xlink="http://www.w3.org/1999/xlink">
<g id="graph0" class="graph" transform="scale(1 1) rotate(0) translate(4 238)">
<title>vs2::UniqueTarget&lt; derived &gt;</title>
<!-- Node1 -->
<g id="node1" class="node">
<title>Node1</title>
<g id="a_node1"><a xlink:title=" ">
<polygon fill="#bfbfbf" stroke="black" points="24.5,-0.5 24.5,-30.5 125.5,-30.5 125.5,-0.5 24.5,-0.5"/>
<text text-anchor="start" x="32.5" y="-18.5" font-family="Helvetica,sans-Serif" font-size="10.00">vs2::UniqueTarget&lt;</text>
<text text-anchor="middle" x="75" y="-7.5" font-family="Helvetica,sans-Serif" font-size="10.00"> derived &gt;</text>
</a>
</g>
</g>
<!-- Node2 -->
<g id="node2" class="node">
<title>Node2</title>
<g id="a_node2"><a xlink:title=" ">
<polygon fill="none" stroke="#bfbfbf" points="0,-68.5 0,-98.5 126,-98.5 126,-68.5 0,-68.5"/>
<text text-anchor="start" x="8" y="-86.5" font-family="Helvetica,sans-Serif" font-size="10.00">Instanced&lt; UniqueTarget</text>
<text text-anchor="middle" x="63" y="-75.5" font-family="Helvetica,sans-Serif" font-size="10.00">&lt; void &gt; &gt;</text>
</a>
</g>
</g>
<!-- Node2&#45;&gt;Node1 -->
<g id="edge1" class="edge">
<title>Node2&#45;&gt;Node1</title>
<path fill="none" stroke="midnightblue" d="M67.39,-58.33C69.08,-49.08 70.94,-38.83 72.4,-30.79"/>
<polygon fill="midnightblue" stroke="midnightblue" points="63.95,-57.71 65.6,-68.18 70.84,-58.97 63.95,-57.71"/>
</g>
<!-- Node3 -->
<g id="node3" class="node">
<title>Node3</title>
<g id="a_node3"><a xlink:href="classvs2_1_1Target.html" target="_top" xlink:title=" ">
<polygon fill="none" stroke="black" points="144.5,-74 144.5,-93 209.5,-93 209.5,-74 144.5,-74"/>
<text text-anchor="middle" x="177" y="-81" font-family="Helvetica,sans-Serif" font-size="10.00">vs2::Target</text>
</a>
</g>
</g>
<!-- Node3&#45;&gt;Node1 -->
<g id="edge2" class="edge">
<title>Node3&#45;&gt;Node1</title>
<path fill="none" stroke="midnightblue" d="M154.88,-68.19C137.71,-57.08 114.03,-41.76 96.92,-30.68"/>
<polygon fill="midnightblue" stroke="midnightblue" points="153.37,-71.38 163.67,-73.87 157.17,-65.5 153.37,-71.38"/>
</g>
<!-- Node4 -->
<g id="node4" class="node">
<title>Node4</title>
<g id="a_node4"><a xlink:title=" ">
<polygon fill="none" stroke="#bfbfbf" points="147.5,-146.5 147.5,-165.5 206.5,-165.5 206.5,-146.5 147.5,-146.5"/>
<text text-anchor="middle" x="177" y="-153.5" font-family="Helvetica,sans-Serif" font-size="10.00">std::string</text>
</a>
</g>
</g>
<!-- Node4&#45;&gt;Node3 -->
<g id="edge3" class="edge">
<title>Node4&#45;&gt;Node3</title>
<path fill="none" stroke="#9a32cd" stroke-dasharray="5,2" d="M177,-135.94C177,-122.03 177,-103.82 177,-93.22"/>
<polygon fill="#9a32cd" stroke="#9a32cd" points="173.5,-136.36 177,-146.36 180.5,-136.36 173.5,-136.36"/>
<text text-anchor="middle" x="190.5" y="-120" font-family="Helvetica,sans-Serif" font-size="10.00"> name</text>
</g>
<!-- Node5 -->
<g id="node5" class="node">
<title>Node5</title>
<g id="a_node5"><a xlink:title=" ">
<polygon fill="none" stroke="#bfbfbf" points="130.5,-203.5 130.5,-233.5 223.5,-233.5 223.5,-203.5 130.5,-203.5"/>
<text text-anchor="start" x="138.5" y="-221.5" font-family="Helvetica,sans-Serif" font-size="10.00">std::basic_string&lt;</text>
<text text-anchor="middle" x="177" y="-210.5" font-family="Helvetica,sans-Serif" font-size="10.00"> Char &gt;</text>
</a>
</g>
</g>
<!-- Node5&#45;&gt;Node4 -->
<g id="edge4" class="edge">
<title>Node5&#45;&gt;Node4</title>
<path fill="none" stroke="midnightblue" d="M177,-193.35C177,-183.51 177,-172.78 177,-165.54"/>
<polygon fill="midnightblue" stroke="midnightblue" points="173.5,-193.47 177,-203.47 180.5,-193.47 173.5,-193.47"/>
</g>
</g>
</svg>
