<?xml version="1.0" encoding="UTF-8" standalone="no"?>
<!DOCTYPE svg PUBLIC "-//W3C//DTD SVG 1.1//EN"
 "http://www.w3.org/Graphics/SVG/1.1/DTD/svg11.dtd">
<!-- Generated by graphviz version 2.49.3 (20211027.1534)
 -->
<!-- Title: vs2::SequentialPipeline&lt; pipelines_t &gt; Pages: 1 -->
<svg width="804pt" height="131pt"
 viewBox="0.00 0.00 804.00 130.50" xmlns="http://www.w3.org/2000/svg" xmlns:xlink="http://www.w3.org/1999/xlink">
<g id="graph0" class="graph" transform="scale(1 1) rotate(0) translate(4 126.5)">
<title>vs2::SequentialPipeline&lt; pipelines_t &gt;</title>
<!-- Node1 -->
<g id="node1" class="node">
<title>Node1</title>
<g id="a_node1"><a xlink:title=" ">
<polygon fill="#bfbfbf" stroke="black" points="679,-37.5 679,-67.5 796,-67.5 796,-37.5 679,-37.5"/>
<text text-anchor="start" x="687" y="-55.5" font-family="Helvetica,sans-Serif" font-size="10.00">vs2::SequentialPipeline</text>
<text text-anchor="middle" x="737.5" y="-44.5" font-family="Helvetica,sans-Serif" font-size="10.00">&lt; pipelines_t &gt;</text>
</a>
</g>
</g>
<!-- Node2 -->
<g id="node2" class="node">
<title>Node2</title>
<g id="a_node2"><a xlink:href="classvs2_1_1VPipeline.html" target="_top" xlink:title=" ">
<polygon fill="none" stroke="black" points="510,-37.5 510,-67.5 642,-67.5 642,-37.5 510,-37.5"/>
<text text-anchor="start" x="518" y="-55.5" font-family="Helvetica,sans-Serif" font-size="10.00">vs2::VPipeline&lt; Sequential</text>
<text text-anchor="middle" x="576" y="-44.5" font-family="Helvetica,sans-Serif" font-size="10.00">Pipeline&lt; pipelines_t... &gt; &gt;</text>
</a>
</g>
</g>
<!-- Node2&#45;&gt;Node1 -->
<g id="edge1" class="edge">
<title>Node2&#45;&gt;Node1</title>
<path fill="none" stroke="midnightblue" d="M652.36,-52.5C661.3,-52.5 670.3,-52.5 678.93,-52.5"/>
<polygon fill="midnightblue" stroke="midnightblue" points="652.34,-49 642.33,-52.5 652.33,-56 652.34,-49"/>
</g>
<!-- Node3 -->
<g id="node3" class="node">
<title>Node3</title>
<g id="a_node3"><a xlink:title=" ">
<polygon fill="none" stroke="#bfbfbf" points="265.5,-81 265.5,-122 374.5,-122 374.5,-81 265.5,-81"/>
<text text-anchor="start" x="273.5" y="-110" font-family="Helvetica,sans-Serif" font-size="10.00">Instanced&lt; VPipeline</text>
<text text-anchor="start" x="273.5" y="-99" font-family="Helvetica,sans-Serif" font-size="10.00">&lt; SequentialPipeline</text>
<text text-anchor="middle" x="320" y="-88" font-family="Helvetica,sans-Serif" font-size="10.00">&lt; pipelines_t... &gt; &gt; &gt;</text>
</a>
</g>
</g>
<!-- Node3&#45;&gt;Node2 -->
<g id="edge2" class="edge">
<title>Node3&#45;&gt;Node2</title>
<path fill="none" stroke="midnightblue" d="M384.79,-95.53C417.14,-91.84 456.91,-86.3 492,-78.5 505.12,-75.59 519.15,-71.55 531.87,-67.54"/>
<polygon fill="midnightblue" stroke="midnightblue" points="384.11,-92.08 374.56,-96.66 384.88,-99.04 384.11,-92.08"/>
</g>
<!-- Node4 -->
<g id="node4" class="node">
<title>Node4</title>
<g id="a_node4"><a xlink:href="classvs2_1_1VisionServer_1_1BasePipe.html" target="_top" xlink:title=" ">
<polygon fill="none" stroke="black" points="117,-0.5 117,-30.5 214,-30.5 214,-0.5 117,-0.5"/>
<text text-anchor="start" x="125" y="-18.5" font-family="Helvetica,sans-Serif" font-size="10.00">vs2::VisionServer::</text>
<text text-anchor="middle" x="165.5" y="-7.5" font-family="Helvetica,sans-Serif" font-size="10.00">BasePipe</text>
</a>
</g>
</g>
<!-- Node4&#45;&gt;Node2 -->
<g id="edge3" class="edge">
<title>Node4&#45;&gt;Node2</title>
<path fill="none" stroke="midnightblue" d="M224.38,-20.06C268,-23.56 329.28,-28.61 383,-33.5 425.2,-37.34 472.57,-42.03 509.71,-45.78"/>
<polygon fill="midnightblue" stroke="midnightblue" points="224.49,-16.56 214.25,-19.25 223.93,-23.54 224.49,-16.56"/>
</g>
<!-- Node6 -->
<g id="node6" class="node">
<title>Node6</title>
<g id="a_node6"><a xlink:href="classvs2_1_1VPipeline.html" target="_top" xlink:title=" ">
<polygon fill="none" stroke="black" points="257,-43 257,-62 383,-62 383,-43 257,-43"/>
<text text-anchor="middle" x="320" y="-50" font-family="Helvetica,sans-Serif" font-size="10.00">vs2::VPipeline&lt; derived &gt;</text>
</a>
</g>
</g>
<!-- Node4&#45;&gt;Node6 -->
<g id="edge7" class="edge">
<title>Node4&#45;&gt;Node6</title>
<path fill="none" stroke="midnightblue" d="M224.12,-29.48C242.6,-33.96 262.64,-38.83 279.52,-42.92"/>
<polygon fill="midnightblue" stroke="midnightblue" points="224.88,-26.06 214.33,-27.11 223.23,-32.86 224.88,-26.06"/>
</g>
<!-- Node5 -->
<g id="node5" class="node">
<title>Node5</title>
<g id="a_node5"><a xlink:title=" ">
<polygon fill="none" stroke="#bfbfbf" points="0,-6 0,-25 74,-25 74,-6 0,-6"/>
<text text-anchor="middle" x="37" y="-13" font-family="Helvetica,sans-Serif" font-size="10.00">cs::CvSource</text>
</a>
</g>
</g>
<!-- Node5&#45;&gt;Node4 -->
<g id="edge4" class="edge">
<title>Node5&#45;&gt;Node4</title>
<path fill="none" stroke="midnightblue" d="M84.53,-15.5C95.09,-15.5 106.32,-15.5 116.91,-15.5"/>
<polygon fill="midnightblue" stroke="midnightblue" points="84.25,-12 74.25,-15.5 84.25,-19 84.25,-12"/>
</g>
<!-- Node6&#45;&gt;Node2 -->
<g id="edge5" class="edge">
<title>Node6&#45;&gt;Node2</title>
<path fill="none" stroke="orange" stroke-dasharray="5,2" d="M393.28,-52.5C430.02,-52.5 474.31,-52.5 509.96,-52.5"/>
<polygon fill="orange" stroke="orange" points="393.14,-49 383.14,-52.5 393.14,-56 393.14,-49"/>
<text text-anchor="start" x="401" y="-66.5" font-family="Helvetica,sans-Serif" font-size="10.00"> &lt; SequentialPipeline</text>
<text text-anchor="middle" x="446.5" y="-55.5" font-family="Helvetica,sans-Serif" font-size="10.00">&lt; pipelines_t... &gt; &gt;</text>
</g>
<!-- Node7 -->
<g id="node7" class="node">
<title>Node7</title>
<g id="a_node7"><a xlink:title=" ">
<polygon fill="none" stroke="#bfbfbf" points="111,-49.5 111,-79.5 220,-79.5 220,-49.5 111,-49.5"/>
<text text-anchor="start" x="119" y="-67.5" font-family="Helvetica,sans-Serif" font-size="10.00">Instanced&lt; VPipeline</text>
<text text-anchor="middle" x="165.5" y="-56.5" font-family="Helvetica,sans-Serif" font-size="10.00">&lt; derived &gt; &gt;</text>
</a>
</g>
</g>
<!-- Node7&#45;&gt;Node6 -->
<g id="edge6" class="edge">
<title>Node7&#45;&gt;Node6</title>
<path fill="none" stroke="midnightblue" d="M230.41,-59.47C239.16,-58.78 248.14,-58.08 256.86,-57.39"/>
<polygon fill="midnightblue" stroke="midnightblue" points="229.96,-56 220.27,-60.27 230.51,-62.97 229.96,-56"/>
</g>
</g>
</svg>
