<?xml version="1.0" encoding="UTF-8" standalone="no"?>
<!DOCTYPE svg PUBLIC "-//W3C//DTD SVG 1.1//EN"
 "http://www.w3.org/Graphics/SVG/1.1/DTD/svg11.dtd">
<!-- Generated by graphviz version 2.49.3 (20211027.1534)
 -->
<!-- Title: vs2::VPipeline&lt; derived &gt; Pages: 1 -->
<svg width="286pt" height="231pt"
 viewBox="0.00 0.00 286.00 231.00" xmlns="http://www.w3.org/2000/svg" xmlns:xlink="http://www.w3.org/1999/xlink">
<g id="graph0" class="graph" transform="scale(1 1) rotate(0) translate(4 227)">
<title>vs2::VPipeline&lt; derived &gt;</title>
<polygon fill="white" stroke="transparent" points="-4,4 -4,-227 282,-227 282,4 -4,4"/>
<!-- Node1 -->
<g id="node1" class="node">
<title>Node1</title>
<g id="a_node1"><a xlink:title=" ">
<polygon fill="#bfbfbf" stroke="black" points="3.5,-0.5 3.5,-19.5 129.5,-19.5 129.5,-0.5 3.5,-0.5"/>
<text text-anchor="middle" x="66.5" y="-7.5" font-family="Helvetica,sans-Serif" font-size="10.00">vs2::VPipeline&lt; derived &gt;</text>
</a>
</g>
</g>
<!-- Node2 -->
<g id="node2" class="node">
<title>Node2</title>
<g id="a_node2"><a xlink:title=" ">
<polygon fill="white" stroke="#bfbfbf" points="0,-57.5 0,-87.5 109,-87.5 109,-57.5 0,-57.5"/>
<text text-anchor="start" x="8" y="-75.5" font-family="Helvetica,sans-Serif" font-size="10.00">Instanced&lt; VPipeline</text>
<text text-anchor="middle" x="54.5" y="-64.5" font-family="Helvetica,sans-Serif" font-size="10.00">&lt; derived &gt; &gt;</text>
</a>
</g>
</g>
<!-- Node2&#45;&gt;Node1 -->
<g id="edge1" class="edge">
<title>Node2&#45;&gt;Node1</title>
<path fill="none" stroke="midnightblue" d="M59.29,-47.35C61.24,-37.51 63.37,-26.78 64.81,-19.54"/>
<polygon fill="midnightblue" stroke="midnightblue" points="55.8,-46.98 57.28,-57.47 62.66,-48.34 55.8,-46.98"/>
</g>
<!-- Node3 -->
<g id="node3" class="node">
<title>Node3</title>
<g id="a_node3"><a xlink:href="classvs2_1_1VisionServer_1_1BasePipe.html" target="_top" xlink:title=" ">
<polygon fill="white" stroke="black" points="127,-57.5 127,-87.5 224,-87.5 224,-57.5 127,-57.5"/>
<text text-anchor="start" x="135" y="-75.5" font-family="Helvetica,sans-Serif" font-size="10.00">vs2::VisionServer::</text>
<text text-anchor="middle" x="175.5" y="-64.5" font-family="Helvetica,sans-Serif" font-size="10.00">BasePipe</text>
</a>
</g>
</g>
<!-- Node3&#45;&gt;Node1 -->
<g id="edge2" class="edge">
<title>Node3&#45;&gt;Node1</title>
<path fill="none" stroke="midnightblue" d="M141.41,-52.58C121.47,-41.51 97.28,-28.08 81.89,-19.54"/>
<polygon fill="midnightblue" stroke="midnightblue" points="139.78,-55.68 150.22,-57.47 143.17,-49.55 139.78,-55.68"/>
</g>
<!-- Node4 -->
<g id="node4" class="node">
<title>Node4</title>
<g id="a_node4"><a xlink:title=" ">
<polygon fill="white" stroke="#bfbfbf" points="109.5,-135.5 109.5,-154.5 183.5,-154.5 183.5,-135.5 109.5,-135.5"/>
<text text-anchor="middle" x="146.5" y="-142.5" font-family="Helvetica,sans-Serif" font-size="10.00">cs::CvSource</text>
</a>
</g>
</g>
<!-- Node4&#45;&gt;Node3 -->
<g id="edge3" class="edge">
<title>Node4&#45;&gt;Node3</title>
<path fill="none" stroke="midnightblue" d="M153.92,-125.96C158.83,-114.03 165.17,-98.61 169.71,-87.58"/>
<polygon fill="midnightblue" stroke="midnightblue" points="150.62,-124.78 150.06,-135.36 157.1,-127.44 150.62,-124.78"/>
</g>
<!-- Node5 -->
<g id="node5" class="node">
<title>Node5</title>
<g id="a_node5"><a xlink:title=" ">
<polygon fill="white" stroke="#bfbfbf" points="202,-135.5 202,-154.5 261,-154.5 261,-135.5 202,-135.5"/>
<text text-anchor="middle" x="231.5" y="-142.5" font-family="Helvetica,sans-Serif" font-size="10.00">std::string</text>
</a>
</g>
</g>
<!-- Node5&#45;&gt;Node3 -->
<g id="edge4" class="edge">
<title>Node5&#45;&gt;Node3</title>
<path fill="none" stroke="#9a32cd" stroke-dasharray="5,2" d="M218.31,-127.39C208.69,-115.28 195.8,-99.05 186.68,-87.58"/>
<polygon fill="#9a32cd" stroke="#9a32cd" points="215.67,-129.7 224.63,-135.36 221.15,-125.35 215.67,-129.7"/>
<text text-anchor="middle" x="222" y="-109" font-family="Helvetica,sans-Serif" font-size="10.00"> name</text>
</g>
<!-- Node6 -->
<g id="node6" class="node">
<title>Node6</title>
<g id="a_node6"><a xlink:title=" ">
<polygon fill="white" stroke="#bfbfbf" points="185,-192.5 185,-222.5 278,-222.5 278,-192.5 185,-192.5"/>
<text text-anchor="start" x="193" y="-210.5" font-family="Helvetica,sans-Serif" font-size="10.00">std::basic_string&lt;</text>
<text text-anchor="middle" x="231.5" y="-199.5" font-family="Helvetica,sans-Serif" font-size="10.00"> Char &gt;</text>
</a>
</g>
</g>
<!-- Node6&#45;&gt;Node5 -->
<g id="edge5" class="edge">
<title>Node6&#45;&gt;Node5</title>
<path fill="none" stroke="midnightblue" d="M231.5,-182.35C231.5,-172.51 231.5,-161.78 231.5,-154.54"/>
<polygon fill="midnightblue" stroke="midnightblue" points="228,-182.47 231.5,-192.47 235,-182.47 228,-182.47"/>
</g>
</g>
</svg>
