<?xml version="1.0" encoding="UTF-8" standalone="no"?>
<!DOCTYPE svg PUBLIC "-//W3C//DTD SVG 1.1//EN"
 "http://www.w3.org/Graphics/SVG/1.1/DTD/svg11.dtd">
<!-- Generated by graphviz version 2.49.3 (20211027.1534)
 -->
<!-- Title: Graphical Class Hierarchy Pages: 1 -->
<svg width="557pt" height="342pt"
 viewBox="0.00 0.00 557.00 341.50" xmlns="http://www.w3.org/2000/svg" xmlns:xlink="http://www.w3.org/1999/xlink">
<g id="graph0" class="graph" transform="scale(1 1) rotate(0) translate(4 337.5)">
<title>Graphical Class Hierarchy</title>
<polygon fill="white" stroke="transparent" points="-4,4 -4,-337.5 553,-337.5 553,4 -4,4"/>
<!-- Node0 -->
<g id="node1" class="node">
<title>Node0</title>
<g id="a_node1"><a xlink:href="structAxonRunner__B.html" target="_top" xlink:title=" ">
<polygon fill="white" stroke="black" points="272,-314 272,-333 353,-333 353,-314 272,-314"/>
<text text-anchor="middle" x="312.5" y="-321" font-family="Helvetica,sans-Serif" font-size="10.00">AxonRunner_B</text>
</a>
</g>
</g>
<!-- Node1 -->
<g id="node2" class="node">
<title>Node1</title>
<g id="a_node2"><a xlink:href="classAxonRunner__.html" target="_top" xlink:title=" ">
<polygon fill="white" stroke="black" points="418,-270 418,-289 549,-289 549,-270 418,-270"/>
<text text-anchor="middle" x="483.5" y="-277" font-family="Helvetica,sans-Serif" font-size="10.00">AxonRunner_&lt; derived_t &gt;</text>
</a>
</g>
</g>
<!-- Node0&#45;&gt;Node1 -->
<g id="edge1" class="edge">
<title>Node0&#45;&gt;Node1</title>
<path fill="none" stroke="midnightblue" d="M360.19,-311.35C387.23,-304.3 420.78,-295.57 445.9,-289.03"/>
<polygon fill="midnightblue" stroke="midnightblue" points="358.97,-308.05 350.17,-313.95 360.73,-314.82 358.97,-308.05"/>
</g>
<!-- Node3 -->
<g id="node3" class="node">
<title>Node3</title>
<g id="a_node3"><a xlink:title=" ">
<polygon fill="white" stroke="#bfbfbf" points="0,-160 0,-179 74,-179 74,-160 0,-160"/>
<text text-anchor="middle" x="37" y="-167" font-family="Helvetica,sans-Serif" font-size="10.00">cs::CvSource</text>
</a>
</g>
</g>
<!-- Node4 -->
<g id="node4" class="node">
<title>Node4</title>
<g id="a_node4"><a xlink:href="classvs2_1_1VisionServer_1_1BasePipe.html" target="_top" xlink:title=" ">
<polygon fill="white" stroke="black" points="110,-154.5 110,-184.5 207,-184.5 207,-154.5 110,-154.5"/>
<text text-anchor="start" x="118" y="-172.5" font-family="Helvetica,sans-Serif" font-size="10.00">vs2::VisionServer::</text>
<text text-anchor="middle" x="158.5" y="-161.5" font-family="Helvetica,sans-Serif" font-size="10.00">BasePipe</text>
</a>
</g>
</g>
<!-- Node3&#45;&gt;Node4 -->
<g id="edge2" class="edge">
<title>Node3&#45;&gt;Node4</title>
<path fill="none" stroke="midnightblue" d="M84.23,-169.5C92.67,-169.5 101.49,-169.5 109.96,-169.5"/>
<polygon fill="midnightblue" stroke="midnightblue" points="84.18,-166 74.18,-169.5 84.18,-173 84.18,-166"/>
</g>
<!-- Node5 -->
<g id="node5" class="node">
<title>Node5</title>
<g id="a_node5"><a xlink:href="classvs2_1_1VPipeline.html" target="_top" xlink:title=" ">
<polygon fill="white" stroke="black" points="243,-264.5 243,-294.5 382,-294.5 382,-264.5 243,-264.5"/>
<text text-anchor="start" x="251" y="-282.5" font-family="Helvetica,sans-Serif" font-size="10.00">vs2::VPipeline&lt; AxonRunner</text>
<text text-anchor="middle" x="312.5" y="-271.5" font-family="Helvetica,sans-Serif" font-size="10.00">_&lt; void &gt; &gt;</text>
</a>
</g>
</g>
<!-- Node4&#45;&gt;Node5 -->
<g id="edge3" class="edge">
<title>Node4&#45;&gt;Node5</title>
<path fill="none" stroke="midnightblue" d="M177.23,-192.58C192.78,-211.47 216.94,-237.72 243,-254.5 248.85,-258.27 255.35,-261.57 261.95,-264.44"/>
<polygon fill="midnightblue" stroke="midnightblue" points="179.91,-190.32 170.91,-184.73 174.45,-194.71 179.91,-190.32"/>
</g>
<!-- Node6 -->
<g id="node6" class="node">
<title>Node6</title>
<g id="a_node6"><a xlink:href="classvs2_1_1VPipeline.html" target="_top" xlink:title=" ">
<polygon fill="white" stroke="black" points="249.5,-176.5 249.5,-206.5 375.5,-206.5 375.5,-176.5 249.5,-176.5"/>
<text text-anchor="start" x="257.5" y="-194.5" font-family="Helvetica,sans-Serif" font-size="10.00">vs2::VPipeline&lt; MoveNet</text>
<text text-anchor="middle" x="312.5" y="-183.5" font-family="Helvetica,sans-Serif" font-size="10.00">_&lt; void &gt; &gt;</text>
</a>
</g>
</g>
<!-- Node4&#45;&gt;Node6 -->
<g id="edge5" class="edge">
<title>Node4&#45;&gt;Node6</title>
<path fill="none" stroke="midnightblue" d="M217.13,-177.84C227.7,-179.37 238.78,-180.98 249.48,-182.52"/>
<polygon fill="midnightblue" stroke="midnightblue" points="217.57,-174.37 207.18,-176.4 216.57,-181.3 217.57,-174.37"/>
</g>
<!-- Node8 -->
<g id="node8" class="node">
<title>Node8</title>
<g id="a_node8"><a xlink:href="classvs2_1_1VPipeline.html" target="_top" xlink:title=" ">
<polygon fill="white" stroke="black" points="246.5,-88.5 246.5,-118.5 378.5,-118.5 378.5,-88.5 246.5,-88.5"/>
<text text-anchor="start" x="254.5" y="-106.5" font-family="Helvetica,sans-Serif" font-size="10.00">vs2::VPipeline&lt; Sequential</text>
<text text-anchor="middle" x="312.5" y="-95.5" font-family="Helvetica,sans-Serif" font-size="10.00">Pipeline&lt; pipelines_t... &gt; &gt;</text>
</a>
</g>
</g>
<!-- Node4&#45;&gt;Node8 -->
<g id="edge7" class="edge">
<title>Node4&#45;&gt;Node8</title>
<path fill="none" stroke="midnightblue" d="M197.46,-149.8C211.6,-142.74 227.89,-134.95 243,-128.5 251.03,-125.07 259.71,-121.68 268.11,-118.54"/>
<polygon fill="midnightblue" stroke="midnightblue" points="195.87,-146.68 188.51,-154.31 199.02,-152.93 195.87,-146.68"/>
</g>
<!-- Node10 -->
<g id="node10" class="node">
<title>Node10</title>
<g id="a_node10"><a xlink:href="classvs2_1_1VPipeline.html" target="_top" xlink:title=" ">
<polygon fill="white" stroke="black" points="249.5,-50 249.5,-69 375.5,-69 375.5,-50 249.5,-50"/>
<text text-anchor="middle" x="312.5" y="-57" font-family="Helvetica,sans-Serif" font-size="10.00">vs2::VPipeline&lt; derived &gt;</text>
</a>
</g>
</g>
<!-- Node4&#45;&gt;Node10 -->
<g id="edge9" class="edge">
<title>Node4&#45;&gt;Node10</title>
<path fill="none" stroke="midnightblue" d="M183.13,-146.98C190.89,-139.35 199.46,-130.7 207,-122.5 223.88,-104.16 222.14,-93.14 243,-79.5 249.64,-75.16 257.24,-71.74 264.9,-69.05"/>
<polygon fill="midnightblue" stroke="midnightblue" points="180.44,-144.71 175.71,-154.2 185.32,-149.73 180.44,-144.71"/>
</g>
<!-- Node5&#45;&gt;Node1 -->
<g id="edge4" class="edge">
<title>Node5&#45;&gt;Node1</title>
<path fill="none" stroke="midnightblue" d="M392.26,-279.5C400.85,-279.5 409.52,-279.5 417.92,-279.5"/>
<polygon fill="midnightblue" stroke="midnightblue" points="392.24,-276 382.24,-279.5 392.24,-283 392.24,-276"/>
</g>
<!-- Node7 -->
<g id="node7" class="node">
<title>Node7</title>
<g id="a_node7"><a xlink:href="classMoveNet__.html" target="_top" xlink:title=" ">
<polygon fill="white" stroke="black" points="424.5,-182 424.5,-201 542.5,-201 542.5,-182 424.5,-182"/>
<text text-anchor="middle" x="483.5" y="-189" font-family="Helvetica,sans-Serif" font-size="10.00">MoveNet_&lt; derived_t &gt;</text>
</a>
</g>
</g>
<!-- Node6&#45;&gt;Node7 -->
<g id="edge6" class="edge">
<title>Node6&#45;&gt;Node7</title>
<path fill="none" stroke="midnightblue" d="M386.07,-191.5C398.82,-191.5 411.93,-191.5 424.23,-191.5"/>
<polygon fill="midnightblue" stroke="midnightblue" points="385.95,-188 375.95,-191.5 385.95,-195 385.95,-188"/>
</g>
<!-- Node9 -->
<g id="node9" class="node">
<title>Node9</title>
<g id="a_node9"><a xlink:href="classvs2_1_1SequentialPipeline.html" target="_top" xlink:title=" ">
<polygon fill="white" stroke="black" points="425,-88.5 425,-118.5 542,-118.5 542,-88.5 425,-88.5"/>
<text text-anchor="start" x="433" y="-106.5" font-family="Helvetica,sans-Serif" font-size="10.00">vs2::SequentialPipeline</text>
<text text-anchor="middle" x="483.5" y="-95.5" font-family="Helvetica,sans-Serif" font-size="10.00">&lt; pipelines_t &gt;</text>
</a>
</g>
</g>
<!-- Node8&#45;&gt;Node9 -->
<g id="edge8" class="edge">
<title>Node8&#45;&gt;Node9</title>
<path fill="none" stroke="midnightblue" d="M388.88,-103.5C400.92,-103.5 413.22,-103.5 424.77,-103.5"/>
<polygon fill="midnightblue" stroke="midnightblue" points="388.84,-100 378.84,-103.5 388.84,-107 388.84,-100"/>
</g>
<!-- Node11 -->
<g id="node11" class="node">
<title>Node11</title>
<g id="a_node11"><a xlink:title=" ">
<polygon fill="white" stroke="#bfbfbf" points="129,-94 129,-113 188,-113 188,-94 129,-94"/>
<text text-anchor="middle" x="158.5" y="-101" font-family="Helvetica,sans-Serif" font-size="10.00">Instanced</text>
</a>
</g>
</g>
<!-- Node11&#45;&gt;Node5 -->
<g id="edge10" class="edge">
<title>Node11&#45;&gt;Node5</title>
<path fill="none" stroke="midnightblue" d="M182.3,-119.51C191.05,-126.61 200.48,-135.61 207,-145.5 235.08,-188.09 207.49,-217.87 243,-254.5 246.79,-258.41 251.24,-261.71 256.02,-264.5"/>
<polygon fill="midnightblue" stroke="midnightblue" points="184.31,-116.63 174.25,-113.3 180.04,-122.18 184.31,-116.63"/>
</g>
<!-- Node11&#45;&gt;Node6 -->
<g id="edge11" class="edge">
<title>Node11&#45;&gt;Node6</title>
<path fill="none" stroke="midnightblue" d="M177.77,-119.83C194,-133.68 218.82,-153.35 243,-166.5 249.67,-170.13 256.98,-173.43 264.26,-176.36"/>
<polygon fill="midnightblue" stroke="midnightblue" points="179.97,-117.1 170.12,-113.18 175.38,-122.38 179.97,-117.1"/>
</g>
<!-- Node11&#45;&gt;Node8 -->
<g id="edge12" class="edge">
<title>Node11&#45;&gt;Node8</title>
<path fill="none" stroke="midnightblue" d="M198.29,-103.5C212.95,-103.5 230.07,-103.5 246.49,-103.5"/>
<polygon fill="midnightblue" stroke="midnightblue" points="198.09,-100 188.09,-103.5 198.09,-107 198.09,-100"/>
</g>
<!-- Node11&#45;&gt;Node10 -->
<g id="edge14" class="edge">
<title>Node11&#45;&gt;Node10</title>
<path fill="none" stroke="midnightblue" d="M197.92,-92.38C222.79,-85.18 254.84,-75.9 278.55,-69.04"/>
<polygon fill="midnightblue" stroke="midnightblue" points="196.72,-89.08 188.09,-95.22 198.67,-95.81 196.72,-89.08"/>
</g>
<!-- Node12 -->
<g id="node12" class="node">
<title>Node12</title>
<g id="a_node12"><a xlink:href="classvs2_1_1UniqueTarget.html" target="_top" xlink:title=" ">
<polygon fill="white" stroke="black" points="262,-0.5 262,-30.5 363,-30.5 363,-0.5 262,-0.5"/>
<text text-anchor="start" x="270" y="-18.5" font-family="Helvetica,sans-Serif" font-size="10.00">vs2::UniqueTarget&lt;</text>
<text text-anchor="middle" x="312.5" y="-7.5" font-family="Helvetica,sans-Serif" font-size="10.00"> derived &gt;</text>
</a>
</g>
</g>
<!-- Node11&#45;&gt;Node12 -->
<g id="edge13" class="edge">
<title>Node11&#45;&gt;Node12</title>
<path fill="none" stroke="midnightblue" d="M177.77,-87.17C194,-73.32 218.82,-53.65 243,-40.5 249.67,-36.87 256.98,-33.57 264.26,-30.64"/>
<polygon fill="midnightblue" stroke="midnightblue" points="175.38,-84.62 170.12,-93.82 179.97,-89.9 175.38,-84.62"/>
</g>
<!-- Node15 -->
<g id="node13" class="node">
<title>Node15</title>
<g id="a_node13"><a xlink:href="structMoveNet__B.html" target="_top" xlink:title=" ">
<polygon fill="white" stroke="black" points="278.5,-138 278.5,-157 346.5,-157 346.5,-138 278.5,-138"/>
<text text-anchor="middle" x="312.5" y="-145" font-family="Helvetica,sans-Serif" font-size="10.00">MoveNet_B</text>
</a>
</g>
</g>
<!-- Node15&#45;&gt;Node7 -->
<g id="edge15" class="edge">
<title>Node15&#45;&gt;Node7</title>
<path fill="none" stroke="midnightblue" d="M356.68,-158.74C384.3,-165.93 419.74,-175.16 445.96,-181.99"/>
<polygon fill="midnightblue" stroke="midnightblue" points="357.45,-155.33 346.89,-156.19 355.68,-162.1 357.45,-155.33"/>
</g>
<!-- Node16 -->
<g id="node14" class="node">
<title>Node16</title>
<g id="a_node14"><a xlink:href="classvs2_1_1Target.html" target="_top" xlink:title=" ">
<polygon fill="white" stroke="black" points="126,-6 126,-25 191,-25 191,-6 126,-6"/>
<text text-anchor="middle" x="158.5" y="-13" font-family="Helvetica,sans-Serif" font-size="10.00">vs2::Target</text>
</a>
</g>
</g>
<!-- Node16&#45;&gt;Node12 -->
<g id="edge16" class="edge">
<title>Node16&#45;&gt;Node12</title>
<path fill="none" stroke="midnightblue" d="M201.61,-15.5C220.24,-15.5 242.29,-15.5 261.72,-15.5"/>
<polygon fill="midnightblue" stroke="midnightblue" points="201.36,-12 191.36,-15.5 201.36,-19 201.36,-12"/>
</g>
<!-- Node17 -->
<g id="node15" class="node">
<title>Node17</title>
<g id="a_node15"><a xlink:href="classTfModel.html" target="_top" xlink:title=" ">
<polygon fill="white" stroke="black" points="286.5,-226 286.5,-245 338.5,-245 338.5,-226 286.5,-226"/>
<text text-anchor="middle" x="312.5" y="-233" font-family="Helvetica,sans-Serif" font-size="10.00">TfModel</text>
</a>
</g>
</g>
<!-- Node17&#45;&gt;Node1 -->
<g id="edge17" class="edge">
<title>Node17&#45;&gt;Node1</title>
<path fill="none" stroke="midnightblue" d="M348.71,-244.67C377.11,-252.06 416.94,-262.43 445.75,-269.93"/>
<polygon fill="midnightblue" stroke="midnightblue" points="349.36,-241.22 338.8,-242.09 347.6,-247.99 349.36,-241.22"/>
</g>
<!-- Node17&#45;&gt;Node7 -->
<g id="edge18" class="edge">
<title>Node17&#45;&gt;Node7</title>
<path fill="none" stroke="midnightblue" d="M348.71,-226.33C377.11,-218.94 416.94,-208.57 445.75,-201.07"/>
<polygon fill="midnightblue" stroke="midnightblue" points="347.6,-223.01 338.8,-228.91 349.36,-229.78 347.6,-223.01"/>
</g>
</g>
</svg>
