<?xml version="1.0" encoding="UTF-8" standalone="no"?>
<!DOCTYPE svg PUBLIC "-//W3C//DTD SVG 1.1//EN"
 "http://www.w3.org/Graphics/SVG/1.1/DTD/svg11.dtd">
<!-- Generated by graphviz version 2.49.3 (20211027.1534)
 -->
<!-- Title: lib&#45;vs/src/core/vision.inc Pages: 1 -->
<svg width="882pt" height="207pt"
 viewBox="0.00 0.00 881.50 207.00" xmlns="http://www.w3.org/2000/svg" xmlns:xlink="http://www.w3.org/1999/xlink">
<g id="graph0" class="graph" transform="scale(1 1) rotate(0) translate(4 203)">
<title>lib&#45;vs/src/core/vision.inc</title>
<polygon fill="white" stroke="transparent" points="-4,4 -4,-203 877.5,-203 877.5,4 -4,4"/>
<!-- Node1 -->
<g id="node1" class="node">
<title>Node1</title>
<g id="a_node1"><a xlink:title=" ">
<polygon fill="#bfbfbf" stroke="black" points="359,-179.5 359,-198.5 481,-198.5 481,-179.5 359,-179.5"/>
<text text-anchor="middle" x="420" y="-186.5" font-family="Helvetica,sans-Serif" font-size="10.00">lib&#45;vs/src/core/vision.inc</text>
</a>
</g>
</g>
<!-- Node2 -->
<g id="node2" class="node">
<title>Node2</title>
<g id="a_node2"><a xlink:href="vision_8h.html" target="_top" xlink:title=" ">
<polygon fill="white" stroke="black" points="395,-123.5 395,-142.5 445,-142.5 445,-123.5 395,-123.5"/>
<text text-anchor="middle" x="420" y="-130.5" font-family="Helvetica,sans-Serif" font-size="10.00">vision.h</text>
</a>
</g>
</g>
<!-- Node1&#45;&gt;Node2 -->
<g id="edge1" class="edge">
<title>Node1&#45;&gt;Node2</title>
<path fill="none" stroke="midnightblue" d="M414.83,-179.08C413.32,-171.93 412.89,-161.64 413.54,-152.69"/>
<polygon fill="midnightblue" stroke="midnightblue" points="417.02,-153.13 414.87,-142.75 410.08,-152.2 417.02,-153.13"/>
</g>
<!-- Node2&#45;&gt;Node1 -->
<g id="edge18" class="edge">
<title>Node2&#45;&gt;Node1</title>
<path fill="none" stroke="midnightblue" d="M425.13,-142.75C426.66,-149.86 427.1,-160.14 426.47,-169.1"/>
<polygon fill="midnightblue" stroke="midnightblue" points="422.99,-168.71 425.17,-179.08 429.93,-169.62 422.99,-168.71"/>
</g>
<!-- Node3 -->
<g id="node3" class="node">
<title>Node3</title>
<g id="a_node3"><a xlink:title=" ">
<polygon fill="white" stroke="#bfbfbf" points="0,-67.5 0,-86.5 62,-86.5 62,-67.5 0,-67.5"/>
<text text-anchor="middle" x="31" y="-74.5" font-family="Helvetica,sans-Serif" font-size="10.00">type_traits</text>
</a>
</g>
</g>
<!-- Node2&#45;&gt;Node3 -->
<g id="edge2" class="edge">
<title>Node2&#45;&gt;Node3</title>
<path fill="none" stroke="midnightblue" d="M394.91,-129.58C338.84,-123.98 198.97,-109.08 72.26,-87.09"/>
<polygon fill="midnightblue" stroke="midnightblue" points="72.84,-83.63 62.39,-85.35 71.63,-90.53 72.84,-83.63"/>
</g>
<!-- Node4 -->
<g id="node4" class="node">
<title>Node4</title>
<g id="a_node4"><a xlink:title=" ">
<polygon fill="white" stroke="#bfbfbf" points="80,-67.5 80,-86.5 136,-86.5 136,-67.5 80,-67.5"/>
<text text-anchor="middle" x="108" y="-74.5" font-family="Helvetica,sans-Serif" font-size="10.00">algorithm</text>
</a>
</g>
</g>
<!-- Node2&#45;&gt;Node4 -->
<g id="edge3" class="edge">
<title>Node2&#45;&gt;Node4</title>
<path fill="none" stroke="midnightblue" d="M394.86,-128.54C347.95,-121.95 243.73,-106.65 146.25,-87.13"/>
<polygon fill="midnightblue" stroke="midnightblue" points="146.73,-83.65 136.23,-85.1 145.34,-90.52 146.73,-83.65"/>
</g>
<!-- Node5 -->
<g id="node5" class="node">
<title>Node5</title>
<g id="a_node5"><a xlink:title=" ">
<polygon fill="white" stroke="#bfbfbf" points="154,-67.5 154,-86.5 198,-86.5 198,-67.5 154,-67.5"/>
<text text-anchor="middle" x="176" y="-74.5" font-family="Helvetica,sans-Serif" font-size="10.00">vector</text>
</a>
</g>
</g>
<!-- Node2&#45;&gt;Node5 -->
<g id="edge4" class="edge">
<title>Node2&#45;&gt;Node5</title>
<path fill="none" stroke="midnightblue" d="M394.94,-127.33C356.7,-120.08 281.31,-105.24 208.14,-87.15"/>
<polygon fill="midnightblue" stroke="midnightblue" points="208.85,-83.72 198.3,-84.69 207.15,-90.51 208.85,-83.72"/>
</g>
<!-- Node6 -->
<g id="node6" class="node">
<title>Node6</title>
<g id="a_node6"><a xlink:title=" ">
<polygon fill="white" stroke="#bfbfbf" points="216,-67.5 216,-86.5 254,-86.5 254,-67.5 216,-67.5"/>
<text text-anchor="middle" x="235" y="-74.5" font-family="Helvetica,sans-Serif" font-size="10.00">array</text>
</a>
</g>
</g>
<!-- Node2&#45;&gt;Node6 -->
<g id="edge5" class="edge">
<title>Node2&#45;&gt;Node6</title>
<path fill="none" stroke="midnightblue" d="M394.83,-124.91C363.95,-116.17 310.04,-100.78 264,-87 263.9,-86.97 263.8,-86.94 263.7,-86.91"/>
<polygon fill="midnightblue" stroke="midnightblue" points="264.6,-83.53 254.01,-83.96 262.56,-90.22 264.6,-83.53"/>
</g>
<!-- Node7 -->
<g id="node7" class="node">
<title>Node7</title>
<g id="a_node7"><a xlink:title=" ">
<polygon fill="white" stroke="#bfbfbf" points="272.5,-67.5 272.5,-86.5 391.5,-86.5 391.5,-67.5 272.5,-67.5"/>
<text text-anchor="middle" x="332" y="-74.5" font-family="Helvetica,sans-Serif" font-size="10.00">opencv2/core/types.hpp</text>
</a>
</g>
</g>
<!-- Node2&#45;&gt;Node7 -->
<g id="edge6" class="edge">
<title>Node2&#45;&gt;Node7</title>
<path fill="none" stroke="midnightblue" d="M405.86,-123.32C392.13,-114.9 371.06,-101.97 354.94,-92.07"/>
<polygon fill="midnightblue" stroke="midnightblue" points="356.46,-88.9 346.1,-86.65 352.8,-94.87 356.46,-88.9"/>
</g>
<!-- Node8 -->
<g id="node8" class="node">
<title>Node8</title>
<g id="a_node8"><a xlink:title=" ">
<polygon fill="white" stroke="#bfbfbf" points="197.5,-0.5 197.5,-30.5 338.5,-30.5 338.5,-0.5 197.5,-0.5"/>
<text text-anchor="start" x="205.5" y="-18.5" font-family="Helvetica,sans-Serif" font-size="10.00">networktables/NetworkTable</text>
<text text-anchor="middle" x="268" y="-7.5" font-family="Helvetica,sans-Serif" font-size="10.00">Instance.h</text>
</a>
</g>
</g>
<!-- Node2&#45;&gt;Node8 -->
<g id="edge7" class="edge">
<title>Node2&#45;&gt;Node8</title>
<path fill="none" stroke="midnightblue" d="M419.82,-123.24C419.08,-109.51 415.68,-82.89 401,-67 386.88,-51.73 367.66,-41.04 348.21,-33.57"/>
<polygon fill="midnightblue" stroke="midnightblue" points="349.27,-30.23 338.67,-30.15 346.91,-36.82 349.27,-30.23"/>
</g>
<!-- Node9 -->
<g id="node9" class="node">
<title>Node9</title>
<g id="a_node9"><a xlink:title=" ">
<polygon fill="white" stroke="#bfbfbf" points="356.5,-6 356.5,-25 505.5,-25 505.5,-6 356.5,-6"/>
<text text-anchor="middle" x="431" y="-13" font-family="Helvetica,sans-Serif" font-size="10.00">networktables/NetworkTable.h</text>
</a>
</g>
</g>
<!-- Node2&#45;&gt;Node9 -->
<g id="edge8" class="edge">
<title>Node2&#45;&gt;Node9</title>
<path fill="none" stroke="midnightblue" d="M423.6,-123.22C427.06,-114.28 432.03,-99.94 434,-87 436.64,-69.61 435.38,-49.54 433.76,-35.28"/>
<polygon fill="midnightblue" stroke="midnightblue" points="437.21,-34.7 432.45,-25.24 430.27,-35.61 437.21,-34.7"/>
</g>
<!-- Node10 -->
<g id="node10" class="node">
<title>Node10</title>
<g id="a_node10"><a xlink:title=" ">
<polygon fill="white" stroke="#bfbfbf" points="724.5,-6 724.5,-25 873.5,-25 873.5,-6 724.5,-6"/>
<text text-anchor="middle" x="799" y="-13" font-family="Helvetica,sans-Serif" font-size="10.00">cameraserver/CameraServer.h</text>
</a>
</g>
</g>
<!-- Node2&#45;&gt;Node10 -->
<g id="edge9" class="edge">
<title>Node2&#45;&gt;Node10</title>
<path fill="none" stroke="midnightblue" d="M445.24,-126.37C476.69,-119 531.78,-104.88 577,-87 595.12,-79.84 597.85,-74.07 616,-67 659.79,-49.94 711.57,-36.21 748.86,-27.41"/>
<polygon fill="midnightblue" stroke="midnightblue" points="750.03,-30.73 758.97,-25.05 748.44,-23.91 750.03,-30.73"/>
</g>
<!-- Node11 -->
<g id="node11" class="node">
<title>Node11</title>
<g id="a_node11"><a xlink:title=" ">
<polygon fill="white" stroke="#bfbfbf" points="624.5,-67.5 624.5,-86.5 719.5,-86.5 719.5,-67.5 624.5,-67.5"/>
<text text-anchor="middle" x="672" y="-74.5" font-family="Helvetica,sans-Serif" font-size="10.00">wpi/StringExtras.h</text>
</a>
</g>
</g>
<!-- Node2&#45;&gt;Node11 -->
<g id="edge10" class="edge">
<title>Node2&#45;&gt;Node11</title>
<path fill="none" stroke="midnightblue" d="M445.08,-126.62C486.25,-117.8 568.9,-100.09 622.27,-88.66"/>
<polygon fill="midnightblue" stroke="midnightblue" points="623.16,-92.04 632.21,-86.53 621.7,-85.2 623.16,-92.04"/>
</g>
<!-- Node12 -->
<g id="node12" class="node">
<title>Node12</title>
<g id="a_node12"><a xlink:title=" ">
<polygon fill="white" stroke="#bfbfbf" points="738,-67.5 738,-86.5 864,-86.5 864,-67.5 738,-67.5"/>
<text text-anchor="middle" x="801" y="-74.5" font-family="Helvetica,sans-Serif" font-size="10.00">cpp&#45;tools/src/resources.h</text>
</a>
</g>
</g>
<!-- Node2&#45;&gt;Node12 -->
<g id="edge11" class="edge">
<title>Node2&#45;&gt;Node12</title>
<path fill="none" stroke="midnightblue" d="M445.29,-128.42C502.69,-120.28 644.47,-100.18 730.7,-87.96"/>
<polygon fill="midnightblue" stroke="midnightblue" points="731.27,-91.42 740.68,-86.55 730.28,-84.49 731.27,-91.42"/>
</g>
<!-- Node13 -->
<g id="node13" class="node">
<title>Node13</title>
<g id="a_node13"><a xlink:href="visioncamera_8h.html" target="_top" xlink:title=" ">
<polygon fill="white" stroke="black" points="486,-67.5 486,-86.5 568,-86.5 568,-67.5 486,-67.5"/>
<text text-anchor="middle" x="527" y="-74.5" font-family="Helvetica,sans-Serif" font-size="10.00">visioncamera.h</text>
</a>
</g>
</g>
<!-- Node2&#45;&gt;Node13 -->
<g id="edge12" class="edge">
<title>Node2&#45;&gt;Node13</title>
<path fill="none" stroke="midnightblue" d="M437.19,-123.32C454.35,-114.66 480.95,-101.24 500.75,-91.25"/>
<polygon fill="midnightblue" stroke="midnightblue" points="502.5,-94.28 509.85,-86.65 499.35,-88.04 502.5,-94.28"/>
</g>
<!-- Node13&#45;&gt;Node8 -->
<g id="edge14" class="edge">
<title>Node13&#45;&gt;Node8</title>
<path fill="none" stroke="midnightblue" d="M489.89,-67.48C450.63,-58.46 387.74,-44.01 338.92,-32.79"/>
<polygon fill="midnightblue" stroke="midnightblue" points="339.57,-29.35 329.04,-30.52 338,-36.17 339.57,-29.35"/>
</g>
<!-- Node13&#45;&gt;Node9 -->
<g id="edge15" class="edge">
<title>Node13&#45;&gt;Node9</title>
<path fill="none" stroke="midnightblue" d="M513.25,-67.48C497.63,-57.8 471.94,-41.87 453.42,-30.39"/>
<polygon fill="midnightblue" stroke="midnightblue" points="455.07,-27.3 444.73,-25.01 451.38,-33.25 455.07,-27.3"/>
</g>
<!-- Node13&#45;&gt;Node10 -->
<g id="edge16" class="edge">
<title>Node13&#45;&gt;Node10</title>
<path fill="none" stroke="midnightblue" d="M565.97,-67.48C614.55,-56.85 697.58,-38.68 750.3,-27.15"/>
<polygon fill="midnightblue" stroke="midnightblue" points="751.08,-30.57 760.1,-25.01 749.58,-23.73 751.08,-30.57"/>
</g>
<!-- Node14 -->
<g id="node14" class="node">
<title>Node14</title>
<g id="a_node14"><a xlink:title=" ">
<polygon fill="white" stroke="#bfbfbf" points="601,-6 601,-25 707,-25 707,-6 601,-6"/>
<text text-anchor="middle" x="654" y="-13" font-family="Helvetica,sans-Serif" font-size="10.00">opencv2/opencv.hpp</text>
</a>
</g>
</g>
<!-- Node13&#45;&gt;Node14 -->
<g id="edge13" class="edge">
<title>Node13&#45;&gt;Node14</title>
<path fill="none" stroke="midnightblue" d="M545.2,-67.48C566.51,-57.49 602.03,-40.85 626.66,-29.31"/>
<polygon fill="midnightblue" stroke="midnightblue" points="628.27,-32.42 635.84,-25.01 625.3,-26.08 628.27,-32.42"/>
</g>
<!-- Node15 -->
<g id="node15" class="node">
<title>Node15</title>
<g id="a_node15"><a xlink:title=" ">
<polygon fill="white" stroke="#bfbfbf" points="523,-6 523,-25 583,-25 583,-6 523,-6"/>
<text text-anchor="middle" x="553" y="-13" font-family="Helvetica,sans-Serif" font-size="10.00">wpi/json.h</text>
</a>
</g>
</g>
<!-- Node13&#45;&gt;Node15 -->
<g id="edge17" class="edge">
<title>Node13&#45;&gt;Node15</title>
<path fill="none" stroke="midnightblue" d="M530.73,-67.48C534.47,-58.9 540.36,-45.43 545.14,-34.48"/>
<polygon fill="midnightblue" stroke="midnightblue" points="548.48,-35.57 549.28,-25.01 542.07,-32.77 548.48,-35.57"/>
</g>
</g>
</svg>
