<?xml version="1.0" encoding="UTF-8" standalone="no"?>
<!DOCTYPE svg PUBLIC "-//W3C//DTD SVG 1.1//EN"
 "http://www.w3.org/Graphics/SVG/1.1/DTD/svg11.dtd">
<!-- Generated by graphviz version 2.49.3 (20211027.1534)
 -->
<!-- Title: lib&#45;vs/src/core/visionserver2.inc Pages: 1 -->
<svg width="874pt" height="207pt"
 viewBox="0.00 0.00 873.50 207.00" xmlns="http://www.w3.org/2000/svg" xmlns:xlink="http://www.w3.org/1999/xlink">
<g id="graph0" class="graph" transform="scale(1 1) rotate(0) translate(4 203)">
<title>lib&#45;vs/src/core/visionserver2.inc</title>
<!-- Node1 -->
<g id="node1" class="node">
<title>Node1</title>
<g id="a_node1"><a xlink:title=" ">
<polygon fill="#bfbfbf" stroke="black" points="253.5,-179.5 253.5,-198.5 407.5,-198.5 407.5,-179.5 253.5,-179.5"/>
<text text-anchor="middle" x="330.5" y="-186.5" font-family="Helvetica,sans-Serif" font-size="10.00">lib&#45;vs/src/core/visionserver2.inc</text>
</a>
</g>
</g>
<!-- Node2 -->
<g id="node2" class="node">
<title>Node2</title>
<g id="a_node2"><a xlink:href="visionserver2_8h.html" target="_top" xlink:title=" ">
<polygon fill="none" stroke="black" points="244.5,-123.5 244.5,-142.5 326.5,-142.5 326.5,-123.5 244.5,-123.5"/>
<text text-anchor="middle" x="285.5" y="-130.5" font-family="Helvetica,sans-Serif" font-size="10.00">visionserver2.h</text>
</a>
</g>
</g>
<!-- Node1&#45;&gt;Node2 -->
<g id="edge1" class="edge">
<title>Node1&#45;&gt;Node2</title>
<path fill="none" stroke="midnightblue" d="M318.16,-179.32C310.19,-171.73 300.41,-160.48 293.41,-151.09"/>
<polygon fill="midnightblue" stroke="midnightblue" points="296.27,-149.07 287.71,-142.83 290.51,-153.05 296.27,-149.07"/>
</g>
<!-- Node15 -->
<g id="node15" class="node">
<title>Node15</title>
<g id="a_node15"><a xlink:title=" ">
<polygon fill="none" stroke="#bfbfbf" points="344.5,-123.5 344.5,-142.5 406.5,-142.5 406.5,-123.5 344.5,-123.5"/>
<text text-anchor="middle" x="375.5" y="-130.5" font-family="Helvetica,sans-Serif" font-size="10.00">type_traits</text>
</a>
</g>
</g>
<!-- Node1&#45;&gt;Node15 -->
<g id="edge17" class="edge">
<title>Node1&#45;&gt;Node15</title>
<path fill="none" stroke="midnightblue" d="M337.93,-179.08C344.35,-171.38 353.81,-160.03 361.62,-150.65"/>
<polygon fill="midnightblue" stroke="midnightblue" points="364.49,-152.67 368.21,-142.75 359.12,-148.19 364.49,-152.67"/>
</g>
<!-- Node16 -->
<g id="node16" class="node">
<title>Node16</title>
<g id="a_node16"><a xlink:title=" ">
<polygon fill="none" stroke="#bfbfbf" points="424.5,-123.5 424.5,-142.5 476.5,-142.5 476.5,-123.5 424.5,-123.5"/>
<text text-anchor="middle" x="450.5" y="-130.5" font-family="Helvetica,sans-Serif" font-size="10.00">sstream</text>
</a>
</g>
</g>
<!-- Node1&#45;&gt;Node16 -->
<g id="edge18" class="edge">
<title>Node1&#45;&gt;Node16</title>
<path fill="none" stroke="midnightblue" d="M349.51,-179.44C369.09,-170.64 399.81,-156.81 422.23,-146.72"/>
<polygon fill="midnightblue" stroke="midnightblue" points="423.89,-149.81 431.57,-142.52 421.02,-143.43 423.89,-149.81"/>
</g>
<!-- Node2&#45;&gt;Node1 -->
<g id="edge16" class="edge">
<title>Node2&#45;&gt;Node1</title>
<path fill="none" stroke="midnightblue" d="M297.92,-142.75C305.86,-150.33 315.58,-161.5 322.55,-170.86"/>
<polygon fill="midnightblue" stroke="midnightblue" points="319.67,-172.85 328.24,-179.08 325.43,-168.87 319.67,-172.85"/>
</g>
<!-- Node3 -->
<g id="node3" class="node">
<title>Node3</title>
<g id="a_node3"><a xlink:title=" ">
<polygon fill="none" stroke="#bfbfbf" points="0,-67.5 0,-86.5 41,-86.5 41,-67.5 0,-67.5"/>
<text text-anchor="middle" x="20.5" y="-74.5" font-family="Helvetica,sans-Serif" font-size="10.00">string</text>
</a>
</g>
</g>
<!-- Node2&#45;&gt;Node3 -->
<g id="edge2" class="edge">
<title>Node2&#45;&gt;Node3</title>
<path fill="none" stroke="midnightblue" d="M244.47,-125.45C199.38,-117.97 124.65,-104.71 50.99,-86.9"/>
<polygon fill="midnightblue" stroke="midnightblue" points="51.63,-83.45 41.08,-84.48 49.96,-90.25 51.63,-83.45"/>
</g>
<!-- Node4 -->
<g id="node4" class="node">
<title>Node4</title>
<g id="a_node4"><a xlink:title=" ">
<polygon fill="none" stroke="#bfbfbf" points="59.5,-67.5 59.5,-86.5 105.5,-86.5 105.5,-67.5 59.5,-67.5"/>
<text text-anchor="middle" x="82.5" y="-74.5" font-family="Helvetica,sans-Serif" font-size="10.00">atomic</text>
</a>
</g>
</g>
<!-- Node2&#45;&gt;Node4 -->
<g id="edge3" class="edge">
<title>Node2&#45;&gt;Node4</title>
<path fill="none" stroke="midnightblue" d="M252.35,-123.45C219.89,-115.05 168.77,-101.7 115.52,-87.25"/>
<polygon fill="midnightblue" stroke="midnightblue" points="116.13,-83.78 105.56,-84.54 114.29,-90.54 116.13,-83.78"/>
</g>
<!-- Node5 -->
<g id="node5" class="node">
<title>Node5</title>
<g id="a_node5"><a xlink:title=" ">
<polygon fill="none" stroke="#bfbfbf" points="123.5,-67.5 123.5,-86.5 167.5,-86.5 167.5,-67.5 123.5,-67.5"/>
<text text-anchor="middle" x="145.5" y="-74.5" font-family="Helvetica,sans-Serif" font-size="10.00">thread</text>
</a>
</g>
</g>
<!-- Node2&#45;&gt;Node5 -->
<g id="edge4" class="edge">
<title>Node2&#45;&gt;Node5</title>
<path fill="none" stroke="midnightblue" d="M263.32,-123.44C240.07,-114.48 203.35,-100.31 177.08,-90.18"/>
<polygon fill="midnightblue" stroke="midnightblue" points="178.17,-86.85 167.58,-86.52 175.65,-93.38 178.17,-86.85"/>
</g>
<!-- Node6 -->
<g id="node6" class="node">
<title>Node6</title>
<g id="a_node6"><a xlink:title=" ">
<polygon fill="none" stroke="#bfbfbf" points="185.5,-67.5 185.5,-86.5 231.5,-86.5 231.5,-67.5 185.5,-67.5"/>
<text text-anchor="middle" x="208.5" y="-74.5" font-family="Helvetica,sans-Serif" font-size="10.00">chrono</text>
</a>
</g>
</g>
<!-- Node2&#45;&gt;Node6 -->
<g id="edge5" class="edge">
<title>Node2&#45;&gt;Node6</title>
<path fill="none" stroke="midnightblue" d="M273.13,-123.32C261.34,-115.06 243.37,-102.45 229.36,-92.63"/>
<polygon fill="midnightblue" stroke="midnightblue" points="231.04,-89.53 220.84,-86.65 227.02,-95.26 231.04,-89.53"/>
</g>
<!-- Node7 -->
<g id="node7" class="node">
<title>Node7</title>
<g id="a_node7"><a xlink:title=" ">
<polygon fill="none" stroke="#bfbfbf" points="249.5,-67.5 249.5,-86.5 321.5,-86.5 321.5,-67.5 249.5,-67.5"/>
<text text-anchor="middle" x="285.5" y="-74.5" font-family="Helvetica,sans-Serif" font-size="10.00">initializer_list</text>
</a>
</g>
</g>
<!-- Node2&#45;&gt;Node7 -->
<g id="edge6" class="edge">
<title>Node2&#45;&gt;Node7</title>
<path fill="none" stroke="midnightblue" d="M285.5,-123.08C285.5,-116.01 285.5,-105.86 285.5,-96.99"/>
<polygon fill="midnightblue" stroke="midnightblue" points="289,-96.75 285.5,-86.75 282,-96.75 289,-96.75"/>
</g>
<!-- Node8 -->
<g id="node8" class="node">
<title>Node8</title>
<g id="a_node8"><a xlink:title=" ">
<polygon fill="none" stroke="#bfbfbf" points="189.5,-6 189.5,-25 295.5,-25 295.5,-6 189.5,-6"/>
<text text-anchor="middle" x="242.5" y="-13" font-family="Helvetica,sans-Serif" font-size="10.00">opencv2/opencv.hpp</text>
</a>
</g>
</g>
<!-- Node2&#45;&gt;Node8 -->
<g id="edge7" class="edge">
<title>Node2&#45;&gt;Node8</title>
<path fill="none" stroke="midnightblue" d="M298.9,-123.46C316.2,-111.31 342.74,-88.14 330.5,-67 319.98,-48.83 300.17,-36.63 282.01,-28.78"/>
<polygon fill="midnightblue" stroke="midnightblue" points="283.3,-25.53 272.72,-25.06 280.7,-32.03 283.3,-25.53"/>
</g>
<!-- Node9 -->
<g id="node9" class="node">
<title>Node9</title>
<g id="a_node9"><a xlink:title=" ">
<polygon fill="none" stroke="#bfbfbf" points="313,-6 313,-25 462,-25 462,-6 313,-6"/>
<text text-anchor="middle" x="387.5" y="-13" font-family="Helvetica,sans-Serif" font-size="10.00">networktables/NetworkTable.h</text>
</a>
</g>
</g>
<!-- Node2&#45;&gt;Node9 -->
<g id="edge8" class="edge">
<title>Node2&#45;&gt;Node9</title>
<path fill="none" stroke="midnightblue" d="M300.39,-123.45C313.64,-115.31 332.97,-102.09 346.5,-87 360.79,-71.07 372.49,-49.38 379.69,-34.28"/>
<polygon fill="midnightblue" stroke="midnightblue" points="382.94,-35.58 383.92,-25.03 376.58,-32.67 382.94,-35.58"/>
</g>
<!-- Node10 -->
<g id="node10" class="node">
<title>Node10</title>
<g id="a_node10"><a xlink:title=" ">
<polygon fill="none" stroke="#bfbfbf" points="516,-67.5 516,-86.5 623,-86.5 623,-67.5 516,-67.5"/>
<text text-anchor="middle" x="569.5" y="-74.5" font-family="Helvetica,sans-Serif" font-size="10.00">cpp&#45;tools/src/types.h</text>
</a>
</g>
</g>
<!-- Node2&#45;&gt;Node10 -->
<g id="edge9" class="edge">
<title>Node2&#45;&gt;Node10</title>
<path fill="none" stroke="midnightblue" d="M326.8,-124.15C376.33,-114.73 459.54,-98.91 514.48,-88.46"/>
<polygon fill="midnightblue" stroke="midnightblue" points="515.23,-91.88 524.4,-86.58 513.92,-85.01 515.23,-91.88"/>
</g>
<!-- Node11 -->
<g id="node11" class="node">
<title>Node11</title>
<g id="a_node11"><a xlink:href="visioncamera_8h.html" target="_top" xlink:title=" ">
<polygon fill="none" stroke="black" points="415.5,-67.5 415.5,-86.5 497.5,-86.5 497.5,-67.5 415.5,-67.5"/>
<text text-anchor="middle" x="456.5" y="-74.5" font-family="Helvetica,sans-Serif" font-size="10.00">visioncamera.h</text>
</a>
</g>
</g>
<!-- Node2&#45;&gt;Node11 -->
<g id="edge10" class="edge">
<title>Node2&#45;&gt;Node11</title>
<path fill="none" stroke="midnightblue" d="M312.6,-123.44C341.49,-114.32 387.42,-99.81 419.61,-89.65"/>
<polygon fill="midnightblue" stroke="midnightblue" points="421.05,-92.87 429.53,-86.52 418.94,-86.19 421.05,-92.87"/>
</g>
<!-- Node11&#45;&gt;Node8 -->
<g id="edge11" class="edge">
<title>Node11&#45;&gt;Node8</title>
<path fill="none" stroke="midnightblue" d="M425.84,-67.48C388.26,-57.03 324.46,-39.29 282.9,-27.73"/>
<polygon fill="midnightblue" stroke="midnightblue" points="283.68,-24.32 273.1,-25.01 281.8,-31.06 283.68,-24.32"/>
</g>
<!-- Node11&#45;&gt;Node9 -->
<g id="edge13" class="edge">
<title>Node11&#45;&gt;Node9</title>
<path fill="none" stroke="midnightblue" d="M446.61,-67.48C435.85,-58.2 418.43,-43.17 405.28,-31.83"/>
<polygon fill="midnightblue" stroke="midnightblue" points="407.23,-28.89 397.37,-25.01 402.66,-34.19 407.23,-28.89"/>
</g>
<!-- Node12 -->
<g id="node12" class="node">
<title>Node12</title>
<g id="a_node12"><a xlink:title=" ">
<polygon fill="none" stroke="#bfbfbf" points="480,-0.5 480,-30.5 621,-30.5 621,-0.5 480,-0.5"/>
<text text-anchor="start" x="488" y="-18.5" font-family="Helvetica,sans-Serif" font-size="10.00">networktables/NetworkTable</text>
<text text-anchor="middle" x="550.5" y="-7.5" font-family="Helvetica,sans-Serif" font-size="10.00">Instance.h</text>
</a>
</g>
</g>
<!-- Node11&#45;&gt;Node12 -->
<g id="edge12" class="edge">
<title>Node11&#45;&gt;Node12</title>
<path fill="none" stroke="midnightblue" d="M469.97,-67.48C482.94,-59.27 503.01,-46.56 519.88,-35.88"/>
<polygon fill="midnightblue" stroke="midnightblue" points="521.77,-38.83 528.35,-30.52 518.02,-32.91 521.77,-38.83"/>
</g>
<!-- Node13 -->
<g id="node13" class="node">
<title>Node13</title>
<g id="a_node13"><a xlink:title=" ">
<polygon fill="none" stroke="#bfbfbf" points="639,-6 639,-25 788,-25 788,-6 639,-6"/>
<text text-anchor="middle" x="713.5" y="-13" font-family="Helvetica,sans-Serif" font-size="10.00">cameraserver/CameraServer.h</text>
</a>
</g>
</g>
<!-- Node11&#45;&gt;Node13 -->
<g id="edge14" class="edge">
<title>Node11&#45;&gt;Node13</title>
<path fill="none" stroke="midnightblue" d="M493.32,-67.48C539.03,-56.89 617.03,-38.84 666.87,-27.3"/>
<polygon fill="midnightblue" stroke="midnightblue" points="667.79,-30.67 676.75,-25.01 666.21,-23.85 667.79,-30.67"/>
</g>
<!-- Node14 -->
<g id="node14" class="node">
<title>Node14</title>
<g id="a_node14"><a xlink:title=" ">
<polygon fill="none" stroke="#bfbfbf" points="805.5,-6 805.5,-25 865.5,-25 865.5,-6 805.5,-6"/>
<text text-anchor="middle" x="835.5" y="-13" font-family="Helvetica,sans-Serif" font-size="10.00">wpi/json.h</text>
</a>
</g>
</g>
<!-- Node11&#45;&gt;Node14 -->
<g id="edge15" class="edge">
<title>Node11&#45;&gt;Node14</title>
<path fill="none" stroke="midnightblue" d="M497.67,-68.55C500.99,-68 504.3,-67.48 507.5,-67 635.94,-47.71 671.47,-62.38 797.5,-31 800.33,-30.3 803.23,-29.44 806.11,-28.51"/>
<polygon fill="midnightblue" stroke="midnightblue" points="807.43,-31.75 815.67,-25.1 805.08,-25.16 807.43,-31.75"/>
</g>
</g>
</svg>
