<?xml version="1.0" encoding="UTF-8" standalone="no"?>
<!DOCTYPE svg PUBLIC "-//W3C//DTD SVG 1.1//EN"
 "http://www.w3.org/Graphics/SVG/1.1/DTD/svg11.dtd">
<!-- Generated by graphviz version 2.49.3 (20211027.1534)
 -->
<!-- Title: lib&#45;vs/src/core/visioncamera.h Pages: 1 -->
<svg width="685pt" height="95pt"
 viewBox="0.00 0.00 685.00 95.00" xmlns="http://www.w3.org/2000/svg" xmlns:xlink="http://www.w3.org/1999/xlink">
<g id="graph0" class="graph" transform="scale(1 1) rotate(0) translate(4 91)">
<title>lib&#45;vs/src/core/visioncamera.h</title>
<polygon fill="white" stroke="transparent" points="-4,4 -4,-91 681,-91 681,4 -4,4"/>
<!-- Node1 -->
<g id="node1" class="node">
<title>Node1</title>
<g id="a_node1"><a xlink:title=" ">
<polygon fill="#bfbfbf" stroke="black" points="285,-67.5 285,-86.5 431,-86.5 431,-67.5 285,-67.5"/>
<text text-anchor="middle" x="358" y="-74.5" font-family="Helvetica,sans-Serif" font-size="10.00">lib&#45;vs/src/core/visioncamera.h</text>
</a>
</g>
</g>
<!-- Node2 -->
<g id="node2" class="node">
<title>Node2</title>
<g id="a_node2"><a xlink:title=" ">
<polygon fill="white" stroke="#bfbfbf" points="0,-6 0,-25 106,-25 106,-6 0,-6"/>
<text text-anchor="middle" x="53" y="-13" font-family="Helvetica,sans-Serif" font-size="10.00">opencv2/opencv.hpp</text>
</a>
</g>
</g>
<!-- Node1&#45;&gt;Node2 -->
<g id="edge1" class="edge">
<title>Node1&#45;&gt;Node2</title>
<path fill="none" stroke="midnightblue" d="M308.07,-67.46C258.85,-58.87 181.56,-44.94 115,-31 109.59,-29.87 103.93,-28.62 98.32,-27.36"/>
<polygon fill="midnightblue" stroke="midnightblue" points="98.88,-23.89 88.35,-25.07 97.31,-30.72 98.88,-23.89"/>
</g>
<!-- Node3 -->
<g id="node3" class="node">
<title>Node3</title>
<g id="a_node3"><a xlink:title=" ">
<polygon fill="white" stroke="#bfbfbf" points="124.5,-0.5 124.5,-30.5 265.5,-30.5 265.5,-0.5 124.5,-0.5"/>
<text text-anchor="start" x="132.5" y="-18.5" font-family="Helvetica,sans-Serif" font-size="10.00">networktables/NetworkTable</text>
<text text-anchor="middle" x="195" y="-7.5" font-family="Helvetica,sans-Serif" font-size="10.00">Instance.h</text>
</a>
</g>
</g>
<!-- Node1&#45;&gt;Node3 -->
<g id="edge2" class="edge">
<title>Node1&#45;&gt;Node3</title>
<path fill="none" stroke="midnightblue" d="M334.65,-67.48C310.82,-58.78 273.15,-45.03 242.94,-34"/>
<polygon fill="midnightblue" stroke="midnightblue" points="244.01,-30.66 233.42,-30.52 241.61,-37.24 244.01,-30.66"/>
</g>
<!-- Node4 -->
<g id="node4" class="node">
<title>Node4</title>
<g id="a_node4"><a xlink:title=" ">
<polygon fill="white" stroke="#bfbfbf" points="283.5,-6 283.5,-25 432.5,-25 432.5,-6 283.5,-6"/>
<text text-anchor="middle" x="358" y="-13" font-family="Helvetica,sans-Serif" font-size="10.00">networktables/NetworkTable.h</text>
</a>
</g>
</g>
<!-- Node1&#45;&gt;Node4 -->
<g id="edge3" class="edge">
<title>Node1&#45;&gt;Node4</title>
<path fill="none" stroke="midnightblue" d="M358,-67.48C358,-59.08 358,-45.98 358,-35.16"/>
<polygon fill="midnightblue" stroke="midnightblue" points="361.5,-35.01 358,-25.01 354.5,-35.01 361.5,-35.01"/>
</g>
<!-- Node5 -->
<g id="node5" class="node">
<title>Node5</title>
<g id="a_node5"><a xlink:title=" ">
<polygon fill="white" stroke="#bfbfbf" points="450.5,-6 450.5,-25 599.5,-25 599.5,-6 450.5,-6"/>
<text text-anchor="middle" x="525" y="-13" font-family="Helvetica,sans-Serif" font-size="10.00">cameraserver/CameraServer.h</text>
</a>
</g>
</g>
<!-- Node1&#45;&gt;Node5 -->
<g id="edge4" class="edge">
<title>Node1&#45;&gt;Node5</title>
<path fill="none" stroke="midnightblue" d="M381.93,-67.48C410.7,-57.22 459.16,-39.96 491.6,-28.4"/>
<polygon fill="midnightblue" stroke="midnightblue" points="492.87,-31.66 501.12,-25.01 490.52,-25.07 492.87,-31.66"/>
</g>
<!-- Node6 -->
<g id="node6" class="node">
<title>Node6</title>
<g id="a_node6"><a xlink:title=" ">
<polygon fill="white" stroke="#bfbfbf" points="617,-6 617,-25 677,-25 677,-6 617,-6"/>
<text text-anchor="middle" x="647" y="-13" font-family="Helvetica,sans-Serif" font-size="10.00">wpi/json.h</text>
</a>
</g>
</g>
<!-- Node1&#45;&gt;Node6 -->
<g id="edge5" class="edge">
<title>Node1&#45;&gt;Node6</title>
<path fill="none" stroke="midnightblue" d="M424.82,-67.49C475.84,-60.17 547.58,-48.06 609,-31 611.65,-30.26 614.38,-29.42 617.09,-28.51"/>
<polygon fill="midnightblue" stroke="midnightblue" points="618.5,-31.72 626.72,-25.04 616.13,-25.13 618.5,-31.72"/>
</g>
</g>
</svg>
