<?xml version="1.0" encoding="UTF-8" standalone="no"?>
<!DOCTYPE svg PUBLIC "-//W3C//DTD SVG 1.1//EN"
 "http://www.w3.org/Graphics/SVG/1.1/DTD/svg11.dtd">
<!-- Generated by graphviz version 2.49.3 (20211027.1534)
 -->
<!-- Title: lib&#45;vs/src/core/visioncamera.h Pages: 1 -->
<svg width="1067pt" height="196pt"
 viewBox="0.00 0.00 1066.50 196.00" xmlns="http://www.w3.org/2000/svg" xmlns:xlink="http://www.w3.org/1999/xlink">
<g id="graph0" class="graph" transform="scale(1 1) rotate(0) translate(4 192)">
<title>lib&#45;vs/src/core/visioncamera.h</title>
<polygon fill="white" stroke="transparent" points="-4,4 -4,-192 1062.5,-192 1062.5,4 -4,4"/>
<!-- Node1 -->
<g id="node1" class="node">
<title>Node1</title>
<g id="a_node1"><a xlink:title=" ">
<polygon fill="#bfbfbf" stroke="black" points="289.5,-168.5 289.5,-187.5 435.5,-187.5 435.5,-168.5 289.5,-168.5"/>
<text text-anchor="middle" x="362.5" y="-175.5" font-family="Helvetica,sans-Serif" font-size="10.00">lib&#45;vs/src/core/visioncamera.h</text>
</a>
</g>
</g>
<!-- Node2 -->
<g id="node2" class="node">
<title>Node2</title>
<g id="a_node2"><a xlink:href="vision_8h.html" target="_top" xlink:title=" ">
<polygon fill="white" stroke="black" points="147.5,-112.5 147.5,-131.5 261.5,-131.5 261.5,-112.5 147.5,-112.5"/>
<text text-anchor="middle" x="204.5" y="-119.5" font-family="Helvetica,sans-Serif" font-size="10.00">lib&#45;vs/src/core/vision.h</text>
</a>
</g>
</g>
<!-- Node1&#45;&gt;Node2 -->
<g id="edge1" class="edge">
<title>Node1&#45;&gt;Node2</title>
<path fill="none" stroke="midnightblue" d="M327.89,-165.17C298.14,-155 255.95,-140.59 229.42,-131.52"/>
<polygon fill="midnightblue" stroke="midnightblue" points="326.87,-168.52 337.46,-168.44 329.13,-161.9 326.87,-168.52"/>
</g>
<!-- Node5 -->
<g id="node5" class="node">
<title>Node5</title>
<g id="a_node5"><a xlink:href="visioncamera_8cpp.html" target="_top" xlink:title=" ">
<polygon fill="white" stroke="black" points="284,-56.5 284,-75.5 441,-75.5 441,-56.5 284,-56.5"/>
<text text-anchor="middle" x="362.5" y="-63.5" font-family="Helvetica,sans-Serif" font-size="10.00">lib&#45;vs/src/core/visioncamera.cpp</text>
</a>
</g>
</g>
<!-- Node1&#45;&gt;Node5 -->
<g id="edge6" class="edge">
<title>Node1&#45;&gt;Node5</title>
<path fill="none" stroke="midnightblue" d="M362.5,-158.35C362.5,-134.25 362.5,-93.31 362.5,-75.59"/>
<polygon fill="midnightblue" stroke="midnightblue" points="359,-158.37 362.5,-168.37 366,-158.37 359,-158.37"/>
</g>
<!-- Node6 -->
<g id="node6" class="node">
<title>Node6</title>
<g id="a_node6"><a xlink:href="visionserver2_8h.html" target="_top" xlink:title=" ">
<polygon fill="white" stroke="black" points="655.5,-112.5 655.5,-131.5 801.5,-131.5 801.5,-112.5 655.5,-112.5"/>
<text text-anchor="middle" x="728.5" y="-119.5" font-family="Helvetica,sans-Serif" font-size="10.00">lib&#45;vs/src/core/visionserver2.h</text>
</a>
</g>
</g>
<!-- Node1&#45;&gt;Node6 -->
<g id="edge7" class="edge">
<title>Node1&#45;&gt;Node6</title>
<path fill="none" stroke="midnightblue" d="M430.42,-166.98C499.55,-156.78 605.57,-141.14 670.78,-131.52"/>
<polygon fill="midnightblue" stroke="midnightblue" points="429.88,-163.52 420.49,-168.44 430.9,-170.45 429.88,-163.52"/>
</g>
<!-- Node3 -->
<g id="node3" class="node">
<title>Node3</title>
<g id="a_node3"><a xlink:href="vision_8cpp.html" target="_top" xlink:title=" ">
<polygon fill="white" stroke="black" points="0,-56.5 0,-75.5 125,-75.5 125,-56.5 0,-56.5"/>
<text text-anchor="middle" x="62.5" y="-63.5" font-family="Helvetica,sans-Serif" font-size="10.00">lib&#45;vs/src/core/vision.cpp</text>
</a>
</g>
</g>
<!-- Node2&#45;&gt;Node3 -->
<g id="edge2" class="edge">
<title>Node2&#45;&gt;Node3</title>
<path fill="none" stroke="midnightblue" d="M172.34,-108.77C145.67,-98.63 108.43,-84.47 84.9,-75.52"/>
<polygon fill="midnightblue" stroke="midnightblue" points="171.41,-112.16 182,-112.44 173.9,-105.62 171.41,-112.16"/>
</g>
<!-- Node4 -->
<g id="node4" class="node">
<title>Node4</title>
<g id="a_node4"><a xlink:href="vision_8inc.html" target="_top" xlink:title=" ">
<polygon fill="white" stroke="black" points="143.5,-56.5 143.5,-75.5 265.5,-75.5 265.5,-56.5 143.5,-56.5"/>
<text text-anchor="middle" x="204.5" y="-63.5" font-family="Helvetica,sans-Serif" font-size="10.00">lib&#45;vs/src/core/vision.inc</text>
</a>
</g>
</g>
<!-- Node2&#45;&gt;Node4 -->
<g id="edge3" class="edge">
<title>Node2&#45;&gt;Node4</title>
<path fill="none" stroke="midnightblue" d="M198.03,-102.1C197.4,-93.14 197.84,-82.86 199.37,-75.75"/>
<polygon fill="midnightblue" stroke="midnightblue" points="194.57,-102.62 199.33,-112.08 201.51,-101.71 194.57,-102.62"/>
</g>
<!-- Node2&#45;&gt;Node5 -->
<g id="edge5" class="edge">
<title>Node2&#45;&gt;Node5</title>
<path fill="none" stroke="midnightblue" d="M239.11,-109.17C268.86,-99 311.05,-84.59 337.58,-75.52"/>
<polygon fill="midnightblue" stroke="midnightblue" points="237.87,-105.9 229.54,-112.44 240.13,-112.52 237.87,-105.9"/>
</g>
<!-- Node4&#45;&gt;Node2 -->
<g id="edge4" class="edge">
<title>Node4&#45;&gt;Node2</title>
<path fill="none" stroke="midnightblue" d="M210.96,-85.69C211.61,-94.64 211.18,-104.93 209.67,-112.08"/>
<polygon fill="midnightblue" stroke="midnightblue" points="214.42,-85.2 209.63,-75.75 207.48,-86.13 214.42,-85.2"/>
</g>
<!-- Node7 -->
<g id="node7" class="node">
<title>Node7</title>
<g id="a_node7"><a xlink:href="target_8h.html" target="_top" xlink:title=" ">
<polygon fill="white" stroke="black" points="459,-56.5 459,-75.5 572,-75.5 572,-56.5 459,-56.5"/>
<text text-anchor="middle" x="515.5" y="-63.5" font-family="Helvetica,sans-Serif" font-size="10.00">lib&#45;vs/src/core/target.h</text>
</a>
</g>
</g>
<!-- Node6&#45;&gt;Node7 -->
<g id="edge8" class="edge">
<title>Node6&#45;&gt;Node7</title>
<path fill="none" stroke="midnightblue" d="M684.95,-109.96C644.72,-99.76 585.8,-84.82 549.09,-75.52"/>
<polygon fill="midnightblue" stroke="midnightblue" points="684.2,-113.38 694.75,-112.44 685.92,-106.59 684.2,-113.38"/>
</g>
<!-- Node8 -->
<g id="node8" class="node">
<title>Node8</title>
<g id="a_node8"><a xlink:href="tfmodel_8h.html" target="_top" xlink:title=" ">
<polygon fill="white" stroke="black" points="590,-56.5 590,-75.5 711,-75.5 711,-56.5 590,-56.5"/>
<text text-anchor="middle" x="650.5" y="-63.5" font-family="Helvetica,sans-Serif" font-size="10.00">lib&#45;vs/src/core/tfmodel.h</text>
</a>
</g>
</g>
<!-- Node6&#45;&gt;Node8 -->
<g id="edge9" class="edge">
<title>Node6&#45;&gt;Node8</title>
<path fill="none" stroke="midnightblue" d="M707.73,-106.62C693.48,-96.76 675.04,-83.99 663,-75.65"/>
<polygon fill="midnightblue" stroke="midnightblue" points="705.75,-109.51 715.97,-112.32 709.74,-103.75 705.75,-109.51"/>
</g>
<!-- Node11 -->
<g id="node11" class="node">
<title>Node11</title>
<g id="a_node11"><a xlink:href="visionserver2_8cpp.html" target="_top" xlink:title=" ">
<polygon fill="white" stroke="black" points="729,-56.5 729,-75.5 886,-75.5 886,-56.5 729,-56.5"/>
<text text-anchor="middle" x="807.5" y="-63.5" font-family="Helvetica,sans-Serif" font-size="10.00">lib&#45;vs/src/core/visionserver2.cpp</text>
</a>
</g>
</g>
<!-- Node6&#45;&gt;Node11 -->
<g id="edge13" class="edge">
<title>Node6&#45;&gt;Node11</title>
<path fill="none" stroke="midnightblue" d="M749.53,-106.62C763.97,-96.76 782.64,-83.99 794.84,-75.65"/>
<polygon fill="midnightblue" stroke="midnightblue" points="747.47,-103.79 741.19,-112.32 751.42,-109.57 747.47,-103.79"/>
</g>
<!-- Node12 -->
<g id="node12" class="node">
<title>Node12</title>
<g id="a_node12"><a xlink:href="visionserver2_8inc.html" target="_top" xlink:title=" ">
<polygon fill="white" stroke="black" points="904.5,-56.5 904.5,-75.5 1058.5,-75.5 1058.5,-56.5 904.5,-56.5"/>
<text text-anchor="middle" x="981.5" y="-63.5" font-family="Helvetica,sans-Serif" font-size="10.00">lib&#45;vs/src/core/visionserver2.inc</text>
</a>
</g>
</g>
<!-- Node6&#45;&gt;Node12 -->
<g id="edge14" class="edge">
<title>Node6&#45;&gt;Node12</title>
<path fill="none" stroke="midnightblue" d="M773.5,-110.22C819.53,-100.01 890.49,-84.9 936.52,-75.52"/>
<polygon fill="midnightblue" stroke="midnightblue" points="772.5,-106.85 763.5,-112.44 774.02,-113.69 772.5,-106.85"/>
</g>
<!-- Node9 -->
<g id="node9" class="node">
<title>Node9</title>
<g id="a_node9"><a xlink:href="tfmodel_8cpp.html" target="_top" xlink:title=" ">
<polygon fill="white" stroke="black" points="437,-0.5 437,-19.5 568,-19.5 568,-0.5 437,-0.5"/>
<text text-anchor="middle" x="502.5" y="-7.5" font-family="Helvetica,sans-Serif" font-size="10.00">lib&#45;vs/src/core/tfmodel.cpp</text>
</a>
</g>
</g>
<!-- Node8&#45;&gt;Node9 -->
<g id="edge10" class="edge">
<title>Node8&#45;&gt;Node9</title>
<path fill="none" stroke="midnightblue" d="M617.35,-52.91C589.53,-42.75 550.48,-28.51 525.84,-19.52"/>
<polygon fill="midnightblue" stroke="midnightblue" points="616.46,-56.3 627.05,-56.44 618.85,-49.73 616.46,-56.3"/>
</g>
<!-- Node10 -->
<g id="node10" class="node">
<title>Node10</title>
<g id="a_node10"><a xlink:href="tfmodel_8inc.html" target="_top" xlink:title=" ">
<polygon fill="white" stroke="black" points="586.5,-0.5 586.5,-19.5 714.5,-19.5 714.5,-0.5 586.5,-0.5"/>
<text text-anchor="middle" x="650.5" y="-7.5" font-family="Helvetica,sans-Serif" font-size="10.00">lib&#45;vs/src/core/tfmodel.inc</text>
</a>
</g>
</g>
<!-- Node8&#45;&gt;Node10 -->
<g id="edge11" class="edge">
<title>Node8&#45;&gt;Node10</title>
<path fill="none" stroke="midnightblue" d="M644.03,-46.1C643.4,-37.14 643.84,-26.86 645.37,-19.75"/>
<polygon fill="midnightblue" stroke="midnightblue" points="640.57,-46.62 645.33,-56.08 647.51,-45.71 640.57,-46.62"/>
</g>
<!-- Node10&#45;&gt;Node8 -->
<g id="edge12" class="edge">
<title>Node10&#45;&gt;Node8</title>
<path fill="none" stroke="midnightblue" d="M656.96,-29.69C657.61,-38.64 657.18,-48.93 655.67,-56.08"/>
<polygon fill="midnightblue" stroke="midnightblue" points="660.42,-29.2 655.63,-19.75 653.48,-30.13 660.42,-29.2"/>
</g>
<!-- Node12&#45;&gt;Node6 -->
<g id="edge15" class="edge">
<title>Node12&#45;&gt;Node6</title>
<path fill="none" stroke="midnightblue" d="M936.7,-77.74C890.74,-87.93 819.78,-103.04 773.68,-112.44"/>
<polygon fill="midnightblue" stroke="midnightblue" points="937.68,-81.11 946.68,-75.52 936.16,-74.27 937.68,-81.11"/>
</g>
</g>
</svg>
