<?xml version="1.0" encoding="utf-8"?>
<svg viewBox="20.009 56.753 452.147 350.559" xmlns="http://www.w3.org/2000/svg" xmlns:xlink="http://www.w3.org/1999/xlink" xmlns:bx="https://boxy-svg.com">
  <defs>
    <linearGradient id="color-0-3" gradientUnits="userSpaceOnUse" x1="339.014" y1="56.753" x2="339.014" y2="102.016" gradientTransform="matrix(0.895267, 0.445531, -2.917376, 5.862295, 213.913993, -431.270163)" xlink:href="#color-0"/>
    <linearGradient id="color-0" bx:pinned="true">
      <stop style="stop-color: rgb(255, 30, 0);" offset="0"/>
      <stop style="stop-color: rgb(255, 116, 0);" offset="1"/>
    </linearGradient>
    <linearGradient id="gradient-2-1" gradientUnits="userSpaceOnUse" x1="326.795" y1="229.465" x2="326.795" y2="330.618" spreadMethod="pad" gradientTransform="matrix(-0.752193, 0.658944, -1.598524, -1.824733, 990.410156, 541.839417)" xlink:href="#gradient-2"/>
    <linearGradient id="gradient-2">
      <stop offset="0" style="stop-color: rgb(252, 0, 81);"/>
      <stop offset="0.964" style="stop-color: rgb(231, 0, 246);"/>
      <stop offset="1" style="stop-color: #f64f59;"/>
    </linearGradient>
    <linearGradient id="gradient-2-2" gradientUnits="userSpaceOnUse" x1="230.7" y1="178.362" x2="230.7" y2="211.011" gradientTransform="matrix(-0.753148, 0.657852, -5.023235, -5.591875, 1449.141602, 1183.718994)" xlink:href="#gradient-2"/>
    <linearGradient id="color-0-2" gradientUnits="userSpaceOnUse" x1="262.148" y1="178.26" x2="262.148" y2="311.002" gradientTransform="matrix(0.885976, 0.463733, -1.020521, 1.949741, 298.334965, -412.931123)" xlink:href="#color-0"/>
    <linearGradient id="gradient-2-3" gradientUnits="userSpaceOnUse" x1="342.357" y1="69.55" x2="342.357" y2="176.118" gradientTransform="matrix(0.280454, 0.959868, -2.694933, 0.76796, 576.386841, -298.902924)" xlink:href="#gradient-2"/>
    <linearGradient id="color-0-0" gradientUnits="userSpaceOnUse" x1="108.892" y1="69.175" x2="108.892" y2="303.277" spreadMethod="pad" gradientTransform="matrix(0.825062, -0.565041, 0.758338, 1.107312, -120.079521, 39.450649)" xlink:href="#color-0"/>
    <linearGradient id="color-0-1" gradientUnits="userSpaceOnUse" x1="108.892" y1="69.175" x2="108.892" y2="303.277" gradientTransform="matrix(1, 0, 0, 1, 0, 0)" xlink:href="#color-0"/>
    <linearGradient id="gradient-2-0" gradientUnits="userSpaceOnUse" x1="230.291" y1="286.279" x2="230.291" y2="407.312" spreadMethod="pad" gradientTransform="matrix(0.245908, -0.969294, 3.188013, 0.808793, -901.032898, 281.655334)" xlink:href="#gradient-2"/>
  </defs>
  <g style="filter: none;">
    <polygon style="stroke: rgb(0, 0, 0); fill: url(#color-0-3); stroke-width: 0px;" points="293.698 78.593 394.711 56.753 379.268 84.495 283.316 102.016"/>
    <path style="fill: url(#gradient-2-1); stroke: rgb(0, 0, 0); stroke-width: 0px;" d="M 379.436 330.618 L 301.778 318.743 L 274.634 275.684 L 300.448 229.172 L 379.436 330.618 Z"/>
    <path style="stroke: rgb(0, 0, 0); fill: url(#gradient-2-2); stroke-width: 0px;" d="M 233.812 211.674 L 248.555 178.302 L 212.522 178.26 L 233.812 211.674 Z"/>
    <path style="stroke: rgb(0, 0, 0); fill: url(#color-0-2); stroke-width: 0px; filter: none;" d="M 197.776 296.58 L 199.553 303.593 L 252.354 311.435 L 326.997 178.532 C 326.997 178.532 250.237 178.435 250.237 178.26 C 250.237 178.085 197.355 296.362 197.776 296.58 Z"/>
    <path style="stroke: rgb(0, 0, 0); fill: url(#gradient-2-3); stroke-width: 0px; filter: none;" d="M 212.177 176.732 L 437.183 176.737 L 472.156 69.55 L 246.16 110.021 L 212.177 176.732 Z"/>
    <path style="fill: url(#color-0-0); stroke-width: 0px; stroke: url(#color-0-1); paint-order: stroke; filter: none;" d="M 111.423 290.193 L 197.776 303.277 L 148.515 104.519 L 20.009 69.175 L 111.423 290.193 Z"/>
    <path style="stroke: rgb(0, 0, 0); fill-rule: nonzero; fill: url(#gradient-2-0); paint-order: stroke markers; stroke-linecap: square; stroke-width: 0px; filter: none;" d="M 75.497 286.279 L 109.498 407.312 L 365.117 398.441 L 385.084 332.873 L 75.497 286.279 Z"/>
  </g>
</svg>