<?xml version="1.0" encoding="UTF-8" standalone="no"?>
<!DOCTYPE svg PUBLIC "-//W3C//DTD SVG 1.1//EN"
 "http://www.w3.org/Graphics/SVG/1.1/DTD/svg11.dtd">
<!-- Generated by graphviz version 2.49.3 (20211027.1534)
 -->
<!-- Title: vs2::SequentialPipeline&lt; pipelines_t &gt; Pages: 1 -->
<svg width="960pt" height="150pt"
 viewBox="0.00 0.00 960.00 149.50" xmlns="http://www.w3.org/2000/svg" xmlns:xlink="http://www.w3.org/1999/xlink">
<g id="graph0" class="graph" transform="scale(1 1) rotate(0) translate(4 145.5)">
<title>vs2::SequentialPipeline&lt; pipelines_t &gt;</title>
<!-- Node1 -->
<g id="node1" class="node">
<title>Node1</title>
<g id="a_node1"><a xlink:title=" ">
<polygon fill="#bfbfbf" stroke="black" points="835,-56.5 835,-86.5 952,-86.5 952,-56.5 835,-56.5"/>
<text text-anchor="start" x="843" y="-74.5" font-family="Helvetica,sans-Serif" font-size="10.00">vs2::SequentialPipeline</text>
<text text-anchor="middle" x="893.5" y="-63.5" font-family="Helvetica,sans-Serif" font-size="10.00">&lt; pipelines_t &gt;</text>
</a>
</g>
</g>
<!-- Node2 -->
<g id="node2" class="node">
<title>Node2</title>
<g id="a_node2"><a xlink:href="classvs2_1_1VPipeline.html" target="_top" xlink:title=" ">
<polygon fill="none" stroke="black" points="666,-56.5 666,-86.5 798,-86.5 798,-56.5 666,-56.5"/>
<text text-anchor="start" x="674" y="-74.5" font-family="Helvetica,sans-Serif" font-size="10.00">vs2::VPipeline&lt; Sequential</text>
<text text-anchor="middle" x="732" y="-63.5" font-family="Helvetica,sans-Serif" font-size="10.00">Pipeline&lt; pipelines_t... &gt; &gt;</text>
</a>
</g>
</g>
<!-- Node2&#45;&gt;Node1 -->
<g id="edge1" class="edge">
<title>Node2&#45;&gt;Node1</title>
<path fill="none" stroke="midnightblue" d="M808.36,-71.5C817.3,-71.5 826.3,-71.5 834.93,-71.5"/>
<polygon fill="midnightblue" stroke="midnightblue" points="808.34,-68 798.33,-71.5 808.33,-75 808.34,-68"/>
</g>
<!-- Node3 -->
<g id="node3" class="node">
<title>Node3</title>
<g id="a_node3"><a xlink:title=" ">
<polygon fill="none" stroke="#bfbfbf" points="421.5,-100 421.5,-141 530.5,-141 530.5,-100 421.5,-100"/>
<text text-anchor="start" x="429.5" y="-129" font-family="Helvetica,sans-Serif" font-size="10.00">Instanced&lt; VPipeline</text>
<text text-anchor="start" x="429.5" y="-118" font-family="Helvetica,sans-Serif" font-size="10.00">&lt; SequentialPipeline</text>
<text text-anchor="middle" x="476" y="-107" font-family="Helvetica,sans-Serif" font-size="10.00">&lt; pipelines_t... &gt; &gt; &gt;</text>
</a>
</g>
</g>
<!-- Node3&#45;&gt;Node2 -->
<g id="edge2" class="edge">
<title>Node3&#45;&gt;Node2</title>
<path fill="none" stroke="midnightblue" d="M540.79,-114.53C573.14,-110.84 612.91,-105.3 648,-97.5 661.12,-94.59 675.15,-90.55 687.87,-86.54"/>
<polygon fill="midnightblue" stroke="midnightblue" points="540.11,-111.08 530.56,-115.66 540.88,-118.04 540.11,-111.08"/>
</g>
<!-- Node4 -->
<g id="node4" class="node">
<title>Node4</title>
<g id="a_node4"><a xlink:href="classvs2_1_1VisionServer_1_1BasePipe.html" target="_top" xlink:title=" ">
<polygon fill="none" stroke="black" points="273,-19.5 273,-49.5 370,-49.5 370,-19.5 273,-19.5"/>
<text text-anchor="start" x="281" y="-37.5" font-family="Helvetica,sans-Serif" font-size="10.00">vs2::VisionServer::</text>
<text text-anchor="middle" x="321.5" y="-26.5" font-family="Helvetica,sans-Serif" font-size="10.00">BasePipe</text>
</a>
</g>
</g>
<!-- Node4&#45;&gt;Node2 -->
<g id="edge3" class="edge">
<title>Node4&#45;&gt;Node2</title>
<path fill="none" stroke="midnightblue" d="M380.38,-39.06C424,-42.56 485.28,-47.61 539,-52.5 581.2,-56.34 628.57,-61.03 665.71,-64.78"/>
<polygon fill="midnightblue" stroke="midnightblue" points="380.49,-35.56 370.25,-38.25 379.93,-42.54 380.49,-35.56"/>
</g>
<!-- Node8 -->
<g id="node8" class="node">
<title>Node8</title>
<g id="a_node8"><a xlink:href="classvs2_1_1VPipeline.html" target="_top" xlink:title=" ">
<polygon fill="none" stroke="black" points="413,-62 413,-81 539,-81 539,-62 413,-62"/>
<text text-anchor="middle" x="476" y="-69" font-family="Helvetica,sans-Serif" font-size="10.00">vs2::VPipeline&lt; derived &gt;</text>
</a>
</g>
</g>
<!-- Node4&#45;&gt;Node8 -->
<g id="edge9" class="edge">
<title>Node4&#45;&gt;Node8</title>
<path fill="none" stroke="midnightblue" d="M380.12,-48.48C398.6,-52.96 418.64,-57.83 435.52,-61.92"/>
<polygon fill="midnightblue" stroke="midnightblue" points="380.88,-45.06 370.33,-46.11 379.23,-51.86 380.88,-45.06"/>
</g>
<!-- Node5 -->
<g id="node5" class="node">
<title>Node5</title>
<g id="a_node5"><a xlink:title=" ">
<polygon fill="none" stroke="#bfbfbf" points="130,-44 130,-63 204,-63 204,-44 130,-44"/>
<text text-anchor="middle" x="167" y="-51" font-family="Helvetica,sans-Serif" font-size="10.00">cs::CvSource</text>
</a>
</g>
</g>
<!-- Node5&#45;&gt;Node4 -->
<g id="edge4" class="edge">
<title>Node5&#45;&gt;Node4</title>
<path fill="none" stroke="midnightblue" d="M214.12,-47.75C232.68,-45.44 254.07,-42.78 272.78,-40.45"/>
<polygon fill="midnightblue" stroke="midnightblue" points="213.63,-44.29 204.14,-49 214.5,-51.23 213.63,-44.29"/>
</g>
<!-- Node6 -->
<g id="node6" class="node">
<title>Node6</title>
<g id="a_node6"><a xlink:title=" ">
<polygon fill="none" stroke="#bfbfbf" points="137.5,-6 137.5,-25 196.5,-25 196.5,-6 137.5,-6"/>
<text text-anchor="middle" x="167" y="-13" font-family="Helvetica,sans-Serif" font-size="10.00">std::string</text>
</a>
</g>
</g>
<!-- Node6&#45;&gt;Node4 -->
<g id="edge5" class="edge">
<title>Node6&#45;&gt;Node4</title>
<path fill="none" stroke="#9a32cd" stroke-dasharray="5,2" d="M206.72,-20.32C226.8,-22.83 251.5,-25.9 272.76,-28.55"/>
<polygon fill="#9a32cd" stroke="#9a32cd" points="207.04,-16.84 196.68,-19.07 206.17,-23.78 207.04,-16.84"/>
<text text-anchor="middle" x="235.5" y="-28.5" font-family="Helvetica,sans-Serif" font-size="10.00"> name</text>
</g>
<!-- Node7 -->
<g id="node7" class="node">
<title>Node7</title>
<g id="a_node7"><a xlink:title=" ">
<polygon fill="none" stroke="#bfbfbf" points="0,-0.5 0,-30.5 93,-30.5 93,-0.5 0,-0.5"/>
<text text-anchor="start" x="8" y="-18.5" font-family="Helvetica,sans-Serif" font-size="10.00">std::basic_string&lt;</text>
<text text-anchor="middle" x="46.5" y="-7.5" font-family="Helvetica,sans-Serif" font-size="10.00"> Char &gt;</text>
</a>
</g>
</g>
<!-- Node7&#45;&gt;Node6 -->
<g id="edge6" class="edge">
<title>Node7&#45;&gt;Node6</title>
<path fill="none" stroke="midnightblue" d="M103.54,-15.5C115.29,-15.5 127.2,-15.5 137.43,-15.5"/>
<polygon fill="midnightblue" stroke="midnightblue" points="103.32,-12 93.32,-15.5 103.32,-19 103.32,-12"/>
</g>
<!-- Node8&#45;&gt;Node2 -->
<g id="edge7" class="edge">
<title>Node8&#45;&gt;Node2</title>
<path fill="none" stroke="orange" stroke-dasharray="5,2" d="M549.28,-71.5C586.02,-71.5 630.31,-71.5 665.96,-71.5"/>
<polygon fill="orange" stroke="orange" points="549.14,-68 539.14,-71.5 549.14,-75 549.14,-68"/>
<text text-anchor="start" x="557" y="-85.5" font-family="Helvetica,sans-Serif" font-size="10.00"> &lt; SequentialPipeline</text>
<text text-anchor="middle" x="602.5" y="-74.5" font-family="Helvetica,sans-Serif" font-size="10.00">&lt; pipelines_t... &gt; &gt;</text>
</g>
<!-- Node9 -->
<g id="node9" class="node">
<title>Node9</title>
<g id="a_node9"><a xlink:title=" ">
<polygon fill="none" stroke="#bfbfbf" points="267,-68.5 267,-98.5 376,-98.5 376,-68.5 267,-68.5"/>
<text text-anchor="start" x="275" y="-86.5" font-family="Helvetica,sans-Serif" font-size="10.00">Instanced&lt; VPipeline</text>
<text text-anchor="middle" x="321.5" y="-75.5" font-family="Helvetica,sans-Serif" font-size="10.00">&lt; derived &gt; &gt;</text>
</a>
</g>
</g>
<!-- Node9&#45;&gt;Node8 -->
<g id="edge8" class="edge">
<title>Node9&#45;&gt;Node8</title>
<path fill="none" stroke="midnightblue" d="M386.41,-78.47C395.16,-77.78 404.14,-77.08 412.86,-76.39"/>
<polygon fill="midnightblue" stroke="midnightblue" points="385.96,-75 376.27,-79.27 386.51,-81.97 385.96,-75"/>
</g>
</g>
</svg>
