<?xml version="1.0" encoding="UTF-8" standalone="no"?>
<!DOCTYPE svg PUBLIC "-//W3C//DTD SVG 1.1//EN"
 "http://www.w3.org/Graphics/SVG/1.1/DTD/svg11.dtd">
<!-- Generated by graphviz version 2.49.3 (20211027.1534)
 -->
<!-- Title: vs2::VPipeline&lt; derived &gt; Pages: 1 -->
<svg width="846pt" height="137pt"
 viewBox="0.00 0.00 846.00 137.00" xmlns="http://www.w3.org/2000/svg" xmlns:xlink="http://www.w3.org/1999/xlink">
<g id="graph0" class="graph" transform="scale(1 1) rotate(0) translate(4 133)">
<title>vs2::VPipeline&lt; derived &gt;</title>
<!-- Node1 -->
<g id="node1" class="node">
<title>Node1</title>
<g id="a_node1"><a xlink:title=" ">
<polygon fill="#bfbfbf" stroke="black" points="257,-55 257,-74 383,-74 383,-55 257,-55"/>
<text text-anchor="middle" x="320" y="-62" font-family="Helvetica,sans-Serif" font-size="10.00">vs2::VPipeline&lt; derived &gt;</text>
</a>
</g>
</g>
<!-- Node5 -->
<g id="node5" class="node">
<title>Node5</title>
<g id="a_node5"><a xlink:href="classvs2_1_1VPipeline.html" target="_top" xlink:title=" ">
<polygon fill="none" stroke="black" points="531,-98.5 531,-128.5 670,-128.5 670,-98.5 531,-98.5"/>
<text text-anchor="start" x="539" y="-116.5" font-family="Helvetica,sans-Serif" font-size="10.00">vs2::VPipeline&lt; AxonRunner</text>
<text text-anchor="middle" x="600.5" y="-105.5" font-family="Helvetica,sans-Serif" font-size="10.00">_&lt; void &gt; &gt;</text>
</a>
</g>
</g>
<!-- Node1&#45;&gt;Node5 -->
<g id="edge4" class="edge">
<title>Node1&#45;&gt;Node5</title>
<path fill="none" stroke="orange" stroke-dasharray="5,2" d="M381.58,-75.96C388.13,-77.17 394.7,-78.37 401,-79.5 444.02,-87.22 492.35,-95.5 530.55,-101.96"/>
<polygon fill="orange" stroke="orange" points="381.81,-72.44 371.33,-74.06 380.53,-79.33 381.81,-72.44"/>
<text text-anchor="middle" x="457" y="-100.5" font-family="Helvetica,sans-Serif" font-size="10.00"> &lt; AxonRunner_&lt; void &gt; &gt;</text>
</g>
<!-- Node7 -->
<g id="node7" class="node">
<title>Node7</title>
<g id="a_node7"><a xlink:href="classvs2_1_1VPipeline.html" target="_top" xlink:title=" ">
<polygon fill="none" stroke="black" points="537.5,-49.5 537.5,-79.5 663.5,-79.5 663.5,-49.5 537.5,-49.5"/>
<text text-anchor="start" x="545.5" y="-67.5" font-family="Helvetica,sans-Serif" font-size="10.00">vs2::VPipeline&lt; MoveNet</text>
<text text-anchor="middle" x="600.5" y="-56.5" font-family="Helvetica,sans-Serif" font-size="10.00">_&lt; void &gt; &gt;</text>
</a>
</g>
</g>
<!-- Node1&#45;&gt;Node7 -->
<g id="edge6" class="edge">
<title>Node1&#45;&gt;Node7</title>
<path fill="none" stroke="orange" stroke-dasharray="5,2" d="M393.34,-64.5C437.9,-64.5 494.45,-64.5 537.05,-64.5"/>
<polygon fill="orange" stroke="orange" points="393.15,-61 383.15,-64.5 393.15,-68 393.15,-61"/>
<text text-anchor="middle" x="457" y="-67.5" font-family="Helvetica,sans-Serif" font-size="10.00"> &lt; MoveNet_&lt; void &gt; &gt;</text>
</g>
<!-- Node9 -->
<g id="node9" class="node">
<title>Node9</title>
<g id="a_node9"><a xlink:href="classvs2_1_1VPipeline.html" target="_top" xlink:title=" ">
<polygon fill="none" stroke="black" points="534.5,-0.5 534.5,-30.5 666.5,-30.5 666.5,-0.5 534.5,-0.5"/>
<text text-anchor="start" x="542.5" y="-18.5" font-family="Helvetica,sans-Serif" font-size="10.00">vs2::VPipeline&lt; Sequential</text>
<text text-anchor="middle" x="600.5" y="-7.5" font-family="Helvetica,sans-Serif" font-size="10.00">Pipeline&lt; pipelines_t... &gt; &gt;</text>
</a>
</g>
</g>
<!-- Node1&#45;&gt;Node9 -->
<g id="edge8" class="edge">
<title>Node1&#45;&gt;Node9</title>
<path fill="none" stroke="orange" stroke-dasharray="5,2" d="M355.86,-51.5C369.74,-46.77 385.96,-41.78 401,-38.5 444.89,-28.92 495.17,-23.15 534.15,-19.78"/>
<polygon fill="orange" stroke="orange" points="354.51,-48.27 346.22,-54.87 356.82,-54.87 354.51,-48.27"/>
<text text-anchor="start" x="411.5" y="-52.5" font-family="Helvetica,sans-Serif" font-size="10.00"> &lt; SequentialPipeline</text>
<text text-anchor="middle" x="457" y="-41.5" font-family="Helvetica,sans-Serif" font-size="10.00">&lt; pipelines_t... &gt; &gt;</text>
</g>
<!-- Node2 -->
<g id="node2" class="node">
<title>Node2</title>
<g id="a_node2"><a xlink:title=" ">
<polygon fill="none" stroke="#bfbfbf" points="111,-74.5 111,-104.5 220,-104.5 220,-74.5 111,-74.5"/>
<text text-anchor="start" x="119" y="-92.5" font-family="Helvetica,sans-Serif" font-size="10.00">Instanced&lt; VPipeline</text>
<text text-anchor="middle" x="165.5" y="-81.5" font-family="Helvetica,sans-Serif" font-size="10.00">&lt; derived &gt; &gt;</text>
</a>
</g>
</g>
<!-- Node2&#45;&gt;Node1 -->
<g id="edge1" class="edge">
<title>Node2&#45;&gt;Node1</title>
<path fill="none" stroke="midnightblue" d="M230.26,-79.05C240.39,-77.39 250.81,-75.68 260.8,-74.04"/>
<polygon fill="midnightblue" stroke="midnightblue" points="229.57,-75.61 220.27,-80.69 230.7,-82.52 229.57,-75.61"/>
</g>
<!-- Node3 -->
<g id="node3" class="node">
<title>Node3</title>
<g id="a_node3"><a xlink:href="classvs2_1_1VisionServer_1_1BasePipe.html" target="_top" xlink:title=" ">
<polygon fill="none" stroke="black" points="117,-25.5 117,-55.5 214,-55.5 214,-25.5 117,-25.5"/>
<text text-anchor="start" x="125" y="-43.5" font-family="Helvetica,sans-Serif" font-size="10.00">vs2::VisionServer::</text>
<text text-anchor="middle" x="165.5" y="-32.5" font-family="Helvetica,sans-Serif" font-size="10.00">BasePipe</text>
</a>
</g>
</g>
<!-- Node3&#45;&gt;Node1 -->
<g id="edge2" class="edge">
<title>Node3&#45;&gt;Node1</title>
<path fill="none" stroke="midnightblue" d="M224.38,-49.61C235.51,-51.36 247.21,-53.2 258.43,-54.97"/>
<polygon fill="midnightblue" stroke="midnightblue" points="224.76,-46.13 214.33,-48.03 223.67,-53.04 224.76,-46.13"/>
</g>
<!-- Node4 -->
<g id="node4" class="node">
<title>Node4</title>
<g id="a_node4"><a xlink:title=" ">
<polygon fill="none" stroke="#bfbfbf" points="0,-31 0,-50 74,-50 74,-31 0,-31"/>
<text text-anchor="middle" x="37" y="-38" font-family="Helvetica,sans-Serif" font-size="10.00">cs::CvSource</text>
</a>
</g>
</g>
<!-- Node4&#45;&gt;Node3 -->
<g id="edge3" class="edge">
<title>Node4&#45;&gt;Node3</title>
<path fill="none" stroke="midnightblue" d="M84.53,-40.5C95.09,-40.5 106.32,-40.5 116.91,-40.5"/>
<polygon fill="midnightblue" stroke="midnightblue" points="84.25,-37 74.25,-40.5 84.25,-44 84.25,-37"/>
</g>
<!-- Node6 -->
<g id="node6" class="node">
<title>Node6</title>
<g id="a_node6"><a xlink:href="classAxonRunner__.html" target="_top" xlink:title=" ">
<polygon fill="none" stroke="black" points="707,-104 707,-123 838,-123 838,-104 707,-104"/>
<text text-anchor="middle" x="772.5" y="-111" font-family="Helvetica,sans-Serif" font-size="10.00">AxonRunner_&lt; derived_t &gt;</text>
</a>
</g>
</g>
<!-- Node5&#45;&gt;Node6 -->
<g id="edge5" class="edge">
<title>Node5&#45;&gt;Node6</title>
<path fill="none" stroke="midnightblue" d="M680.22,-113.5C689.18,-113.5 698.24,-113.5 706.99,-113.5"/>
<polygon fill="midnightblue" stroke="midnightblue" points="680.16,-110 670.16,-113.5 680.16,-117 680.16,-110"/>
</g>
<!-- Node8 -->
<g id="node8" class="node">
<title>Node8</title>
<g id="a_node8"><a xlink:href="classMoveNet__.html" target="_top" xlink:title=" ">
<polygon fill="none" stroke="black" points="713.5,-55 713.5,-74 831.5,-74 831.5,-55 713.5,-55"/>
<text text-anchor="middle" x="772.5" y="-62" font-family="Helvetica,sans-Serif" font-size="10.00">MoveNet_&lt; derived_t &gt;</text>
</a>
</g>
</g>
<!-- Node7&#45;&gt;Node8 -->
<g id="edge7" class="edge">
<title>Node7&#45;&gt;Node8</title>
<path fill="none" stroke="midnightblue" d="M674.22,-64.5C687.31,-64.5 700.8,-64.5 713.41,-64.5"/>
<polygon fill="midnightblue" stroke="midnightblue" points="673.84,-61 663.84,-64.5 673.84,-68 673.84,-61"/>
</g>
<!-- Node10 -->
<g id="node10" class="node">
<title>Node10</title>
<g id="a_node10"><a xlink:href="classvs2_1_1SequentialPipeline.html" target="_top" xlink:title=" ">
<polygon fill="none" stroke="black" points="714,-0.5 714,-30.5 831,-30.5 831,-0.5 714,-0.5"/>
<text text-anchor="start" x="722" y="-18.5" font-family="Helvetica,sans-Serif" font-size="10.00">vs2::SequentialPipeline</text>
<text text-anchor="middle" x="772.5" y="-7.5" font-family="Helvetica,sans-Serif" font-size="10.00">&lt; pipelines_t &gt;</text>
</a>
</g>
</g>
<!-- Node9&#45;&gt;Node10 -->
<g id="edge9" class="edge">
<title>Node9&#45;&gt;Node10</title>
<path fill="none" stroke="midnightblue" d="M677.05,-15.5C689.43,-15.5 702.08,-15.5 713.93,-15.5"/>
<polygon fill="midnightblue" stroke="midnightblue" points="676.74,-12 666.74,-15.5 676.74,-19 676.74,-12"/>
</g>
</g>
</svg>
