<?xml version="1.0" encoding="UTF-8" standalone="no"?>
<!DOCTYPE svg PUBLIC "-//W3C//DTD SVG 1.1//EN"
 "http://www.w3.org/Graphics/SVG/1.1/DTD/svg11.dtd">
<!-- Generated by graphviz version 2.49.3 (20211027.1534)
 -->
<!-- Title: vs2::VisionServer::BasePipe Pages: 1 -->
<svg width="834pt" height="176pt"
 viewBox="0.00 0.00 834.00 176.00" xmlns="http://www.w3.org/2000/svg" xmlns:xlink="http://www.w3.org/1999/xlink">
<g id="graph0" class="graph" transform="scale(1 1) rotate(0) translate(4 172)">
<title>vs2::VisionServer::BasePipe</title>
<!-- Node1 -->
<g id="node1" class="node">
<title>Node1</title>
<g id="a_node1"><a xlink:title=" ">
<polygon fill="#bfbfbf" stroke="black" points="111,-51.5 111,-81.5 208,-81.5 208,-51.5 111,-51.5"/>
<text text-anchor="start" x="119" y="-69.5" font-family="Helvetica,sans-Serif" font-size="10.00">vs2::VisionServer::</text>
<text text-anchor="middle" x="159.5" y="-58.5" font-family="Helvetica,sans-Serif" font-size="10.00">BasePipe</text>
</a>
</g>
</g>
<!-- Node3 -->
<g id="node3" class="node">
<title>Node3</title>
<g id="a_node3"><a xlink:href="classvs2_1_1VPipeline.html" target="_top" xlink:title=" ">
<polygon fill="none" stroke="black" points="519,-137.5 519,-167.5 658,-167.5 658,-137.5 519,-137.5"/>
<text text-anchor="start" x="527" y="-155.5" font-family="Helvetica,sans-Serif" font-size="10.00">vs2::VPipeline&lt; AxonRunner</text>
<text text-anchor="middle" x="588.5" y="-144.5" font-family="Helvetica,sans-Serif" font-size="10.00">_&lt; void &gt; &gt;</text>
</a>
</g>
</g>
<!-- Node1&#45;&gt;Node3 -->
<g id="edge2" class="edge">
<title>Node1&#45;&gt;Node3</title>
<path fill="none" stroke="midnightblue" d="M199.52,-86.11C213.64,-92.77 229.84,-99.94 245,-105.5 307.36,-128.38 323.35,-135.37 389,-145.5 431.77,-152.1 480.31,-153.91 518.69,-154.04"/>
<polygon fill="midnightblue" stroke="midnightblue" points="200.65,-82.77 190.12,-81.6 197.62,-89.08 200.65,-82.77"/>
</g>
<!-- Node5 -->
<g id="node5" class="node">
<title>Node5</title>
<g id="a_node5"><a xlink:href="classvs2_1_1VPipeline.html" target="_top" xlink:title=" ">
<polygon fill="none" stroke="black" points="525.5,-75.5 525.5,-105.5 651.5,-105.5 651.5,-75.5 525.5,-75.5"/>
<text text-anchor="start" x="533.5" y="-93.5" font-family="Helvetica,sans-Serif" font-size="10.00">vs2::VPipeline&lt; MoveNet</text>
<text text-anchor="middle" x="588.5" y="-82.5" font-family="Helvetica,sans-Serif" font-size="10.00">_&lt; void &gt; &gt;</text>
</a>
</g>
</g>
<!-- Node1&#45;&gt;Node5 -->
<g id="edge4" class="edge">
<title>Node1&#45;&gt;Node5</title>
<path fill="none" stroke="midnightblue" d="M217.97,-51.01C286.52,-35.08 404.03,-15.94 501,-41.5 525.87,-48.05 551.09,-63.58 567.83,-75.41"/>
<polygon fill="midnightblue" stroke="midnightblue" points="217.13,-47.61 208.22,-53.33 218.76,-54.42 217.13,-47.61"/>
</g>
<!-- Node7 -->
<g id="node7" class="node">
<title>Node7</title>
<g id="a_node7"><a xlink:href="classvs2_1_1VPipeline.html" target="_top" xlink:title=" ">
<polygon fill="none" stroke="black" points="522.5,-0.5 522.5,-30.5 654.5,-30.5 654.5,-0.5 522.5,-0.5"/>
<text text-anchor="start" x="530.5" y="-18.5" font-family="Helvetica,sans-Serif" font-size="10.00">vs2::VPipeline&lt; Sequential</text>
<text text-anchor="middle" x="588.5" y="-7.5" font-family="Helvetica,sans-Serif" font-size="10.00">Pipeline&lt; pipelines_t... &gt; &gt;</text>
</a>
</g>
</g>
<!-- Node1&#45;&gt;Node7 -->
<g id="edge6" class="edge">
<title>Node1&#45;&gt;Node7</title>
<path fill="none" stroke="midnightblue" d="M194.28,-46.61C209.29,-38.81 227.49,-30.73 245,-26.5 339.4,-3.69 452.69,-5.5 522.38,-9.8"/>
<polygon fill="midnightblue" stroke="midnightblue" points="192.53,-43.57 185.38,-51.39 195.84,-49.74 192.53,-43.57"/>
</g>
<!-- Node9 -->
<g id="node9" class="node">
<title>Node9</title>
<g id="a_node9"><a xlink:href="classvs2_1_1VPipeline.html" target="_top" xlink:title=" ">
<polygon fill="none" stroke="black" points="245,-77 245,-96 371,-96 371,-77 245,-77"/>
<text text-anchor="middle" x="308" y="-84" font-family="Helvetica,sans-Serif" font-size="10.00">vs2::VPipeline&lt; derived &gt;</text>
</a>
</g>
</g>
<!-- Node1&#45;&gt;Node9 -->
<g id="edge8" class="edge">
<title>Node1&#45;&gt;Node9</title>
<path fill="none" stroke="midnightblue" d="M218.21,-74.38C227.01,-75.58 236.12,-76.82 245,-78.04"/>
<polygon fill="midnightblue" stroke="midnightblue" points="218.45,-70.88 208.06,-72.99 217.5,-77.81 218.45,-70.88"/>
</g>
<!-- Node2 -->
<g id="node2" class="node">
<title>Node2</title>
<g id="a_node2"><a xlink:title=" ">
<polygon fill="none" stroke="#bfbfbf" points="0,-57 0,-76 74,-76 74,-57 0,-57"/>
<text text-anchor="middle" x="37" y="-64" font-family="Helvetica,sans-Serif" font-size="10.00">cs::CvSource</text>
</a>
</g>
</g>
<!-- Node2&#45;&gt;Node1 -->
<g id="edge1" class="edge">
<title>Node2&#45;&gt;Node1</title>
<path fill="none" stroke="midnightblue" d="M84.43,-66.5C93.07,-66.5 102.1,-66.5 110.77,-66.5"/>
<polygon fill="midnightblue" stroke="midnightblue" points="84.15,-63 74.15,-66.5 84.15,-70 84.15,-63"/>
</g>
<!-- Node4 -->
<g id="node4" class="node">
<title>Node4</title>
<g id="a_node4"><a xlink:href="classAxonRunner__.html" target="_top" xlink:title=" ">
<polygon fill="none" stroke="black" points="695,-143 695,-162 826,-162 826,-143 695,-143"/>
<text text-anchor="middle" x="760.5" y="-150" font-family="Helvetica,sans-Serif" font-size="10.00">AxonRunner_&lt; derived_t &gt;</text>
</a>
</g>
</g>
<!-- Node3&#45;&gt;Node4 -->
<g id="edge3" class="edge">
<title>Node3&#45;&gt;Node4</title>
<path fill="none" stroke="midnightblue" d="M668.22,-152.5C677.18,-152.5 686.24,-152.5 694.99,-152.5"/>
<polygon fill="midnightblue" stroke="midnightblue" points="668.16,-149 658.16,-152.5 668.16,-156 668.16,-149"/>
</g>
<!-- Node6 -->
<g id="node6" class="node">
<title>Node6</title>
<g id="a_node6"><a xlink:href="classMoveNet__.html" target="_top" xlink:title=" ">
<polygon fill="none" stroke="black" points="701.5,-81 701.5,-100 819.5,-100 819.5,-81 701.5,-81"/>
<text text-anchor="middle" x="760.5" y="-88" font-family="Helvetica,sans-Serif" font-size="10.00">MoveNet_&lt; derived_t &gt;</text>
</a>
</g>
</g>
<!-- Node5&#45;&gt;Node6 -->
<g id="edge5" class="edge">
<title>Node5&#45;&gt;Node6</title>
<path fill="none" stroke="midnightblue" d="M662.22,-90.5C675.31,-90.5 688.8,-90.5 701.41,-90.5"/>
<polygon fill="midnightblue" stroke="midnightblue" points="661.84,-87 651.84,-90.5 661.84,-94 661.84,-87"/>
</g>
<!-- Node8 -->
<g id="node8" class="node">
<title>Node8</title>
<g id="a_node8"><a xlink:href="classvs2_1_1SequentialPipeline.html" target="_top" xlink:title=" ">
<polygon fill="none" stroke="black" points="702,-0.5 702,-30.5 819,-30.5 819,-0.5 702,-0.5"/>
<text text-anchor="start" x="710" y="-18.5" font-family="Helvetica,sans-Serif" font-size="10.00">vs2::SequentialPipeline</text>
<text text-anchor="middle" x="760.5" y="-7.5" font-family="Helvetica,sans-Serif" font-size="10.00">&lt; pipelines_t &gt;</text>
</a>
</g>
</g>
<!-- Node7&#45;&gt;Node8 -->
<g id="edge7" class="edge">
<title>Node7&#45;&gt;Node8</title>
<path fill="none" stroke="midnightblue" d="M665.05,-15.5C677.43,-15.5 690.08,-15.5 701.93,-15.5"/>
<polygon fill="midnightblue" stroke="midnightblue" points="664.74,-12 654.74,-15.5 664.74,-19 664.74,-12"/>
</g>
<!-- Node9&#45;&gt;Node3 -->
<g id="edge9" class="edge">
<title>Node9&#45;&gt;Node3</title>
<path fill="none" stroke="orange" stroke-dasharray="5,2" d="M358.99,-98.35C405.2,-109.3 474.09,-125.62 524.14,-137.48"/>
<polygon fill="orange" stroke="orange" points="359.74,-94.93 349.2,-96.03 358.12,-101.74 359.74,-94.93"/>
<text text-anchor="middle" x="445" y="-133.5" font-family="Helvetica,sans-Serif" font-size="10.00"> &lt; AxonRunner_&lt; void &gt; &gt;</text>
</g>
<!-- Node9&#45;&gt;Node5 -->
<g id="edge10" class="edge">
<title>Node9&#45;&gt;Node5</title>
<path fill="none" stroke="orange" stroke-dasharray="5,2" d="M381.34,-87.54C425.9,-88.18 482.45,-88.99 525.05,-89.6"/>
<polygon fill="orange" stroke="orange" points="381.2,-84.04 371.15,-87.39 381.1,-91.04 381.2,-84.04"/>
<text text-anchor="middle" x="445" y="-92.5" font-family="Helvetica,sans-Serif" font-size="10.00"> &lt; MoveNet_&lt; void &gt; &gt;</text>
</g>
<!-- Node9&#45;&gt;Node7 -->
<g id="edge11" class="edge">
<title>Node9&#45;&gt;Node7</title>
<path fill="none" stroke="orange" stroke-dasharray="5,2" d="M349.11,-73.96C361.82,-70.12 375.96,-66 389,-62.5 433.3,-50.62 483.57,-38.73 522.44,-29.89"/>
<polygon fill="orange" stroke="orange" points="347.82,-70.7 339.27,-76.96 349.86,-77.39 347.82,-70.7"/>
<text text-anchor="start" x="399.5" y="-76.5" font-family="Helvetica,sans-Serif" font-size="10.00"> &lt; SequentialPipeline</text>
<text text-anchor="middle" x="445" y="-65.5" font-family="Helvetica,sans-Serif" font-size="10.00">&lt; pipelines_t... &gt; &gt;</text>
</g>
</g>
</svg>
