<?xml version="1.0" encoding="UTF-8" standalone="no"?>
<!DOCTYPE svg PUBLIC "-//W3C//DTD SVG 1.1//EN"
 "http://www.w3.org/Graphics/SVG/1.1/DTD/svg11.dtd">
<!-- Generated by graphviz version 2.49.3 (20211027.1534)
 -->
<!-- Title: AxonRunner_&lt; derived_t &gt; Pages: 1 -->
<svg width="854pt" height="160pt"
 viewBox="0.00 0.00 854.00 159.50" xmlns="http://www.w3.org/2000/svg" xmlns:xlink="http://www.w3.org/1999/xlink">
<g id="graph0" class="graph" transform="scale(1 1) rotate(0) translate(4 155.5)">
<title>AxonRunner_&lt; derived_t &gt;</title>
<!-- Node1 -->
<g id="node1" class="node">
<title>Node1</title>
<g id="a_node1"><a xlink:title=" ">
<polygon fill="#bfbfbf" stroke="black" points="715,-38.5 715,-57.5 846,-57.5 846,-38.5 715,-38.5"/>
<text text-anchor="middle" x="780.5" y="-45.5" font-family="Helvetica,sans-Serif" font-size="10.00">AxonRunner_&lt; derived_t &gt;</text>
</a>
</g>
</g>
<!-- Node2 -->
<g id="node2" class="node">
<title>Node2</title>
<g id="a_node2"><a xlink:href="classvs2_1_1VPipeline.html" target="_top" xlink:title=" ">
<polygon fill="none" stroke="black" points="539,-77 539,-107 678,-107 678,-77 539,-77"/>
<text text-anchor="start" x="547" y="-95" font-family="Helvetica,sans-Serif" font-size="10.00">vs2::VPipeline&lt; AxonRunner</text>
<text text-anchor="middle" x="608.5" y="-84" font-family="Helvetica,sans-Serif" font-size="10.00">_&lt; void &gt; &gt;</text>
</a>
</g>
</g>
<!-- Node2&#45;&gt;Node1 -->
<g id="edge1" class="edge">
<title>Node2&#45;&gt;Node1</title>
<path fill="none" stroke="midnightblue" d="M677.31,-74.45C699.65,-68.67 723.63,-62.46 742.75,-57.51"/>
<polygon fill="midnightblue" stroke="midnightblue" points="676.33,-71.09 667.53,-76.98 678.09,-77.86 676.33,-71.09"/>
</g>
<!-- Node3 -->
<g id="node3" class="node">
<title>Node3</title>
<g id="a_node3"><a xlink:title=" ">
<polygon fill="none" stroke="#bfbfbf" points="257,-121 257,-151 391,-151 391,-121 257,-121"/>
<text text-anchor="start" x="265" y="-139" font-family="Helvetica,sans-Serif" font-size="10.00">Instanced&lt; VPipeline</text>
<text text-anchor="middle" x="324" y="-128" font-family="Helvetica,sans-Serif" font-size="10.00">&lt; AxonRunner_&lt; void &gt; &gt; &gt;</text>
</a>
</g>
</g>
<!-- Node3&#45;&gt;Node2 -->
<g id="edge2" class="edge">
<title>Node3&#45;&gt;Node2</title>
<path fill="none" stroke="midnightblue" d="M401.31,-125.16C437.6,-119.89 481.57,-113.33 521,-107 526.72,-106.08 532.65,-105.1 538.59,-104.11"/>
<polygon fill="midnightblue" stroke="midnightblue" points="400.69,-121.71 391.29,-126.61 401.69,-128.64 400.69,-121.71"/>
</g>
<!-- Node4 -->
<g id="node4" class="node">
<title>Node4</title>
<g id="a_node4"><a xlink:href="classvs2_1_1VisionServer_1_1BasePipe.html" target="_top" xlink:title=" ">
<polygon fill="none" stroke="black" points="117,-40 117,-70 214,-70 214,-40 117,-40"/>
<text text-anchor="start" x="125" y="-58" font-family="Helvetica,sans-Serif" font-size="10.00">vs2::VisionServer::</text>
<text text-anchor="middle" x="165.5" y="-47" font-family="Helvetica,sans-Serif" font-size="10.00">BasePipe</text>
</a>
</g>
</g>
<!-- Node4&#45;&gt;Node2 -->
<g id="edge3" class="edge">
<title>Node4&#45;&gt;Node2</title>
<path fill="none" stroke="midnightblue" d="M224.48,-59.53C269.81,-63.1 334.43,-68.25 391,-73 440.44,-77.15 496.22,-82.05 538.77,-85.84"/>
<polygon fill="midnightblue" stroke="midnightblue" points="224.49,-56.02 214.24,-58.72 223.94,-63 224.49,-56.02"/>
</g>
<!-- Node6 -->
<g id="node6" class="node">
<title>Node6</title>
<g id="a_node6"><a xlink:href="classvs2_1_1VPipeline.html" target="_top" xlink:title=" ">
<polygon fill="none" stroke="black" points="261,-82.5 261,-101.5 387,-101.5 387,-82.5 261,-82.5"/>
<text text-anchor="middle" x="324" y="-89.5" font-family="Helvetica,sans-Serif" font-size="10.00">vs2::VPipeline&lt; derived &gt;</text>
</a>
</g>
</g>
<!-- Node4&#45;&gt;Node6 -->
<g id="edge7" class="edge">
<title>Node4&#45;&gt;Node6</title>
<path fill="none" stroke="midnightblue" d="M224.25,-68.65C243.64,-73.24 264.84,-78.25 282.61,-82.45"/>
<polygon fill="midnightblue" stroke="midnightblue" points="224.84,-65.2 214.31,-66.3 223.23,-72.01 224.84,-65.2"/>
</g>
<!-- Node5 -->
<g id="node5" class="node">
<title>Node5</title>
<g id="a_node5"><a xlink:title=" ">
<polygon fill="none" stroke="#bfbfbf" points="0,-45.5 0,-64.5 74,-64.5 74,-45.5 0,-45.5"/>
<text text-anchor="middle" x="37" y="-52.5" font-family="Helvetica,sans-Serif" font-size="10.00">cs::CvSource</text>
</a>
</g>
</g>
<!-- Node5&#45;&gt;Node4 -->
<g id="edge4" class="edge">
<title>Node5&#45;&gt;Node4</title>
<path fill="none" stroke="midnightblue" d="M84.53,-55C95.09,-55 106.32,-55 116.91,-55"/>
<polygon fill="midnightblue" stroke="midnightblue" points="84.25,-51.5 74.25,-55 84.25,-58.5 84.25,-51.5"/>
</g>
<!-- Node6&#45;&gt;Node2 -->
<g id="edge5" class="edge">
<title>Node6&#45;&gt;Node2</title>
<path fill="none" stroke="orange" stroke-dasharray="5,2" d="M397.58,-92C441.09,-92 496.09,-92 538.88,-92"/>
<polygon fill="orange" stroke="orange" points="397.35,-88.5 387.35,-92 397.35,-95.5 397.35,-88.5"/>
<text text-anchor="middle" x="465" y="-95" font-family="Helvetica,sans-Serif" font-size="10.00"> &lt; AxonRunner_&lt; void &gt; &gt;</text>
</g>
<!-- Node7 -->
<g id="node7" class="node">
<title>Node7</title>
<g id="a_node7"><a xlink:title=" ">
<polygon fill="none" stroke="#bfbfbf" points="111,-89 111,-119 220,-119 220,-89 111,-89"/>
<text text-anchor="start" x="119" y="-107" font-family="Helvetica,sans-Serif" font-size="10.00">Instanced&lt; VPipeline</text>
<text text-anchor="middle" x="165.5" y="-96" font-family="Helvetica,sans-Serif" font-size="10.00">&lt; derived &gt; &gt;</text>
</a>
</g>
</g>
<!-- Node7&#45;&gt;Node6 -->
<g id="edge6" class="edge">
<title>Node7&#45;&gt;Node6</title>
<path fill="none" stroke="midnightblue" d="M230.34,-99.11C240.45,-98.33 250.9,-97.53 260.97,-96.76"/>
<polygon fill="midnightblue" stroke="midnightblue" points="230.06,-95.62 220.36,-99.87 230.6,-102.6 230.06,-95.62"/>
</g>
<!-- Node8 -->
<g id="node8" class="node">
<title>Node8</title>
<g id="a_node8"><a xlink:href="classTfModel.html" target="_top" xlink:title=" ">
<polygon fill="none" stroke="black" points="582.5,-38.5 582.5,-57.5 634.5,-57.5 634.5,-38.5 582.5,-38.5"/>
<text text-anchor="middle" x="608.5" y="-45.5" font-family="Helvetica,sans-Serif" font-size="10.00">TfModel</text>
</a>
</g>
</g>
<!-- Node8&#45;&gt;Node1 -->
<g id="edge8" class="edge">
<title>Node8&#45;&gt;Node1</title>
<path fill="none" stroke="midnightblue" d="M644.86,-48C665.03,-48 690.94,-48 714.64,-48"/>
<polygon fill="midnightblue" stroke="midnightblue" points="644.58,-44.5 634.58,-48 644.58,-51.5 644.58,-44.5"/>
</g>
<!-- Node9 -->
<g id="node9" class="node">
<title>Node9</title>
<g id="a_node9"><a xlink:href="structAxonRunner__B.html" target="_top" xlink:title=" ">
<polygon fill="none" stroke="black" points="568,-0.5 568,-19.5 649,-19.5 649,-0.5 568,-0.5"/>
<text text-anchor="middle" x="608.5" y="-7.5" font-family="Helvetica,sans-Serif" font-size="10.00">AxonRunner_B</text>
</a>
</g>
</g>
<!-- Node9&#45;&gt;Node1 -->
<g id="edge9" class="edge">
<title>Node9&#45;&gt;Node1</title>
<path fill="none" stroke="midnightblue" d="M659.24,-21.12C683.88,-26.63 713.33,-33.21 736.92,-38.48"/>
<polygon fill="midnightblue" stroke="midnightblue" points="659.88,-17.68 649.36,-18.91 658.35,-24.51 659.88,-17.68"/>
</g>
</g>
</svg>
