<?xml version="1.0" encoding="UTF-8" standalone="no"?>
<!DOCTYPE svg PUBLIC "-//W3C//DTD SVG 1.1//EN"
 "http://www.w3.org/Graphics/SVG/1.1/DTD/svg11.dtd">
<!-- Generated by graphviz version 2.49.3 (20211027.1534)
 -->
<!-- Title: lib&#45;vs/src/core/config.h Pages: 1 -->
<svg width="1118pt" height="151pt"
 viewBox="0.00 0.00 1117.50 151.00" xmlns="http://www.w3.org/2000/svg" xmlns:xlink="http://www.w3.org/1999/xlink">
<g id="graph0" class="graph" transform="scale(1 1) rotate(0) translate(4 147)">
<title>lib&#45;vs/src/core/config.h</title>
<!-- Node1 -->
<g id="node1" class="node">
<title>Node1</title>
<g id="a_node1"><a xlink:title=" ">
<polygon fill="#bfbfbf" stroke="black" points="223,-123.5 223,-142.5 337,-142.5 337,-123.5 223,-123.5"/>
<text text-anchor="middle" x="280" y="-130.5" font-family="Helvetica,sans-Serif" font-size="10.00">lib&#45;vs/src/core/config.h</text>
</a>
</g>
</g>
<!-- Node2 -->
<g id="node2" class="node">
<title>Node2</title>
<g id="a_node2"><a xlink:title=" ">
<polygon fill="none" stroke="#bfbfbf" points="0,-67.5 0,-86.5 62,-86.5 62,-67.5 0,-67.5"/>
<text text-anchor="middle" x="31" y="-74.5" font-family="Helvetica,sans-Serif" font-size="10.00">type_traits</text>
</a>
</g>
</g>
<!-- Node1&#45;&gt;Node2 -->
<g id="edge1" class="edge">
<title>Node1&#45;&gt;Node2</title>
<path fill="none" stroke="midnightblue" d="M239.91,-123.48C199.87,-114.95 136.31,-101.34 71.92,-87.19"/>
<polygon fill="midnightblue" stroke="midnightblue" points="72.52,-83.74 62,-85.01 71.02,-90.57 72.52,-83.74"/>
</g>
<!-- Node3 -->
<g id="node3" class="node">
<title>Node3</title>
<g id="a_node3"><a xlink:title=" ">
<polygon fill="none" stroke="#bfbfbf" points="80,-67.5 80,-86.5 124,-86.5 124,-67.5 80,-67.5"/>
<text text-anchor="middle" x="102" y="-74.5" font-family="Helvetica,sans-Serif" font-size="10.00">vector</text>
</a>
</g>
</g>
<!-- Node1&#45;&gt;Node3 -->
<g id="edge2" class="edge">
<title>Node1&#45;&gt;Node3</title>
<path fill="none" stroke="midnightblue" d="M251.8,-123.44C219.72,-113.71 167.48,-97.86 133.93,-87.69"/>
<polygon fill="midnightblue" stroke="midnightblue" points="134.75,-84.28 124.17,-84.73 132.72,-90.98 134.75,-84.28"/>
</g>
<!-- Node4 -->
<g id="node4" class="node">
<title>Node4</title>
<g id="a_node4"><a xlink:title=" ">
<polygon fill="none" stroke="#bfbfbf" points="142,-67.5 142,-86.5 180,-86.5 180,-67.5 142,-67.5"/>
<text text-anchor="middle" x="161" y="-74.5" font-family="Helvetica,sans-Serif" font-size="10.00">array</text>
</a>
</g>
</g>
<!-- Node1&#45;&gt;Node4 -->
<g id="edge3" class="edge">
<title>Node1&#45;&gt;Node4</title>
<path fill="none" stroke="midnightblue" d="M261.14,-123.44C241.73,-114.64 211.27,-100.81 189.04,-90.72"/>
<polygon fill="midnightblue" stroke="midnightblue" points="190.32,-87.46 179.77,-86.52 187.43,-93.84 190.32,-87.46"/>
</g>
<!-- Node5 -->
<g id="node5" class="node">
<title>Node5</title>
<g id="a_node5"><a xlink:title=" ">
<polygon fill="none" stroke="#bfbfbf" points="198.5,-67.5 198.5,-86.5 281.5,-86.5 281.5,-67.5 198.5,-67.5"/>
<text text-anchor="middle" x="240" y="-74.5" font-family="Helvetica,sans-Serif" font-size="10.00">unordered_map</text>
</a>
</g>
</g>
<!-- Node1&#45;&gt;Node5 -->
<g id="edge4" class="edge">
<title>Node1&#45;&gt;Node5</title>
<path fill="none" stroke="midnightblue" d="M273.39,-123.08C267.74,-115.46 259.46,-104.26 252.55,-94.94"/>
<polygon fill="midnightblue" stroke="midnightblue" points="255.25,-92.7 246.48,-86.75 249.62,-96.87 255.25,-92.7"/>
</g>
<!-- Node6 -->
<g id="node6" class="node">
<title>Node6</title>
<g id="a_node6"><a xlink:title=" ">
<polygon fill="none" stroke="#bfbfbf" points="299.5,-67.5 299.5,-86.5 340.5,-86.5 340.5,-67.5 299.5,-67.5"/>
<text text-anchor="middle" x="320" y="-74.5" font-family="Helvetica,sans-Serif" font-size="10.00">string</text>
</a>
</g>
</g>
<!-- Node1&#45;&gt;Node6 -->
<g id="edge5" class="edge">
<title>Node1&#45;&gt;Node6</title>
<path fill="none" stroke="midnightblue" d="M286.61,-123.08C292.26,-115.46 300.54,-104.26 307.45,-94.94"/>
<polygon fill="midnightblue" stroke="midnightblue" points="310.38,-96.87 313.52,-86.75 304.75,-92.7 310.38,-96.87"/>
</g>
<!-- Node7 -->
<g id="node7" class="node">
<title>Node7</title>
<g id="a_node7"><a xlink:title=" ">
<polygon fill="none" stroke="#bfbfbf" points="358.5,-67.5 358.5,-86.5 477.5,-86.5 477.5,-67.5 358.5,-67.5"/>
<text text-anchor="middle" x="418" y="-74.5" font-family="Helvetica,sans-Serif" font-size="10.00">opencv2/core/types.hpp</text>
</a>
</g>
</g>
<!-- Node1&#45;&gt;Node7 -->
<g id="edge6" class="edge">
<title>Node1&#45;&gt;Node7</title>
<path fill="none" stroke="midnightblue" d="M301.87,-123.44C324.78,-114.48 360.98,-100.31 386.87,-90.18"/>
<polygon fill="midnightblue" stroke="midnightblue" points="388.2,-93.42 396.24,-86.52 385.65,-86.9 388.2,-93.42"/>
</g>
<!-- Node8 -->
<g id="node8" class="node">
<title>Node8</title>
<g id="a_node8"><a xlink:title=" ">
<polygon fill="none" stroke="#bfbfbf" points="432,-6 432,-25 492,-25 492,-6 432,-6"/>
<text text-anchor="middle" x="462" y="-13" font-family="Helvetica,sans-Serif" font-size="10.00">wpi/json.h</text>
</a>
</g>
</g>
<!-- Node1&#45;&gt;Node8 -->
<g id="edge7" class="edge">
<title>Node1&#45;&gt;Node8</title>
<path fill="none" stroke="midnightblue" d="M337.18,-127.41C391.52,-121.72 467.61,-109.85 486,-87 498.61,-71.34 487.05,-48.7 476.03,-33.33"/>
<polygon fill="midnightblue" stroke="midnightblue" points="478.66,-31.01 469.78,-25.23 473.12,-35.29 478.66,-31.01"/>
</g>
<!-- Node9 -->
<g id="node9" class="node">
<title>Node9</title>
<g id="a_node9"><a xlink:href="visioncamera_8h.html" target="_top" xlink:title=" ">
<polygon fill="none" stroke="black" points="621,-67.5 621,-86.5 703,-86.5 703,-67.5 621,-67.5"/>
<text text-anchor="middle" x="662" y="-74.5" font-family="Helvetica,sans-Serif" font-size="10.00">visioncamera.h</text>
</a>
</g>
</g>
<!-- Node1&#45;&gt;Node9 -->
<g id="edge8" class="edge">
<title>Node1&#45;&gt;Node9</title>
<path fill="none" stroke="midnightblue" d="M337.19,-123.92C411.38,-113.43 539.71,-95.29 610.83,-85.23"/>
<polygon fill="midnightblue" stroke="midnightblue" points="611.48,-88.68 620.9,-83.81 610.5,-81.74 611.48,-88.68"/>
</g>
<!-- Node9&#45;&gt;Node8 -->
<g id="edge13" class="edge">
<title>Node9&#45;&gt;Node8</title>
<path fill="none" stroke="midnightblue" d="M628.46,-67.5C595.72,-58.99 544.61,-45.17 501,-31 498.6,-30.22 496.12,-29.38 493.64,-28.51"/>
<polygon fill="midnightblue" stroke="midnightblue" points="494.76,-25.2 484.16,-25.1 492.39,-31.78 494.76,-25.2"/>
</g>
<!-- Node10 -->
<g id="node10" class="node">
<title>Node10</title>
<g id="a_node10"><a xlink:title=" ">
<polygon fill="none" stroke="#bfbfbf" points="510,-6 510,-25 616,-25 616,-6 510,-6"/>
<text text-anchor="middle" x="563" y="-13" font-family="Helvetica,sans-Serif" font-size="10.00">opencv2/opencv.hpp</text>
</a>
</g>
</g>
<!-- Node9&#45;&gt;Node10 -->
<g id="edge9" class="edge">
<title>Node9&#45;&gt;Node10</title>
<path fill="none" stroke="midnightblue" d="M647.82,-67.48C631.64,-57.75 604.97,-41.73 585.86,-30.24"/>
<polygon fill="midnightblue" stroke="midnightblue" points="587.53,-27.16 577.16,-25.01 583.93,-33.16 587.53,-27.16"/>
</g>
<!-- Node11 -->
<g id="node11" class="node">
<title>Node11</title>
<g id="a_node11"><a xlink:title=" ">
<polygon fill="none" stroke="#bfbfbf" points="634.5,-0.5 634.5,-30.5 775.5,-30.5 775.5,-0.5 634.5,-0.5"/>
<text text-anchor="start" x="642.5" y="-18.5" font-family="Helvetica,sans-Serif" font-size="10.00">networktables/NetworkTable</text>
<text text-anchor="middle" x="705" y="-7.5" font-family="Helvetica,sans-Serif" font-size="10.00">Instance.h</text>
</a>
</g>
</g>
<!-- Node9&#45;&gt;Node11 -->
<g id="edge10" class="edge">
<title>Node9&#45;&gt;Node11</title>
<path fill="none" stroke="midnightblue" d="M668.16,-67.48C673.55,-60.02 681.62,-48.85 688.83,-38.87"/>
<polygon fill="midnightblue" stroke="midnightblue" points="691.85,-40.68 694.87,-30.52 686.17,-36.58 691.85,-40.68"/>
</g>
<!-- Node12 -->
<g id="node12" class="node">
<title>Node12</title>
<g id="a_node12"><a xlink:title=" ">
<polygon fill="none" stroke="#bfbfbf" points="793.5,-6 793.5,-25 942.5,-25 942.5,-6 793.5,-6"/>
<text text-anchor="middle" x="868" y="-13" font-family="Helvetica,sans-Serif" font-size="10.00">networktables/NetworkTable.h</text>
</a>
</g>
</g>
<!-- Node9&#45;&gt;Node12 -->
<g id="edge11" class="edge">
<title>Node9&#45;&gt;Node12</title>
<path fill="none" stroke="midnightblue" d="M691.51,-67.48C727.62,-57.05 788.85,-39.36 828.85,-27.81"/>
<polygon fill="midnightblue" stroke="midnightblue" points="829.9,-31.15 838.54,-25.01 827.96,-24.42 829.9,-31.15"/>
</g>
<!-- Node13 -->
<g id="node13" class="node">
<title>Node13</title>
<g id="a_node13"><a xlink:title=" ">
<polygon fill="none" stroke="#bfbfbf" points="960.5,-6 960.5,-25 1109.5,-25 1109.5,-6 960.5,-6"/>
<text text-anchor="middle" x="1035" y="-13" font-family="Helvetica,sans-Serif" font-size="10.00">cameraserver/CameraServer.h</text>
</a>
</g>
</g>
<!-- Node9&#45;&gt;Node13 -->
<g id="edge12" class="edge">
<title>Node9&#45;&gt;Node13</title>
<path fill="none" stroke="midnightblue" d="M703.34,-69.84C759.63,-61.39 863.52,-45.59 952,-31 960.2,-29.65 968.84,-28.18 977.33,-26.72"/>
<polygon fill="midnightblue" stroke="midnightblue" points="977.93,-30.17 987.19,-25.01 976.74,-23.27 977.93,-30.17"/>
</g>
</g>
</svg>
