<?xml version="1.0" encoding="UTF-8" standalone="no"?>
<!DOCTYPE svg PUBLIC "-//W3C//DTD SVG 1.1//EN"
 "http://www.w3.org/Graphics/SVG/1.1/DTD/svg11.dtd">
<!-- Generated by graphviz version 2.49.3 (20211027.1534)
 -->
<!-- Title: lib&#45;vs/src/core/config.cpp Pages: 1 -->
<svg width="1337pt" height="207pt"
 viewBox="0.00 0.00 1337.00 207.00" xmlns="http://www.w3.org/2000/svg" xmlns:xlink="http://www.w3.org/1999/xlink">
<g id="graph0" class="graph" transform="scale(1 1) rotate(0) translate(4 203)">
<title>lib&#45;vs/src/core/config.cpp</title>
<!-- Node1 -->
<g id="node1" class="node">
<title>Node1</title>
<g id="a_node1"><a xlink:title=" ">
<polygon fill="#bfbfbf" stroke="black" points="903.5,-179.5 903.5,-198.5 1028.5,-198.5 1028.5,-179.5 903.5,-179.5"/>
<text text-anchor="middle" x="966" y="-186.5" font-family="Helvetica,sans-Serif" font-size="10.00">lib&#45;vs/src/core/config.cpp</text>
</a>
</g>
</g>
<!-- Node2 -->
<g id="node2" class="node">
<title>Node2</title>
<g id="a_node2"><a xlink:href="config_8h.html" target="_top" xlink:title=" ">
<polygon fill="none" stroke="black" points="338,-123.5 338,-142.5 388,-142.5 388,-123.5 338,-123.5"/>
<text text-anchor="middle" x="363" y="-130.5" font-family="Helvetica,sans-Serif" font-size="10.00">config.h</text>
</a>
</g>
</g>
<!-- Node1&#45;&gt;Node2 -->
<g id="edge1" class="edge">
<title>Node1&#45;&gt;Node2</title>
<path fill="none" stroke="midnightblue" d="M903.46,-182.4C777.44,-171.11 496.64,-145.97 398.04,-137.14"/>
<polygon fill="midnightblue" stroke="midnightblue" points="398.28,-133.65 388.01,-136.24 397.66,-140.62 398.28,-133.65"/>
</g>
<!-- Node8 -->
<g id="node8" class="node">
<title>Node8</title>
<g id="a_node8"><a xlink:title=" ">
<polygon fill="none" stroke="#bfbfbf" points="892.5,-0.5 892.5,-30.5 1033.5,-30.5 1033.5,-0.5 892.5,-0.5"/>
<text text-anchor="start" x="900.5" y="-18.5" font-family="Helvetica,sans-Serif" font-size="10.00">networktables/NetworkTable</text>
<text text-anchor="middle" x="963" y="-7.5" font-family="Helvetica,sans-Serif" font-size="10.00">Instance.h</text>
</a>
</g>
</g>
<!-- Node1&#45;&gt;Node8 -->
<g id="edge19" class="edge">
<title>Node1&#45;&gt;Node8</title>
<path fill="none" stroke="midnightblue" d="M908.22,-179.45C886.56,-173.12 864.05,-162.12 851,-143 822.75,-101.61 882.09,-59.12 924.69,-35.44"/>
<polygon fill="midnightblue" stroke="midnightblue" points="926.36,-38.51 933.49,-30.68 923.03,-32.36 926.36,-38.51"/>
</g>
<!-- Node15 -->
<g id="node15" class="node">
<title>Node15</title>
<g id="a_node15"><a xlink:title=" ">
<polygon fill="none" stroke="#bfbfbf" points="860,-123.5 860,-142.5 958,-142.5 958,-123.5 860,-123.5"/>
<text text-anchor="middle" x="909" y="-130.5" font-family="Helvetica,sans-Serif" font-size="10.00">wpi/raw_ostream.h</text>
</a>
</g>
</g>
<!-- Node1&#45;&gt;Node15 -->
<g id="edge16" class="edge">
<title>Node1&#45;&gt;Node15</title>
<path fill="none" stroke="midnightblue" d="M956.84,-179.32C948.5,-171.42 935.97,-159.55 925.82,-149.94"/>
<polygon fill="midnightblue" stroke="midnightblue" points="927.99,-147.17 918.32,-142.83 923.18,-152.25 927.99,-147.17"/>
</g>
<!-- Node16 -->
<g id="node16" class="node">
<title>Node16</title>
<g id="a_node16"><a xlink:title=" ">
<polygon fill="none" stroke="#bfbfbf" points="976.5,-123.5 976.5,-142.5 1071.5,-142.5 1071.5,-123.5 976.5,-123.5"/>
<text text-anchor="middle" x="1024" y="-130.5" font-family="Helvetica,sans-Serif" font-size="10.00">wpi/raw_istream.h</text>
</a>
</g>
</g>
<!-- Node1&#45;&gt;Node16 -->
<g id="edge17" class="edge">
<title>Node1&#45;&gt;Node16</title>
<path fill="none" stroke="midnightblue" d="M975.32,-179.32C983.89,-171.34 996.81,-159.31 1007.19,-149.65"/>
<polygon fill="midnightblue" stroke="midnightblue" points="1009.58,-152.21 1014.51,-142.83 1004.81,-147.09 1009.58,-152.21"/>
</g>
<!-- Node17 -->
<g id="node17" class="node">
<title>Node17</title>
<g id="a_node17"><a xlink:title=" ">
<polygon fill="none" stroke="#bfbfbf" points="1089.5,-123.5 1089.5,-142.5 1184.5,-142.5 1184.5,-123.5 1089.5,-123.5"/>
<text text-anchor="middle" x="1137" y="-130.5" font-family="Helvetica,sans-Serif" font-size="10.00">wpi/StringExtras.h</text>
</a>
</g>
</g>
<!-- Node1&#45;&gt;Node17 -->
<g id="edge18" class="edge">
<title>Node1&#45;&gt;Node17</title>
<path fill="none" stroke="midnightblue" d="M993.1,-179.44C1021.99,-170.32 1067.92,-155.81 1100.11,-145.65"/>
<polygon fill="midnightblue" stroke="midnightblue" points="1101.55,-148.87 1110.03,-142.52 1099.44,-142.19 1101.55,-148.87"/>
</g>
<!-- Node18 -->
<g id="node18" class="node">
<title>Node18</title>
<g id="a_node18"><a xlink:title=" ">
<polygon fill="none" stroke="#bfbfbf" points="1203,-123.5 1203,-142.5 1329,-142.5 1329,-123.5 1203,-123.5"/>
<text text-anchor="middle" x="1266" y="-130.5" font-family="Helvetica,sans-Serif" font-size="10.00">cpp&#45;tools/src/resources.h</text>
</a>
</g>
</g>
<!-- Node1&#45;&gt;Node18 -->
<g id="edge20" class="edge">
<title>Node1&#45;&gt;Node18</title>
<path fill="none" stroke="midnightblue" d="M1013.54,-179.44C1066.53,-169.9 1152.2,-154.48 1208.82,-144.29"/>
<polygon fill="midnightblue" stroke="midnightblue" points="1209.46,-147.73 1218.69,-142.52 1208.22,-140.84 1209.46,-147.73"/>
</g>
<!-- Node3 -->
<g id="node3" class="node">
<title>Node3</title>
<g id="a_node3"><a xlink:title=" ">
<polygon fill="none" stroke="#bfbfbf" points="0,-6 0,-25 44,-25 44,-6 0,-6"/>
<text text-anchor="middle" x="22" y="-13" font-family="Helvetica,sans-Serif" font-size="10.00">vector</text>
</a>
</g>
</g>
<!-- Node2&#45;&gt;Node3 -->
<g id="edge2" class="edge">
<title>Node2&#45;&gt;Node3</title>
<path fill="none" stroke="midnightblue" d="M337.84,-130.39C293.96,-126.89 201.24,-116.38 129,-87 94.92,-73.14 60.22,-47.77 39.92,-31.54"/>
<polygon fill="midnightblue" stroke="midnightblue" points="42.11,-28.81 32.15,-25.2 37.69,-34.23 42.11,-28.81"/>
</g>
<!-- Node4 -->
<g id="node4" class="node">
<title>Node4</title>
<g id="a_node4"><a xlink:title=" ">
<polygon fill="none" stroke="#bfbfbf" points="317.5,-67.5 317.5,-86.5 358.5,-86.5 358.5,-67.5 317.5,-67.5"/>
<text text-anchor="middle" x="338" y="-74.5" font-family="Helvetica,sans-Serif" font-size="10.00">string</text>
</a>
</g>
</g>
<!-- Node2&#45;&gt;Node4 -->
<g id="edge3" class="edge">
<title>Node2&#45;&gt;Node4</title>
<path fill="none" stroke="midnightblue" d="M358.87,-123.08C355.49,-115.77 350.58,-105.18 346.38,-96.1"/>
<polygon fill="midnightblue" stroke="midnightblue" points="349.43,-94.36 342.05,-86.75 343.08,-97.3 349.43,-94.36"/>
</g>
<!-- Node5 -->
<g id="node5" class="node">
<title>Node5</title>
<g id="a_node5"><a xlink:title=" ">
<polygon fill="none" stroke="#bfbfbf" points="357,-6 357,-25 417,-25 417,-6 357,-6"/>
<text text-anchor="middle" x="387" y="-13" font-family="Helvetica,sans-Serif" font-size="10.00">wpi/json.h</text>
</a>
</g>
</g>
<!-- Node2&#45;&gt;Node5 -->
<g id="edge4" class="edge">
<title>Node2&#45;&gt;Node5</title>
<path fill="none" stroke="midnightblue" d="M364.8,-123.32C368.68,-104.67 377.87,-60.44 383.13,-35.13"/>
<polygon fill="midnightblue" stroke="midnightblue" points="386.57,-35.78 385.18,-25.28 379.71,-34.36 386.57,-35.78"/>
</g>
<!-- Node6 -->
<g id="node6" class="node">
<title>Node6</title>
<g id="a_node6"><a xlink:href="visioncamera_8h.html" target="_top" xlink:title=" ">
<polygon fill="none" stroke="black" points="519,-67.5 519,-86.5 601,-86.5 601,-67.5 519,-67.5"/>
<text text-anchor="middle" x="560" y="-74.5" font-family="Helvetica,sans-Serif" font-size="10.00">visioncamera.h</text>
</a>
</g>
</g>
<!-- Node2&#45;&gt;Node6 -->
<g id="edge5" class="edge">
<title>Node2&#45;&gt;Node6</title>
<path fill="none" stroke="midnightblue" d="M388.35,-125.05C421.43,-115.98 479.72,-100.01 519.09,-89.21"/>
<polygon fill="midnightblue" stroke="midnightblue" points="520.19,-92.54 528.91,-86.52 518.34,-85.79 520.19,-92.54"/>
</g>
<!-- Node11 -->
<g id="node11" class="node">
<title>Node11</title>
<g id="a_node11"><a xlink:href="calib_8h.html" target="_top" xlink:title=" ">
<polygon fill="none" stroke="black" points="138,-67.5 138,-86.5 182,-86.5 182,-67.5 138,-67.5"/>
<text text-anchor="middle" x="160" y="-74.5" font-family="Helvetica,sans-Serif" font-size="10.00">calib.h</text>
</a>
</g>
</g>
<!-- Node2&#45;&gt;Node11 -->
<g id="edge11" class="edge">
<title>Node2&#45;&gt;Node11</title>
<path fill="none" stroke="midnightblue" d="M337.7,-125.27C300.84,-115.46 232.38,-97.25 192.05,-86.52"/>
<polygon fill="midnightblue" stroke="midnightblue" points="192.75,-83.09 182.19,-83.9 190.95,-89.86 192.75,-83.09"/>
</g>
<!-- Node6&#45;&gt;Node5 -->
<g id="edge10" class="edge">
<title>Node6&#45;&gt;Node5</title>
<path fill="none" stroke="midnightblue" d="M533.72,-67.45C506.65,-58.58 463.25,-44.18 426,-31 423.76,-30.21 421.45,-29.38 419.13,-28.54"/>
<polygon fill="midnightblue" stroke="midnightblue" points="420.23,-25.22 409.64,-25.06 417.82,-31.79 420.23,-25.22"/>
</g>
<!-- Node7 -->
<g id="node7" class="node">
<title>Node7</title>
<g id="a_node7"><a xlink:title=" ">
<polygon fill="none" stroke="#bfbfbf" points="435,-6 435,-25 541,-25 541,-6 435,-6"/>
<text text-anchor="middle" x="488" y="-13" font-family="Helvetica,sans-Serif" font-size="10.00">opencv2/opencv.hpp</text>
</a>
</g>
</g>
<!-- Node6&#45;&gt;Node7 -->
<g id="edge6" class="edge">
<title>Node6&#45;&gt;Node7</title>
<path fill="none" stroke="midnightblue" d="M549.68,-67.48C538.35,-58.11 519.93,-42.88 506.16,-31.51"/>
<polygon fill="midnightblue" stroke="midnightblue" points="508.23,-28.68 498.3,-25.01 503.78,-34.08 508.23,-28.68"/>
</g>
<!-- Node6&#45;&gt;Node8 -->
<g id="edge7" class="edge">
<title>Node6&#45;&gt;Node8</title>
<path fill="none" stroke="midnightblue" d="M601.13,-70.82C660.71,-63.19 774.78,-48.14 882.31,-31.07"/>
<polygon fill="midnightblue" stroke="midnightblue" points="883.03,-34.5 892.36,-29.47 881.93,-27.59 883.03,-34.5"/>
</g>
<!-- Node9 -->
<g id="node9" class="node">
<title>Node9</title>
<g id="a_node9"><a xlink:title=" ">
<polygon fill="none" stroke="#bfbfbf" points="558.5,-6 558.5,-25 707.5,-25 707.5,-6 558.5,-6"/>
<text text-anchor="middle" x="633" y="-13" font-family="Helvetica,sans-Serif" font-size="10.00">networktables/NetworkTable.h</text>
</a>
</g>
</g>
<!-- Node6&#45;&gt;Node9 -->
<g id="edge8" class="edge">
<title>Node6&#45;&gt;Node9</title>
<path fill="none" stroke="midnightblue" d="M570.46,-67.48C581.95,-58.11 600.63,-42.88 614.59,-31.51"/>
<polygon fill="midnightblue" stroke="midnightblue" points="617.02,-34.04 622.56,-25.01 612.6,-28.61 617.02,-34.04"/>
</g>
<!-- Node10 -->
<g id="node10" class="node">
<title>Node10</title>
<g id="a_node10"><a xlink:title=" ">
<polygon fill="none" stroke="#bfbfbf" points="725.5,-6 725.5,-25 874.5,-25 874.5,-6 725.5,-6"/>
<text text-anchor="middle" x="800" y="-13" font-family="Helvetica,sans-Serif" font-size="10.00">cameraserver/CameraServer.h</text>
</a>
</g>
</g>
<!-- Node6&#45;&gt;Node10 -->
<g id="edge9" class="edge">
<title>Node6&#45;&gt;Node10</title>
<path fill="none" stroke="midnightblue" d="M594.39,-67.48C636.89,-56.94 709.3,-38.99 755.87,-27.44"/>
<polygon fill="midnightblue" stroke="midnightblue" points="756.81,-30.81 765.68,-25.01 755.13,-24.02 756.81,-30.81"/>
</g>
<!-- Node11&#45;&gt;Node3 -->
<g id="edge12" class="edge">
<title>Node11&#45;&gt;Node3</title>
<path fill="none" stroke="midnightblue" d="M138.98,-67.45C117.33,-58.57 82.65,-44.16 53,-31 51.81,-30.47 50.59,-29.93 49.37,-29.37"/>
<polygon fill="midnightblue" stroke="midnightblue" points="50.52,-26.05 39.98,-25.05 47.6,-32.41 50.52,-26.05"/>
</g>
<!-- Node12 -->
<g id="node12" class="node">
<title>Node12</title>
<g id="a_node12"><a xlink:title=" ">
<polygon fill="none" stroke="#bfbfbf" points="62,-6 62,-25 100,-25 100,-6 62,-6"/>
<text text-anchor="middle" x="81" y="-13" font-family="Helvetica,sans-Serif" font-size="10.00">array</text>
</a>
</g>
</g>
<!-- Node11&#45;&gt;Node12 -->
<g id="edge13" class="edge">
<title>Node11&#45;&gt;Node12</title>
<path fill="none" stroke="midnightblue" d="M148.68,-67.48C136.13,-58.02 115.65,-42.6 100.5,-31.19"/>
<polygon fill="midnightblue" stroke="midnightblue" points="102.39,-28.23 92.3,-25.01 98.18,-33.82 102.39,-28.23"/>
</g>
<!-- Node13 -->
<g id="node13" class="node">
<title>Node13</title>
<g id="a_node13"><a xlink:title=" ">
<polygon fill="none" stroke="#bfbfbf" points="118.5,-6 118.5,-25 201.5,-25 201.5,-6 118.5,-6"/>
<text text-anchor="middle" x="160" y="-13" font-family="Helvetica,sans-Serif" font-size="10.00">unordered_map</text>
</a>
</g>
</g>
<!-- Node11&#45;&gt;Node13 -->
<g id="edge14" class="edge">
<title>Node11&#45;&gt;Node13</title>
<path fill="none" stroke="midnightblue" d="M160,-67.48C160,-59.08 160,-45.98 160,-35.16"/>
<polygon fill="midnightblue" stroke="midnightblue" points="163.5,-35.01 160,-25.01 156.5,-35.01 163.5,-35.01"/>
</g>
<!-- Node14 -->
<g id="node14" class="node">
<title>Node14</title>
<g id="a_node14"><a xlink:title=" ">
<polygon fill="none" stroke="#bfbfbf" points="219.5,-6 219.5,-25 338.5,-25 338.5,-6 219.5,-6"/>
<text text-anchor="middle" x="279" y="-13" font-family="Helvetica,sans-Serif" font-size="10.00">opencv2/core/types.hpp</text>
</a>
</g>
</g>
<!-- Node11&#45;&gt;Node14 -->
<g id="edge15" class="edge">
<title>Node11&#45;&gt;Node14</title>
<path fill="none" stroke="midnightblue" d="M177.05,-67.48C196.84,-57.58 229.72,-41.14 252.77,-29.62"/>
<polygon fill="midnightblue" stroke="midnightblue" points="254.6,-32.61 261.98,-25.01 251.47,-26.35 254.6,-32.61"/>
</g>
</g>
</svg>
