<?xml version="1.0" encoding="UTF-8" standalone="no"?>
<!DOCTYPE svg PUBLIC "-//W3C//DTD SVG 1.1//EN"
 "http://www.w3.org/Graphics/SVG/1.1/DTD/svg11.dtd">
<!-- Generated by graphviz version 2.49.3 (20211027.1534)
 -->
<!-- Title: lib&#45;vs/src/core/config.cpp Pages: 1 -->
<svg width="1418pt" height="207pt"
 viewBox="0.00 0.00 1417.50 207.00" xmlns="http://www.w3.org/2000/svg" xmlns:xlink="http://www.w3.org/1999/xlink">
<g id="graph0" class="graph" transform="scale(1 1) rotate(0) translate(4 203)">
<title>lib&#45;vs/src/core/config.cpp</title>
<!-- Node1 -->
<g id="node1" class="node">
<title>Node1</title>
<g id="a_node1"><a xlink:title=" ">
<polygon fill="#bfbfbf" stroke="black" points="984,-179.5 984,-198.5 1109,-198.5 1109,-179.5 984,-179.5"/>
<text text-anchor="middle" x="1046.5" y="-186.5" font-family="Helvetica,sans-Serif" font-size="10.00">lib&#45;vs/src/core/config.cpp</text>
</a>
</g>
</g>
<!-- Node2 -->
<g id="node2" class="node">
<title>Node2</title>
<g id="a_node2"><a xlink:href="config_8h.html" target="_top" xlink:title=" ">
<polygon fill="none" stroke="black" points="370.5,-123.5 370.5,-142.5 420.5,-142.5 420.5,-123.5 370.5,-123.5"/>
<text text-anchor="middle" x="395.5" y="-130.5" font-family="Helvetica,sans-Serif" font-size="10.00">config.h</text>
</a>
</g>
</g>
<!-- Node1&#45;&gt;Node2 -->
<g id="edge1" class="edge">
<title>Node1&#45;&gt;Node2</title>
<path fill="none" stroke="midnightblue" d="M983.78,-182.8C849.15,-171.63 536.14,-145.67 430.81,-136.93"/>
<polygon fill="midnightblue" stroke="midnightblue" points="430.96,-133.43 420.71,-136.09 430.38,-140.41 430.96,-133.43"/>
</g>
<!-- Node8 -->
<g id="node8" class="node">
<title>Node8</title>
<g id="a_node8"><a xlink:title=" ">
<polygon fill="none" stroke="#bfbfbf" points="952,-0.5 952,-30.5 1093,-30.5 1093,-0.5 952,-0.5"/>
<text text-anchor="start" x="960" y="-18.5" font-family="Helvetica,sans-Serif" font-size="10.00">networktables/NetworkTable</text>
<text text-anchor="middle" x="1022.5" y="-7.5" font-family="Helvetica,sans-Serif" font-size="10.00">Instance.h</text>
</a>
</g>
</g>
<!-- Node1&#45;&gt;Node8 -->
<g id="edge20" class="edge">
<title>Node1&#45;&gt;Node8</title>
<path fill="none" stroke="midnightblue" d="M988.72,-179.45C967.06,-173.12 944.55,-162.12 931.5,-143 905.42,-104.79 954.79,-61.18 990.44,-36.44"/>
<polygon fill="midnightblue" stroke="midnightblue" points="992.82,-39.06 999.16,-30.57 988.91,-33.25 992.82,-39.06"/>
</g>
<!-- Node15 -->
<g id="node15" class="node">
<title>Node15</title>
<g id="a_node15"><a xlink:title=" ">
<polygon fill="none" stroke="#bfbfbf" points="940.5,-123.5 940.5,-142.5 1038.5,-142.5 1038.5,-123.5 940.5,-123.5"/>
<text text-anchor="middle" x="989.5" y="-130.5" font-family="Helvetica,sans-Serif" font-size="10.00">wpi/raw_ostream.h</text>
</a>
</g>
</g>
<!-- Node1&#45;&gt;Node15 -->
<g id="edge17" class="edge">
<title>Node1&#45;&gt;Node15</title>
<path fill="none" stroke="midnightblue" d="M1037.34,-179.32C1029,-171.42 1016.47,-159.55 1006.32,-149.94"/>
<polygon fill="midnightblue" stroke="midnightblue" points="1008.49,-147.17 998.82,-142.83 1003.68,-152.25 1008.49,-147.17"/>
</g>
<!-- Node16 -->
<g id="node16" class="node">
<title>Node16</title>
<g id="a_node16"><a xlink:title=" ">
<polygon fill="none" stroke="#bfbfbf" points="1057,-123.5 1057,-142.5 1152,-142.5 1152,-123.5 1057,-123.5"/>
<text text-anchor="middle" x="1104.5" y="-130.5" font-family="Helvetica,sans-Serif" font-size="10.00">wpi/raw_istream.h</text>
</a>
</g>
</g>
<!-- Node1&#45;&gt;Node16 -->
<g id="edge18" class="edge">
<title>Node1&#45;&gt;Node16</title>
<path fill="none" stroke="midnightblue" d="M1055.82,-179.32C1064.39,-171.34 1077.31,-159.31 1087.69,-149.65"/>
<polygon fill="midnightblue" stroke="midnightblue" points="1090.08,-152.21 1095.01,-142.83 1085.31,-147.09 1090.08,-152.21"/>
</g>
<!-- Node17 -->
<g id="node17" class="node">
<title>Node17</title>
<g id="a_node17"><a xlink:title=" ">
<polygon fill="none" stroke="#bfbfbf" points="1170,-123.5 1170,-142.5 1265,-142.5 1265,-123.5 1170,-123.5"/>
<text text-anchor="middle" x="1217.5" y="-130.5" font-family="Helvetica,sans-Serif" font-size="10.00">wpi/StringExtras.h</text>
</a>
</g>
</g>
<!-- Node1&#45;&gt;Node17 -->
<g id="edge19" class="edge">
<title>Node1&#45;&gt;Node17</title>
<path fill="none" stroke="midnightblue" d="M1073.6,-179.44C1102.49,-170.32 1148.42,-155.81 1180.61,-145.65"/>
<polygon fill="midnightblue" stroke="midnightblue" points="1182.05,-148.87 1190.53,-142.52 1179.94,-142.19 1182.05,-148.87"/>
</g>
<!-- Node18 -->
<g id="node18" class="node">
<title>Node18</title>
<g id="a_node18"><a xlink:title=" ">
<polygon fill="none" stroke="#bfbfbf" points="1283.5,-123.5 1283.5,-142.5 1409.5,-142.5 1409.5,-123.5 1283.5,-123.5"/>
<text text-anchor="middle" x="1346.5" y="-130.5" font-family="Helvetica,sans-Serif" font-size="10.00">cpp&#45;tools/src/resources.h</text>
</a>
</g>
</g>
<!-- Node1&#45;&gt;Node18 -->
<g id="edge21" class="edge">
<title>Node1&#45;&gt;Node18</title>
<path fill="none" stroke="midnightblue" d="M1094.04,-179.44C1147.03,-169.9 1232.7,-154.48 1289.32,-144.29"/>
<polygon fill="midnightblue" stroke="midnightblue" points="1289.96,-147.73 1299.19,-142.52 1288.72,-140.84 1289.96,-147.73"/>
</g>
<!-- Node3 -->
<g id="node3" class="node">
<title>Node3</title>
<g id="a_node3"><a xlink:title=" ">
<polygon fill="none" stroke="#bfbfbf" points="354.5,-6 354.5,-25 398.5,-25 398.5,-6 354.5,-6"/>
<text text-anchor="middle" x="376.5" y="-13" font-family="Helvetica,sans-Serif" font-size="10.00">vector</text>
</a>
</g>
</g>
<!-- Node2&#45;&gt;Node3 -->
<g id="edge2" class="edge">
<title>Node2&#45;&gt;Node3</title>
<path fill="none" stroke="midnightblue" d="M394.07,-123.32C391.02,-104.76 383.79,-60.84 379.62,-35.47"/>
<polygon fill="midnightblue" stroke="midnightblue" points="383.02,-34.58 377.94,-25.28 376.11,-35.72 383.02,-34.58"/>
</g>
<!-- Node4 -->
<g id="node4" class="node">
<title>Node4</title>
<g id="a_node4"><a xlink:title=" ">
<polygon fill="none" stroke="#bfbfbf" points="0,-6 0,-25 41,-25 41,-6 0,-6"/>
<text text-anchor="middle" x="20.5" y="-13" font-family="Helvetica,sans-Serif" font-size="10.00">string</text>
</a>
</g>
</g>
<!-- Node2&#45;&gt;Node4 -->
<g id="edge3" class="edge">
<title>Node2&#45;&gt;Node4</title>
<path fill="none" stroke="midnightblue" d="M370.43,-127.65C332.09,-120.7 256.76,-105.96 194.5,-87 128.81,-67 113.46,-58.41 50.5,-31 49.31,-30.48 48.09,-29.94 46.87,-29.39"/>
<polygon fill="midnightblue" stroke="midnightblue" points="48.07,-26.08 37.53,-25.02 45.1,-32.42 48.07,-26.08"/>
</g>
<!-- Node5 -->
<g id="node5" class="node">
<title>Node5</title>
<g id="a_node5"><a xlink:title=" ">
<polygon fill="none" stroke="#bfbfbf" points="416.5,-6 416.5,-25 476.5,-25 476.5,-6 416.5,-6"/>
<text text-anchor="middle" x="446.5" y="-13" font-family="Helvetica,sans-Serif" font-size="10.00">wpi/json.h</text>
</a>
</g>
</g>
<!-- Node2&#45;&gt;Node5 -->
<g id="edge4" class="edge">
<title>Node2&#45;&gt;Node5</title>
<path fill="none" stroke="midnightblue" d="M399.33,-123.32C407.64,-104.51 427.45,-59.65 438.57,-34.46"/>
<polygon fill="midnightblue" stroke="midnightblue" points="441.78,-35.84 442.62,-25.28 435.38,-33.02 441.78,-35.84"/>
</g>
<!-- Node6 -->
<g id="node6" class="node">
<title>Node6</title>
<g id="a_node6"><a xlink:href="visioncamera_8h.html" target="_top" xlink:title=" ">
<polygon fill="none" stroke="black" points="610.5,-67.5 610.5,-86.5 692.5,-86.5 692.5,-67.5 610.5,-67.5"/>
<text text-anchor="middle" x="651.5" y="-74.5" font-family="Helvetica,sans-Serif" font-size="10.00">visioncamera.h</text>
</a>
</g>
</g>
<!-- Node2&#45;&gt;Node6 -->
<g id="edge5" class="edge">
<title>Node2&#45;&gt;Node6</title>
<path fill="none" stroke="midnightblue" d="M420.51,-126.72C462.2,-117.93 546.69,-100.11 601.11,-88.63"/>
<polygon fill="midnightblue" stroke="midnightblue" points="601.84,-92.05 610.9,-86.56 600.39,-85.2 601.84,-92.05"/>
</g>
<!-- Node11 -->
<g id="node11" class="node">
<title>Node11</title>
<g id="a_node11"><a xlink:href="calib_8h.html" target="_top" xlink:title=" ">
<polygon fill="none" stroke="black" points="203.5,-67.5 203.5,-86.5 247.5,-86.5 247.5,-67.5 203.5,-67.5"/>
<text text-anchor="middle" x="225.5" y="-74.5" font-family="Helvetica,sans-Serif" font-size="10.00">calib.h</text>
</a>
</g>
</g>
<!-- Node2&#45;&gt;Node11 -->
<g id="edge11" class="edge">
<title>Node2&#45;&gt;Node11</title>
<path fill="none" stroke="midnightblue" d="M370.42,-124.03C340.37,-114.49 289.99,-98.49 257.26,-88.09"/>
<polygon fill="midnightblue" stroke="midnightblue" points="258.3,-84.75 247.71,-85.05 256.18,-91.42 258.3,-84.75"/>
</g>
<!-- Node6&#45;&gt;Node5 -->
<g id="edge10" class="edge">
<title>Node6&#45;&gt;Node5</title>
<path fill="none" stroke="midnightblue" d="M615.68,-67.47C581.66,-59.1 529.2,-45.51 484.5,-31 482.09,-30.22 479.61,-29.37 477.13,-28.49"/>
<polygon fill="midnightblue" stroke="midnightblue" points="478.26,-25.18 467.67,-25.01 475.85,-31.75 478.26,-25.18"/>
</g>
<!-- Node7 -->
<g id="node7" class="node">
<title>Node7</title>
<g id="a_node7"><a xlink:title=" ">
<polygon fill="none" stroke="#bfbfbf" points="827.5,-6 827.5,-25 933.5,-25 933.5,-6 827.5,-6"/>
<text text-anchor="middle" x="880.5" y="-13" font-family="Helvetica,sans-Serif" font-size="10.00">opencv2/opencv.hpp</text>
</a>
</g>
</g>
<!-- Node6&#45;&gt;Node7 -->
<g id="edge6" class="edge">
<title>Node6&#45;&gt;Node7</title>
<path fill="none" stroke="midnightblue" d="M684.31,-67.48C724.7,-56.98 793.38,-39.14 837.83,-27.59"/>
<polygon fill="midnightblue" stroke="midnightblue" points="838.95,-30.91 847.75,-25.01 837.19,-24.14 838.95,-30.91"/>
</g>
<!-- Node6&#45;&gt;Node8 -->
<g id="edge7" class="edge">
<title>Node6&#45;&gt;Node8</title>
<path fill="none" stroke="midnightblue" d="M692.52,-70C746.98,-61.96 846.42,-47.01 941.74,-31.1"/>
<polygon fill="midnightblue" stroke="midnightblue" points="942.56,-34.51 951.85,-29.41 941.41,-27.61 942.56,-34.51"/>
</g>
<!-- Node9 -->
<g id="node9" class="node">
<title>Node9</title>
<g id="a_node9"><a xlink:title=" ">
<polygon fill="none" stroke="#bfbfbf" points="494,-6 494,-25 643,-25 643,-6 494,-6"/>
<text text-anchor="middle" x="568.5" y="-13" font-family="Helvetica,sans-Serif" font-size="10.00">networktables/NetworkTable.h</text>
</a>
</g>
</g>
<!-- Node6&#45;&gt;Node9 -->
<g id="edge8" class="edge">
<title>Node6&#45;&gt;Node9</title>
<path fill="none" stroke="midnightblue" d="M639.61,-67.48C626.3,-57.93 604.5,-42.31 588.54,-30.87"/>
<polygon fill="midnightblue" stroke="midnightblue" points="590.54,-27.99 580.37,-25.01 586.46,-33.68 590.54,-27.99"/>
</g>
<!-- Node10 -->
<g id="node10" class="node">
<title>Node10</title>
<g id="a_node10"><a xlink:title=" ">
<polygon fill="none" stroke="#bfbfbf" points="661,-6 661,-25 810,-25 810,-6 661,-6"/>
<text text-anchor="middle" x="735.5" y="-13" font-family="Helvetica,sans-Serif" font-size="10.00">cameraserver/CameraServer.h</text>
</a>
</g>
</g>
<!-- Node6&#45;&gt;Node10 -->
<g id="edge9" class="edge">
<title>Node6&#45;&gt;Node10</title>
<path fill="none" stroke="midnightblue" d="M663.54,-67.48C677.01,-57.93 699.07,-42.31 715.22,-30.87"/>
<polygon fill="midnightblue" stroke="midnightblue" points="717.35,-33.65 723.49,-25.01 713.3,-27.93 717.35,-33.65"/>
</g>
<!-- Node11&#45;&gt;Node3 -->
<g id="edge12" class="edge">
<title>Node11&#45;&gt;Node3</title>
<path fill="none" stroke="midnightblue" d="M247.6,-68.12C271.62,-59.45 311.04,-44.89 344.5,-31 345.87,-30.43 347.27,-29.84 348.69,-29.23"/>
<polygon fill="midnightblue" stroke="midnightblue" points="350.24,-32.37 357.97,-25.14 347.41,-25.97 350.24,-32.37"/>
</g>
<!-- Node11&#45;&gt;Node4 -->
<g id="edge14" class="edge">
<title>Node11&#45;&gt;Node4</title>
<path fill="none" stroke="midnightblue" d="M203.25,-71.76C169.58,-65.01 103.97,-50.57 50.5,-31 49.07,-30.48 47.63,-29.91 46.17,-29.31"/>
<polygon fill="midnightblue" stroke="midnightblue" points="47.31,-25.98 36.75,-25.08 44.44,-32.37 47.31,-25.98"/>
</g>
<!-- Node12 -->
<g id="node12" class="node">
<title>Node12</title>
<g id="a_node12"><a xlink:title=" ">
<polygon fill="none" stroke="#bfbfbf" points="59.5,-6 59.5,-25 97.5,-25 97.5,-6 59.5,-6"/>
<text text-anchor="middle" x="78.5" y="-13" font-family="Helvetica,sans-Serif" font-size="10.00">array</text>
</a>
</g>
</g>
<!-- Node11&#45;&gt;Node12 -->
<g id="edge13" class="edge">
<title>Node11&#45;&gt;Node12</title>
<path fill="none" stroke="midnightblue" d="M203.26,-68.46C179.11,-60.08 139.58,-45.76 106.5,-31 105.5,-30.55 104.49,-30.09 103.46,-29.61"/>
<polygon fill="midnightblue" stroke="midnightblue" points="104.85,-26.39 94.33,-25.11 101.75,-32.67 104.85,-26.39"/>
</g>
<!-- Node13 -->
<g id="node13" class="node">
<title>Node13</title>
<g id="a_node13"><a xlink:title=" ">
<polygon fill="none" stroke="#bfbfbf" points="116,-6 116,-25 199,-25 199,-6 116,-6"/>
<text text-anchor="middle" x="157.5" y="-13" font-family="Helvetica,sans-Serif" font-size="10.00">unordered_map</text>
</a>
</g>
</g>
<!-- Node11&#45;&gt;Node13 -->
<g id="edge15" class="edge">
<title>Node11&#45;&gt;Node13</title>
<path fill="none" stroke="midnightblue" d="M215.76,-67.48C205.15,-58.2 187.98,-43.17 175.02,-31.83"/>
<polygon fill="midnightblue" stroke="midnightblue" points="177.06,-28.96 167.22,-25.01 172.45,-34.23 177.06,-28.96"/>
</g>
<!-- Node14 -->
<g id="node14" class="node">
<title>Node14</title>
<g id="a_node14"><a xlink:title=" ">
<polygon fill="none" stroke="#bfbfbf" points="217,-6 217,-25 336,-25 336,-6 217,-6"/>
<text text-anchor="middle" x="276.5" y="-13" font-family="Helvetica,sans-Serif" font-size="10.00">opencv2/core/types.hpp</text>
</a>
</g>
</g>
<!-- Node11&#45;&gt;Node14 -->
<g id="edge16" class="edge">
<title>Node11&#45;&gt;Node14</title>
<path fill="none" stroke="midnightblue" d="M232.81,-67.48C240.53,-58.46 252.91,-44.02 262.52,-32.81"/>
<polygon fill="midnightblue" stroke="midnightblue" points="265.36,-34.88 269.21,-25.01 260.04,-30.32 265.36,-34.88"/>
</g>
</g>
</svg>
