<?xml version="1.0" encoding="UTF-8" standalone="no"?>
<!DOCTYPE svg PUBLIC "-//W3C//DTD SVG 1.1//EN"
 "http://www.w3.org/Graphics/SVG/1.1/DTD/svg11.dtd">
<!-- Generated by graphviz version 2.49.3 (20211027.1534)
 -->
<!-- Title: lib&#45;vs/src/core/config.h Pages: 1 -->
<svg width="1102pt" height="151pt"
 viewBox="0.00 0.00 1101.50 151.00" xmlns="http://www.w3.org/2000/svg" xmlns:xlink="http://www.w3.org/1999/xlink">
<g id="graph0" class="graph" transform="scale(1 1) rotate(0) translate(4 147)">
<title>lib&#45;vs/src/core/config.h</title>
<!-- Node1 -->
<g id="node1" class="node">
<title>Node1</title>
<g id="a_node1"><a xlink:title=" ">
<polygon fill="#bfbfbf" stroke="black" points="84,-123.5 84,-142.5 198,-142.5 198,-123.5 84,-123.5"/>
<text text-anchor="middle" x="141" y="-130.5" font-family="Helvetica,sans-Serif" font-size="10.00">lib&#45;vs/src/core/config.h</text>
</a>
</g>
</g>
<!-- Node2 -->
<g id="node2" class="node">
<title>Node2</title>
<g id="a_node2"><a xlink:title=" ">
<polygon fill="none" stroke="#bfbfbf" points="0,-6 0,-25 44,-25 44,-6 0,-6"/>
<text text-anchor="middle" x="22" y="-13" font-family="Helvetica,sans-Serif" font-size="10.00">vector</text>
</a>
</g>
</g>
<!-- Node1&#45;&gt;Node2 -->
<g id="edge1" class="edge">
<title>Node1&#45;&gt;Node2</title>
<path fill="none" stroke="midnightblue" d="M132.06,-123.32C112.16,-104 63.97,-57.24 38.47,-32.48"/>
<polygon fill="midnightblue" stroke="midnightblue" points="40.66,-29.74 31.05,-25.28 35.79,-34.76 40.66,-29.74"/>
</g>
<!-- Node3 -->
<g id="node3" class="node">
<title>Node3</title>
<g id="a_node3"><a xlink:title=" ">
<polygon fill="none" stroke="#bfbfbf" points="62.5,-6 62.5,-25 103.5,-25 103.5,-6 62.5,-6"/>
<text text-anchor="middle" x="83" y="-13" font-family="Helvetica,sans-Serif" font-size="10.00">string</text>
</a>
</g>
</g>
<!-- Node1&#45;&gt;Node3 -->
<g id="edge2" class="edge">
<title>Node1&#45;&gt;Node3</title>
<path fill="none" stroke="midnightblue" d="M134.17,-123.43C127.41,-114.65 117.07,-100.43 110,-87 101.05,-69.99 93.49,-49.34 88.67,-34.8"/>
<polygon fill="midnightblue" stroke="midnightblue" points="91.93,-33.48 85.54,-25.03 85.26,-35.62 91.93,-33.48"/>
</g>
<!-- Node4 -->
<g id="node4" class="node">
<title>Node4</title>
<g id="a_node4"><a xlink:title=" ">
<polygon fill="none" stroke="#bfbfbf" points="417,-6 417,-25 477,-25 477,-6 417,-6"/>
<text text-anchor="middle" x="447" y="-13" font-family="Helvetica,sans-Serif" font-size="10.00">wpi/json.h</text>
</a>
</g>
</g>
<!-- Node1&#45;&gt;Node4 -->
<g id="edge3" class="edge">
<title>Node1&#45;&gt;Node4</title>
<path fill="none" stroke="midnightblue" d="M164,-123.32C217.85,-102.99 352.25,-52.26 414.46,-28.78"/>
<polygon fill="midnightblue" stroke="midnightblue" points="416.03,-31.93 424.15,-25.12 413.56,-25.38 416.03,-31.93"/>
</g>
<!-- Node5 -->
<g id="node5" class="node">
<title>Node5</title>
<g id="a_node5"><a xlink:href="visioncamera_8h.html" target="_top" xlink:title=" ">
<polygon fill="none" stroke="black" points="611,-67.5 611,-86.5 693,-86.5 693,-67.5 611,-67.5"/>
<text text-anchor="middle" x="652" y="-74.5" font-family="Helvetica,sans-Serif" font-size="10.00">visioncamera.h</text>
</a>
</g>
</g>
<!-- Node1&#45;&gt;Node5 -->
<g id="edge4" class="edge">
<title>Node1&#45;&gt;Node5</title>
<path fill="none" stroke="midnightblue" d="M198.13,-125.96C298.52,-115.35 504.99,-93.53 600.93,-83.4"/>
<polygon fill="midnightblue" stroke="midnightblue" points="601.38,-86.87 610.96,-82.34 600.65,-79.91 601.38,-86.87"/>
</g>
<!-- Node10 -->
<g id="node10" class="node">
<title>Node10</title>
<g id="a_node10"><a xlink:href="calib_8h.html" target="_top" xlink:title=" ">
<polygon fill="none" stroke="black" points="119,-67.5 119,-86.5 163,-86.5 163,-67.5 119,-67.5"/>
<text text-anchor="middle" x="141" y="-74.5" font-family="Helvetica,sans-Serif" font-size="10.00">calib.h</text>
</a>
</g>
</g>
<!-- Node1&#45;&gt;Node10 -->
<g id="edge10" class="edge">
<title>Node1&#45;&gt;Node10</title>
<path fill="none" stroke="midnightblue" d="M141,-123.08C141,-116.01 141,-105.86 141,-96.99"/>
<polygon fill="midnightblue" stroke="midnightblue" points="144.5,-96.75 141,-86.75 137.5,-96.75 144.5,-96.75"/>
</g>
<!-- Node5&#45;&gt;Node4 -->
<g id="edge9" class="edge">
<title>Node5&#45;&gt;Node4</title>
<path fill="none" stroke="midnightblue" d="M616.18,-67.47C582.16,-59.1 529.7,-45.51 485,-31 482.59,-30.22 480.11,-29.37 477.63,-28.49"/>
<polygon fill="midnightblue" stroke="midnightblue" points="478.76,-25.18 468.17,-25.01 476.35,-31.75 478.76,-25.18"/>
</g>
<!-- Node6 -->
<g id="node6" class="node">
<title>Node6</title>
<g id="a_node6"><a xlink:title=" ">
<polygon fill="none" stroke="#bfbfbf" points="828,-6 828,-25 934,-25 934,-6 828,-6"/>
<text text-anchor="middle" x="881" y="-13" font-family="Helvetica,sans-Serif" font-size="10.00">opencv2/opencv.hpp</text>
</a>
</g>
</g>
<!-- Node5&#45;&gt;Node6 -->
<g id="edge5" class="edge">
<title>Node5&#45;&gt;Node6</title>
<path fill="none" stroke="midnightblue" d="M684.81,-67.48C725.2,-56.98 793.88,-39.14 838.33,-27.59"/>
<polygon fill="midnightblue" stroke="midnightblue" points="839.45,-30.91 848.25,-25.01 837.69,-24.14 839.45,-30.91"/>
</g>
<!-- Node7 -->
<g id="node7" class="node">
<title>Node7</title>
<g id="a_node7"><a xlink:title=" ">
<polygon fill="none" stroke="#bfbfbf" points="952.5,-0.5 952.5,-30.5 1093.5,-30.5 1093.5,-0.5 952.5,-0.5"/>
<text text-anchor="start" x="960.5" y="-18.5" font-family="Helvetica,sans-Serif" font-size="10.00">networktables/NetworkTable</text>
<text text-anchor="middle" x="1023" y="-7.5" font-family="Helvetica,sans-Serif" font-size="10.00">Instance.h</text>
</a>
</g>
</g>
<!-- Node5&#45;&gt;Node7 -->
<g id="edge6" class="edge">
<title>Node5&#45;&gt;Node7</title>
<path fill="none" stroke="midnightblue" d="M693.02,-70C747.48,-61.96 846.92,-47.01 942.24,-31.1"/>
<polygon fill="midnightblue" stroke="midnightblue" points="943.06,-34.51 952.35,-29.41 941.91,-27.61 943.06,-34.51"/>
</g>
<!-- Node8 -->
<g id="node8" class="node">
<title>Node8</title>
<g id="a_node8"><a xlink:title=" ">
<polygon fill="none" stroke="#bfbfbf" points="494.5,-6 494.5,-25 643.5,-25 643.5,-6 494.5,-6"/>
<text text-anchor="middle" x="569" y="-13" font-family="Helvetica,sans-Serif" font-size="10.00">networktables/NetworkTable.h</text>
</a>
</g>
</g>
<!-- Node5&#45;&gt;Node8 -->
<g id="edge7" class="edge">
<title>Node5&#45;&gt;Node8</title>
<path fill="none" stroke="midnightblue" d="M640.11,-67.48C626.8,-57.93 605,-42.31 589.04,-30.87"/>
<polygon fill="midnightblue" stroke="midnightblue" points="591.04,-27.99 580.87,-25.01 586.96,-33.68 591.04,-27.99"/>
</g>
<!-- Node9 -->
<g id="node9" class="node">
<title>Node9</title>
<g id="a_node9"><a xlink:title=" ">
<polygon fill="none" stroke="#bfbfbf" points="661.5,-6 661.5,-25 810.5,-25 810.5,-6 661.5,-6"/>
<text text-anchor="middle" x="736" y="-13" font-family="Helvetica,sans-Serif" font-size="10.00">cameraserver/CameraServer.h</text>
</a>
</g>
</g>
<!-- Node5&#45;&gt;Node9 -->
<g id="edge8" class="edge">
<title>Node5&#45;&gt;Node9</title>
<path fill="none" stroke="midnightblue" d="M664.04,-67.48C677.51,-57.93 699.57,-42.31 715.72,-30.87"/>
<polygon fill="midnightblue" stroke="midnightblue" points="717.85,-33.65 723.99,-25.01 713.8,-27.93 717.85,-33.65"/>
</g>
<!-- Node10&#45;&gt;Node2 -->
<g id="edge11" class="edge">
<title>Node10&#45;&gt;Node2</title>
<path fill="none" stroke="midnightblue" d="M123.95,-67.48C104.16,-57.58 71.28,-41.14 48.23,-29.62"/>
<polygon fill="midnightblue" stroke="midnightblue" points="49.53,-26.35 39.02,-25.01 46.4,-32.61 49.53,-26.35"/>
</g>
<!-- Node10&#45;&gt;Node3 -->
<g id="edge13" class="edge">
<title>Node10&#45;&gt;Node3</title>
<path fill="none" stroke="midnightblue" d="M132.69,-67.48C123.82,-58.37 109.55,-43.74 98.58,-32.48"/>
<polygon fill="midnightblue" stroke="midnightblue" points="100.78,-29.73 91.29,-25.01 95.77,-34.61 100.78,-29.73"/>
</g>
<!-- Node11 -->
<g id="node11" class="node">
<title>Node11</title>
<g id="a_node11"><a xlink:title=" ">
<polygon fill="none" stroke="#bfbfbf" points="122,-6 122,-25 160,-25 160,-6 122,-6"/>
<text text-anchor="middle" x="141" y="-13" font-family="Helvetica,sans-Serif" font-size="10.00">array</text>
</a>
</g>
</g>
<!-- Node10&#45;&gt;Node11 -->
<g id="edge12" class="edge">
<title>Node10&#45;&gt;Node11</title>
<path fill="none" stroke="midnightblue" d="M141,-67.48C141,-59.08 141,-45.98 141,-35.16"/>
<polygon fill="midnightblue" stroke="midnightblue" points="144.5,-35.01 141,-25.01 137.5,-35.01 144.5,-35.01"/>
</g>
<!-- Node12 -->
<g id="node12" class="node">
<title>Node12</title>
<g id="a_node12"><a xlink:title=" ">
<polygon fill="none" stroke="#bfbfbf" points="178.5,-6 178.5,-25 261.5,-25 261.5,-6 178.5,-6"/>
<text text-anchor="middle" x="220" y="-13" font-family="Helvetica,sans-Serif" font-size="10.00">unordered_map</text>
</a>
</g>
</g>
<!-- Node10&#45;&gt;Node12 -->
<g id="edge14" class="edge">
<title>Node10&#45;&gt;Node12</title>
<path fill="none" stroke="midnightblue" d="M152.32,-67.48C164.87,-58.02 185.35,-42.6 200.5,-31.19"/>
<polygon fill="midnightblue" stroke="midnightblue" points="202.82,-33.82 208.7,-25.01 198.61,-28.23 202.82,-33.82"/>
</g>
<!-- Node13 -->
<g id="node13" class="node">
<title>Node13</title>
<g id="a_node13"><a xlink:title=" ">
<polygon fill="none" stroke="#bfbfbf" points="279.5,-6 279.5,-25 398.5,-25 398.5,-6 279.5,-6"/>
<text text-anchor="middle" x="339" y="-13" font-family="Helvetica,sans-Serif" font-size="10.00">opencv2/core/types.hpp</text>
</a>
</g>
</g>
<!-- Node10&#45;&gt;Node13 -->
<g id="edge15" class="edge">
<title>Node10&#45;&gt;Node13</title>
<path fill="none" stroke="midnightblue" d="M163.33,-69.29C196.78,-59.24 260.31,-40.15 301.11,-27.89"/>
<polygon fill="midnightblue" stroke="midnightblue" points="302.14,-31.23 310.71,-25 300.12,-24.53 302.14,-31.23"/>
</g>
</g>
</svg>
