<?xml version="1.0" encoding="UTF-8" standalone="no"?>
<!DOCTYPE svg PUBLIC "-//W3C//DTD SVG 1.1//EN"
 "http://www.w3.org/Graphics/SVG/1.1/DTD/svg11.dtd">
<!-- Generated by graphviz version 2.49.3 (20211027.1534)
 -->
<!-- Title: lib&#45;vs/src/core/config.h Pages: 1 -->
<svg width="1042pt" height="151pt"
 viewBox="0.00 0.00 1041.50 151.00" xmlns="http://www.w3.org/2000/svg" xmlns:xlink="http://www.w3.org/1999/xlink">
<g id="graph0" class="graph" transform="scale(1 1) rotate(0) translate(4 147)">
<title>lib&#45;vs/src/core/config.h</title>
<!-- Node1 -->
<g id="node1" class="node">
<title>Node1</title>
<g id="a_node1"><a xlink:title=" ">
<polygon fill="#bfbfbf" stroke="black" points="338,-123.5 338,-142.5 452,-142.5 452,-123.5 338,-123.5"/>
<text text-anchor="middle" x="395" y="-130.5" font-family="Helvetica,sans-Serif" font-size="10.00">lib&#45;vs/src/core/config.h</text>
</a>
</g>
</g>
<!-- Node2 -->
<g id="node2" class="node">
<title>Node2</title>
<g id="a_node2"><a xlink:title=" ">
<polygon fill="none" stroke="#bfbfbf" points="695,-6 695,-25 739,-25 739,-6 695,-6"/>
<text text-anchor="middle" x="717" y="-13" font-family="Helvetica,sans-Serif" font-size="10.00">vector</text>
</a>
</g>
</g>
<!-- Node1&#45;&gt;Node2 -->
<g id="edge1" class="edge">
<title>Node1&#45;&gt;Node2</title>
<path fill="none" stroke="midnightblue" d="M422.63,-123.46C474.75,-107.13 590.87,-69.64 686,-31 687.38,-30.44 688.78,-29.85 690.19,-29.25"/>
<polygon fill="midnightblue" stroke="midnightblue" points="691.74,-32.39 699.43,-25.1 688.88,-26 691.74,-32.39"/>
</g>
<!-- Node3 -->
<g id="node3" class="node">
<title>Node3</title>
<g id="a_node3"><a xlink:title=" ">
<polygon fill="none" stroke="#bfbfbf" points="294.5,-67.5 294.5,-86.5 335.5,-86.5 335.5,-67.5 294.5,-67.5"/>
<text text-anchor="middle" x="315" y="-74.5" font-family="Helvetica,sans-Serif" font-size="10.00">string</text>
</a>
</g>
</g>
<!-- Node1&#45;&gt;Node3 -->
<g id="edge2" class="edge">
<title>Node1&#45;&gt;Node3</title>
<path fill="none" stroke="midnightblue" d="M382.15,-123.32C369.78,-114.98 350.87,-102.21 336.26,-92.35"/>
<polygon fill="midnightblue" stroke="midnightblue" points="338.07,-89.35 327.82,-86.65 334.15,-95.15 338.07,-89.35"/>
</g>
<!-- Node4 -->
<g id="node4" class="node">
<title>Node4</title>
<g id="a_node4"><a xlink:title=" ">
<polygon fill="none" stroke="#bfbfbf" points="0,-6 0,-25 60,-25 60,-6 0,-6"/>
<text text-anchor="middle" x="30" y="-13" font-family="Helvetica,sans-Serif" font-size="10.00">wpi/json.h</text>
</a>
</g>
</g>
<!-- Node1&#45;&gt;Node4 -->
<g id="edge3" class="edge">
<title>Node1&#45;&gt;Node4</title>
<path fill="none" stroke="midnightblue" d="M365.6,-123.49C308.25,-106.75 177.53,-67.96 69,-31 66.75,-30.23 64.43,-29.42 62.11,-28.6"/>
<polygon fill="midnightblue" stroke="midnightblue" points="63.2,-25.27 52.61,-25.15 60.81,-31.85 63.2,-25.27"/>
</g>
<!-- Node5 -->
<g id="node5" class="node">
<title>Node5</title>
<g id="a_node5"><a xlink:href="visioncamera_8h.html" target="_top" xlink:title=" ">
<polygon fill="none" stroke="black" points="354,-67.5 354,-86.5 436,-86.5 436,-67.5 354,-67.5"/>
<text text-anchor="middle" x="395" y="-74.5" font-family="Helvetica,sans-Serif" font-size="10.00">visioncamera.h</text>
</a>
</g>
</g>
<!-- Node1&#45;&gt;Node5 -->
<g id="edge4" class="edge">
<title>Node1&#45;&gt;Node5</title>
<path fill="none" stroke="midnightblue" d="M395,-123.08C395,-116.01 395,-105.86 395,-96.99"/>
<polygon fill="midnightblue" stroke="midnightblue" points="398.5,-96.75 395,-86.75 391.5,-96.75 398.5,-96.75"/>
</g>
<!-- Node10 -->
<g id="node10" class="node">
<title>Node10</title>
<g id="a_node10"><a xlink:href="calib_8h.html" target="_top" xlink:title=" ">
<polygon fill="none" stroke="black" points="754,-67.5 754,-86.5 798,-86.5 798,-67.5 754,-67.5"/>
<text text-anchor="middle" x="776" y="-74.5" font-family="Helvetica,sans-Serif" font-size="10.00">calib.h</text>
</a>
</g>
</g>
<!-- Node1&#45;&gt;Node10 -->
<g id="edge10" class="edge">
<title>Node1&#45;&gt;Node10</title>
<path fill="none" stroke="midnightblue" d="M452.04,-123.92C533.25,-112.41 679.5,-91.68 743.98,-82.54"/>
<polygon fill="midnightblue" stroke="midnightblue" points="744.55,-85.99 753.96,-81.12 743.57,-79.06 744.55,-85.99"/>
</g>
<!-- Node5&#45;&gt;Node4 -->
<g id="edge9" class="edge">
<title>Node5&#45;&gt;Node4</title>
<path fill="none" stroke="midnightblue" d="M353.83,-68.57C350.51,-68.02 347.2,-67.49 344,-67 222.16,-48.28 188.64,-60.67 69,-31 66.01,-30.26 62.94,-29.36 59.89,-28.38"/>
<polygon fill="midnightblue" stroke="midnightblue" points="60.97,-25.05 50.37,-25.06 58.66,-31.66 60.97,-25.05"/>
</g>
<!-- Node6 -->
<g id="node6" class="node">
<title>Node6</title>
<g id="a_node6"><a xlink:title=" ">
<polygon fill="none" stroke="#bfbfbf" points="571,-6 571,-25 677,-25 677,-6 571,-6"/>
<text text-anchor="middle" x="624" y="-13" font-family="Helvetica,sans-Serif" font-size="10.00">opencv2/opencv.hpp</text>
</a>
</g>
</g>
<!-- Node5&#45;&gt;Node6 -->
<g id="edge5" class="edge">
<title>Node5&#45;&gt;Node6</title>
<path fill="none" stroke="midnightblue" d="M427.81,-67.48C468.2,-56.98 536.88,-39.14 581.33,-27.59"/>
<polygon fill="midnightblue" stroke="midnightblue" points="582.45,-30.91 591.25,-25.01 580.69,-24.14 582.45,-30.91"/>
</g>
<!-- Node7 -->
<g id="node7" class="node">
<title>Node7</title>
<g id="a_node7"><a xlink:title=" ">
<polygon fill="none" stroke="#bfbfbf" points="78.5,-0.5 78.5,-30.5 219.5,-30.5 219.5,-0.5 78.5,-0.5"/>
<text text-anchor="start" x="86.5" y="-18.5" font-family="Helvetica,sans-Serif" font-size="10.00">networktables/NetworkTable</text>
<text text-anchor="middle" x="149" y="-7.5" font-family="Helvetica,sans-Serif" font-size="10.00">Instance.h</text>
</a>
</g>
</g>
<!-- Node5&#45;&gt;Node7 -->
<g id="edge6" class="edge">
<title>Node5&#45;&gt;Node7</title>
<path fill="none" stroke="midnightblue" d="M359.75,-67.48C322.62,-58.49 263.23,-44.13 216.94,-32.93"/>
<polygon fill="midnightblue" stroke="midnightblue" points="217.52,-29.47 206.98,-30.52 215.87,-36.28 217.52,-29.47"/>
</g>
<!-- Node8 -->
<g id="node8" class="node">
<title>Node8</title>
<g id="a_node8"><a xlink:title=" ">
<polygon fill="none" stroke="#bfbfbf" points="237.5,-6 237.5,-25 386.5,-25 386.5,-6 237.5,-6"/>
<text text-anchor="middle" x="312" y="-13" font-family="Helvetica,sans-Serif" font-size="10.00">networktables/NetworkTable.h</text>
</a>
</g>
</g>
<!-- Node5&#45;&gt;Node8 -->
<g id="edge7" class="edge">
<title>Node5&#45;&gt;Node8</title>
<path fill="none" stroke="midnightblue" d="M383.11,-67.48C369.8,-57.93 348,-42.31 332.04,-30.87"/>
<polygon fill="midnightblue" stroke="midnightblue" points="334.04,-27.99 323.87,-25.01 329.96,-33.68 334.04,-27.99"/>
</g>
<!-- Node9 -->
<g id="node9" class="node">
<title>Node9</title>
<g id="a_node9"><a xlink:title=" ">
<polygon fill="none" stroke="#bfbfbf" points="404.5,-6 404.5,-25 553.5,-25 553.5,-6 404.5,-6"/>
<text text-anchor="middle" x="479" y="-13" font-family="Helvetica,sans-Serif" font-size="10.00">cameraserver/CameraServer.h</text>
</a>
</g>
</g>
<!-- Node5&#45;&gt;Node9 -->
<g id="edge8" class="edge">
<title>Node5&#45;&gt;Node9</title>
<path fill="none" stroke="midnightblue" d="M407.04,-67.48C420.51,-57.93 442.57,-42.31 458.72,-30.87"/>
<polygon fill="midnightblue" stroke="midnightblue" points="460.85,-33.65 466.99,-25.01 456.8,-27.93 460.85,-33.65"/>
</g>
<!-- Node10&#45;&gt;Node2 -->
<g id="edge11" class="edge">
<title>Node10&#45;&gt;Node2</title>
<path fill="none" stroke="midnightblue" d="M767.55,-67.48C758.43,-58.28 743.73,-43.46 732.52,-32.16"/>
<polygon fill="midnightblue" stroke="midnightblue" points="734.96,-29.65 725.44,-25.01 729.99,-34.57 734.96,-29.65"/>
</g>
<!-- Node11 -->
<g id="node11" class="node">
<title>Node11</title>
<g id="a_node11"><a xlink:title=" ">
<polygon fill="none" stroke="#bfbfbf" points="757,-6 757,-25 795,-25 795,-6 757,-6"/>
<text text-anchor="middle" x="776" y="-13" font-family="Helvetica,sans-Serif" font-size="10.00">array</text>
</a>
</g>
</g>
<!-- Node10&#45;&gt;Node11 -->
<g id="edge12" class="edge">
<title>Node10&#45;&gt;Node11</title>
<path fill="none" stroke="midnightblue" d="M776,-67.48C776,-59.08 776,-45.98 776,-35.16"/>
<polygon fill="midnightblue" stroke="midnightblue" points="779.5,-35.01 776,-25.01 772.5,-35.01 779.5,-35.01"/>
</g>
<!-- Node12 -->
<g id="node12" class="node">
<title>Node12</title>
<g id="a_node12"><a xlink:title=" ">
<polygon fill="none" stroke="#bfbfbf" points="813.5,-6 813.5,-25 896.5,-25 896.5,-6 813.5,-6"/>
<text text-anchor="middle" x="855" y="-13" font-family="Helvetica,sans-Serif" font-size="10.00">unordered_map</text>
</a>
</g>
</g>
<!-- Node10&#45;&gt;Node12 -->
<g id="edge13" class="edge">
<title>Node10&#45;&gt;Node12</title>
<path fill="none" stroke="midnightblue" d="M787.32,-67.48C799.87,-58.02 820.35,-42.6 835.5,-31.19"/>
<polygon fill="midnightblue" stroke="midnightblue" points="837.82,-33.82 843.7,-25.01 833.61,-28.23 837.82,-33.82"/>
</g>
<!-- Node13 -->
<g id="node13" class="node">
<title>Node13</title>
<g id="a_node13"><a xlink:title=" ">
<polygon fill="none" stroke="#bfbfbf" points="914.5,-6 914.5,-25 1033.5,-25 1033.5,-6 914.5,-6"/>
<text text-anchor="middle" x="974" y="-13" font-family="Helvetica,sans-Serif" font-size="10.00">opencv2/core/types.hpp</text>
</a>
</g>
</g>
<!-- Node10&#45;&gt;Node13 -->
<g id="edge14" class="edge">
<title>Node10&#45;&gt;Node13</title>
<path fill="none" stroke="midnightblue" d="M798.33,-69.29C831.78,-59.24 895.31,-40.15 936.11,-27.89"/>
<polygon fill="midnightblue" stroke="midnightblue" points="937.14,-31.23 945.71,-25 935.12,-24.53 937.14,-31.23"/>
</g>
</g>
</svg>
