<?xml version="1.0" encoding="UTF-8" standalone="no"?>
<!DOCTYPE svg PUBLIC "-//W3C//DTD SVG 1.1//EN"
 "http://www.w3.org/Graphics/SVG/1.1/DTD/svg11.dtd">
<!-- Generated by graphviz version 2.49.3 (20211027.1534)
 -->
<!-- Title: lib&#45;vs/src/core/target.h Pages: 1 -->
<svg width="858pt" height="207pt"
 viewBox="0.00 0.00 857.50 207.00" xmlns="http://www.w3.org/2000/svg" xmlns:xlink="http://www.w3.org/1999/xlink">
<g id="graph0" class="graph" transform="scale(1 1) rotate(0) translate(4 203)">
<title>lib&#45;vs/src/core/target.h</title>
<!-- Node1 -->
<g id="node1" class="node">
<title>Node1</title>
<g id="a_node1"><a xlink:title=" ">
<polygon fill="#bfbfbf" stroke="black" points="298,-179.5 298,-198.5 411,-198.5 411,-179.5 298,-179.5"/>
<text text-anchor="middle" x="354.5" y="-186.5" font-family="Helvetica,sans-Serif" font-size="10.00">lib&#45;vs/src/core/target.h</text>
</a>
</g>
</g>
<!-- Node2 -->
<g id="node2" class="node">
<title>Node2</title>
<g id="a_node2"><a xlink:title=" ">
<polygon fill="none" stroke="#bfbfbf" points="188.5,-123.5 188.5,-142.5 232.5,-142.5 232.5,-123.5 188.5,-123.5"/>
<text text-anchor="middle" x="210.5" y="-130.5" font-family="Helvetica,sans-Serif" font-size="10.00">vector</text>
</a>
</g>
</g>
<!-- Node1&#45;&gt;Node2 -->
<g id="edge1" class="edge">
<title>Node1&#45;&gt;Node2</title>
<path fill="none" stroke="midnightblue" d="M331.68,-179.44C307.53,-170.39 269.22,-156.02 242.15,-145.87"/>
<polygon fill="midnightblue" stroke="midnightblue" points="243.33,-142.57 232.74,-142.34 240.87,-149.13 243.33,-142.57"/>
</g>
<!-- Node3 -->
<g id="node3" class="node">
<title>Node3</title>
<g id="a_node3"><a xlink:title=" ">
<polygon fill="none" stroke="#bfbfbf" points="250.5,-123.5 250.5,-142.5 288.5,-142.5 288.5,-123.5 250.5,-123.5"/>
<text text-anchor="middle" x="269.5" y="-130.5" font-family="Helvetica,sans-Serif" font-size="10.00">array</text>
</a>
</g>
</g>
<!-- Node1&#45;&gt;Node3 -->
<g id="edge2" class="edge">
<title>Node1&#45;&gt;Node3</title>
<path fill="none" stroke="midnightblue" d="M340.84,-179.32C327.58,-170.9 307.23,-157.97 291.65,-148.07"/>
<polygon fill="midnightblue" stroke="midnightblue" points="293.44,-145.06 283.12,-142.65 289.69,-150.97 293.44,-145.06"/>
</g>
<!-- Node4 -->
<g id="node4" class="node">
<title>Node4</title>
<g id="a_node4"><a xlink:title=" ">
<polygon fill="none" stroke="#bfbfbf" points="0,-67.5 0,-86.5 41,-86.5 41,-67.5 0,-67.5"/>
<text text-anchor="middle" x="20.5" y="-74.5" font-family="Helvetica,sans-Serif" font-size="10.00">string</text>
</a>
</g>
</g>
<!-- Node1&#45;&gt;Node4 -->
<g id="edge3" class="edge">
<title>Node1&#45;&gt;Node4</title>
<path fill="none" stroke="midnightblue" d="M349.55,-179.07C341.01,-164.6 322.03,-136.32 297.5,-123 202.49,-71.4 160.61,-109.22 51.38,-87.06"/>
<polygon fill="midnightblue" stroke="midnightblue" points="51.82,-83.57 41.3,-84.88 50.34,-90.41 51.82,-83.57"/>
</g>
<!-- Node5 -->
<g id="node5" class="node">
<title>Node5</title>
<g id="a_node5"><a xlink:title=" ">
<polygon fill="none" stroke="#bfbfbf" points="743.5,-6 743.5,-25 849.5,-25 849.5,-6 743.5,-6"/>
<text text-anchor="middle" x="796.5" y="-13" font-family="Helvetica,sans-Serif" font-size="10.00">opencv2/opencv.hpp</text>
</a>
</g>
</g>
<!-- Node1&#45;&gt;Node5 -->
<g id="edge4" class="edge">
<title>Node1&#45;&gt;Node5</title>
<path fill="none" stroke="midnightblue" d="M411.24,-185.51C468.3,-181.47 557.99,-170.86 630.5,-143 694.53,-118.4 754.64,-61.01 781.61,-32.77"/>
<polygon fill="midnightblue" stroke="midnightblue" points="784.31,-35.01 788.6,-25.32 779.21,-30.22 784.31,-35.01"/>
</g>
<!-- Node6 -->
<g id="node6" class="node">
<title>Node6</title>
<g id="a_node6"><a xlink:title=" ">
<polygon fill="none" stroke="#bfbfbf" points="577,-6 577,-25 726,-25 726,-6 577,-6"/>
<text text-anchor="middle" x="651.5" y="-13" font-family="Helvetica,sans-Serif" font-size="10.00">networktables/NetworkTable.h</text>
</a>
</g>
</g>
<!-- Node1&#45;&gt;Node6 -->
<g id="edge5" class="edge">
<title>Node1&#45;&gt;Node6</title>
<path fill="none" stroke="midnightblue" d="M411.01,-179.83C500.07,-165.67 666.57,-133.55 701.5,-87 715.86,-67.87 692.95,-45.23 673.61,-30.86"/>
<polygon fill="midnightblue" stroke="midnightblue" points="675.59,-27.97 665.4,-25.07 671.55,-33.69 675.59,-27.97"/>
</g>
<!-- Node7 -->
<g id="node7" class="node">
<title>Node7</title>
<g id="a_node7"><a xlink:title=" ">
<polygon fill="none" stroke="#bfbfbf" points="59,-67.5 59,-86.5 166,-86.5 166,-67.5 59,-67.5"/>
<text text-anchor="middle" x="112.5" y="-74.5" font-family="Helvetica,sans-Serif" font-size="10.00">cpp&#45;tools/src/types.h</text>
</a>
</g>
</g>
<!-- Node1&#45;&gt;Node7 -->
<g id="edge6" class="edge">
<title>Node1&#45;&gt;Node7</title>
<path fill="none" stroke="midnightblue" d="M353.9,-179.35C352.45,-165.29 347.46,-137.59 330.5,-123 318.76,-112.91 236.32,-97.82 176.27,-87.94"/>
<polygon fill="midnightblue" stroke="midnightblue" points="176.53,-84.44 166.1,-86.28 175.4,-91.35 176.53,-84.44"/>
</g>
<!-- Node8 -->
<g id="node8" class="node">
<title>Node8</title>
<g id="a_node8"><a xlink:href="visionserver2_8h.html" target="_top" xlink:title=" ">
<polygon fill="none" stroke="black" points="382.5,-123.5 382.5,-142.5 464.5,-142.5 464.5,-123.5 382.5,-123.5"/>
<text text-anchor="middle" x="423.5" y="-130.5" font-family="Helvetica,sans-Serif" font-size="10.00">visionserver2.h</text>
</a>
</g>
</g>
<!-- Node1&#45;&gt;Node8 -->
<g id="edge7" class="edge">
<title>Node1&#45;&gt;Node8</title>
<path fill="none" stroke="midnightblue" d="M365.59,-179.32C375.99,-171.18 391.76,-158.84 404.22,-149.09"/>
<polygon fill="midnightblue" stroke="midnightblue" points="406.49,-151.75 412.21,-142.83 402.18,-146.24 406.49,-151.75"/>
</g>
<!-- Node8&#45;&gt;Node4 -->
<g id="edge8" class="edge">
<title>Node8&#45;&gt;Node4</title>
<path fill="none" stroke="midnightblue" d="M382.46,-128.01C302.81,-120.12 128.91,-102.13 51.54,-87.05"/>
<polygon fill="midnightblue" stroke="midnightblue" points="51.79,-83.53 41.29,-84.95 50.38,-90.39 51.79,-83.53"/>
</g>
<!-- Node8&#45;&gt;Node5 -->
<g id="edge13" class="edge">
<title>Node8&#45;&gt;Node5</title>
<path fill="none" stroke="midnightblue" d="M464.75,-131.37C520.55,-129.19 622.22,-120.47 701.5,-87 732.4,-73.96 762.53,-48.87 780.3,-32.41"/>
<polygon fill="midnightblue" stroke="midnightblue" points="783.14,-34.54 787.98,-25.12 778.32,-29.47 783.14,-34.54"/>
</g>
<!-- Node8&#45;&gt;Node6 -->
<g id="edge14" class="edge">
<title>Node8&#45;&gt;Node6</title>
<path fill="none" stroke="midnightblue" d="M448.97,-123.42C472.45,-115.16 508.02,-101.79 537.5,-87 571.5,-69.94 608.57,-45.92 630.92,-30.79"/>
<polygon fill="midnightblue" stroke="midnightblue" points="632.99,-33.61 639.27,-25.08 629.04,-27.83 632.99,-33.61"/>
</g>
<!-- Node8&#45;&gt;Node7 -->
<g id="edge15" class="edge">
<title>Node8&#45;&gt;Node7</title>
<path fill="none" stroke="midnightblue" d="M382.2,-124.83C328.2,-115.45 233.26,-98.97 171.64,-88.27"/>
<polygon fill="midnightblue" stroke="midnightblue" points="172.12,-84.8 161.67,-86.54 170.92,-91.7 172.12,-84.8"/>
</g>
<!-- Node9 -->
<g id="node9" class="node">
<title>Node9</title>
<g id="a_node9"><a xlink:title=" ">
<polygon fill="none" stroke="#bfbfbf" points="482.5,-67.5 482.5,-86.5 528.5,-86.5 528.5,-67.5 482.5,-67.5"/>
<text text-anchor="middle" x="505.5" y="-74.5" font-family="Helvetica,sans-Serif" font-size="10.00">atomic</text>
</a>
</g>
</g>
<!-- Node8&#45;&gt;Node9 -->
<g id="edge9" class="edge">
<title>Node8&#45;&gt;Node9</title>
<path fill="none" stroke="midnightblue" d="M436.67,-123.32C449.35,-114.98 468.73,-102.21 483.71,-92.35"/>
<polygon fill="midnightblue" stroke="midnightblue" points="485.93,-95.08 492.36,-86.65 482.08,-89.23 485.93,-95.08"/>
</g>
<!-- Node10 -->
<g id="node10" class="node">
<title>Node10</title>
<g id="a_node10"><a xlink:title=" ">
<polygon fill="none" stroke="#bfbfbf" points="584.5,-67.5 584.5,-86.5 628.5,-86.5 628.5,-67.5 584.5,-67.5"/>
<text text-anchor="middle" x="606.5" y="-74.5" font-family="Helvetica,sans-Serif" font-size="10.00">thread</text>
</a>
</g>
</g>
<!-- Node8&#45;&gt;Node10 -->
<g id="edge10" class="edge">
<title>Node8&#45;&gt;Node10</title>
<path fill="none" stroke="midnightblue" d="M452.5,-123.44C485.65,-113.66 539.78,-97.69 574.24,-87.52"/>
<polygon fill="midnightblue" stroke="midnightblue" points="575.66,-90.75 584.26,-84.56 573.68,-84.04 575.66,-90.75"/>
</g>
<!-- Node11 -->
<g id="node11" class="node">
<title>Node11</title>
<g id="a_node11"><a xlink:title=" ">
<polygon fill="none" stroke="#bfbfbf" points="646.5,-67.5 646.5,-86.5 692.5,-86.5 692.5,-67.5 646.5,-67.5"/>
<text text-anchor="middle" x="669.5" y="-74.5" font-family="Helvetica,sans-Serif" font-size="10.00">chrono</text>
</a>
</g>
</g>
<!-- Node8&#45;&gt;Node11 -->
<g id="edge11" class="edge">
<title>Node8&#45;&gt;Node11</title>
<path fill="none" stroke="midnightblue" d="M464.71,-124.18C505.83,-116.2 571.01,-103.03 636.41,-87.14"/>
<polygon fill="midnightblue" stroke="midnightblue" points="637.6,-90.45 646.48,-84.67 635.93,-83.65 637.6,-90.45"/>
</g>
<!-- Node12 -->
<g id="node12" class="node">
<title>Node12</title>
<g id="a_node12"><a xlink:title=" ">
<polygon fill="none" stroke="#bfbfbf" points="184.5,-67.5 184.5,-86.5 256.5,-86.5 256.5,-67.5 184.5,-67.5"/>
<text text-anchor="middle" x="220.5" y="-74.5" font-family="Helvetica,sans-Serif" font-size="10.00">initializer_list</text>
</a>
</g>
</g>
<!-- Node8&#45;&gt;Node12 -->
<g id="edge12" class="edge">
<title>Node8&#45;&gt;Node12</title>
<path fill="none" stroke="midnightblue" d="M391.33,-123.44C356.44,-114.16 300.61,-99.31 262.33,-89.13"/>
<polygon fill="midnightblue" stroke="midnightblue" points="263.08,-85.7 252.52,-86.52 261.28,-92.47 263.08,-85.7"/>
</g>
<!-- Node13 -->
<g id="node13" class="node">
<title>Node13</title>
<g id="a_node13"><a xlink:href="visioncamera_8h.html" target="_top" xlink:title=" ">
<polygon fill="none" stroke="black" points="382.5,-67.5 382.5,-86.5 464.5,-86.5 464.5,-67.5 382.5,-67.5"/>
<text text-anchor="middle" x="423.5" y="-74.5" font-family="Helvetica,sans-Serif" font-size="10.00">visioncamera.h</text>
</a>
</g>
</g>
<!-- Node8&#45;&gt;Node13 -->
<g id="edge16" class="edge">
<title>Node8&#45;&gt;Node13</title>
<path fill="none" stroke="midnightblue" d="M423.5,-123.08C423.5,-116.01 423.5,-105.86 423.5,-96.99"/>
<polygon fill="midnightblue" stroke="midnightblue" points="427,-96.75 423.5,-86.75 420,-96.75 427,-96.75"/>
</g>
<!-- Node17 -->
<g id="node17" class="node">
<title>Node17</title>
<g id="a_node17"><a xlink:href="visionserver2_8inc.html" target="_top" xlink:title=" ">
<polygon fill="none" stroke="black" points="275,-67.5 275,-86.5 364,-86.5 364,-67.5 275,-67.5"/>
<text text-anchor="middle" x="319.5" y="-74.5" font-family="Helvetica,sans-Serif" font-size="10.00">visionserver2.inc</text>
</a>
</g>
</g>
<!-- Node8&#45;&gt;Node17 -->
<g id="edge22" class="edge">
<title>Node8&#45;&gt;Node17</title>
<path fill="none" stroke="midnightblue" d="M401.93,-123.44C383.63,-114.91 357.84,-101.67 339.89,-91.68"/>
<polygon fill="midnightblue" stroke="midnightblue" points="341.24,-88.42 330.82,-86.52 337.78,-94.51 341.24,-88.42"/>
</g>
<!-- Node13&#45;&gt;Node5 -->
<g id="edge17" class="edge">
<title>Node13&#45;&gt;Node5</title>
<path fill="none" stroke="midnightblue" d="M464.68,-68.45C467.66,-67.94 470.63,-67.46 473.5,-67 589.59,-48.58 619.97,-52.62 735.5,-31 741.26,-29.92 747.29,-28.66 753.23,-27.33"/>
<polygon fill="midnightblue" stroke="midnightblue" points="754.11,-30.72 763.06,-25.06 752.53,-23.9 754.11,-30.72"/>
</g>
<!-- Node13&#45;&gt;Node6 -->
<g id="edge19" class="edge">
<title>Node13&#45;&gt;Node6</title>
<path fill="none" stroke="midnightblue" d="M456.17,-67.48C496.38,-56.98 564.76,-39.14 609.02,-27.59"/>
<polygon fill="midnightblue" stroke="midnightblue" points="610.1,-30.92 618.89,-25.01 608.33,-24.15 610.1,-30.92"/>
</g>
<!-- Node14 -->
<g id="node14" class="node">
<title>Node14</title>
<g id="a_node14"><a xlink:title=" ">
<polygon fill="none" stroke="#bfbfbf" points="418,-0.5 418,-30.5 559,-30.5 559,-0.5 418,-0.5"/>
<text text-anchor="start" x="426" y="-18.5" font-family="Helvetica,sans-Serif" font-size="10.00">networktables/NetworkTable</text>
<text text-anchor="middle" x="488.5" y="-7.5" font-family="Helvetica,sans-Serif" font-size="10.00">Instance.h</text>
</a>
</g>
</g>
<!-- Node13&#45;&gt;Node14 -->
<g id="edge18" class="edge">
<title>Node13&#45;&gt;Node14</title>
<path fill="none" stroke="midnightblue" d="M432.81,-67.48C441.37,-59.64 454.4,-47.71 465.71,-37.37"/>
<polygon fill="midnightblue" stroke="midnightblue" points="468.17,-39.86 473.18,-30.52 463.44,-34.69 468.17,-39.86"/>
</g>
<!-- Node15 -->
<g id="node15" class="node">
<title>Node15</title>
<g id="a_node15"><a xlink:title=" ">
<polygon fill="none" stroke="#bfbfbf" points="173,-6 173,-25 322,-25 322,-6 173,-6"/>
<text text-anchor="middle" x="247.5" y="-13" font-family="Helvetica,sans-Serif" font-size="10.00">cameraserver/CameraServer.h</text>
</a>
</g>
</g>
<!-- Node13&#45;&gt;Node15 -->
<g id="edge20" class="edge">
<title>Node13&#45;&gt;Node15</title>
<path fill="none" stroke="midnightblue" d="M398.28,-67.48C367.83,-57.18 316.45,-39.81 282.26,-28.25"/>
<polygon fill="midnightblue" stroke="midnightblue" points="283.26,-24.9 272.67,-25.01 281.02,-31.53 283.26,-24.9"/>
</g>
<!-- Node16 -->
<g id="node16" class="node">
<title>Node16</title>
<g id="a_node16"><a xlink:title=" ">
<polygon fill="none" stroke="#bfbfbf" points="339.5,-6 339.5,-25 399.5,-25 399.5,-6 339.5,-6"/>
<text text-anchor="middle" x="369.5" y="-13" font-family="Helvetica,sans-Serif" font-size="10.00">wpi/json.h</text>
</a>
</g>
</g>
<!-- Node13&#45;&gt;Node16 -->
<g id="edge21" class="edge">
<title>Node13&#45;&gt;Node16</title>
<path fill="none" stroke="midnightblue" d="M415.76,-67.48C407.5,-58.37 394.22,-43.74 384.01,-32.48"/>
<polygon fill="midnightblue" stroke="midnightblue" points="386.53,-30.06 377.22,-25.01 381.35,-34.77 386.53,-30.06"/>
</g>
<!-- Node17&#45;&gt;Node8 -->
<g id="edge23" class="edge">
<title>Node17&#45;&gt;Node8</title>
<path fill="none" stroke="midnightblue" d="M341.28,-86.65C359.48,-95.15 384.98,-108.24 402.86,-118.18"/>
<polygon fill="midnightblue" stroke="midnightblue" points="401.48,-121.42 411.91,-123.32 404.94,-115.34 401.48,-121.42"/>
</g>
<!-- Node18 -->
<g id="node18" class="node">
<title>Node18</title>
<g id="a_node18"><a xlink:title=" ">
<polygon fill="none" stroke="#bfbfbf" points="93.5,-6 93.5,-25 155.5,-25 155.5,-6 93.5,-6"/>
<text text-anchor="middle" x="124.5" y="-13" font-family="Helvetica,sans-Serif" font-size="10.00">type_traits</text>
</a>
</g>
</g>
<!-- Node17&#45;&gt;Node18 -->
<g id="edge24" class="edge">
<title>Node17&#45;&gt;Node18</title>
<path fill="none" stroke="midnightblue" d="M287.85,-67.46C256.39,-58.82 206.86,-44.81 164.5,-31 161.95,-30.17 159.33,-29.28 156.69,-28.38"/>
<polygon fill="midnightblue" stroke="midnightblue" points="157.85,-25.07 147.26,-25.04 155.52,-31.67 157.85,-25.07"/>
</g>
<!-- Node19 -->
<g id="node19" class="node">
<title>Node19</title>
<g id="a_node19"><a xlink:title=" ">
<polygon fill="none" stroke="#bfbfbf" points="23.5,-6 23.5,-25 75.5,-25 75.5,-6 23.5,-6"/>
<text text-anchor="middle" x="49.5" y="-13" font-family="Helvetica,sans-Serif" font-size="10.00">sstream</text>
</a>
</g>
</g>
<!-- Node17&#45;&gt;Node19 -->
<g id="edge25" class="edge">
<title>Node17&#45;&gt;Node19</title>
<path fill="none" stroke="midnightblue" d="M274.76,-68.55C216.9,-58.73 119.42,-41.46 84.5,-31 82.21,-30.32 79.87,-29.53 77.54,-28.7"/>
<polygon fill="midnightblue" stroke="midnightblue" points="78.72,-25.4 68.14,-25.04 76.19,-31.93 78.72,-25.4"/>
</g>
</g>
</svg>
