<?xml version="1.0" encoding="UTF-8" standalone="no"?>
<!DOCTYPE svg PUBLIC "-//W3C//DTD SVG 1.1//EN"
 "http://www.w3.org/Graphics/SVG/1.1/DTD/svg11.dtd">
<!-- Generated by graphviz version 2.49.3 (20211027.1534)
 -->
<!-- Title: lib&#45;vs/src/core/tfmodel.h Pages: 1 -->
<svg width="286pt" height="84pt"
 viewBox="0.00 0.00 285.50 84.00" xmlns="http://www.w3.org/2000/svg" xmlns:xlink="http://www.w3.org/1999/xlink">
<g id="graph0" class="graph" transform="scale(1 1) rotate(0) translate(4 80)">
<title>lib&#45;vs/src/core/tfmodel.h</title>
<!-- Node1 -->
<g id="node1" class="node">
<title>Node1</title>
<g id="a_node1"><a xlink:title=" ">
<polygon fill="#bfbfbf" stroke="black" points="153,-56.5 153,-75.5 274,-75.5 274,-56.5 153,-56.5"/>
<text text-anchor="middle" x="213.5" y="-63.5" font-family="Helvetica,sans-Serif" font-size="10.00">lib&#45;vs/src/core/tfmodel.h</text>
</a>
</g>
</g>
<!-- Node2 -->
<g id="node2" class="node">
<title>Node2</title>
<g id="a_node2"><a xlink:href="tfmodel_8cpp.html" target="_top" xlink:title=" ">
<polygon fill="none" stroke="black" points="0,-0.5 0,-19.5 131,-19.5 131,-0.5 0,-0.5"/>
<text text-anchor="middle" x="65.5" y="-7.5" font-family="Helvetica,sans-Serif" font-size="10.00">lib&#45;vs/src/core/tfmodel.cpp</text>
</a>
</g>
</g>
<!-- Node1&#45;&gt;Node2 -->
<g id="edge1" class="edge">
<title>Node1&#45;&gt;Node2</title>
<path fill="none" stroke="midnightblue" d="M180.35,-52.91C152.53,-42.75 113.48,-28.51 88.84,-19.52"/>
<polygon fill="midnightblue" stroke="midnightblue" points="179.46,-56.3 190.05,-56.44 181.85,-49.73 179.46,-56.3"/>
</g>
<!-- Node3 -->
<g id="node3" class="node">
<title>Node3</title>
<g id="a_node3"><a xlink:href="tfmodel_8inc.html" target="_top" xlink:title=" ">
<polygon fill="none" stroke="black" points="149.5,-0.5 149.5,-19.5 277.5,-19.5 277.5,-0.5 149.5,-0.5"/>
<text text-anchor="middle" x="213.5" y="-7.5" font-family="Helvetica,sans-Serif" font-size="10.00">lib&#45;vs/src/core/tfmodel.inc</text>
</a>
</g>
</g>
<!-- Node1&#45;&gt;Node3 -->
<g id="edge2" class="edge">
<title>Node1&#45;&gt;Node3</title>
<path fill="none" stroke="midnightblue" d="M207.03,-46.1C206.4,-37.14 206.84,-26.86 208.37,-19.75"/>
<polygon fill="midnightblue" stroke="midnightblue" points="203.57,-46.62 208.33,-56.08 210.51,-45.71 203.57,-46.62"/>
</g>
<!-- Node3&#45;&gt;Node1 -->
<g id="edge3" class="edge">
<title>Node3&#45;&gt;Node1</title>
<path fill="none" stroke="midnightblue" d="M219.96,-29.69C220.61,-38.64 220.18,-48.93 218.67,-56.08"/>
<polygon fill="midnightblue" stroke="midnightblue" points="223.42,-29.2 218.63,-19.75 216.48,-30.13 223.42,-29.2"/>
</g>
</g>
</svg>
