<?xml version="1.0" encoding="UTF-8" standalone="no"?>
<!DOCTYPE svg PUBLIC "-//W3C//DTD SVG 1.1//EN"
 "http://www.w3.org/Graphics/SVG/1.1/DTD/svg11.dtd">
<!-- Generated by graphviz version 2.49.3 (20211027.1534)
 -->
<!-- Title: lib&#45;vs/src/core/tfmodel.cpp Pages: 1 -->
<svg width="1416pt" height="274pt"
 viewBox="0.00 0.00 1415.50 274.00" xmlns="http://www.w3.org/2000/svg" xmlns:xlink="http://www.w3.org/1999/xlink">
<g id="graph0" class="graph" transform="scale(1 1) rotate(0) translate(4 270)">
<title>lib&#45;vs/src/core/tfmodel.cpp</title>
<!-- Node1 -->
<g id="node1" class="node">
<title>Node1</title>
<g id="a_node1"><a xlink:title=" ">
<polygon fill="#bfbfbf" stroke="black" points="579,-246.5 579,-265.5 710,-265.5 710,-246.5 579,-246.5"/>
<text text-anchor="middle" x="644.5" y="-253.5" font-family="Helvetica,sans-Serif" font-size="10.00">lib&#45;vs/src/core/tfmodel.cpp</text>
</a>
</g>
</g>
<!-- Node2 -->
<g id="node2" class="node">
<title>Node2</title>
<g id="a_node2"><a xlink:href="tfmodel_8h.html" target="_top" xlink:title=" ">
<polygon fill="none" stroke="black" points="616.5,-190.5 616.5,-209.5 672.5,-209.5 672.5,-190.5 616.5,-190.5"/>
<text text-anchor="middle" x="644.5" y="-197.5" font-family="Helvetica,sans-Serif" font-size="10.00">tfmodel.h</text>
</a>
</g>
</g>
<!-- Node1&#45;&gt;Node2 -->
<g id="edge1" class="edge">
<title>Node1&#45;&gt;Node2</title>
<path fill="none" stroke="midnightblue" d="M644.5,-246.08C644.5,-239.01 644.5,-228.86 644.5,-219.99"/>
<polygon fill="midnightblue" stroke="midnightblue" points="648,-219.75 644.5,-209.75 641,-219.75 648,-219.75"/>
</g>
<!-- Node3 -->
<g id="node3" class="node">
<title>Node3</title>
<g id="a_node3"><a xlink:title=" ">
<polygon fill="none" stroke="#bfbfbf" points="196.5,-129 196.5,-148 240.5,-148 240.5,-129 196.5,-129"/>
<text text-anchor="middle" x="218.5" y="-136" font-family="Helvetica,sans-Serif" font-size="10.00">vector</text>
</a>
</g>
</g>
<!-- Node2&#45;&gt;Node3 -->
<g id="edge2" class="edge">
<title>Node2&#45;&gt;Node3</title>
<path fill="none" stroke="midnightblue" d="M616.13,-198.32C551.16,-196.2 386.95,-187.66 254.5,-154 251.99,-153.36 249.41,-152.59 246.86,-151.73"/>
<polygon fill="midnightblue" stroke="midnightblue" points="247.83,-148.36 237.24,-148.15 245.39,-154.92 247.83,-148.36"/>
</g>
<!-- Node4 -->
<g id="node4" class="node">
<title>Node4</title>
<g id="a_node4"><a xlink:title=" ">
<polygon fill="none" stroke="#bfbfbf" points="0,-67.5 0,-86.5 41,-86.5 41,-67.5 0,-67.5"/>
<text text-anchor="middle" x="20.5" y="-74.5" font-family="Helvetica,sans-Serif" font-size="10.00">string</text>
</a>
</g>
</g>
<!-- Node2&#45;&gt;Node4 -->
<g id="edge3" class="edge">
<title>Node2&#45;&gt;Node4</title>
<path fill="none" stroke="midnightblue" d="M616.31,-197.75C541.9,-194.09 341.83,-181.86 282.5,-154 264.28,-145.45 267.47,-132.05 249.5,-123 172.05,-83.99 140.17,-106.24 51.05,-86.8"/>
<polygon fill="midnightblue" stroke="midnightblue" points="51.6,-83.34 41.07,-84.5 50.03,-90.16 51.6,-83.34"/>
</g>
<!-- Node5 -->
<g id="node5" class="node">
<title>Node5</title>
<g id="a_node5"><a xlink:title=" ">
<polygon fill="none" stroke="#bfbfbf" points="59.5,-67.5 59.5,-86.5 103.5,-86.5 103.5,-67.5 59.5,-67.5"/>
<text text-anchor="middle" x="81.5" y="-74.5" font-family="Helvetica,sans-Serif" font-size="10.00">thread</text>
</a>
</g>
</g>
<!-- Node2&#45;&gt;Node5 -->
<g id="edge4" class="edge">
<title>Node2&#45;&gt;Node5</title>
<path fill="none" stroke="midnightblue" d="M616.4,-197.05C547.81,-191.98 373.6,-177.15 320.5,-154 300.52,-145.29 302.16,-132.41 282.5,-123 215.7,-91.02 189.57,-104.54 113.8,-87.1"/>
<polygon fill="midnightblue" stroke="midnightblue" points="114.34,-83.63 103.8,-84.69 112.7,-90.44 114.34,-83.63"/>
</g>
<!-- Node6 -->
<g id="node6" class="node">
<title>Node6</title>
<g id="a_node6"><a xlink:title=" ">
<polygon fill="none" stroke="#bfbfbf" points="510.5,-129 510.5,-148 560.5,-148 560.5,-129 510.5,-129"/>
<text text-anchor="middle" x="535.5" y="-136" font-family="Helvetica,sans-Serif" font-size="10.00">fstream</text>
</a>
</g>
</g>
<!-- Node2&#45;&gt;Node6 -->
<g id="edge5" class="edge">
<title>Node2&#45;&gt;Node6</title>
<path fill="none" stroke="midnightblue" d="M628.88,-190.48C610.91,-180.67 581.18,-164.43 560.09,-152.92"/>
<polygon fill="midnightblue" stroke="midnightblue" points="561.54,-149.73 551.09,-148.01 558.19,-155.87 561.54,-149.73"/>
</g>
<!-- Node7 -->
<g id="node7" class="node">
<title>Node7</title>
<g id="a_node7"><a xlink:title=" ">
<polygon fill="none" stroke="#bfbfbf" points="121.5,-67.5 121.5,-86.5 193.5,-86.5 193.5,-67.5 121.5,-67.5"/>
<text text-anchor="middle" x="157.5" y="-74.5" font-family="Helvetica,sans-Serif" font-size="10.00">initializer_list</text>
</a>
</g>
</g>
<!-- Node2&#45;&gt;Node7 -->
<g id="edge6" class="edge">
<title>Node2&#45;&gt;Node7</title>
<path fill="none" stroke="midnightblue" d="M616.22,-198.74C564.21,-197.34 450.72,-190.03 363.5,-154 341.72,-145.01 341.74,-133.18 320.5,-123 299.94,-113.14 244.32,-98.68 203.75,-88.83"/>
<polygon fill="midnightblue" stroke="midnightblue" points="204.34,-85.37 193.79,-86.43 202.7,-92.18 204.34,-85.37"/>
</g>
<!-- Node8 -->
<g id="node8" class="node">
<title>Node8</title>
<g id="a_node8"><a xlink:title=" ">
<polygon fill="none" stroke="#bfbfbf" points="579,-129 579,-148 710,-148 710,-129 579,-129"/>
<text text-anchor="middle" x="644.5" y="-136" font-family="Helvetica,sans-Serif" font-size="10.00">tensorflow/lite/interpreter.h</text>
</a>
</g>
</g>
<!-- Node2&#45;&gt;Node8 -->
<g id="edge7" class="edge">
<title>Node2&#45;&gt;Node8</title>
<path fill="none" stroke="midnightblue" d="M644.5,-190.48C644.5,-182.08 644.5,-168.98 644.5,-158.16"/>
<polygon fill="midnightblue" stroke="midnightblue" points="648,-158.01 644.5,-148.01 641,-158.01 648,-158.01"/>
</g>
<!-- Node9 -->
<g id="node9" class="node">
<title>Node9</title>
<g id="a_node9"><a xlink:title=" ">
<polygon fill="none" stroke="#bfbfbf" points="728,-123.5 728,-153.5 851,-153.5 851,-123.5 728,-123.5"/>
<text text-anchor="start" x="736" y="-141.5" font-family="Helvetica,sans-Serif" font-size="10.00">tensorflow/lite/interpreter</text>
<text text-anchor="middle" x="789.5" y="-130.5" font-family="Helvetica,sans-Serif" font-size="10.00">_builder.h</text>
</a>
</g>
</g>
<!-- Node2&#45;&gt;Node9 -->
<g id="edge8" class="edge">
<title>Node2&#45;&gt;Node9</title>
<path fill="none" stroke="midnightblue" d="M665.27,-190.48C686.2,-181.89 719.11,-168.38 745.81,-157.43"/>
<polygon fill="midnightblue" stroke="midnightblue" points="747.4,-160.56 755.33,-153.52 744.75,-154.08 747.4,-160.56"/>
</g>
<!-- Node10 -->
<g id="node10" class="node">
<title>Node10</title>
<g id="a_node10"><a xlink:title=" ">
<polygon fill="none" stroke="#bfbfbf" points="869.5,-123.5 869.5,-153.5 975.5,-153.5 975.5,-123.5 869.5,-123.5"/>
<text text-anchor="start" x="877.5" y="-141.5" font-family="Helvetica,sans-Serif" font-size="10.00">tensorflow/lite/model</text>
<text text-anchor="middle" x="922.5" y="-130.5" font-family="Helvetica,sans-Serif" font-size="10.00">_builder.h</text>
</a>
</g>
</g>
<!-- Node2&#45;&gt;Node10 -->
<g id="edge9" class="edge">
<title>Node2&#45;&gt;Node10</title>
<path fill="none" stroke="midnightblue" d="M672.51,-193.39C711.97,-185.44 786.42,-170.26 859.58,-154.18"/>
<polygon fill="midnightblue" stroke="midnightblue" points="860.41,-157.58 869.42,-152 858.9,-150.74 860.41,-157.58"/>
</g>
<!-- Node11 -->
<g id="node11" class="node">
<title>Node11</title>
<g id="a_node11"><a xlink:title=" ">
<polygon fill="none" stroke="#bfbfbf" points="993,-123.5 993,-153.5 1104,-153.5 1104,-123.5 993,-123.5"/>
<text text-anchor="start" x="1001" y="-141.5" font-family="Helvetica,sans-Serif" font-size="10.00">tensorflow/lite/kernels</text>
<text text-anchor="middle" x="1048.5" y="-130.5" font-family="Helvetica,sans-Serif" font-size="10.00">/register.h</text>
</a>
</g>
</g>
<!-- Node2&#45;&gt;Node11 -->
<g id="edge10" class="edge">
<title>Node2&#45;&gt;Node11</title>
<path fill="none" stroke="midnightblue" d="M672.84,-196.13C729.75,-190.19 862.12,-175.41 982.58,-154.25"/>
<polygon fill="midnightblue" stroke="midnightblue" points="983.48,-157.65 992.71,-152.45 982.26,-150.76 983.48,-157.65"/>
</g>
<!-- Node12 -->
<g id="node12" class="node">
<title>Node12</title>
<g id="a_node12"><a xlink:title=" ">
<polygon fill="none" stroke="#bfbfbf" points="1122,-129 1122,-148 1181,-148 1181,-129 1122,-129"/>
<text text-anchor="middle" x="1151.5" y="-136" font-family="Helvetica,sans-Serif" font-size="10.00">edgetpu.h</text>
</a>
</g>
</g>
<!-- Node2&#45;&gt;Node12 -->
<g id="edge11" class="edge">
<title>Node2&#45;&gt;Node12</title>
<path fill="none" stroke="midnightblue" d="M672.68,-198.92C746.22,-198.14 949.64,-192.38 1113.5,-154 1116.5,-153.3 1119.58,-152.41 1122.62,-151.43"/>
<polygon fill="midnightblue" stroke="midnightblue" points="1123.85,-154.71 1132.09,-148.06 1121.5,-148.12 1123.85,-154.71"/>
</g>
<!-- Node13 -->
<g id="node13" class="node">
<title>Node13</title>
<g id="a_node13"><a xlink:title=" ">
<polygon fill="none" stroke="#bfbfbf" points="792.5,-6 792.5,-25 898.5,-25 898.5,-6 792.5,-6"/>
<text text-anchor="middle" x="845.5" y="-13" font-family="Helvetica,sans-Serif" font-size="10.00">opencv2/opencv.hpp</text>
</a>
</g>
</g>
<!-- Node2&#45;&gt;Node13 -->
<g id="edge12" class="edge">
<title>Node2&#45;&gt;Node13</title>
<path fill="none" stroke="midnightblue" d="M616.35,-194.93C565.36,-186.44 466.12,-164.14 501.5,-123 536.38,-82.45 689.6,-106.27 739.5,-87 773.62,-73.82 807.93,-48.22 827.92,-31.76"/>
<polygon fill="midnightblue" stroke="midnightblue" points="830.41,-34.24 835.81,-25.13 825.9,-28.88 830.41,-34.24"/>
</g>
<!-- Node14 -->
<g id="node14" class="node">
<title>Node14</title>
<g id="a_node14"><a xlink:title=" ">
<polygon fill="none" stroke="#bfbfbf" points="1199.5,-129 1199.5,-148 1325.5,-148 1325.5,-129 1199.5,-129"/>
<text text-anchor="middle" x="1262.5" y="-136" font-family="Helvetica,sans-Serif" font-size="10.00">cpp&#45;tools/src/resources.h</text>
</a>
</g>
</g>
<!-- Node2&#45;&gt;Node14 -->
<g id="edge13" class="edge">
<title>Node2&#45;&gt;Node14</title>
<path fill="none" stroke="midnightblue" d="M672.76,-197.83C753.74,-194.24 993.44,-181.87 1190.5,-154 1198.31,-152.9 1206.55,-151.48 1214.56,-149.96"/>
<polygon fill="midnightblue" stroke="midnightblue" points="1215.39,-153.37 1224.53,-148.01 1214.04,-146.5 1215.39,-153.37"/>
</g>
<!-- Node15 -->
<g id="node15" class="node">
<title>Node15</title>
<g id="a_node15"><a xlink:href="visionserver2_8h.html" target="_top" xlink:title=" ">
<polygon fill="none" stroke="black" points="372.5,-129 372.5,-148 454.5,-148 454.5,-129 372.5,-129"/>
<text text-anchor="middle" x="413.5" y="-136" font-family="Helvetica,sans-Serif" font-size="10.00">visionserver2.h</text>
</a>
</g>
</g>
<!-- Node2&#45;&gt;Node15 -->
<g id="edge14" class="edge">
<title>Node2&#45;&gt;Node15</title>
<path fill="none" stroke="midnightblue" d="M616.44,-191.89C581.69,-183.08 520.7,-167.55 468.5,-154 464.36,-152.93 460.05,-151.8 455.74,-150.67"/>
<polygon fill="midnightblue" stroke="midnightblue" points="456.33,-147.21 445.77,-148.05 454.55,-153.98 456.33,-147.21"/>
</g>
<!-- Node27 -->
<g id="node27" class="node">
<title>Node27</title>
<g id="a_node27"><a xlink:href="tfmodel_8inc.html" target="_top" xlink:title=" ">
<polygon fill="none" stroke="black" points="1343.5,-129 1343.5,-148 1407.5,-148 1407.5,-129 1343.5,-129"/>
<text text-anchor="middle" x="1375.5" y="-136" font-family="Helvetica,sans-Serif" font-size="10.00">tfmodel.inc</text>
</a>
</g>
</g>
<!-- Node2&#45;&gt;Node27 -->
<g id="edge33" class="edge">
<title>Node2&#45;&gt;Node27</title>
<path fill="none" stroke="midnightblue" d="M672.52,-198.1C784.26,-194.54 1196.88,-180.41 1325.5,-154 1329.11,-153.26 1332.84,-152.27 1336.57,-151.16"/>
<polygon fill="midnightblue" stroke="midnightblue" points="1337.93,-154.4 1346.37,-148.01 1335.78,-147.74 1337.93,-154.4"/>
</g>
<!-- Node15&#45;&gt;Node4 -->
<g id="edge15" class="edge">
<title>Node15&#45;&gt;Node4</title>
<path fill="none" stroke="midnightblue" d="M372.44,-132.59C294.58,-123.16 127.21,-102.25 51.15,-86.76"/>
<polygon fill="midnightblue" stroke="midnightblue" points="51.56,-83.27 41.05,-84.62 50.1,-90.12 51.56,-83.27"/>
</g>
<!-- Node15&#45;&gt;Node5 -->
<g id="edge17" class="edge">
<title>Node15&#45;&gt;Node5</title>
<path fill="none" stroke="midnightblue" d="M372.31,-130.86C301.82,-119.47 161.68,-96.64 113.84,-86.96"/>
<polygon fill="midnightblue" stroke="midnightblue" points="114.28,-83.48 103.77,-84.8 112.81,-90.32 114.28,-83.48"/>
</g>
<!-- Node15&#45;&gt;Node7 -->
<g id="edge19" class="edge">
<title>Node15&#45;&gt;Node7</title>
<path fill="none" stroke="midnightblue" d="M381.85,-128.94C374.22,-126.93 366.08,-124.85 358.5,-123 305.49,-110.08 244.27,-96.58 203.46,-87.78"/>
<polygon fill="midnightblue" stroke="midnightblue" points="204.05,-84.32 193.54,-85.64 202.58,-91.17 204.05,-84.32"/>
</g>
<!-- Node15&#45;&gt;Node13 -->
<g id="edge20" class="edge">
<title>Node15&#45;&gt;Node13</title>
<path fill="none" stroke="midnightblue" d="M446.59,-128.92C479.39,-119.99 530.75,-104.83 573.5,-87 591.11,-79.65 593.54,-73.46 611.5,-67 684.99,-40.56 707.25,-47.89 783.5,-31 788.83,-29.82 794.41,-28.55 799.94,-27.28"/>
<polygon fill="midnightblue" stroke="midnightblue" points="800.84,-30.67 809.8,-25 799.26,-23.85 800.84,-30.67"/>
</g>
<!-- Node16 -->
<g id="node16" class="node">
<title>Node16</title>
<g id="a_node16"><a xlink:title=" ">
<polygon fill="none" stroke="#bfbfbf" points="620.5,-67.5 620.5,-86.5 666.5,-86.5 666.5,-67.5 620.5,-67.5"/>
<text text-anchor="middle" x="643.5" y="-74.5" font-family="Helvetica,sans-Serif" font-size="10.00">atomic</text>
</a>
</g>
</g>
<!-- Node15&#45;&gt;Node16 -->
<g id="edge16" class="edge">
<title>Node15&#45;&gt;Node16</title>
<path fill="none" stroke="midnightblue" d="M445.77,-128.96C453.23,-126.99 461.14,-124.92 468.5,-123 517.96,-110.12 575.34,-95.41 610.53,-86.41"/>
<polygon fill="midnightblue" stroke="midnightblue" points="611.45,-89.79 620.28,-83.92 609.72,-83.01 611.45,-89.79"/>
</g>
<!-- Node17 -->
<g id="node17" class="node">
<title>Node17</title>
<g id="a_node17"><a xlink:title=" ">
<polygon fill="none" stroke="#bfbfbf" points="684.5,-67.5 684.5,-86.5 730.5,-86.5 730.5,-67.5 684.5,-67.5"/>
<text text-anchor="middle" x="707.5" y="-74.5" font-family="Helvetica,sans-Serif" font-size="10.00">chrono</text>
</a>
</g>
</g>
<!-- Node15&#45;&gt;Node17 -->
<g id="edge18" class="edge">
<title>Node15&#45;&gt;Node17</title>
<path fill="none" stroke="midnightblue" d="M443.93,-128.98C451.9,-126.89 460.49,-124.75 468.5,-123 556.61,-103.76 582.67,-107.38 674.5,-87.03"/>
<polygon fill="midnightblue" stroke="midnightblue" points="675.51,-90.38 684.5,-84.77 673.97,-83.56 675.51,-90.38"/>
</g>
<!-- Node18 -->
<g id="node18" class="node">
<title>Node18</title>
<g id="a_node18"><a xlink:title=" ">
<polygon fill="none" stroke="#bfbfbf" points="221,-6 221,-25 370,-25 370,-6 221,-6"/>
<text text-anchor="middle" x="295.5" y="-13" font-family="Helvetica,sans-Serif" font-size="10.00">networktables/NetworkTable.h</text>
</a>
</g>
</g>
<!-- Node15&#45;&gt;Node18 -->
<g id="edge21" class="edge">
<title>Node15&#45;&gt;Node18</title>
<path fill="none" stroke="midnightblue" d="M420.61,-128.95C431.38,-114.89 449.21,-86.52 435.5,-67 424.54,-51.39 379.67,-36.99 343.64,-27.6"/>
<polygon fill="midnightblue" stroke="midnightblue" points="344.3,-24.16 333.74,-25.08 342.57,-30.94 344.3,-24.16"/>
</g>
<!-- Node19 -->
<g id="node19" class="node">
<title>Node19</title>
<g id="a_node19"><a xlink:title=" ">
<polygon fill="none" stroke="#bfbfbf" points="319,-67.5 319,-86.5 426,-86.5 426,-67.5 319,-67.5"/>
<text text-anchor="middle" x="372.5" y="-74.5" font-family="Helvetica,sans-Serif" font-size="10.00">cpp&#45;tools/src/types.h</text>
</a>
</g>
</g>
<!-- Node15&#45;&gt;Node19 -->
<g id="edge22" class="edge">
<title>Node15&#45;&gt;Node19</title>
<path fill="none" stroke="midnightblue" d="M407.63,-128.98C401.54,-120.14 391.86,-106.09 384.2,-94.98"/>
<polygon fill="midnightblue" stroke="midnightblue" points="386.92,-92.76 378.36,-86.51 381.16,-96.73 386.92,-92.76"/>
</g>
<!-- Node20 -->
<g id="node20" class="node">
<title>Node20</title>
<g id="a_node20"><a xlink:href="visioncamera_8h.html" target="_top" xlink:title=" ">
<polygon fill="none" stroke="black" points="482.5,-67.5 482.5,-86.5 564.5,-86.5 564.5,-67.5 482.5,-67.5"/>
<text text-anchor="middle" x="523.5" y="-74.5" font-family="Helvetica,sans-Serif" font-size="10.00">visioncamera.h</text>
</a>
</g>
</g>
<!-- Node15&#45;&gt;Node20 -->
<g id="edge23" class="edge">
<title>Node15&#45;&gt;Node20</title>
<path fill="none" stroke="midnightblue" d="M429.26,-128.98C447.48,-119.12 477.67,-102.79 498.97,-91.27"/>
<polygon fill="midnightblue" stroke="midnightblue" points="500.64,-94.35 507.77,-86.51 497.31,-88.19 500.64,-94.35"/>
</g>
<!-- Node24 -->
<g id="node24" class="node">
<title>Node24</title>
<g id="a_node24"><a xlink:href="visionserver2_8inc.html" target="_top" xlink:title=" ">
<polygon fill="none" stroke="black" points="212,-67.5 212,-86.5 301,-86.5 301,-67.5 212,-67.5"/>
<text text-anchor="middle" x="256.5" y="-74.5" font-family="Helvetica,sans-Serif" font-size="10.00">visionserver2.inc</text>
</a>
</g>
</g>
<!-- Node15&#45;&gt;Node24 -->
<g id="edge29" class="edge">
<title>Node15&#45;&gt;Node24</title>
<path fill="none" stroke="midnightblue" d="M386.11,-128.98C357.2,-118.86 312.24,-101.9 283.49,-90.35"/>
<polygon fill="midnightblue" stroke="midnightblue" points="284.64,-87.04 274.06,-86.51 282,-93.52 284.64,-87.04"/>
</g>
<!-- Node20&#45;&gt;Node13 -->
<g id="edge24" class="edge">
<title>Node20&#45;&gt;Node13</title>
<path fill="none" stroke="midnightblue" d="M564.59,-69.19C626.9,-58.81 742.37,-39.36 783.5,-31 788.98,-29.89 794.72,-28.64 800.4,-27.37"/>
<polygon fill="midnightblue" stroke="midnightblue" points="801.53,-30.7 810.49,-25.06 799.97,-23.88 801.53,-30.7"/>
</g>
<!-- Node20&#45;&gt;Node18 -->
<g id="edge26" class="edge">
<title>Node20&#45;&gt;Node18</title>
<path fill="none" stroke="midnightblue" d="M490.83,-67.48C450.62,-56.98 382.24,-39.14 337.98,-27.59"/>
<polygon fill="midnightblue" stroke="midnightblue" points="338.67,-24.15 328.11,-25.01 336.9,-30.92 338.67,-24.15"/>
</g>
<!-- Node21 -->
<g id="node21" class="node">
<title>Node21</title>
<g id="a_node21"><a xlink:title=" ">
<polygon fill="none" stroke="#bfbfbf" points="633,-0.5 633,-30.5 774,-30.5 774,-0.5 633,-0.5"/>
<text text-anchor="start" x="641" y="-18.5" font-family="Helvetica,sans-Serif" font-size="10.00">networktables/NetworkTable</text>
<text text-anchor="middle" x="703.5" y="-7.5" font-family="Helvetica,sans-Serif" font-size="10.00">Instance.h</text>
</a>
</g>
</g>
<!-- Node20&#45;&gt;Node21 -->
<g id="edge25" class="edge">
<title>Node20&#45;&gt;Node21</title>
<path fill="none" stroke="midnightblue" d="M549.29,-67.48C575.83,-58.7 617.92,-44.79 651.43,-33.71"/>
<polygon fill="midnightblue" stroke="midnightblue" points="652.68,-36.98 661.08,-30.52 650.48,-30.34 652.68,-36.98"/>
</g>
<!-- Node22 -->
<g id="node22" class="node">
<title>Node22</title>
<g id="a_node22"><a xlink:title=" ">
<polygon fill="none" stroke="#bfbfbf" points="388,-6 388,-25 537,-25 537,-6 388,-6"/>
<text text-anchor="middle" x="462.5" y="-13" font-family="Helvetica,sans-Serif" font-size="10.00">cameraserver/CameraServer.h</text>
</a>
</g>
</g>
<!-- Node20&#45;&gt;Node22 -->
<g id="edge27" class="edge">
<title>Node20&#45;&gt;Node22</title>
<path fill="none" stroke="midnightblue" d="M514.76,-67.48C505.34,-58.28 490.14,-43.46 478.55,-32.16"/>
<polygon fill="midnightblue" stroke="midnightblue" points="480.83,-29.49 471.22,-25.01 475.94,-34.5 480.83,-29.49"/>
</g>
<!-- Node23 -->
<g id="node23" class="node">
<title>Node23</title>
<g id="a_node23"><a xlink:title=" ">
<polygon fill="none" stroke="#bfbfbf" points="554.5,-6 554.5,-25 614.5,-25 614.5,-6 554.5,-6"/>
<text text-anchor="middle" x="584.5" y="-13" font-family="Helvetica,sans-Serif" font-size="10.00">wpi/json.h</text>
</a>
</g>
</g>
<!-- Node20&#45;&gt;Node23 -->
<g id="edge28" class="edge">
<title>Node20&#45;&gt;Node23</title>
<path fill="none" stroke="midnightblue" d="M532.24,-67.48C541.66,-58.28 556.86,-43.46 568.45,-32.16"/>
<polygon fill="midnightblue" stroke="midnightblue" points="571.06,-34.5 575.78,-25.01 566.17,-29.49 571.06,-34.5"/>
</g>
<!-- Node24&#45;&gt;Node15 -->
<g id="edge30" class="edge">
<title>Node24&#45;&gt;Node15</title>
<path fill="none" stroke="midnightblue" d="M283.85,-86.51C312.74,-96.62 357.7,-113.57 386.46,-125.13"/>
<polygon fill="midnightblue" stroke="midnightblue" points="385.32,-128.45 395.91,-128.98 387.96,-121.96 385.32,-128.45"/>
</g>
<!-- Node25 -->
<g id="node25" class="node">
<title>Node25</title>
<g id="a_node25"><a xlink:title=" ">
<polygon fill="none" stroke="#bfbfbf" points="141.5,-6 141.5,-25 203.5,-25 203.5,-6 141.5,-6"/>
<text text-anchor="middle" x="172.5" y="-13" font-family="Helvetica,sans-Serif" font-size="10.00">type_traits</text>
</a>
</g>
</g>
<!-- Node24&#45;&gt;Node25 -->
<g id="edge31" class="edge">
<title>Node24&#45;&gt;Node25</title>
<path fill="none" stroke="midnightblue" d="M244.46,-67.48C230.99,-57.93 208.93,-42.31 192.78,-30.87"/>
<polygon fill="midnightblue" stroke="midnightblue" points="194.7,-27.93 184.51,-25.01 190.65,-33.65 194.7,-27.93"/>
</g>
<!-- Node26 -->
<g id="node26" class="node">
<title>Node26</title>
<g id="a_node26"><a xlink:title=" ">
<polygon fill="none" stroke="#bfbfbf" points="71.5,-6 71.5,-25 123.5,-25 123.5,-6 71.5,-6"/>
<text text-anchor="middle" x="97.5" y="-13" font-family="Helvetica,sans-Serif" font-size="10.00">sstream</text>
</a>
</g>
</g>
<!-- Node24&#45;&gt;Node26 -->
<g id="edge32" class="edge">
<title>Node24&#45;&gt;Node26</title>
<path fill="none" stroke="midnightblue" d="M231.68,-67.36C206.56,-58.53 166.66,-44.27 132.5,-31 130.86,-30.36 129.17,-29.7 127.48,-29.02"/>
<polygon fill="midnightblue" stroke="midnightblue" points="128.38,-25.61 117.8,-25.09 125.74,-32.1 128.38,-25.61"/>
</g>
<!-- Node27&#45;&gt;Node2 -->
<g id="edge34" class="edge">
<title>Node27&#45;&gt;Node2</title>
<path fill="none" stroke="midnightblue" d="M1363.54,-148.01C1357.51,-150.34 1350.3,-152.6 1343.5,-154 1216.11,-180.16 810.12,-194.27 682.9,-197.99"/>
<polygon fill="midnightblue" stroke="midnightblue" points="682.73,-194.49 672.84,-198.28 682.94,-201.49 682.73,-194.49"/>
</g>
</g>
</svg>
