<?xml version="1.0" encoding="UTF-8" standalone="no"?>
<!DOCTYPE svg PUBLIC "-//W3C//DTD SVG 1.1//EN"
 "http://www.w3.org/Graphics/SVG/1.1/DTD/svg11.dtd">
<!-- Generated by graphviz version 2.49.3 (20211027.1534)
 -->
<!-- Title: lib&#45;vs/src/core/visioncamera.h Pages: 1 -->
<svg width="1210pt" height="196pt"
 viewBox="0.00 0.00 1209.50 196.00" xmlns="http://www.w3.org/2000/svg" xmlns:xlink="http://www.w3.org/1999/xlink">
<g id="graph0" class="graph" transform="scale(1 1) rotate(0) translate(4 192)">
<title>lib&#45;vs/src/core/visioncamera.h</title>
<!-- Node1 -->
<g id="node1" class="node">
<title>Node1</title>
<g id="a_node1"><a xlink:title=" ">
<polygon fill="#bfbfbf" stroke="black" points="353.5,-168.5 353.5,-187.5 499.5,-187.5 499.5,-168.5 353.5,-168.5"/>
<text text-anchor="middle" x="426.5" y="-175.5" font-family="Helvetica,sans-Serif" font-size="10.00">lib&#45;vs/src/core/visioncamera.h</text>
</a>
</g>
</g>
<!-- Node2 -->
<g id="node2" class="node">
<title>Node2</title>
<g id="a_node2"><a xlink:href="config_8h.html" target="_top" xlink:title=" ">
<polygon fill="none" stroke="black" points="82.5,-112.5 82.5,-131.5 196.5,-131.5 196.5,-112.5 82.5,-112.5"/>
<text text-anchor="middle" x="139.5" y="-119.5" font-family="Helvetica,sans-Serif" font-size="10.00">lib&#45;vs/src/core/config.h</text>
</a>
</g>
</g>
<!-- Node1&#45;&gt;Node2 -->
<g id="edge1" class="edge">
<title>Node1&#45;&gt;Node2</title>
<path fill="none" stroke="midnightblue" d="M370.89,-166.54C316.65,-156.33 235.16,-141 184.76,-131.52"/>
<polygon fill="midnightblue" stroke="midnightblue" points="370.55,-170.03 381.02,-168.44 371.84,-163.15 370.55,-170.03"/>
</g>
<!-- Node4 -->
<g id="node4" class="node">
<title>Node4</title>
<g id="a_node4"><a xlink:href="vision_8h.html" target="_top" xlink:title=" ">
<polygon fill="none" stroke="black" points="290.5,-112.5 290.5,-131.5 404.5,-131.5 404.5,-112.5 290.5,-112.5"/>
<text text-anchor="middle" x="347.5" y="-119.5" font-family="Helvetica,sans-Serif" font-size="10.00">lib&#45;vs/src/core/vision.h</text>
</a>
</g>
</g>
<!-- Node1&#45;&gt;Node4 -->
<g id="edge3" class="edge">
<title>Node1&#45;&gt;Node4</title>
<path fill="none" stroke="midnightblue" d="M405.47,-162.62C391.03,-152.76 372.36,-139.99 360.16,-131.65"/>
<polygon fill="midnightblue" stroke="midnightblue" points="403.58,-165.57 413.81,-168.32 407.53,-159.79 403.58,-165.57"/>
</g>
<!-- Node7 -->
<g id="node7" class="node">
<title>Node7</title>
<g id="a_node7"><a xlink:href="visioncamera_8cpp.html" target="_top" xlink:title=" ">
<polygon fill="none" stroke="black" points="427,-56.5 427,-75.5 584,-75.5 584,-56.5 427,-56.5"/>
<text text-anchor="middle" x="505.5" y="-63.5" font-family="Helvetica,sans-Serif" font-size="10.00">lib&#45;vs/src/core/visioncamera.cpp</text>
</a>
</g>
</g>
<!-- Node1&#45;&gt;Node7 -->
<g id="edge8" class="edge">
<title>Node1&#45;&gt;Node7</title>
<path fill="none" stroke="midnightblue" d="M438.74,-159.96C455.86,-136.12 486.32,-93.71 499.33,-75.59"/>
<polygon fill="midnightblue" stroke="midnightblue" points="435.69,-158.2 432.7,-168.37 441.38,-162.29 435.69,-158.2"/>
</g>
<!-- Node8 -->
<g id="node8" class="node">
<title>Node8</title>
<g id="a_node8"><a xlink:href="visionserver2_8h.html" target="_top" xlink:title=" ">
<polygon fill="none" stroke="black" points="798.5,-112.5 798.5,-131.5 944.5,-131.5 944.5,-112.5 798.5,-112.5"/>
<text text-anchor="middle" x="871.5" y="-119.5" font-family="Helvetica,sans-Serif" font-size="10.00">lib&#45;vs/src/core/visionserver2.h</text>
</a>
</g>
</g>
<!-- Node1&#45;&gt;Node8 -->
<g id="edge9" class="edge">
<title>Node1&#45;&gt;Node8</title>
<path fill="none" stroke="midnightblue" d="M507.02,-167.23C591.02,-157.04 721.39,-141.22 801.32,-131.52"/>
<polygon fill="midnightblue" stroke="midnightblue" points="506.52,-163.76 497.01,-168.44 507.36,-170.71 506.52,-163.76"/>
</g>
<!-- Node3 -->
<g id="node3" class="node">
<title>Node3</title>
<g id="a_node3"><a xlink:href="config_8cpp.html" target="_top" xlink:title=" ">
<polygon fill="none" stroke="black" points="0,-56.5 0,-75.5 125,-75.5 125,-56.5 0,-56.5"/>
<text text-anchor="middle" x="62.5" y="-63.5" font-family="Helvetica,sans-Serif" font-size="10.00">lib&#45;vs/src/core/config.cpp</text>
</a>
</g>
</g>
<!-- Node2&#45;&gt;Node3 -->
<g id="edge2" class="edge">
<title>Node2&#45;&gt;Node3</title>
<path fill="none" stroke="midnightblue" d="M118.6,-106.34C104.59,-96.52 86.62,-83.91 74.84,-75.65"/>
<polygon fill="midnightblue" stroke="midnightblue" points="116.93,-109.45 127.13,-112.32 120.95,-103.72 116.93,-109.45"/>
</g>
<!-- Node5 -->
<g id="node5" class="node">
<title>Node5</title>
<g id="a_node5"><a xlink:href="vision_8cpp.html" target="_top" xlink:title=" ">
<polygon fill="none" stroke="black" points="143,-56.5 143,-75.5 268,-75.5 268,-56.5 143,-56.5"/>
<text text-anchor="middle" x="205.5" y="-63.5" font-family="Helvetica,sans-Serif" font-size="10.00">lib&#45;vs/src/core/vision.cpp</text>
</a>
</g>
</g>
<!-- Node4&#45;&gt;Node5 -->
<g id="edge4" class="edge">
<title>Node4&#45;&gt;Node5</title>
<path fill="none" stroke="midnightblue" d="M315.34,-108.77C288.67,-98.63 251.43,-84.47 227.9,-75.52"/>
<polygon fill="midnightblue" stroke="midnightblue" points="314.41,-112.16 325,-112.44 316.9,-105.62 314.41,-112.16"/>
</g>
<!-- Node6 -->
<g id="node6" class="node">
<title>Node6</title>
<g id="a_node6"><a xlink:href="vision_8inc.html" target="_top" xlink:title=" ">
<polygon fill="none" stroke="black" points="286.5,-56.5 286.5,-75.5 408.5,-75.5 408.5,-56.5 286.5,-56.5"/>
<text text-anchor="middle" x="347.5" y="-63.5" font-family="Helvetica,sans-Serif" font-size="10.00">lib&#45;vs/src/core/vision.inc</text>
</a>
</g>
</g>
<!-- Node4&#45;&gt;Node6 -->
<g id="edge5" class="edge">
<title>Node4&#45;&gt;Node6</title>
<path fill="none" stroke="midnightblue" d="M341.03,-102.1C340.4,-93.14 340.84,-82.86 342.37,-75.75"/>
<polygon fill="midnightblue" stroke="midnightblue" points="337.57,-102.62 342.33,-112.08 344.51,-101.71 337.57,-102.62"/>
</g>
<!-- Node4&#45;&gt;Node7 -->
<g id="edge7" class="edge">
<title>Node4&#45;&gt;Node7</title>
<path fill="none" stroke="midnightblue" d="M382.11,-109.17C411.86,-99 454.05,-84.59 480.58,-75.52"/>
<polygon fill="midnightblue" stroke="midnightblue" points="380.87,-105.9 372.54,-112.44 383.13,-112.52 380.87,-105.9"/>
</g>
<!-- Node6&#45;&gt;Node4 -->
<g id="edge6" class="edge">
<title>Node6&#45;&gt;Node4</title>
<path fill="none" stroke="midnightblue" d="M353.96,-85.69C354.61,-94.64 354.18,-104.93 352.67,-112.08"/>
<polygon fill="midnightblue" stroke="midnightblue" points="357.42,-85.2 352.63,-75.75 350.48,-86.13 357.42,-85.2"/>
</g>
<!-- Node9 -->
<g id="node9" class="node">
<title>Node9</title>
<g id="a_node9"><a xlink:href="target_8h.html" target="_top" xlink:title=" ">
<polygon fill="none" stroke="black" points="602,-56.5 602,-75.5 715,-75.5 715,-56.5 602,-56.5"/>
<text text-anchor="middle" x="658.5" y="-63.5" font-family="Helvetica,sans-Serif" font-size="10.00">lib&#45;vs/src/core/target.h</text>
</a>
</g>
</g>
<!-- Node8&#45;&gt;Node9 -->
<g id="edge10" class="edge">
<title>Node8&#45;&gt;Node9</title>
<path fill="none" stroke="midnightblue" d="M827.95,-109.96C787.72,-99.76 728.8,-84.82 692.09,-75.52"/>
<polygon fill="midnightblue" stroke="midnightblue" points="827.2,-113.38 837.75,-112.44 828.92,-106.59 827.2,-113.38"/>
</g>
<!-- Node10 -->
<g id="node10" class="node">
<title>Node10</title>
<g id="a_node10"><a xlink:href="tfmodel_8h.html" target="_top" xlink:title=" ">
<polygon fill="none" stroke="black" points="733,-56.5 733,-75.5 854,-75.5 854,-56.5 733,-56.5"/>
<text text-anchor="middle" x="793.5" y="-63.5" font-family="Helvetica,sans-Serif" font-size="10.00">lib&#45;vs/src/core/tfmodel.h</text>
</a>
</g>
</g>
<!-- Node8&#45;&gt;Node10 -->
<g id="edge11" class="edge">
<title>Node8&#45;&gt;Node10</title>
<path fill="none" stroke="midnightblue" d="M850.73,-106.62C836.48,-96.76 818.04,-83.99 806,-75.65"/>
<polygon fill="midnightblue" stroke="midnightblue" points="848.75,-109.51 858.97,-112.32 852.74,-103.75 848.75,-109.51"/>
</g>
<!-- Node13 -->
<g id="node13" class="node">
<title>Node13</title>
<g id="a_node13"><a xlink:href="visionserver2_8cpp.html" target="_top" xlink:title=" ">
<polygon fill="none" stroke="black" points="872,-56.5 872,-75.5 1029,-75.5 1029,-56.5 872,-56.5"/>
<text text-anchor="middle" x="950.5" y="-63.5" font-family="Helvetica,sans-Serif" font-size="10.00">lib&#45;vs/src/core/visionserver2.cpp</text>
</a>
</g>
</g>
<!-- Node8&#45;&gt;Node13 -->
<g id="edge15" class="edge">
<title>Node8&#45;&gt;Node13</title>
<path fill="none" stroke="midnightblue" d="M892.53,-106.62C906.97,-96.76 925.64,-83.99 937.84,-75.65"/>
<polygon fill="midnightblue" stroke="midnightblue" points="890.47,-103.79 884.19,-112.32 894.42,-109.57 890.47,-103.79"/>
</g>
<!-- Node14 -->
<g id="node14" class="node">
<title>Node14</title>
<g id="a_node14"><a xlink:href="visionserver2_8inc.html" target="_top" xlink:title=" ">
<polygon fill="none" stroke="black" points="1047.5,-56.5 1047.5,-75.5 1201.5,-75.5 1201.5,-56.5 1047.5,-56.5"/>
<text text-anchor="middle" x="1124.5" y="-63.5" font-family="Helvetica,sans-Serif" font-size="10.00">lib&#45;vs/src/core/visionserver2.inc</text>
</a>
</g>
</g>
<!-- Node8&#45;&gt;Node14 -->
<g id="edge16" class="edge">
<title>Node8&#45;&gt;Node14</title>
<path fill="none" stroke="midnightblue" d="M916.5,-110.22C962.53,-100.01 1033.49,-84.9 1079.52,-75.52"/>
<polygon fill="midnightblue" stroke="midnightblue" points="915.5,-106.85 906.5,-112.44 917.02,-113.69 915.5,-106.85"/>
</g>
<!-- Node11 -->
<g id="node11" class="node">
<title>Node11</title>
<g id="a_node11"><a xlink:href="tfmodel_8cpp.html" target="_top" xlink:title=" ">
<polygon fill="none" stroke="black" points="580,-0.5 580,-19.5 711,-19.5 711,-0.5 580,-0.5"/>
<text text-anchor="middle" x="645.5" y="-7.5" font-family="Helvetica,sans-Serif" font-size="10.00">lib&#45;vs/src/core/tfmodel.cpp</text>
</a>
</g>
</g>
<!-- Node10&#45;&gt;Node11 -->
<g id="edge12" class="edge">
<title>Node10&#45;&gt;Node11</title>
<path fill="none" stroke="midnightblue" d="M760.35,-52.91C732.53,-42.75 693.48,-28.51 668.84,-19.52"/>
<polygon fill="midnightblue" stroke="midnightblue" points="759.46,-56.3 770.05,-56.44 761.85,-49.73 759.46,-56.3"/>
</g>
<!-- Node12 -->
<g id="node12" class="node">
<title>Node12</title>
<g id="a_node12"><a xlink:href="tfmodel_8inc.html" target="_top" xlink:title=" ">
<polygon fill="none" stroke="black" points="729.5,-0.5 729.5,-19.5 857.5,-19.5 857.5,-0.5 729.5,-0.5"/>
<text text-anchor="middle" x="793.5" y="-7.5" font-family="Helvetica,sans-Serif" font-size="10.00">lib&#45;vs/src/core/tfmodel.inc</text>
</a>
</g>
</g>
<!-- Node10&#45;&gt;Node12 -->
<g id="edge13" class="edge">
<title>Node10&#45;&gt;Node12</title>
<path fill="none" stroke="midnightblue" d="M787.03,-46.1C786.4,-37.14 786.84,-26.86 788.37,-19.75"/>
<polygon fill="midnightblue" stroke="midnightblue" points="783.57,-46.62 788.33,-56.08 790.51,-45.71 783.57,-46.62"/>
</g>
<!-- Node12&#45;&gt;Node10 -->
<g id="edge14" class="edge">
<title>Node12&#45;&gt;Node10</title>
<path fill="none" stroke="midnightblue" d="M799.96,-29.69C800.61,-38.64 800.18,-48.93 798.67,-56.08"/>
<polygon fill="midnightblue" stroke="midnightblue" points="803.42,-29.2 798.63,-19.75 796.48,-30.13 803.42,-29.2"/>
</g>
<!-- Node14&#45;&gt;Node8 -->
<g id="edge17" class="edge">
<title>Node14&#45;&gt;Node8</title>
<path fill="none" stroke="midnightblue" d="M1079.7,-77.74C1033.74,-87.93 962.78,-103.04 916.68,-112.44"/>
<polygon fill="midnightblue" stroke="midnightblue" points="1080.68,-81.11 1089.68,-75.52 1079.16,-74.27 1080.68,-81.11"/>
</g>
</g>
</svg>
