<?xml version="1.0" encoding="UTF-8" standalone="no"?>
<!DOCTYPE svg PUBLIC "-//W3C//DTD SVG 1.1//EN"
 "http://www.w3.org/Graphics/SVG/1.1/DTD/svg11.dtd">
<!-- Generated by graphviz version 2.49.3 (20211027.1534)
 -->
<!-- Title: lib&#45;vs/src/core/vision.inc Pages: 1 -->
<svg width="882pt" height="207pt"
 viewBox="0.00 0.00 881.50 207.00" xmlns="http://www.w3.org/2000/svg" xmlns:xlink="http://www.w3.org/1999/xlink">
<g id="graph0" class="graph" transform="scale(1 1) rotate(0) translate(4 203)">
<title>lib&#45;vs/src/core/vision.inc</title>
<!-- Node1 -->
<g id="node1" class="node">
<title>Node1</title>
<g id="a_node1"><a xlink:title=" ">
<polygon fill="#bfbfbf" stroke="black" points="315,-179.5 315,-198.5 437,-198.5 437,-179.5 315,-179.5"/>
<text text-anchor="middle" x="376" y="-186.5" font-family="Helvetica,sans-Serif" font-size="10.00">lib&#45;vs/src/core/vision.inc</text>
</a>
</g>
</g>
<!-- Node2 -->
<g id="node2" class="node">
<title>Node2</title>
<g id="a_node2"><a xlink:href="vision_8h.html" target="_top" xlink:title=" ">
<polygon fill="none" stroke="black" points="351,-123.5 351,-142.5 401,-142.5 401,-123.5 351,-123.5"/>
<text text-anchor="middle" x="376" y="-130.5" font-family="Helvetica,sans-Serif" font-size="10.00">vision.h</text>
</a>
</g>
</g>
<!-- Node1&#45;&gt;Node2 -->
<g id="edge1" class="edge">
<title>Node1&#45;&gt;Node2</title>
<path fill="none" stroke="midnightblue" d="M370.83,-179.08C369.32,-171.93 368.89,-161.64 369.54,-152.69"/>
<polygon fill="midnightblue" stroke="midnightblue" points="373.02,-153.13 370.87,-142.75 366.08,-152.2 373.02,-153.13"/>
</g>
<!-- Node2&#45;&gt;Node1 -->
<g id="edge17" class="edge">
<title>Node2&#45;&gt;Node1</title>
<path fill="none" stroke="midnightblue" d="M381.13,-142.75C382.66,-149.86 383.1,-160.14 382.47,-169.1"/>
<polygon fill="midnightblue" stroke="midnightblue" points="378.99,-168.71 381.17,-179.08 385.93,-169.62 378.99,-168.71"/>
</g>
<!-- Node3 -->
<g id="node3" class="node">
<title>Node3</title>
<g id="a_node3"><a xlink:title=" ">
<polygon fill="none" stroke="#bfbfbf" points="0,-67.5 0,-86.5 62,-86.5 62,-67.5 0,-67.5"/>
<text text-anchor="middle" x="31" y="-74.5" font-family="Helvetica,sans-Serif" font-size="10.00">type_traits</text>
</a>
</g>
</g>
<!-- Node2&#45;&gt;Node3 -->
<g id="edge2" class="edge">
<title>Node2&#45;&gt;Node3</title>
<path fill="none" stroke="midnightblue" d="M350.99,-128.95C300.29,-122.64 181.63,-107.18 72.27,-87.13"/>
<polygon fill="midnightblue" stroke="midnightblue" points="72.87,-83.68 62.4,-85.3 71.59,-90.56 72.87,-83.68"/>
</g>
<!-- Node4 -->
<g id="node4" class="node">
<title>Node4</title>
<g id="a_node4"><a xlink:title=" ">
<polygon fill="none" stroke="#bfbfbf" points="80,-67.5 80,-86.5 136,-86.5 136,-67.5 80,-67.5"/>
<text text-anchor="middle" x="108" y="-74.5" font-family="Helvetica,sans-Serif" font-size="10.00">algorithm</text>
</a>
</g>
</g>
<!-- Node2&#45;&gt;Node4 -->
<g id="edge3" class="edge">
<title>Node2&#45;&gt;Node4</title>
<path fill="none" stroke="midnightblue" d="M350.97,-127.52C310.15,-120.12 226.51,-104.61 146.04,-87.15"/>
<polygon fill="midnightblue" stroke="midnightblue" points="146.77,-83.73 136.25,-85.01 145.27,-90.57 146.77,-83.73"/>
</g>
<!-- Node5 -->
<g id="node5" class="node">
<title>Node5</title>
<g id="a_node5"><a xlink:title=" ">
<polygon fill="none" stroke="#bfbfbf" points="154,-67.5 154,-86.5 198,-86.5 198,-67.5 154,-67.5"/>
<text text-anchor="middle" x="176" y="-74.5" font-family="Helvetica,sans-Serif" font-size="10.00">vector</text>
</a>
</g>
</g>
<!-- Node2&#45;&gt;Node5 -->
<g id="edge4" class="edge">
<title>Node2&#45;&gt;Node5</title>
<path fill="none" stroke="midnightblue" d="M350.76,-125.47C319.49,-117.33 264.36,-102.86 208.1,-87.27"/>
<polygon fill="midnightblue" stroke="midnightblue" points="208.91,-83.86 198.33,-84.55 207.03,-90.6 208.91,-83.86"/>
</g>
<!-- Node6 -->
<g id="node6" class="node">
<title>Node6</title>
<g id="a_node6"><a xlink:title=" ">
<polygon fill="none" stroke="#bfbfbf" points="216,-67.5 216,-86.5 254,-86.5 254,-67.5 216,-67.5"/>
<text text-anchor="middle" x="235" y="-74.5" font-family="Helvetica,sans-Serif" font-size="10.00">array</text>
</a>
</g>
</g>
<!-- Node2&#45;&gt;Node6 -->
<g id="edge5" class="edge">
<title>Node2&#45;&gt;Node6</title>
<path fill="none" stroke="midnightblue" d="M353.66,-123.44C329.28,-114.11 290.2,-99.14 263.6,-88.95"/>
<polygon fill="midnightblue" stroke="midnightblue" points="264.66,-85.61 254.07,-85.3 262.16,-92.15 264.66,-85.61"/>
</g>
<!-- Node7 -->
<g id="node7" class="node">
<title>Node7</title>
<g id="a_node7"><a xlink:title=" ">
<polygon fill="none" stroke="#bfbfbf" points="272.5,-67.5 272.5,-86.5 391.5,-86.5 391.5,-67.5 272.5,-67.5"/>
<text text-anchor="middle" x="332" y="-74.5" font-family="Helvetica,sans-Serif" font-size="10.00">opencv2/core/types.hpp</text>
</a>
</g>
</g>
<!-- Node2&#45;&gt;Node7 -->
<g id="edge6" class="edge">
<title>Node2&#45;&gt;Node7</title>
<path fill="none" stroke="midnightblue" d="M368.73,-123.08C362.46,-115.38 353.21,-104.03 345.57,-94.65"/>
<polygon fill="midnightblue" stroke="midnightblue" points="348.16,-92.29 339.13,-86.75 342.73,-96.71 348.16,-92.29"/>
</g>
<!-- Node8 -->
<g id="node8" class="node">
<title>Node8</title>
<g id="a_node8"><a xlink:title=" ">
<polygon fill="none" stroke="#bfbfbf" points="197.5,-0.5 197.5,-30.5 338.5,-30.5 338.5,-0.5 197.5,-0.5"/>
<text text-anchor="start" x="205.5" y="-18.5" font-family="Helvetica,sans-Serif" font-size="10.00">networktables/NetworkTable</text>
<text text-anchor="middle" x="268" y="-7.5" font-family="Helvetica,sans-Serif" font-size="10.00">Instance.h</text>
</a>
</g>
</g>
<!-- Node2&#45;&gt;Node8 -->
<g id="edge7" class="edge">
<title>Node2&#45;&gt;Node8</title>
<path fill="none" stroke="midnightblue" d="M384.19,-123.39C395.59,-110.32 413.5,-85.11 401,-67 392.53,-54.72 362.42,-42.78 332.99,-33.59"/>
<polygon fill="midnightblue" stroke="midnightblue" points="333.65,-30.14 323.06,-30.59 331.62,-36.84 333.65,-30.14"/>
</g>
<!-- Node9 -->
<g id="node9" class="node">
<title>Node9</title>
<g id="a_node9"><a xlink:title=" ">
<polygon fill="none" stroke="#bfbfbf" points="356.5,-6 356.5,-25 505.5,-25 505.5,-6 356.5,-6"/>
<text text-anchor="middle" x="431" y="-13" font-family="Helvetica,sans-Serif" font-size="10.00">networktables/NetworkTable.h</text>
</a>
</g>
</g>
<!-- Node2&#45;&gt;Node9 -->
<g id="edge8" class="edge">
<title>Node2&#45;&gt;Node9</title>
<path fill="none" stroke="midnightblue" d="M394.39,-123.47C408.1,-116 425.81,-103.71 434,-87 441.9,-70.87 439.77,-50.09 436.5,-35.28"/>
<polygon fill="midnightblue" stroke="midnightblue" points="439.81,-34.1 433.93,-25.29 433.03,-35.85 439.81,-34.1"/>
</g>
<!-- Node10 -->
<g id="node10" class="node">
<title>Node10</title>
<g id="a_node10"><a xlink:title=" ">
<polygon fill="none" stroke="#bfbfbf" points="724.5,-6 724.5,-25 873.5,-25 873.5,-6 724.5,-6"/>
<text text-anchor="middle" x="799" y="-13" font-family="Helvetica,sans-Serif" font-size="10.00">cameraserver/CameraServer.h</text>
</a>
</g>
</g>
<!-- Node2&#45;&gt;Node10 -->
<g id="edge9" class="edge">
<title>Node2&#45;&gt;Node10</title>
<path fill="none" stroke="midnightblue" d="M401.02,-128.49C439.61,-122.62 515.63,-109.2 577,-87 595.32,-80.37 597.85,-74.07 616,-67 659.79,-49.94 711.57,-36.21 748.86,-27.41"/>
<polygon fill="midnightblue" stroke="midnightblue" points="750.03,-30.73 758.97,-25.05 748.44,-23.91 750.03,-30.73"/>
</g>
<!-- Node11 -->
<g id="node11" class="node">
<title>Node11</title>
<g id="a_node11"><a xlink:title=" ">
<polygon fill="none" stroke="#bfbfbf" points="624.5,-67.5 624.5,-86.5 719.5,-86.5 719.5,-67.5 624.5,-67.5"/>
<text text-anchor="middle" x="672" y="-74.5" font-family="Helvetica,sans-Serif" font-size="10.00">wpi/StringExtras.h</text>
</a>
</g>
</g>
<!-- Node2&#45;&gt;Node11 -->
<g id="edge10" class="edge">
<title>Node2&#45;&gt;Node11</title>
<path fill="none" stroke="midnightblue" d="M401.24,-127.4C448.35,-118.8 550.73,-100.12 615.22,-88.36"/>
<polygon fill="midnightblue" stroke="midnightblue" points="616.03,-91.77 625.24,-86.53 614.77,-84.88 616.03,-91.77"/>
</g>
<!-- Node12 -->
<g id="node12" class="node">
<title>Node12</title>
<g id="a_node12"><a xlink:href="visioncamera_8h.html" target="_top" xlink:title=" ">
<polygon fill="none" stroke="black" points="486,-67.5 486,-86.5 568,-86.5 568,-67.5 486,-67.5"/>
<text text-anchor="middle" x="527" y="-74.5" font-family="Helvetica,sans-Serif" font-size="10.00">visioncamera.h</text>
</a>
</g>
</g>
<!-- Node2&#45;&gt;Node12 -->
<g id="edge11" class="edge">
<title>Node2&#45;&gt;Node12</title>
<path fill="none" stroke="midnightblue" d="M399.93,-123.44C425.22,-114.4 465.3,-100.06 493.68,-89.92"/>
<polygon fill="midnightblue" stroke="midnightblue" points="494.95,-93.18 503.19,-86.52 492.59,-86.59 494.95,-93.18"/>
</g>
<!-- Node12&#45;&gt;Node8 -->
<g id="edge13" class="edge">
<title>Node12&#45;&gt;Node8</title>
<path fill="none" stroke="midnightblue" d="M489.89,-67.48C450.63,-58.46 387.74,-44.01 338.92,-32.79"/>
<polygon fill="midnightblue" stroke="midnightblue" points="339.57,-29.35 329.04,-30.52 338,-36.17 339.57,-29.35"/>
</g>
<!-- Node12&#45;&gt;Node9 -->
<g id="edge14" class="edge">
<title>Node12&#45;&gt;Node9</title>
<path fill="none" stroke="midnightblue" d="M513.25,-67.48C497.63,-57.8 471.94,-41.87 453.42,-30.39"/>
<polygon fill="midnightblue" stroke="midnightblue" points="455.07,-27.3 444.73,-25.01 451.38,-33.25 455.07,-27.3"/>
</g>
<!-- Node12&#45;&gt;Node10 -->
<g id="edge15" class="edge">
<title>Node12&#45;&gt;Node10</title>
<path fill="none" stroke="midnightblue" d="M565.97,-67.48C614.55,-56.85 697.58,-38.68 750.3,-27.15"/>
<polygon fill="midnightblue" stroke="midnightblue" points="751.08,-30.57 760.1,-25.01 749.58,-23.73 751.08,-30.57"/>
</g>
<!-- Node13 -->
<g id="node13" class="node">
<title>Node13</title>
<g id="a_node13"><a xlink:title=" ">
<polygon fill="none" stroke="#bfbfbf" points="601,-6 601,-25 707,-25 707,-6 601,-6"/>
<text text-anchor="middle" x="654" y="-13" font-family="Helvetica,sans-Serif" font-size="10.00">opencv2/opencv.hpp</text>
</a>
</g>
</g>
<!-- Node12&#45;&gt;Node13 -->
<g id="edge12" class="edge">
<title>Node12&#45;&gt;Node13</title>
<path fill="none" stroke="midnightblue" d="M545.2,-67.48C566.51,-57.49 602.03,-40.85 626.66,-29.31"/>
<polygon fill="midnightblue" stroke="midnightblue" points="628.27,-32.42 635.84,-25.01 625.3,-26.08 628.27,-32.42"/>
</g>
<!-- Node14 -->
<g id="node14" class="node">
<title>Node14</title>
<g id="a_node14"><a xlink:title=" ">
<polygon fill="none" stroke="#bfbfbf" points="523,-6 523,-25 583,-25 583,-6 523,-6"/>
<text text-anchor="middle" x="553" y="-13" font-family="Helvetica,sans-Serif" font-size="10.00">wpi/json.h</text>
</a>
</g>
</g>
<!-- Node12&#45;&gt;Node14 -->
<g id="edge16" class="edge">
<title>Node12&#45;&gt;Node14</title>
<path fill="none" stroke="midnightblue" d="M530.73,-67.48C534.47,-58.9 540.36,-45.43 545.14,-34.48"/>
<polygon fill="midnightblue" stroke="midnightblue" points="548.48,-35.57 549.28,-25.01 542.07,-32.77 548.48,-35.57"/>
</g>
</g>
</svg>
