<?xml version="1.0" encoding="UTF-8" standalone="no"?>
<!DOCTYPE svg PUBLIC "-//W3C//DTD SVG 1.1//EN"
 "http://www.w3.org/Graphics/SVG/1.1/DTD/svg11.dtd">
<!-- Generated by graphviz version 2.49.3 (20211027.1534)
 -->
<!-- Title: lib&#45;vs/src/core/visionserver2.cpp Pages: 1 -->
<svg width="930pt" height="207pt"
 viewBox="0.00 0.00 929.50 207.00" xmlns="http://www.w3.org/2000/svg" xmlns:xlink="http://www.w3.org/1999/xlink">
<g id="graph0" class="graph" transform="scale(1 1) rotate(0) translate(4 203)">
<title>lib&#45;vs/src/core/visionserver2.cpp</title>
<!-- Node1 -->
<g id="node1" class="node">
<title>Node1</title>
<g id="a_node1"><a xlink:title=" ">
<polygon fill="#bfbfbf" stroke="black" points="332,-179.5 332,-198.5 489,-198.5 489,-179.5 332,-179.5"/>
<text text-anchor="middle" x="410.5" y="-186.5" font-family="Helvetica,sans-Serif" font-size="10.00">lib&#45;vs/src/core/visionserver2.cpp</text>
</a>
</g>
</g>
<!-- Node2 -->
<g id="node2" class="node">
<title>Node2</title>
<g id="a_node2"><a xlink:href="visionserver2_8h.html" target="_top" xlink:title=" ">
<polygon fill="none" stroke="black" points="308.5,-123.5 308.5,-142.5 390.5,-142.5 390.5,-123.5 308.5,-123.5"/>
<text text-anchor="middle" x="349.5" y="-130.5" font-family="Helvetica,sans-Serif" font-size="10.00">visionserver2.h</text>
</a>
</g>
</g>
<!-- Node1&#45;&gt;Node2 -->
<g id="edge1" class="edge">
<title>Node1&#45;&gt;Node2</title>
<path fill="none" stroke="midnightblue" d="M400.7,-179.32C391.68,-171.34 378.09,-159.31 367.18,-149.65"/>
<polygon fill="midnightblue" stroke="midnightblue" points="369.29,-146.84 359.48,-142.83 364.65,-152.08 369.29,-146.84"/>
</g>
<!-- Node18 -->
<g id="node18" class="node">
<title>Node18</title>
<g id="a_node18"><a xlink:title=" ">
<polygon fill="none" stroke="#bfbfbf" points="408.5,-123.5 408.5,-142.5 534.5,-142.5 534.5,-123.5 408.5,-123.5"/>
<text text-anchor="middle" x="471.5" y="-130.5" font-family="Helvetica,sans-Serif" font-size="10.00">cpp&#45;tools/src/resources.h</text>
</a>
</g>
</g>
<!-- Node1&#45;&gt;Node18 -->
<g id="edge20" class="edge">
<title>Node1&#45;&gt;Node18</title>
<path fill="none" stroke="midnightblue" d="M420.3,-179.32C429.32,-171.34 442.91,-159.31 453.82,-149.65"/>
<polygon fill="midnightblue" stroke="midnightblue" points="456.35,-152.08 461.52,-142.83 451.71,-146.84 456.35,-152.08"/>
</g>
<!-- Node3 -->
<g id="node3" class="node">
<title>Node3</title>
<g id="a_node3"><a xlink:title=" ">
<polygon fill="none" stroke="#bfbfbf" points="0,-67.5 0,-86.5 41,-86.5 41,-67.5 0,-67.5"/>
<text text-anchor="middle" x="20.5" y="-74.5" font-family="Helvetica,sans-Serif" font-size="10.00">string</text>
</a>
</g>
</g>
<!-- Node2&#45;&gt;Node3 -->
<g id="edge2" class="edge">
<title>Node2&#45;&gt;Node3</title>
<path fill="none" stroke="midnightblue" d="M308.05,-127.65C251.93,-121.34 148.58,-108.28 51.08,-86.83"/>
<polygon fill="midnightblue" stroke="midnightblue" points="51.58,-83.35 41.06,-84.59 50.05,-90.18 51.58,-83.35"/>
</g>
<!-- Node4 -->
<g id="node4" class="node">
<title>Node4</title>
<g id="a_node4"><a xlink:title=" ">
<polygon fill="none" stroke="#bfbfbf" points="59.5,-67.5 59.5,-86.5 105.5,-86.5 105.5,-67.5 59.5,-67.5"/>
<text text-anchor="middle" x="82.5" y="-74.5" font-family="Helvetica,sans-Serif" font-size="10.00">atomic</text>
</a>
</g>
</g>
<!-- Node2&#45;&gt;Node4 -->
<g id="edge3" class="edge">
<title>Node2&#45;&gt;Node4</title>
<path fill="none" stroke="midnightblue" d="M308.1,-125.17C263,-117.48 188.56,-104.09 115.36,-87.04"/>
<polygon fill="midnightblue" stroke="midnightblue" points="116.05,-83.61 105.51,-84.72 114.44,-90.42 116.05,-83.61"/>
</g>
<!-- Node5 -->
<g id="node5" class="node">
<title>Node5</title>
<g id="a_node5"><a xlink:title=" ">
<polygon fill="none" stroke="#bfbfbf" points="123.5,-67.5 123.5,-86.5 167.5,-86.5 167.5,-67.5 123.5,-67.5"/>
<text text-anchor="middle" x="145.5" y="-74.5" font-family="Helvetica,sans-Serif" font-size="10.00">thread</text>
</a>
</g>
</g>
<!-- Node2&#45;&gt;Node5 -->
<g id="edge4" class="edge">
<title>Node2&#45;&gt;Node5</title>
<path fill="none" stroke="midnightblue" d="M315.61,-123.48C282.66,-115.14 230.95,-101.87 177.48,-87.22"/>
<polygon fill="midnightblue" stroke="midnightblue" points="178.4,-83.84 167.83,-84.56 176.54,-90.59 178.4,-83.84"/>
</g>
<!-- Node6 -->
<g id="node6" class="node">
<title>Node6</title>
<g id="a_node6"><a xlink:title=" ">
<polygon fill="none" stroke="#bfbfbf" points="185.5,-67.5 185.5,-86.5 231.5,-86.5 231.5,-67.5 185.5,-67.5"/>
<text text-anchor="middle" x="208.5" y="-74.5" font-family="Helvetica,sans-Serif" font-size="10.00">chrono</text>
</a>
</g>
</g>
<!-- Node2&#45;&gt;Node6 -->
<g id="edge5" class="edge">
<title>Node2&#45;&gt;Node6</title>
<path fill="none" stroke="midnightblue" d="M327.16,-123.44C303.75,-114.48 266.76,-100.31 240.31,-90.18"/>
<polygon fill="midnightblue" stroke="midnightblue" points="241.33,-86.82 230.74,-86.52 238.82,-93.36 241.33,-86.82"/>
</g>
<!-- Node7 -->
<g id="node7" class="node">
<title>Node7</title>
<g id="a_node7"><a xlink:title=" ">
<polygon fill="none" stroke="#bfbfbf" points="249.5,-67.5 249.5,-86.5 321.5,-86.5 321.5,-67.5 249.5,-67.5"/>
<text text-anchor="middle" x="285.5" y="-74.5" font-family="Helvetica,sans-Serif" font-size="10.00">initializer_list</text>
</a>
</g>
</g>
<!-- Node2&#45;&gt;Node7 -->
<g id="edge6" class="edge">
<title>Node2&#45;&gt;Node7</title>
<path fill="none" stroke="midnightblue" d="M339.22,-123.32C329.66,-115.26 315.22,-103.08 303.72,-93.37"/>
<polygon fill="midnightblue" stroke="midnightblue" points="305.87,-90.61 295.97,-86.83 301.36,-95.96 305.87,-90.61"/>
</g>
<!-- Node8 -->
<g id="node8" class="node">
<title>Node8</title>
<g id="a_node8"><a xlink:title=" ">
<polygon fill="none" stroke="#bfbfbf" points="95.5,-6 95.5,-25 201.5,-25 201.5,-6 95.5,-6"/>
<text text-anchor="middle" x="148.5" y="-13" font-family="Helvetica,sans-Serif" font-size="10.00">opencv2/opencv.hpp</text>
</a>
</g>
</g>
<!-- Node2&#45;&gt;Node8 -->
<g id="edge7" class="edge">
<title>Node2&#45;&gt;Node8</title>
<path fill="none" stroke="midnightblue" d="M349.49,-123.07C348.98,-109.12 345.9,-82.19 330.5,-67 325.47,-62.04 244.68,-40.86 192.45,-27.55"/>
<polygon fill="midnightblue" stroke="midnightblue" points="193.29,-24.16 182.74,-25.09 191.57,-30.94 193.29,-24.16"/>
</g>
<!-- Node9 -->
<g id="node9" class="node">
<title>Node9</title>
<g id="a_node9"><a xlink:title=" ">
<polygon fill="none" stroke="#bfbfbf" points="219,-6 219,-25 368,-25 368,-6 219,-6"/>
<text text-anchor="middle" x="293.5" y="-13" font-family="Helvetica,sans-Serif" font-size="10.00">networktables/NetworkTable.h</text>
</a>
</g>
</g>
<!-- Node2&#45;&gt;Node9 -->
<g id="edge8" class="edge">
<title>Node2&#45;&gt;Node9</title>
<path fill="none" stroke="midnightblue" d="M354.97,-123.11C362.2,-110.12 372.96,-85.5 363.5,-67 355.02,-50.43 338.29,-38.05 323.31,-29.69"/>
<polygon fill="midnightblue" stroke="midnightblue" points="324.79,-26.52 314.3,-25.01 321.56,-32.73 324.79,-26.52"/>
</g>
<!-- Node10 -->
<g id="node10" class="node">
<title>Node10</title>
<g id="a_node10"><a xlink:title=" ">
<polygon fill="none" stroke="#bfbfbf" points="516,-67.5 516,-86.5 623,-86.5 623,-67.5 516,-67.5"/>
<text text-anchor="middle" x="569.5" y="-74.5" font-family="Helvetica,sans-Serif" font-size="10.00">cpp&#45;tools/src/types.h</text>
</a>
</g>
</g>
<!-- Node2&#45;&gt;Node10 -->
<g id="edge9" class="edge">
<title>Node2&#45;&gt;Node10</title>
<path fill="none" stroke="midnightblue" d="M384.36,-123.44C422.42,-114.1 483.46,-99.12 524.96,-88.93"/>
<polygon fill="midnightblue" stroke="midnightblue" points="525.93,-92.3 534.8,-86.52 524.26,-85.5 525.93,-92.3"/>
</g>
<!-- Node11 -->
<g id="node11" class="node">
<title>Node11</title>
<g id="a_node11"><a xlink:href="visioncamera_8h.html" target="_top" xlink:title=" ">
<polygon fill="none" stroke="black" points="415.5,-67.5 415.5,-86.5 497.5,-86.5 497.5,-67.5 415.5,-67.5"/>
<text text-anchor="middle" x="456.5" y="-74.5" font-family="Helvetica,sans-Serif" font-size="10.00">visioncamera.h</text>
</a>
</g>
</g>
<!-- Node2&#45;&gt;Node11 -->
<g id="edge10" class="edge">
<title>Node2&#45;&gt;Node11</title>
<path fill="none" stroke="midnightblue" d="M366.69,-123.32C383.85,-114.66 410.45,-101.24 430.25,-91.25"/>
<polygon fill="midnightblue" stroke="midnightblue" points="432,-94.28 439.35,-86.65 428.85,-88.04 432,-94.28"/>
</g>
<!-- Node15 -->
<g id="node15" class="node">
<title>Node15</title>
<g id="a_node15"><a xlink:href="visionserver2_8inc.html" target="_top" xlink:title=" ">
<polygon fill="none" stroke="black" points="706,-67.5 706,-86.5 795,-86.5 795,-67.5 706,-67.5"/>
<text text-anchor="middle" x="750.5" y="-74.5" font-family="Helvetica,sans-Serif" font-size="10.00">visionserver2.inc</text>
</a>
</g>
</g>
<!-- Node2&#45;&gt;Node15 -->
<g id="edge16" class="edge">
<title>Node2&#45;&gt;Node15</title>
<path fill="none" stroke="midnightblue" d="M387.33,-123.5C388.4,-123.33 389.45,-123.16 390.5,-123 498.15,-106.42 625.03,-91.22 695.87,-83.45"/>
<polygon fill="midnightblue" stroke="midnightblue" points="696.34,-86.91 705.91,-82.35 695.59,-79.96 696.34,-86.91"/>
</g>
<!-- Node11&#45;&gt;Node8 -->
<g id="edge11" class="edge">
<title>Node11&#45;&gt;Node8</title>
<path fill="none" stroke="midnightblue" d="M415.29,-69.18C366.15,-60.89 281.59,-46.12 209.5,-31 204.11,-29.87 198.46,-28.62 192.87,-27.34"/>
<polygon fill="midnightblue" stroke="midnightblue" points="193.48,-23.89 182.95,-25.03 191.89,-30.7 193.48,-23.89"/>
</g>
<!-- Node11&#45;&gt;Node9 -->
<g id="edge13" class="edge">
<title>Node11&#45;&gt;Node9</title>
<path fill="none" stroke="midnightblue" d="M433.15,-67.48C405.19,-57.27 358.17,-40.11 326.51,-28.55"/>
<polygon fill="midnightblue" stroke="midnightblue" points="327.4,-25.15 316.81,-25.01 325,-31.73 327.4,-25.15"/>
</g>
<!-- Node12 -->
<g id="node12" class="node">
<title>Node12</title>
<g id="a_node12"><a xlink:title=" ">
<polygon fill="none" stroke="#bfbfbf" points="386,-0.5 386,-30.5 527,-30.5 527,-0.5 386,-0.5"/>
<text text-anchor="start" x="394" y="-18.5" font-family="Helvetica,sans-Serif" font-size="10.00">networktables/NetworkTable</text>
<text text-anchor="middle" x="456.5" y="-7.5" font-family="Helvetica,sans-Serif" font-size="10.00">Instance.h</text>
</a>
</g>
</g>
<!-- Node11&#45;&gt;Node12 -->
<g id="edge12" class="edge">
<title>Node11&#45;&gt;Node12</title>
<path fill="none" stroke="midnightblue" d="M456.5,-67.48C456.5,-60.47 456.5,-50.19 456.5,-40.7"/>
<polygon fill="midnightblue" stroke="midnightblue" points="460,-40.52 456.5,-30.52 453,-40.52 460,-40.52"/>
</g>
<!-- Node13 -->
<g id="node13" class="node">
<title>Node13</title>
<g id="a_node13"><a xlink:title=" ">
<polygon fill="none" stroke="#bfbfbf" points="545,-6 545,-25 694,-25 694,-6 545,-6"/>
<text text-anchor="middle" x="619.5" y="-13" font-family="Helvetica,sans-Serif" font-size="10.00">cameraserver/CameraServer.h</text>
</a>
</g>
</g>
<!-- Node11&#45;&gt;Node13 -->
<g id="edge14" class="edge">
<title>Node11&#45;&gt;Node13</title>
<path fill="none" stroke="midnightblue" d="M479.85,-67.48C507.81,-57.27 554.83,-40.11 586.49,-28.55"/>
<polygon fill="midnightblue" stroke="midnightblue" points="588,-31.73 596.19,-25.01 585.6,-25.15 588,-31.73"/>
</g>
<!-- Node14 -->
<g id="node14" class="node">
<title>Node14</title>
<g id="a_node14"><a xlink:title=" ">
<polygon fill="none" stroke="#bfbfbf" points="711.5,-6 711.5,-25 771.5,-25 771.5,-6 711.5,-6"/>
<text text-anchor="middle" x="741.5" y="-13" font-family="Helvetica,sans-Serif" font-size="10.00">wpi/json.h</text>
</a>
</g>
</g>
<!-- Node11&#45;&gt;Node14 -->
<g id="edge15" class="edge">
<title>Node11&#45;&gt;Node14</title>
<path fill="none" stroke="midnightblue" d="M497.76,-68.55C566.52,-56.11 697.57,-32.36 702.5,-31 705.31,-30.23 708.2,-29.34 711.08,-28.39"/>
<polygon fill="midnightblue" stroke="midnightblue" points="712.4,-31.63 720.67,-25.01 710.08,-25.03 712.4,-31.63"/>
</g>
<!-- Node15&#45;&gt;Node2 -->
<g id="edge17" class="edge">
<title>Node15&#45;&gt;Node2</title>
<path fill="none" stroke="midnightblue" d="M705.92,-83.68C640.48,-91.53 515.06,-106.59 408.5,-123 405.89,-123.4 403.21,-123.83 400.5,-124.28"/>
<polygon fill="midnightblue" stroke="midnightblue" points="399.86,-120.84 390.58,-125.95 401.02,-127.74 399.86,-120.84"/>
</g>
<!-- Node16 -->
<g id="node16" class="node">
<title>Node16</title>
<g id="a_node16"><a xlink:title=" ">
<polygon fill="none" stroke="#bfbfbf" points="859.5,-6 859.5,-25 921.5,-25 921.5,-6 859.5,-6"/>
<text text-anchor="middle" x="890.5" y="-13" font-family="Helvetica,sans-Serif" font-size="10.00">type_traits</text>
</a>
</g>
</g>
<!-- Node15&#45;&gt;Node16 -->
<g id="edge18" class="edge">
<title>Node15&#45;&gt;Node16</title>
<path fill="none" stroke="midnightblue" d="M770.56,-67.48C794.26,-57.4 833.91,-40.55 861.08,-29"/>
<polygon fill="midnightblue" stroke="midnightblue" points="862.64,-32.14 870.48,-25.01 859.91,-25.7 862.64,-32.14"/>
</g>
<!-- Node17 -->
<g id="node17" class="node">
<title>Node17</title>
<g id="a_node17"><a xlink:title=" ">
<polygon fill="none" stroke="#bfbfbf" points="789.5,-6 789.5,-25 841.5,-25 841.5,-6 789.5,-6"/>
<text text-anchor="middle" x="815.5" y="-13" font-family="Helvetica,sans-Serif" font-size="10.00">sstream</text>
</a>
</g>
</g>
<!-- Node15&#45;&gt;Node17 -->
<g id="edge19" class="edge">
<title>Node15&#45;&gt;Node17</title>
<path fill="none" stroke="midnightblue" d="M759.81,-67.48C769.95,-58.2 786.36,-43.17 798.75,-31.83"/>
<polygon fill="midnightblue" stroke="midnightblue" points="801.19,-34.34 806.2,-25.01 796.46,-29.18 801.19,-34.34"/>
</g>
</g>
</svg>
