<?xml version="1.0" encoding="UTF-8" standalone="no"?>
<!DOCTYPE svg PUBLIC "-//W3C//DTD SVG 1.1//EN"
 "http://www.w3.org/Graphics/SVG/1.1/DTD/svg11.dtd">
<!-- Generated by graphviz version 2.49.3 (20211027.1534)
 -->
<!-- Title: lib&#45;vs/src/core/visioncamera.h Pages: 1 -->
<!--zoomable 196 -->
<svg id="main" version="1.1" xmlns="http://www.w3.org/2000/svg" xmlns:xlink="http://www.w3.org/1999/xlink" xml:space="preserve" onload="init(evt)">
<style type="text/css"><![CDATA[
.edge:hover path { stroke: red; }
.edge:hover polygon { stroke: red; fill: red; }
]]></style>
<script type="text/javascript"><![CDATA[
var edges = document.getElementsByTagName('g');
if (edges && edges.length) {
  for (var i=0;i<edges.length;i++) {
    if (edges[i].id.substr(0,4)=='edge') {
      edges[i].setAttribute('class','edge');
    }
  }
}
]]></script>
        <defs>
                <circle id="rim" cx="0" cy="0" r="7"/>
                <circle id="rim2" cx="0" cy="0" r="3.5"/>
                <g id="zoomPlus">
                        <use xlink:href="#rim" fill="#404040">
                                <set attributeName="fill" to="#808080" begin="zoomplus.mouseover" end="zoomplus.mouseout"/>
                        </use>
                        <path d="M-4,0h8M0,-4v8" fill="none" stroke="white" stroke-width="1.5" pointer-events="none"/>
                </g>
                <g id="zoomMin">
                        <use xlink:href="#rim" fill="#404040">
                                <set attributeName="fill" to="#808080" begin="zoomminus.mouseover" end="zoomminus.mouseout"/>
                        </use>
                        <path d="M-4,0h8" fill="none" stroke="white" stroke-width="1.5" pointer-events="none"/>
                </g>
                <g id="dirArrow">
                        <path fill="none" stroke="white" stroke-width="1.5" d="M0,-3.0v7 M-2.5,-0.5L0,-3.0L2.5,-0.5"/>
                </g>
               <g id="resetDef">
                       <use xlink:href="#rim2" fill="#404040">
                               <set attributeName="fill" to="#808080" begin="reset.mouseover" end="reset.mouseout"/>
                       </use>
               </g>
        </defs>

<script type="text/javascript">
var viewWidth = 1067;
var viewHeight = 196;
var sectionId = 'dynsection-1';
</script>
<script xlink:href="svgpan.js"/>
<svg id="graph" class="graph">
<g id="viewport">
<title>lib&#45;vs/src/core/visioncamera.h</title>
<!-- Node1 -->
<g id="node1" class="node">
<title>Node1</title>
<g id="a_node1"><a xlink:title=" ">
<polygon fill="#bfbfbf" stroke="black" points="210.5,-168.5 210.5,-187.5 356.5,-187.5 356.5,-168.5 210.5,-168.5"/>
<text text-anchor="middle" x="283.5" y="-175.5" font-family="Helvetica,sans-Serif" font-size="10.00">lib&#45;vs/src/core/visioncamera.h</text>
</a>
</g>
</g>
<!-- Node2 -->
<g id="node2" class="node">
<title>Node2</title>
<g id="a_node2"><a xlink:href="config_8h.html" target="_top" xlink:title=" ">
<polygon fill="none" stroke="black" points="10.5,-112.5 10.5,-131.5 124.5,-131.5 124.5,-112.5 10.5,-112.5"/>
<text text-anchor="middle" x="67.5" y="-119.5" font-family="Helvetica,sans-Serif" font-size="10.00">lib&#45;vs/src/core/config.h</text>
</a>
</g>
</g>
<!-- Node1&#45;&gt;Node2 -->
<g id="edge1" class="edge">
<title>Node1&#45;&gt;Node2</title>
<path fill="none" stroke="midnightblue" d="M239.34,-165.96C198.54,-155.76 138.79,-140.82 101.57,-131.52"/>
<polygon fill="midnightblue" stroke="midnightblue" points="238.72,-169.41 249.27,-168.44 240.42,-162.62 238.72,-169.41"/>
</g>
<!-- Node4 -->
<g id="node4" class="node">
<title>Node4</title>
<g id="a_node4"><a xlink:href="vision_8h.html" target="_top" xlink:title=" ">
<polygon fill="none" stroke="black" points="147.5,-112.5 147.5,-131.5 261.5,-131.5 261.5,-112.5 147.5,-112.5"/>
<text text-anchor="middle" x="204.5" y="-119.5" font-family="Helvetica,sans-Serif" font-size="10.00">lib&#45;vs/src/core/vision.h</text>
</a>
</g>
</g>
<!-- Node1&#45;&gt;Node4 -->
<g id="edge3" class="edge">
<title>Node1&#45;&gt;Node4</title>
<path fill="none" stroke="midnightblue" d="M262.47,-162.62C248.03,-152.76 229.36,-139.99 217.16,-131.65"/>
<polygon fill="midnightblue" stroke="midnightblue" points="260.58,-165.57 270.81,-168.32 264.53,-159.79 260.58,-165.57"/>
</g>
<!-- Node6 -->
<g id="node6" class="node">
<title>Node6</title>
<g id="a_node6"><a xlink:href="visioncamera_8cpp.html" target="_top" xlink:title=" ">
<polygon fill="none" stroke="black" points="284,-56.5 284,-75.5 441,-75.5 441,-56.5 284,-56.5"/>
<text text-anchor="middle" x="362.5" y="-63.5" font-family="Helvetica,sans-Serif" font-size="10.00">lib&#45;vs/src/core/visioncamera.cpp</text>
</a>
</g>
</g>
<!-- Node1&#45;&gt;Node6 -->
<g id="edge8" class="edge">
<title>Node1&#45;&gt;Node6</title>
<path fill="none" stroke="midnightblue" d="M295.74,-159.96C312.86,-136.12 343.32,-93.71 356.33,-75.59"/>
<polygon fill="midnightblue" stroke="midnightblue" points="292.69,-158.2 289.7,-168.37 298.38,-162.29 292.69,-158.2"/>
</g>
<!-- Node7 -->
<g id="node7" class="node">
<title>Node7</title>
<g id="a_node7"><a xlink:href="visionserver2_8h.html" target="_top" xlink:title=" ">
<polygon fill="none" stroke="black" points="655.5,-112.5 655.5,-131.5 801.5,-131.5 801.5,-112.5 655.5,-112.5"/>
<text text-anchor="middle" x="728.5" y="-119.5" font-family="Helvetica,sans-Serif" font-size="10.00">lib&#45;vs/src/core/visionserver2.h</text>
</a>
</g>
</g>
<!-- Node1&#45;&gt;Node7 -->
<g id="edge9" class="edge">
<title>Node1&#45;&gt;Node7</title>
<path fill="none" stroke="midnightblue" d="M364.02,-167.23C448.02,-157.04 578.39,-141.22 658.32,-131.52"/>
<polygon fill="midnightblue" stroke="midnightblue" points="363.52,-163.76 354.01,-168.44 364.36,-170.71 363.52,-163.76"/>
</g>
<!-- Node3 -->
<g id="node3" class="node">
<title>Node3</title>
<g id="a_node3"><a xlink:href="vision_8cpp.html" target="_top" xlink:title=" ">
<polygon fill="none" stroke="black" points="0,-56.5 0,-75.5 125,-75.5 125,-56.5 0,-56.5"/>
<text text-anchor="middle" x="62.5" y="-63.5" font-family="Helvetica,sans-Serif" font-size="10.00">lib&#45;vs/src/core/vision.cpp</text>
</a>
</g>
</g>
<!-- Node2&#45;&gt;Node3 -->
<g id="edge2" class="edge">
<title>Node2&#45;&gt;Node3</title>
<path fill="none" stroke="midnightblue" d="M65.75,-102.1C64.92,-93.14 63.97,-82.86 63.31,-75.75"/>
<polygon fill="midnightblue" stroke="midnightblue" points="62.27,-102.45 66.67,-112.08 69.24,-101.8 62.27,-102.45"/>
</g>
<!-- Node4&#45;&gt;Node3 -->
<g id="edge4" class="edge">
<title>Node4&#45;&gt;Node3</title>
<path fill="none" stroke="midnightblue" d="M172.34,-108.77C145.67,-98.63 108.43,-84.47 84.9,-75.52"/>
<polygon fill="midnightblue" stroke="midnightblue" points="171.41,-112.16 182,-112.44 173.9,-105.62 171.41,-112.16"/>
</g>
<!-- Node5 -->
<g id="node5" class="node">
<title>Node5</title>
<g id="a_node5"><a xlink:href="vision_8inc.html" target="_top" xlink:title=" ">
<polygon fill="none" stroke="black" points="143.5,-56.5 143.5,-75.5 265.5,-75.5 265.5,-56.5 143.5,-56.5"/>
<text text-anchor="middle" x="204.5" y="-63.5" font-family="Helvetica,sans-Serif" font-size="10.00">lib&#45;vs/src/core/vision.inc</text>
</a>
</g>
</g>
<!-- Node4&#45;&gt;Node5 -->
<g id="edge5" class="edge">
<title>Node4&#45;&gt;Node5</title>
<path fill="none" stroke="midnightblue" d="M198.03,-102.1C197.4,-93.14 197.84,-82.86 199.37,-75.75"/>
<polygon fill="midnightblue" stroke="midnightblue" points="194.57,-102.62 199.33,-112.08 201.51,-101.71 194.57,-102.62"/>
</g>
<!-- Node4&#45;&gt;Node6 -->
<g id="edge7" class="edge">
<title>Node4&#45;&gt;Node6</title>
<path fill="none" stroke="midnightblue" d="M239.11,-109.17C268.86,-99 311.05,-84.59 337.58,-75.52"/>
<polygon fill="midnightblue" stroke="midnightblue" points="237.87,-105.9 229.54,-112.44 240.13,-112.52 237.87,-105.9"/>
</g>
<!-- Node5&#45;&gt;Node4 -->
<g id="edge6" class="edge">
<title>Node5&#45;&gt;Node4</title>
<path fill="none" stroke="midnightblue" d="M210.96,-85.69C211.61,-94.64 211.18,-104.93 209.67,-112.08"/>
<polygon fill="midnightblue" stroke="midnightblue" points="214.42,-85.2 209.63,-75.75 207.48,-86.13 214.42,-85.2"/>
</g>
<!-- Node8 -->
<g id="node8" class="node">
<title>Node8</title>
<g id="a_node8"><a xlink:href="target_8h.html" target="_top" xlink:title=" ">
<polygon fill="none" stroke="black" points="459,-56.5 459,-75.5 572,-75.5 572,-56.5 459,-56.5"/>
<text text-anchor="middle" x="515.5" y="-63.5" font-family="Helvetica,sans-Serif" font-size="10.00">lib&#45;vs/src/core/target.h</text>
</a>
</g>
</g>
<!-- Node7&#45;&gt;Node8 -->
<g id="edge10" class="edge">
<title>Node7&#45;&gt;Node8</title>
<path fill="none" stroke="midnightblue" d="M684.95,-109.96C644.72,-99.76 585.8,-84.82 549.09,-75.52"/>
<polygon fill="midnightblue" stroke="midnightblue" points="684.2,-113.38 694.75,-112.44 685.92,-106.59 684.2,-113.38"/>
</g>
<!-- Node9 -->
<g id="node9" class="node">
<title>Node9</title>
<g id="a_node9"><a xlink:href="tfmodel_8h.html" target="_top" xlink:title=" ">
<polygon fill="none" stroke="black" points="590,-56.5 590,-75.5 711,-75.5 711,-56.5 590,-56.5"/>
<text text-anchor="middle" x="650.5" y="-63.5" font-family="Helvetica,sans-Serif" font-size="10.00">lib&#45;vs/src/core/tfmodel.h</text>
</a>
</g>
</g>
<!-- Node7&#45;&gt;Node9 -->
<g id="edge11" class="edge">
<title>Node7&#45;&gt;Node9</title>
<path fill="none" stroke="midnightblue" d="M707.73,-106.62C693.48,-96.76 675.04,-83.99 663,-75.65"/>
<polygon fill="midnightblue" stroke="midnightblue" points="705.75,-109.51 715.97,-112.32 709.74,-103.75 705.75,-109.51"/>
</g>
<!-- Node12 -->
<g id="node12" class="node">
<title>Node12</title>
<g id="a_node12"><a xlink:href="visionserver2_8cpp.html" target="_top" xlink:title=" ">
<polygon fill="none" stroke="black" points="729,-56.5 729,-75.5 886,-75.5 886,-56.5 729,-56.5"/>
<text text-anchor="middle" x="807.5" y="-63.5" font-family="Helvetica,sans-Serif" font-size="10.00">lib&#45;vs/src/core/visionserver2.cpp</text>
</a>
</g>
</g>
<!-- Node7&#45;&gt;Node12 -->
<g id="edge15" class="edge">
<title>Node7&#45;&gt;Node12</title>
<path fill="none" stroke="midnightblue" d="M749.53,-106.62C763.97,-96.76 782.64,-83.99 794.84,-75.65"/>
<polygon fill="midnightblue" stroke="midnightblue" points="747.47,-103.79 741.19,-112.32 751.42,-109.57 747.47,-103.79"/>
</g>
<!-- Node13 -->
<g id="node13" class="node">
<title>Node13</title>
<g id="a_node13"><a xlink:href="visionserver2_8inc.html" target="_top" xlink:title=" ">
<polygon fill="none" stroke="black" points="904.5,-56.5 904.5,-75.5 1058.5,-75.5 1058.5,-56.5 904.5,-56.5"/>
<text text-anchor="middle" x="981.5" y="-63.5" font-family="Helvetica,sans-Serif" font-size="10.00">lib&#45;vs/src/core/visionserver2.inc</text>
</a>
</g>
</g>
<!-- Node7&#45;&gt;Node13 -->
<g id="edge16" class="edge">
<title>Node7&#45;&gt;Node13</title>
<path fill="none" stroke="midnightblue" d="M773.5,-110.22C819.53,-100.01 890.49,-84.9 936.52,-75.52"/>
<polygon fill="midnightblue" stroke="midnightblue" points="772.5,-106.85 763.5,-112.44 774.02,-113.69 772.5,-106.85"/>
</g>
<!-- Node10 -->
<g id="node10" class="node">
<title>Node10</title>
<g id="a_node10"><a xlink:href="tfmodel_8cpp.html" target="_top" xlink:title=" ">
<polygon fill="none" stroke="black" points="437,-0.5 437,-19.5 568,-19.5 568,-0.5 437,-0.5"/>
<text text-anchor="middle" x="502.5" y="-7.5" font-family="Helvetica,sans-Serif" font-size="10.00">lib&#45;vs/src/core/tfmodel.cpp</text>
</a>
</g>
</g>
<!-- Node9&#45;&gt;Node10 -->
<g id="edge12" class="edge">
<title>Node9&#45;&gt;Node10</title>
<path fill="none" stroke="midnightblue" d="M617.35,-52.91C589.53,-42.75 550.48,-28.51 525.84,-19.52"/>
<polygon fill="midnightblue" stroke="midnightblue" points="616.46,-56.3 627.05,-56.44 618.85,-49.73 616.46,-56.3"/>
</g>
<!-- Node11 -->
<g id="node11" class="node">
<title>Node11</title>
<g id="a_node11"><a xlink:href="tfmodel_8inc.html" target="_top" xlink:title=" ">
<polygon fill="none" stroke="black" points="586.5,-0.5 586.5,-19.5 714.5,-19.5 714.5,-0.5 586.5,-0.5"/>
<text text-anchor="middle" x="650.5" y="-7.5" font-family="Helvetica,sans-Serif" font-size="10.00">lib&#45;vs/src/core/tfmodel.inc</text>
</a>
</g>
</g>
<!-- Node9&#45;&gt;Node11 -->
<g id="edge13" class="edge">
<title>Node9&#45;&gt;Node11</title>
<path fill="none" stroke="midnightblue" d="M644.03,-46.1C643.4,-37.14 643.84,-26.86 645.37,-19.75"/>
<polygon fill="midnightblue" stroke="midnightblue" points="640.57,-46.62 645.33,-56.08 647.51,-45.71 640.57,-46.62"/>
</g>
<!-- Node11&#45;&gt;Node9 -->
<g id="edge14" class="edge">
<title>Node11&#45;&gt;Node9</title>
<path fill="none" stroke="midnightblue" d="M656.96,-29.69C657.61,-38.64 657.18,-48.93 655.67,-56.08"/>
<polygon fill="midnightblue" stroke="midnightblue" points="660.42,-29.2 655.63,-19.75 653.48,-30.13 660.42,-29.2"/>
</g>
<!-- Node13&#45;&gt;Node7 -->
<g id="edge17" class="edge">
<title>Node13&#45;&gt;Node7</title>
<path fill="none" stroke="midnightblue" d="M936.7,-77.74C890.74,-87.93 819.78,-103.04 773.68,-112.44"/>
<polygon fill="midnightblue" stroke="midnightblue" points="937.68,-81.11 946.68,-75.52 936.16,-74.27 937.68,-81.11"/>
</g>
</g>
</svg>
        <g id="navigator" transform="translate(0 0)" fill="#404254">
                <rect fill="#f2f5e9" fill-opacity="0.5" stroke="#606060" stroke-width=".5" x="0" y="0" width="60" height="60"/>
                <use id="zoomplus" xlink:href="#zoomPlus" x="17" y="9" onmousedown="handleZoom(evt,'in')"/>
                <use id="zoomminus" xlink:href="#zoomMin" x="42" y="9" onmousedown="handleZoom(evt,'out')"/>
                <use id="reset" xlink:href="#resetDef" x="30" y="36" onmousedown="handleReset()"/>
                <g id="arrowUp" xlink:href="#dirArrow" transform="translate(30 24)" onmousedown="handlePan(0,-1)">
                  <use xlink:href="#rim" fill="#404040">
                        <set attributeName="fill" to="#808080" begin="arrowUp.mouseover" end="arrowUp.mouseout"/>
                  </use>
                  <path fill="none" stroke="white" stroke-width="1.5" d="M0,-3.0v7 M-2.5,-0.5L0,-3.0L2.5,-0.5"/>
                </g>
                <g id="arrowRight" xlink:href="#dirArrow" transform="rotate(90) translate(36 -43)" onmousedown="handlePan(1,0)">
                  <use xlink:href="#rim" fill="#404040">
                        <set attributeName="fill" to="#808080" begin="arrowRight.mouseover" end="arrowRight.mouseout"/>
                  </use>
                  <path fill="none" stroke="white" stroke-width="1.5" d="M0,-3.0v7 M-2.5,-0.5L0,-3.0L2.5,-0.5"/>
                </g>
                <g id="arrowDown" xlink:href="#dirArrow" transform="rotate(180) translate(-30 -48)" onmousedown="handlePan(0,1)">
                  <use xlink:href="#rim" fill="#404040">
                        <set attributeName="fill" to="#808080" begin="arrowDown.mouseover" end="arrowDown.mouseout"/>
                  </use>
                  <path fill="none" stroke="white" stroke-width="1.5" d="M0,-3.0v7 M-2.5,-0.5L0,-3.0L2.5,-0.5"/>
                </g>
                <g id="arrowLeft" xlink:href="#dirArrow" transform="rotate(270) translate(-36 17)" onmousedown="handlePan(-1,0)">
                  <use xlink:href="#rim" fill="#404040">
                        <set attributeName="fill" to="#808080" begin="arrowLeft.mouseover" end="arrowLeft.mouseout"/>
                  </use>
                  <path fill="none" stroke="white" stroke-width="1.5" d="M0,-3.0v7 M-2.5,-0.5L0,-3.0L2.5,-0.5"/>
                </g>
        </g>
        <svg viewBox="0 0 15 15" width="100%" height="30px" preserveAspectRatio="xMaxYMin meet">
         <g id="arrow_out" transform="scale(0.3 0.3)">
          <a xlink:href="visioncamera_8h__dep__incl_org.svg" target="_base">
           <rect id="button" ry="5" rx="5" y="6" x="6" height="38" width="38"
                fill="#f2f5e9" fill-opacity="0.5" stroke="#606060" stroke-width="1.0"/>
           <path id="arrow"
             d="M 11.500037,31.436501 C 11.940474,20.09759 22.043105,11.32322 32.158766,21.979434 L 37.068811,17.246167 C 37.068811,17.246167 37.088388,32 37.088388,32 L 22.160133,31.978069 C 22.160133,31.978069 26.997745,27.140456 26.997745,27.140456 C 18.528582,18.264221 13.291696,25.230495 11.500037,31.436501 z"
             style="fill:#404040;"/>
          </a>
         </g>
        </svg>
</svg>
