<?xml version="1.0" encoding="UTF-8" standalone="no"?>
<!DOCTYPE svg PUBLIC "-//W3C//DTD SVG 1.1//EN"
 "http://www.w3.org/Graphics/SVG/1.1/DTD/svg11.dtd">
<!-- Generated by graphviz version 2.49.3 (20211027.1534)
 -->
<!-- Title: lib&#45;vs/src/core/visioncamera.cpp Pages: 1 -->
<!--zoomable 207 -->
<svg id="main" version="1.1" xmlns="http://www.w3.org/2000/svg" xmlns:xlink="http://www.w3.org/1999/xlink" xml:space="preserve" onload="init(evt)">
<style type="text/css"><![CDATA[
.edge:hover path { stroke: red; }
.edge:hover polygon { stroke: red; fill: red; }
]]></style>
<script type="text/javascript"><![CDATA[
var edges = document.getElementsByTagName('g');
if (edges && edges.length) {
  for (var i=0;i<edges.length;i++) {
    if (edges[i].id.substr(0,4)=='edge') {
      edges[i].setAttribute('class','edge');
    }
  }
}
]]></script>
        <defs>
                <circle id="rim" cx="0" cy="0" r="7"/>
                <circle id="rim2" cx="0" cy="0" r="3.5"/>
                <g id="zoomPlus">
                        <use xlink:href="#rim" fill="#404040">
                                <set attributeName="fill" to="#808080" begin="zoomplus.mouseover" end="zoomplus.mouseout"/>
                        </use>
                        <path d="M-4,0h8M0,-4v8" fill="none" stroke="white" stroke-width="1.5" pointer-events="none"/>
                </g>
                <g id="zoomMin">
                        <use xlink:href="#rim" fill="#404040">
                                <set attributeName="fill" to="#808080" begin="zoomminus.mouseover" end="zoomminus.mouseout"/>
                        </use>
                        <path d="M-4,0h8" fill="none" stroke="white" stroke-width="1.5" pointer-events="none"/>
                </g>
                <g id="dirArrow">
                        <path fill="none" stroke="white" stroke-width="1.5" d="M0,-3.0v7 M-2.5,-0.5L0,-3.0L2.5,-0.5"/>
                </g>
               <g id="resetDef">
                       <use xlink:href="#rim2" fill="#404040">
                               <set attributeName="fill" to="#808080" begin="reset.mouseover" end="reset.mouseout"/>
                       </use>
               </g>
        </defs>

<script type="text/javascript">
var viewWidth = 1062;
var viewHeight = 207;
var sectionId = 'dynsection-0';
</script>
<script xlink:href="svgpan.js"/>
<svg id="graph" class="graph">
<g id="viewport">
<title>lib&#45;vs/src/core/visioncamera.cpp</title>
<!-- Node1 -->
<g id="node1" class="node">
<title>Node1</title>
<g id="a_node1"><a xlink:title=" ">
<polygon fill="#bfbfbf" stroke="black" points="550,-179.5 550,-198.5 707,-198.5 707,-179.5 550,-179.5"/>
<text text-anchor="middle" x="628.5" y="-186.5" font-family="Helvetica,sans-Serif" font-size="10.00">lib&#45;vs/src/core/visioncamera.cpp</text>
</a>
</g>
</g>
<!-- Node2 -->
<g id="node2" class="node">
<title>Node2</title>
<g id="a_node2"><a xlink:href="visioncamera_8h.html" target="_top" xlink:title=" ">
<polygon fill="none" stroke="black" points="298.5,-67.5 298.5,-86.5 380.5,-86.5 380.5,-67.5 298.5,-67.5"/>
<text text-anchor="middle" x="339.5" y="-74.5" font-family="Helvetica,sans-Serif" font-size="10.00">visioncamera.h</text>
</a>
</g>
</g>
<!-- Node1&#45;&gt;Node2 -->
<g id="edge1" class="edge">
<title>Node1&#45;&gt;Node2</title>
<path fill="none" stroke="midnightblue" d="M605.82,-179.37C554.75,-159.93 430.6,-112.67 371.63,-90.23"/>
<polygon fill="midnightblue" stroke="midnightblue" points="372.66,-86.88 362.07,-86.59 370.17,-93.42 372.66,-86.88"/>
</g>
<!-- Node8 -->
<g id="node8" class="node">
<title>Node8</title>
<g id="a_node8"><a xlink:title=" ">
<polygon fill="none" stroke="#bfbfbf" points="625.5,-123.5 625.5,-142.5 723.5,-142.5 723.5,-123.5 625.5,-123.5"/>
<text text-anchor="middle" x="674.5" y="-130.5" font-family="Helvetica,sans-Serif" font-size="10.00">wpi/raw_ostream.h</text>
</a>
</g>
</g>
<!-- Node1&#45;&gt;Node8 -->
<g id="edge7" class="edge">
<title>Node1&#45;&gt;Node8</title>
<path fill="none" stroke="midnightblue" d="M636.1,-179.08C642.73,-171.3 652.52,-159.8 660.56,-150.37"/>
<polygon fill="midnightblue" stroke="midnightblue" points="663.23,-152.63 667.05,-142.75 657.9,-148.09 663.23,-152.63"/>
</g>
<!-- Node9 -->
<g id="node9" class="node">
<title>Node9</title>
<g id="a_node9"><a xlink:title=" ">
<polygon fill="none" stroke="#bfbfbf" points="741.5,-123.5 741.5,-142.5 867.5,-142.5 867.5,-123.5 741.5,-123.5"/>
<text text-anchor="middle" x="804.5" y="-130.5" font-family="Helvetica,sans-Serif" font-size="10.00">cpp&#45;tools/src/resources.h</text>
</a>
</g>
</g>
<!-- Node1&#45;&gt;Node9 -->
<g id="edge8" class="edge">
<title>Node1&#45;&gt;Node9</title>
<path fill="none" stroke="midnightblue" d="M656.39,-179.44C686.25,-170.28 733.81,-155.69 766.96,-145.52"/>
<polygon fill="midnightblue" stroke="midnightblue" points="768.21,-148.8 776.74,-142.52 766.16,-142.1 768.21,-148.8"/>
</g>
<!-- Node10 -->
<g id="node10" class="node">
<title>Node10</title>
<g id="a_node10"><a xlink:href="vision_8h.html" target="_top" xlink:title=" ">
<polygon fill="none" stroke="black" points="557.5,-123.5 557.5,-142.5 607.5,-142.5 607.5,-123.5 557.5,-123.5"/>
<text text-anchor="middle" x="582.5" y="-130.5" font-family="Helvetica,sans-Serif" font-size="10.00">vision.h</text>
</a>
</g>
</g>
<!-- Node1&#45;&gt;Node10 -->
<g id="edge9" class="edge">
<title>Node1&#45;&gt;Node10</title>
<path fill="none" stroke="midnightblue" d="M620.9,-179.08C614.27,-171.3 604.48,-159.8 596.44,-150.37"/>
<polygon fill="midnightblue" stroke="midnightblue" points="599.1,-148.09 589.95,-142.75 593.77,-152.63 599.1,-148.09"/>
</g>
<!-- Node3 -->
<g id="node3" class="node">
<title>Node3</title>
<g id="a_node3"><a xlink:title=" ">
<polygon fill="none" stroke="#bfbfbf" points="159.5,-6 159.5,-25 265.5,-25 265.5,-6 159.5,-6"/>
<text text-anchor="middle" x="212.5" y="-13" font-family="Helvetica,sans-Serif" font-size="10.00">opencv2/opencv.hpp</text>
</a>
</g>
</g>
<!-- Node2&#45;&gt;Node3 -->
<g id="edge2" class="edge">
<title>Node2&#45;&gt;Node3</title>
<path fill="none" stroke="midnightblue" d="M321.3,-67.48C299.99,-57.49 264.47,-40.85 239.84,-29.31"/>
<polygon fill="midnightblue" stroke="midnightblue" points="241.2,-26.08 230.66,-25.01 238.23,-32.42 241.2,-26.08"/>
</g>
<!-- Node4 -->
<g id="node4" class="node">
<title>Node4</title>
<g id="a_node4"><a xlink:title=" ">
<polygon fill="none" stroke="#bfbfbf" points="0,-0.5 0,-30.5 141,-30.5 141,-0.5 0,-0.5"/>
<text text-anchor="start" x="8" y="-18.5" font-family="Helvetica,sans-Serif" font-size="10.00">networktables/NetworkTable</text>
<text text-anchor="middle" x="70.5" y="-7.5" font-family="Helvetica,sans-Serif" font-size="10.00">Instance.h</text>
</a>
</g>
</g>
<!-- Node2&#45;&gt;Node4 -->
<g id="edge3" class="edge">
<title>Node2&#45;&gt;Node4</title>
<path fill="none" stroke="midnightblue" d="M300.96,-67.48C260.1,-58.44 194.59,-43.95 143.84,-32.72"/>
<polygon fill="midnightblue" stroke="midnightblue" points="144.42,-29.27 133.9,-30.52 142.91,-36.1 144.42,-29.27"/>
</g>
<!-- Node5 -->
<g id="node5" class="node">
<title>Node5</title>
<g id="a_node5"><a xlink:title=" ">
<polygon fill="none" stroke="#bfbfbf" points="361,-6 361,-25 510,-25 510,-6 361,-6"/>
<text text-anchor="middle" x="435.5" y="-13" font-family="Helvetica,sans-Serif" font-size="10.00">networktables/NetworkTable.h</text>
</a>
</g>
</g>
<!-- Node2&#45;&gt;Node5 -->
<g id="edge4" class="edge">
<title>Node2&#45;&gt;Node5</title>
<path fill="none" stroke="midnightblue" d="M353.25,-67.48C368.87,-57.8 394.56,-41.87 413.08,-30.39"/>
<polygon fill="midnightblue" stroke="midnightblue" points="415.12,-33.25 421.77,-25.01 411.43,-27.3 415.12,-33.25"/>
</g>
<!-- Node6 -->
<g id="node6" class="node">
<title>Node6</title>
<g id="a_node6"><a xlink:title=" ">
<polygon fill="none" stroke="#bfbfbf" points="528,-6 528,-25 677,-25 677,-6 528,-6"/>
<text text-anchor="middle" x="602.5" y="-13" font-family="Helvetica,sans-Serif" font-size="10.00">cameraserver/CameraServer.h</text>
</a>
</g>
</g>
<!-- Node2&#45;&gt;Node6 -->
<g id="edge5" class="edge">
<title>Node2&#45;&gt;Node6</title>
<path fill="none" stroke="midnightblue" d="M377.18,-67.48C424.05,-56.87 504.11,-38.76 555.1,-27.22"/>
<polygon fill="midnightblue" stroke="midnightblue" points="555.91,-30.63 564.89,-25.01 554.36,-23.8 555.91,-30.63"/>
</g>
<!-- Node7 -->
<g id="node7" class="node">
<title>Node7</title>
<g id="a_node7"><a xlink:title=" ">
<polygon fill="none" stroke="#bfbfbf" points="283.5,-6 283.5,-25 343.5,-25 343.5,-6 283.5,-6"/>
<text text-anchor="middle" x="313.5" y="-13" font-family="Helvetica,sans-Serif" font-size="10.00">wpi/json.h</text>
</a>
</g>
</g>
<!-- Node2&#45;&gt;Node7 -->
<g id="edge6" class="edge">
<title>Node2&#45;&gt;Node7</title>
<path fill="none" stroke="midnightblue" d="M335.77,-67.48C332.03,-58.9 326.14,-45.43 321.36,-34.48"/>
<polygon fill="midnightblue" stroke="midnightblue" points="324.43,-32.77 317.22,-25.01 318.02,-35.57 324.43,-32.77"/>
</g>
<!-- Node10&#45;&gt;Node2 -->
<g id="edge19" class="edge">
<title>Node10&#45;&gt;Node2</title>
<path fill="none" stroke="midnightblue" d="M557.41,-126.42C517.51,-117.56 438.88,-100.09 387.8,-88.73"/>
<polygon fill="midnightblue" stroke="midnightblue" points="388.49,-85.3 377.96,-86.55 386.97,-92.13 388.49,-85.3"/>
</g>
<!-- Node10&#45;&gt;Node4 -->
<g id="edge15" class="edge">
<title>Node10&#45;&gt;Node4</title>
<path fill="none" stroke="midnightblue" d="M557.16,-129.48C506.05,-124.1 387.17,-110.07 289.5,-87 229.15,-72.75 161.45,-49.85 117.51,-34.04"/>
<polygon fill="midnightblue" stroke="midnightblue" points="118.56,-30.7 107.96,-30.58 116.17,-37.28 118.56,-30.7"/>
</g>
<!-- Node10&#45;&gt;Node5 -->
<g id="edge16" class="edge">
<title>Node10&#45;&gt;Node5</title>
<path fill="none" stroke="midnightblue" d="M557.33,-129.71C528.95,-125.79 483.27,-115.24 456.5,-87 443.21,-72.98 438.29,-50.91 436.5,-35.2"/>
<polygon fill="midnightblue" stroke="midnightblue" points="439.97,-34.77 435.66,-25.09 433,-35.35 439.97,-34.77"/>
</g>
<!-- Node10&#45;&gt;Node6 -->
<g id="edge17" class="edge">
<title>Node10&#45;&gt;Node6</title>
<path fill="none" stroke="midnightblue" d="M557.49,-128.38C516.13,-121.29 440.38,-103.03 465.5,-67 476.27,-51.56 520.66,-37.03 556.03,-27.56"/>
<polygon fill="midnightblue" stroke="midnightblue" points="556.95,-30.94 565.74,-25.03 555.18,-24.17 556.95,-30.94"/>
</g>
<!-- Node11 -->
<g id="node11" class="node">
<title>Node11</title>
<g id="a_node11"><a xlink:title=" ">
<polygon fill="none" stroke="#bfbfbf" points="474.5,-67.5 474.5,-86.5 536.5,-86.5 536.5,-67.5 474.5,-67.5"/>
<text text-anchor="middle" x="505.5" y="-74.5" font-family="Helvetica,sans-Serif" font-size="10.00">type_traits</text>
</a>
</g>
</g>
<!-- Node10&#45;&gt;Node11 -->
<g id="edge10" class="edge">
<title>Node10&#45;&gt;Node11</title>
<path fill="none" stroke="midnightblue" d="M570.13,-123.32C558.34,-115.06 540.37,-102.45 526.36,-92.63"/>
<polygon fill="midnightblue" stroke="midnightblue" points="528.04,-89.53 517.84,-86.65 524.02,-95.26 528.04,-89.53"/>
</g>
<!-- Node12 -->
<g id="node12" class="node">
<title>Node12</title>
<g id="a_node12"><a xlink:title=" ">
<polygon fill="none" stroke="#bfbfbf" points="554.5,-67.5 554.5,-86.5 610.5,-86.5 610.5,-67.5 554.5,-67.5"/>
<text text-anchor="middle" x="582.5" y="-74.5" font-family="Helvetica,sans-Serif" font-size="10.00">algorithm</text>
</a>
</g>
</g>
<!-- Node10&#45;&gt;Node12 -->
<g id="edge11" class="edge">
<title>Node10&#45;&gt;Node12</title>
<path fill="none" stroke="midnightblue" d="M582.5,-123.08C582.5,-116.01 582.5,-105.86 582.5,-96.99"/>
<polygon fill="midnightblue" stroke="midnightblue" points="586,-96.75 582.5,-86.75 579,-96.75 586,-96.75"/>
</g>
<!-- Node13 -->
<g id="node13" class="node">
<title>Node13</title>
<g id="a_node13"><a xlink:title=" ">
<polygon fill="none" stroke="#bfbfbf" points="628.5,-67.5 628.5,-86.5 672.5,-86.5 672.5,-67.5 628.5,-67.5"/>
<text text-anchor="middle" x="650.5" y="-74.5" font-family="Helvetica,sans-Serif" font-size="10.00">vector</text>
</a>
</g>
</g>
<!-- Node10&#45;&gt;Node13 -->
<g id="edge12" class="edge">
<title>Node10&#45;&gt;Node13</title>
<path fill="none" stroke="midnightblue" d="M593.43,-123.32C603.67,-115.18 619.22,-102.84 631.5,-93.09"/>
<polygon fill="midnightblue" stroke="midnightblue" points="633.72,-95.79 639.38,-86.83 629.37,-90.31 633.72,-95.79"/>
</g>
<!-- Node14 -->
<g id="node14" class="node">
<title>Node14</title>
<g id="a_node14"><a xlink:title=" ">
<polygon fill="none" stroke="#bfbfbf" points="690.5,-67.5 690.5,-86.5 728.5,-86.5 728.5,-67.5 690.5,-67.5"/>
<text text-anchor="middle" x="709.5" y="-74.5" font-family="Helvetica,sans-Serif" font-size="10.00">array</text>
</a>
</g>
</g>
<!-- Node10&#45;&gt;Node14 -->
<g id="edge13" class="edge">
<title>Node10&#45;&gt;Node14</title>
<path fill="none" stroke="midnightblue" d="M602.62,-123.44C623.77,-114.45 657.21,-100.23 681.05,-90.1"/>
<polygon fill="midnightblue" stroke="midnightblue" points="682.47,-93.3 690.3,-86.16 679.73,-86.86 682.47,-93.3"/>
</g>
<!-- Node15 -->
<g id="node15" class="node">
<title>Node15</title>
<g id="a_node15"><a xlink:title=" ">
<polygon fill="none" stroke="#bfbfbf" points="747,-67.5 747,-86.5 866,-86.5 866,-67.5 747,-67.5"/>
<text text-anchor="middle" x="806.5" y="-74.5" font-family="Helvetica,sans-Serif" font-size="10.00">opencv2/core/types.hpp</text>
</a>
</g>
</g>
<!-- Node10&#45;&gt;Node15 -->
<g id="edge14" class="edge">
<title>Node10&#45;&gt;Node15</title>
<path fill="none" stroke="midnightblue" d="M607.73,-125.24C610.68,-124.47 613.66,-123.71 616.5,-123 665.1,-110.82 720.91,-97.7 759.41,-88.79"/>
<polygon fill="midnightblue" stroke="midnightblue" points="760.34,-92.17 769.29,-86.51 758.76,-85.35 760.34,-92.17"/>
</g>
<!-- Node16 -->
<g id="node16" class="node">
<title>Node16</title>
<g id="a_node16"><a xlink:title=" ">
<polygon fill="none" stroke="#bfbfbf" points="884,-67.5 884,-86.5 979,-86.5 979,-67.5 884,-67.5"/>
<text text-anchor="middle" x="931.5" y="-74.5" font-family="Helvetica,sans-Serif" font-size="10.00">wpi/StringExtras.h</text>
</a>
</g>
</g>
<!-- Node10&#45;&gt;Node16 -->
<g id="edge18" class="edge">
<title>Node10&#45;&gt;Node16</title>
<path fill="none" stroke="midnightblue" d="M607.67,-124.97C610.64,-124.26 613.63,-123.58 616.5,-123 727.32,-100.72 758.85,-104.02 873.94,-87.2"/>
<polygon fill="midnightblue" stroke="midnightblue" points="874.47,-90.66 883.85,-85.73 873.45,-83.73 874.47,-90.66"/>
</g>
<!-- Node17 -->
<g id="node17" class="node">
<title>Node17</title>
<g id="a_node17"><a xlink:href="vision_8inc.html" target="_top" xlink:title=" ">
<polygon fill="none" stroke="black" points="997,-67.5 997,-86.5 1054,-86.5 1054,-67.5 997,-67.5"/>
<text text-anchor="middle" x="1025.5" y="-74.5" font-family="Helvetica,sans-Serif" font-size="10.00">vision.inc</text>
</a>
</g>
</g>
<!-- Node10&#45;&gt;Node17 -->
<g id="edge20" class="edge">
<title>Node10&#45;&gt;Node17</title>
<path fill="none" stroke="midnightblue" d="M604.95,-123.48C605.81,-123.31 606.66,-123.15 607.5,-123 770.99,-93.65 815.72,-114.7 979.5,-87 981.95,-86.59 984.48,-86.1 987.05,-85.57"/>
<polygon fill="midnightblue" stroke="midnightblue" points="987.97,-88.95 996.98,-83.38 986.46,-82.11 987.97,-88.95"/>
</g>
<!-- Node17&#45;&gt;Node10 -->
<g id="edge21" class="edge">
<title>Node17&#45;&gt;Node10</title>
<path fill="none" stroke="midnightblue" d="M1000.26,-86.51C999.34,-86.68 998.41,-86.85 997.5,-87 833.72,-114.7 788.99,-93.65 625.5,-123 622.89,-123.47 620.18,-124.04 617.44,-124.66"/>
<polygon fill="midnightblue" stroke="midnightblue" points="616.4,-121.31 607.51,-127.06 618.05,-128.12 616.4,-121.31"/>
</g>
</g>
</svg>
        <g id="navigator" transform="translate(0 0)" fill="#404254">
                <rect fill="#f2f5e9" fill-opacity="0.5" stroke="#606060" stroke-width=".5" x="0" y="0" width="60" height="60"/>
                <use id="zoomplus" xlink:href="#zoomPlus" x="17" y="9" onmousedown="handleZoom(evt,'in')"/>
                <use id="zoomminus" xlink:href="#zoomMin" x="42" y="9" onmousedown="handleZoom(evt,'out')"/>
                <use id="reset" xlink:href="#resetDef" x="30" y="36" onmousedown="handleReset()"/>
                <g id="arrowUp" xlink:href="#dirArrow" transform="translate(30 24)" onmousedown="handlePan(0,-1)">
                  <use xlink:href="#rim" fill="#404040">
                        <set attributeName="fill" to="#808080" begin="arrowUp.mouseover" end="arrowUp.mouseout"/>
                  </use>
                  <path fill="none" stroke="white" stroke-width="1.5" d="M0,-3.0v7 M-2.5,-0.5L0,-3.0L2.5,-0.5"/>
                </g>
                <g id="arrowRight" xlink:href="#dirArrow" transform="rotate(90) translate(36 -43)" onmousedown="handlePan(1,0)">
                  <use xlink:href="#rim" fill="#404040">
                        <set attributeName="fill" to="#808080" begin="arrowRight.mouseover" end="arrowRight.mouseout"/>
                  </use>
                  <path fill="none" stroke="white" stroke-width="1.5" d="M0,-3.0v7 M-2.5,-0.5L0,-3.0L2.5,-0.5"/>
                </g>
                <g id="arrowDown" xlink:href="#dirArrow" transform="rotate(180) translate(-30 -48)" onmousedown="handlePan(0,1)">
                  <use xlink:href="#rim" fill="#404040">
                        <set attributeName="fill" to="#808080" begin="arrowDown.mouseover" end="arrowDown.mouseout"/>
                  </use>
                  <path fill="none" stroke="white" stroke-width="1.5" d="M0,-3.0v7 M-2.5,-0.5L0,-3.0L2.5,-0.5"/>
                </g>
                <g id="arrowLeft" xlink:href="#dirArrow" transform="rotate(270) translate(-36 17)" onmousedown="handlePan(-1,0)">
                  <use xlink:href="#rim" fill="#404040">
                        <set attributeName="fill" to="#808080" begin="arrowLeft.mouseover" end="arrowLeft.mouseout"/>
                  </use>
                  <path fill="none" stroke="white" stroke-width="1.5" d="M0,-3.0v7 M-2.5,-0.5L0,-3.0L2.5,-0.5"/>
                </g>
        </g>
        <svg viewBox="0 0 15 15" width="100%" height="30px" preserveAspectRatio="xMaxYMin meet">
         <g id="arrow_out" transform="scale(0.3 0.3)">
          <a xlink:href="visioncamera_8cpp__incl_org.svg" target="_base">
           <rect id="button" ry="5" rx="5" y="6" x="6" height="38" width="38"
                fill="#f2f5e9" fill-opacity="0.5" stroke="#606060" stroke-width="1.0"/>
           <path id="arrow"
             d="M 11.500037,31.436501 C 11.940474,20.09759 22.043105,11.32322 32.158766,21.979434 L 37.068811,17.246167 C 37.068811,17.246167 37.088388,32 37.088388,32 L 22.160133,31.978069 C 22.160133,31.978069 26.997745,27.140456 26.997745,27.140456 C 18.528582,18.264221 13.291696,25.230495 11.500037,31.436501 z"
             style="fill:#404040;"/>
          </a>
         </g>
        </svg>
</svg>
