<?xml version="1.0" encoding="UTF-8" standalone="no"?>
<!DOCTYPE svg PUBLIC "-//W3C//DTD SVG 1.1//EN"
 "http://www.w3.org/Graphics/SVG/1.1/DTD/svg11.dtd">
<!-- Generated by graphviz version 2.49.3 (20211027.1534)
 -->
<!-- Title: lib&#45;vs/src/core/vision.cpp Pages: 1 -->
<svg width="882pt" height="207pt"
 viewBox="0.00 0.00 881.50 207.00" xmlns="http://www.w3.org/2000/svg" xmlns:xlink="http://www.w3.org/1999/xlink">
<g id="graph0" class="graph" transform="scale(1 1) rotate(0) translate(4 203)">
<title>lib&#45;vs/src/core/vision.cpp</title>
<!-- Node1 -->
<g id="node1" class="node">
<title>Node1</title>
<g id="a_node1"><a xlink:title=" ">
<polygon fill="#bfbfbf" stroke="black" points="429.5,-179.5 429.5,-198.5 554.5,-198.5 554.5,-179.5 429.5,-179.5"/>
<text text-anchor="middle" x="492" y="-186.5" font-family="Helvetica,sans-Serif" font-size="10.00">lib&#45;vs/src/core/vision.cpp</text>
</a>
</g>
</g>
<!-- Node2 -->
<g id="node2" class="node">
<title>Node2</title>
<g id="a_node2"><a xlink:href="vision_8h.html" target="_top" xlink:title=" ">
<polygon fill="none" stroke="black" points="414,-123.5 414,-142.5 464,-142.5 464,-123.5 414,-123.5"/>
<text text-anchor="middle" x="439" y="-130.5" font-family="Helvetica,sans-Serif" font-size="10.00">vision.h</text>
</a>
</g>
</g>
<!-- Node1&#45;&gt;Node2 -->
<g id="edge1" class="edge">
<title>Node1&#45;&gt;Node2</title>
<path fill="none" stroke="midnightblue" d="M483.25,-179.08C475.53,-171.22 464.1,-159.57 454.78,-150.08"/>
<polygon fill="midnightblue" stroke="midnightblue" points="457.09,-147.44 447.59,-142.75 452.1,-152.34 457.09,-147.44"/>
</g>
<!-- Node16 -->
<g id="node16" class="node">
<title>Node16</title>
<g id="a_node16"><a xlink:title=" ">
<polygon fill="none" stroke="#bfbfbf" points="482,-123.5 482,-142.5 608,-142.5 608,-123.5 482,-123.5"/>
<text text-anchor="middle" x="545" y="-130.5" font-family="Helvetica,sans-Serif" font-size="10.00">cpp&#45;tools/src/resources.h</text>
</a>
</g>
</g>
<!-- Node1&#45;&gt;Node16 -->
<g id="edge19" class="edge">
<title>Node1&#45;&gt;Node16</title>
<path fill="none" stroke="midnightblue" d="M500.75,-179.08C508.47,-171.22 519.9,-159.57 529.22,-150.08"/>
<polygon fill="midnightblue" stroke="midnightblue" points="531.9,-152.34 536.41,-142.75 526.91,-147.44 531.9,-152.34"/>
</g>
<!-- Node3 -->
<g id="node3" class="node">
<title>Node3</title>
<g id="a_node3"><a xlink:title=" ">
<polygon fill="none" stroke="#bfbfbf" points="0,-67.5 0,-86.5 62,-86.5 62,-67.5 0,-67.5"/>
<text text-anchor="middle" x="31" y="-74.5" font-family="Helvetica,sans-Serif" font-size="10.00">type_traits</text>
</a>
</g>
</g>
<!-- Node2&#45;&gt;Node3 -->
<g id="edge2" class="edge">
<title>Node2&#45;&gt;Node3</title>
<path fill="none" stroke="midnightblue" d="M413.89,-129.8C355.63,-124.51 206.62,-109.92 72.43,-87.1"/>
<polygon fill="midnightblue" stroke="midnightblue" points="72.83,-83.62 62.38,-85.37 71.65,-90.52 72.83,-83.62"/>
</g>
<!-- Node4 -->
<g id="node4" class="node">
<title>Node4</title>
<g id="a_node4"><a xlink:title=" ">
<polygon fill="none" stroke="#bfbfbf" points="80,-67.5 80,-86.5 136,-86.5 136,-67.5 80,-67.5"/>
<text text-anchor="middle" x="108" y="-74.5" font-family="Helvetica,sans-Serif" font-size="10.00">algorithm</text>
</a>
</g>
</g>
<!-- Node2&#45;&gt;Node4 -->
<g id="edge3" class="edge">
<title>Node2&#45;&gt;Node4</title>
<path fill="none" stroke="midnightblue" d="M413.7,-128.88C364.25,-122.62 251.14,-107.52 146.34,-87.12"/>
<polygon fill="midnightblue" stroke="midnightblue" points="146.71,-83.63 136.23,-85.13 145.36,-90.5 146.71,-83.63"/>
</g>
<!-- Node5 -->
<g id="node5" class="node">
<title>Node5</title>
<g id="a_node5"><a xlink:title=" ">
<polygon fill="none" stroke="#bfbfbf" points="154,-67.5 154,-86.5 198,-86.5 198,-67.5 154,-67.5"/>
<text text-anchor="middle" x="176" y="-74.5" font-family="Helvetica,sans-Serif" font-size="10.00">vector</text>
</a>
</g>
</g>
<!-- Node2&#45;&gt;Node5 -->
<g id="edge4" class="edge">
<title>Node2&#45;&gt;Node5</title>
<path fill="none" stroke="midnightblue" d="M413.78,-127.88C372.66,-121 288.49,-106.23 208.07,-87.09"/>
<polygon fill="midnightblue" stroke="midnightblue" points="208.83,-83.67 198.29,-84.73 207.19,-90.48 208.83,-83.67"/>
</g>
<!-- Node6 -->
<g id="node6" class="node">
<title>Node6</title>
<g id="a_node6"><a xlink:title=" ">
<polygon fill="none" stroke="#bfbfbf" points="216,-67.5 216,-86.5 254,-86.5 254,-67.5 216,-67.5"/>
<text text-anchor="middle" x="235" y="-74.5" font-family="Helvetica,sans-Serif" font-size="10.00">array</text>
</a>
</g>
</g>
<!-- Node2&#45;&gt;Node6 -->
<g id="edge5" class="edge">
<title>Node2&#45;&gt;Node6</title>
<path fill="none" stroke="midnightblue" d="M413.97,-125.98C379.91,-117.68 317.12,-102.06 264,-87 263.9,-86.97 263.8,-86.94 263.7,-86.92"/>
<polygon fill="midnightblue" stroke="midnightblue" points="264.89,-83.62 254.3,-84.14 262.9,-90.33 264.89,-83.62"/>
</g>
<!-- Node7 -->
<g id="node7" class="node">
<title>Node7</title>
<g id="a_node7"><a xlink:title=" ">
<polygon fill="none" stroke="#bfbfbf" points="272.5,-67.5 272.5,-86.5 391.5,-86.5 391.5,-67.5 272.5,-67.5"/>
<text text-anchor="middle" x="332" y="-74.5" font-family="Helvetica,sans-Serif" font-size="10.00">opencv2/core/types.hpp</text>
</a>
</g>
</g>
<!-- Node2&#45;&gt;Node7 -->
<g id="edge6" class="edge">
<title>Node2&#45;&gt;Node7</title>
<path fill="none" stroke="midnightblue" d="M421.81,-123.32C404.65,-114.66 378.05,-101.24 358.25,-91.25"/>
<polygon fill="midnightblue" stroke="midnightblue" points="359.65,-88.04 349.15,-86.65 356.5,-94.28 359.65,-88.04"/>
</g>
<!-- Node8 -->
<g id="node8" class="node">
<title>Node8</title>
<g id="a_node8"><a xlink:title=" ">
<polygon fill="none" stroke="#bfbfbf" points="197.5,-0.5 197.5,-30.5 338.5,-30.5 338.5,-0.5 197.5,-0.5"/>
<text text-anchor="start" x="205.5" y="-18.5" font-family="Helvetica,sans-Serif" font-size="10.00">networktables/NetworkTable</text>
<text text-anchor="middle" x="268" y="-7.5" font-family="Helvetica,sans-Serif" font-size="10.00">Instance.h</text>
</a>
</g>
</g>
<!-- Node2&#45;&gt;Node8 -->
<g id="edge7" class="edge">
<title>Node2&#45;&gt;Node8</title>
<path fill="none" stroke="midnightblue" d="M436.03,-123.15C430.96,-109.32 419.36,-82.54 401,-67 383.51,-52.2 361.22,-41.49 339.92,-33.85"/>
<polygon fill="midnightblue" stroke="midnightblue" points="340.81,-30.46 330.22,-30.56 338.56,-37.09 340.81,-30.46"/>
</g>
<!-- Node9 -->
<g id="node9" class="node">
<title>Node9</title>
<g id="a_node9"><a xlink:title=" ">
<polygon fill="none" stroke="#bfbfbf" points="356.5,-6 356.5,-25 505.5,-25 505.5,-6 356.5,-6"/>
<text text-anchor="middle" x="431" y="-13" font-family="Helvetica,sans-Serif" font-size="10.00">networktables/NetworkTable.h</text>
</a>
</g>
</g>
<!-- Node2&#45;&gt;Node9 -->
<g id="edge8" class="edge">
<title>Node2&#45;&gt;Node9</title>
<path fill="none" stroke="midnightblue" d="M438.4,-123.32C437.11,-104.76 434.07,-60.84 432.31,-35.47"/>
<polygon fill="midnightblue" stroke="midnightblue" points="435.79,-35.02 431.61,-25.28 428.81,-35.5 435.79,-35.02"/>
</g>
<!-- Node10 -->
<g id="node10" class="node">
<title>Node10</title>
<g id="a_node10"><a xlink:title=" ">
<polygon fill="none" stroke="#bfbfbf" points="724.5,-6 724.5,-25 873.5,-25 873.5,-6 724.5,-6"/>
<text text-anchor="middle" x="799" y="-13" font-family="Helvetica,sans-Serif" font-size="10.00">cameraserver/CameraServer.h</text>
</a>
</g>
</g>
<!-- Node2&#45;&gt;Node10 -->
<g id="edge9" class="edge">
<title>Node2&#45;&gt;Node10</title>
<path fill="none" stroke="midnightblue" d="M464.11,-125.12C492.1,-117.14 538.5,-103.03 577,-87 594.98,-79.51 597.85,-74.07 616,-67 659.79,-49.94 711.57,-36.21 748.86,-27.41"/>
<polygon fill="midnightblue" stroke="midnightblue" points="750.03,-30.73 758.97,-25.05 748.44,-23.91 750.03,-30.73"/>
</g>
<!-- Node11 -->
<g id="node11" class="node">
<title>Node11</title>
<g id="a_node11"><a xlink:title=" ">
<polygon fill="none" stroke="#bfbfbf" points="624.5,-67.5 624.5,-86.5 719.5,-86.5 719.5,-67.5 624.5,-67.5"/>
<text text-anchor="middle" x="672" y="-74.5" font-family="Helvetica,sans-Serif" font-size="10.00">wpi/StringExtras.h</text>
</a>
</g>
</g>
<!-- Node2&#45;&gt;Node11 -->
<g id="edge10" class="edge">
<title>Node2&#45;&gt;Node11</title>
<path fill="none" stroke="midnightblue" d="M464.22,-125.21C467.18,-124.45 470.15,-123.7 473,-123 523.74,-110.55 582.07,-97.51 622.41,-88.69"/>
<polygon fill="midnightblue" stroke="midnightblue" points="623.23,-92.09 632.26,-86.54 621.74,-85.25 623.23,-92.09"/>
</g>
<!-- Node12 -->
<g id="node12" class="node">
<title>Node12</title>
<g id="a_node12"><a xlink:href="visioncamera_8h.html" target="_top" xlink:title=" ">
<polygon fill="none" stroke="black" points="486,-67.5 486,-86.5 568,-86.5 568,-67.5 486,-67.5"/>
<text text-anchor="middle" x="527" y="-74.5" font-family="Helvetica,sans-Serif" font-size="10.00">visioncamera.h</text>
</a>
</g>
</g>
<!-- Node2&#45;&gt;Node12 -->
<g id="edge11" class="edge">
<title>Node2&#45;&gt;Node12</title>
<path fill="none" stroke="midnightblue" d="M453.14,-123.32C466.87,-114.9 487.94,-101.97 504.06,-92.07"/>
<polygon fill="midnightblue" stroke="midnightblue" points="506.2,-94.87 512.9,-86.65 502.54,-88.9 506.2,-94.87"/>
</g>
<!-- Node15 -->
<g id="node15" class="node">
<title>Node15</title>
<g id="a_node15"><a xlink:href="vision_8inc.html" target="_top" xlink:title=" ">
<polygon fill="none" stroke="black" points="737.5,-67.5 737.5,-86.5 794.5,-86.5 794.5,-67.5 737.5,-67.5"/>
<text text-anchor="middle" x="766" y="-74.5" font-family="Helvetica,sans-Serif" font-size="10.00">vision.inc</text>
</a>
</g>
</g>
<!-- Node2&#45;&gt;Node15 -->
<g id="edge17" class="edge">
<title>Node2&#45;&gt;Node15</title>
<path fill="none" stroke="midnightblue" d="M461.83,-123.45C462.56,-123.3 463.28,-123.15 464,-123 576.62,-100.26 607.15,-108.6 720,-87 722.44,-86.53 724.97,-86.01 727.52,-85.45"/>
<polygon fill="midnightblue" stroke="midnightblue" points="728.46,-88.83 737.45,-83.22 726.93,-82 728.46,-88.83"/>
</g>
<!-- Node12&#45;&gt;Node8 -->
<g id="edge13" class="edge">
<title>Node12&#45;&gt;Node8</title>
<path fill="none" stroke="midnightblue" d="M489.89,-67.48C450.63,-58.46 387.74,-44.01 338.92,-32.79"/>
<polygon fill="midnightblue" stroke="midnightblue" points="339.57,-29.35 329.04,-30.52 338,-36.17 339.57,-29.35"/>
</g>
<!-- Node12&#45;&gt;Node9 -->
<g id="edge14" class="edge">
<title>Node12&#45;&gt;Node9</title>
<path fill="none" stroke="midnightblue" d="M513.25,-67.48C497.63,-57.8 471.94,-41.87 453.42,-30.39"/>
<polygon fill="midnightblue" stroke="midnightblue" points="455.07,-27.3 444.73,-25.01 451.38,-33.25 455.07,-27.3"/>
</g>
<!-- Node12&#45;&gt;Node10 -->
<g id="edge15" class="edge">
<title>Node12&#45;&gt;Node10</title>
<path fill="none" stroke="midnightblue" d="M565.97,-67.48C614.55,-56.85 697.58,-38.68 750.3,-27.15"/>
<polygon fill="midnightblue" stroke="midnightblue" points="751.08,-30.57 760.1,-25.01 749.58,-23.73 751.08,-30.57"/>
</g>
<!-- Node13 -->
<g id="node13" class="node">
<title>Node13</title>
<g id="a_node13"><a xlink:title=" ">
<polygon fill="none" stroke="#bfbfbf" points="601,-6 601,-25 707,-25 707,-6 601,-6"/>
<text text-anchor="middle" x="654" y="-13" font-family="Helvetica,sans-Serif" font-size="10.00">opencv2/opencv.hpp</text>
</a>
</g>
</g>
<!-- Node12&#45;&gt;Node13 -->
<g id="edge12" class="edge">
<title>Node12&#45;&gt;Node13</title>
<path fill="none" stroke="midnightblue" d="M545.2,-67.48C566.51,-57.49 602.03,-40.85 626.66,-29.31"/>
<polygon fill="midnightblue" stroke="midnightblue" points="628.27,-32.42 635.84,-25.01 625.3,-26.08 628.27,-32.42"/>
</g>
<!-- Node14 -->
<g id="node14" class="node">
<title>Node14</title>
<g id="a_node14"><a xlink:title=" ">
<polygon fill="none" stroke="#bfbfbf" points="523,-6 523,-25 583,-25 583,-6 523,-6"/>
<text text-anchor="middle" x="553" y="-13" font-family="Helvetica,sans-Serif" font-size="10.00">wpi/json.h</text>
</a>
</g>
</g>
<!-- Node12&#45;&gt;Node14 -->
<g id="edge16" class="edge">
<title>Node12&#45;&gt;Node14</title>
<path fill="none" stroke="midnightblue" d="M530.73,-67.48C534.47,-58.9 540.36,-45.43 545.14,-34.48"/>
<polygon fill="midnightblue" stroke="midnightblue" points="548.48,-35.57 549.28,-25.01 542.07,-32.77 548.48,-35.57"/>
</g>
<!-- Node15&#45;&gt;Node2 -->
<g id="edge18" class="edge">
<title>Node15&#45;&gt;Node2</title>
<path fill="none" stroke="midnightblue" d="M740.36,-86.54C739.57,-86.7 738.78,-86.85 738,-87 625.15,-108.6 594.62,-100.26 482,-123 479.4,-123.53 476.7,-124.13 473.96,-124.78"/>
<polygon fill="midnightblue" stroke="midnightblue" points="472.92,-121.43 464.03,-127.21 474.58,-128.23 472.92,-121.43"/>
</g>
</g>
</svg>
